<svg xmlns="http://www.w3.org/2000/svg" xmlns:xlink="http://www.w3.org/1999/xlink" height="113pt" version="1.1" viewBox="0 0 141 113" width="141pt">
 <defs>
  <clipPath id="p16f9e740cd">
   <rect height="113.385826772" width="141.732283465" x="0.0" y="0.0"/>
  </clipPath>
 </defs>
<defs>
  <style type="text/css">
*{stroke-linecap:butt;stroke-linejoin:round;}
  </style>
 </defs>
 <g id="figure_1">
  <g id="patch_1">
   <path d=" M0 113.386 L141.732 113.386 L141.732 0 L0 0 z " style="fill:#ffffff;"/>
  </g>
  <g id="axes_1">
   <g id="patch_2">
    <path clip-path="url(#p16f9e740cd)" d=" M61.6744 61.6744 L58.1667 61.1733 L59.67 59.67 L40.3728 40.3728 L40.3728 40.3728 L59.67 59.67 L61.1733 58.1667 z " style="fill:none;stroke:#000000;"/>
   </g>
   <g id="patch_3">
    <path clip-path="url(#p16f9e740cd)" d=" M73.7008 56.6929 L71.5748 53.8583 L73.7008 53.8583 L73.7008 45.3543 L73.7008 45.3543 L73.7008 53.8583 L75.8268 53.8583 z " style="fill:none;stroke:#000000;"/>
   </g>
   <g id="patch_4">
    <path clip-path="url(#p16f9e740cd)" d=" M85.7272 61.6744 L86.2283 58.1667 L87.7316 59.67 L107.029 40.3728 L107.029 40.3728 L87.7316 59.67 L89.2349 61.1733 z " style="fill:none;stroke:#000000;"/>
   </g>
   <g id="patch_5">
    <path clip-path="url(#p16f9e740cd)" d=" M63.0761 60.4199 L59.6451 59.5345 L61.3053 58.2064 L38.9712 30.2888 L38.9712 30.2888 L61.3053 58.2064 L62.9654 56.8783 z " style="fill:none;stroke:#000000;"/>
   </g>
   <g id="patch_6">
    <path clip-path="url(#p16f9e740cd)" d=" M73.7008 90.7087 C78.2113 90.7087 82.5377 88.9166 85.7272 85.7272 C88.9166 82.5377 90.7087 78.2113 90.7087 73.7008 C90.7087 69.1902 88.9166 64.8638 85.7272 61.6744 C82.5377 58.485 78.2113 56.6929 73.7008 56.6929 C69.1902 56.6929 64.8638 58.485 61.6744 61.6744 C58.485 64.8638 56.6929 69.1902 56.6929 73.7008 C56.6929 78.2113 58.485 82.5377 61.6744 85.7272 C64.8638 88.9166 69.1902 90.7087 73.7008 90.7087 z " style="fill:none;stroke:#000000;"/>
   </g>
   <g id="patch_7">
    <path clip-path="url(#p16f9e740cd)" d=" M73.7008 45.3543 C78.2113 45.3543 82.5377 43.5623 85.7272 40.3728 C88.9166 37.1834 90.7087 32.857 90.7087 28.3465 C90.7087 23.8359 88.9166 19.5095 85.7272 16.3201 C82.5377 13.1306 78.2113 11.3386 73.7008 11.3386 C69.1902 11.3386 64.8638 13.1306 61.6744 16.3201 C58.485 19.5095 56.6929 23.8359 56.6929 28.3465 C56.6929 32.857 58.485 37.1834 61.6744 40.3728 C64.8638 43.5623 69.1902 45.3543 73.7008 45.3543 z " style="fill:none;stroke:#000000;"/>
   </g>
   <g id="patch_8">
    <path clip-path="url(#p16f9e740cd)" d=" M28.3465 45.3543 C32.857 45.3543 37.1834 43.5623 40.3728 40.3728 C43.5623 37.1834 45.3543 32.857 45.3543 28.3465 C45.3543 23.8359 43.5623 19.5095 40.3728 16.3201 C37.1834 13.1306 32.857 11.3386 28.3465 11.3386 C23.8359 11.3386 19.5095 13.1306 16.3201 16.3201 C13.1306 19.5095 11.3386 23.8359 11.3386 28.3465 C11.3386 32.857 13.1306 37.1834 16.3201 40.3728 C19.5095 43.5623 23.8359 45.3543 28.3465 45.3543 z " style="fill:none;stroke:#000000;"/>
   </g>
   <g id="patch_9">
    <path clip-path="url(#p16f9e740cd)" d=" M119.055 45.3543 C123.566 45.3543 127.892 43.5623 131.082 40.3728 C134.271 37.1834 136.063 32.857 136.063 28.3465 C136.063 23.8359 134.271 19.5095 131.082 16.3201 C127.892 13.1306 123.566 11.3386 119.055 11.3386 C114.545 11.3386 110.218 13.1306 107.029 16.3201 C103.839 19.5095 102.047 23.8359 102.047 28.3465 C102.047 32.857 103.839 37.1834 107.029 40.3728 C110.218 43.5623 114.545 45.3543 119.055 45.3543 z " style="fill:none;stroke:#000000;"/>
   </g>
   <g id="patch_10">
    <path clip-path="url(#p16f9e740cd)" d=" M28.3465 34.0157 C32.857 34.0157 37.1834 32.2237 40.3728 29.0343 C43.5623 25.8448 45.3543 21.5184 45.3543 17.0079 C45.3543 12.4973 43.5623 8.17093 40.3728 4.98149 C37.1834 1.79206 32.857 -1.42109e-14 28.3465 -1.42109e-14 C23.8359 -1.42109e-14 19.5095 1.79206 16.3201 4.98149 C13.1306 8.17093 11.3386 12.4973 11.3386 17.0079 C11.3386 21.5184 13.1306 25.8448 16.3201 29.0343 C19.5095 32.2237 23.8359 34.0157 28.3465 34.0157 z " style="fill:none;stroke:#000000;"/>
   </g>
   <g id="matplotlib.axis_1"/>
   <g id="matplotlib.axis_2"/>
   <g id="text_1">
    <!-- $Y$ -->
    <defs>
     <path d=" M77.4062 66.2031 L43 28.7969 L35.7969 0 L27.0938 0 L34.2031 28.7969 L18.5938 66.2031 L28.0938 66.2031 L40.5 36.2031 L67.9062 66.2031 z " id="STIXGeneral-Italic-1d620"/>
    </defs>
    <g transform="translate(68.0307874016 78.6676624016)scale(0.18 -0.18)">
     <use transform="translate(0.0 0.796875)" xlink:href="#STIXGeneral-Italic-1d620"/>
    </g>
   </g>
   <g id="text_2">
    <!-- $\dots$ -->
    <defs>
     <path d=" M-18.0938 57.2031 Q-18.0938 55.0938 -19.5469 53.6875 Q-21 52.2969 -23.0938 52.2969 Q-25.0938 52.2969 -26.5469 53.75 Q-28 55.2031 -28 57.2031 Q-28 59.2969 -26.6406 60.75 Q-25.2969 62.2031 -23.0938 62.2031 Q-20.7969 62.2031 -19.4375 60.7969 Q-18.0938 59.4062 -18.0938 57.2031" id="STIXGeneral-Regular-307"/>
     <path d=" M43.2031 41 L41 32.0938 L39.5 32.0938 Q37.7969 36.5 35.2969 37.8906 Q32.7969 39.2969 28.8906 39.2969 Q25 39.2969 23.0469 37.1406 Q21.0938 35 21.0938 33 Q21.0938 31 22.7969 29.5469 Q24.5 28.0938 27.7969 26.5 Q33.7969 23.5938 36.1406 21.3438 Q38.5 19.0938 38.5 15.7969 Q38.5 9 32.8906 4 Q27.2969 -1 18.5938 -1 Q14.0938 -1 11.3906 0.296875 Q8.70312 1.59375 6.09375 4.5 L8.59375 14.7969 L10.0938 14.7969 Q11.9062 6.09375 21 6.09375 Q24.4062 6.09375 27.2969 7.84375 Q30.2031 9.59375 30.2031 12.7969 Q30.2031 14.2969 28.5938 15.6406 Q27 17 23.2031 18.9062 Q17.7031 21.5938 15.25 24.25 Q12.7969 26.9062 12.7969 30.2969 Q12.7969 36.5 18 41.3906 Q23.2031 46.2969 30.9062 46.2969 Q39.5938 46.2969 43.2031 41" id="STIXGeneral-Italic-1d634"/>
    </defs>
    <g transform="translate(70.1907874016 33.3133316929)scale(0.18 -0.18)">
     <use transform="translate(42.0 6.796875)" xlink:href="#STIXGeneral-Regular-307"/>
     <use transform="translate(0.0 0.296875)" xlink:href="#STIXGeneral-Italic-1d634"/>
    </g>
   </g>
   <g id="text_3">
    <!-- $x_1$ -->
    <defs>
     <path d=" M54.4062 45.2969 L34.4062 23.5938 L45.2031 0 L35.7969 0 L27.9062 17.5 L12.4062 0 L3 0 L25 23.9062 L15.4062 45.2969 L24.7969 45.2969 L31.5938 30.2031 L45 45.2969 z " id="STIXGeneral-Italic-1d639"/>
     <path d=" M30.2031 0 L22.2969 0 L22.2969 57 Q20.0938 56 15.75 53.75 Q11.4062 51.5 10.7969 51.2031 L10.7969 58.5 L28.7969 67.7031 L30.2031 67.2031 z " id="STIXGeneral-Regular-1d7e3"/>
    </defs>
    <g transform="translate(19.4364566929 33.3133316929)scale(0.18 -0.18)">
     <use transform="translate(0.0 0.703125)" xlink:href="#STIXGeneral-Italic-1d639"/>
     <use transform="translate(48.1999969482 -12.8859375)scale(0.7)" xlink:href="#STIXGeneral-Regular-1d7e3"/>
    </g>
   </g>
   <g id="text_4">
    <!-- $x_n$ -->
    <defs>
     <path d=" M25.0938 45.9062 L23.9062 40.2031 Q28.4062 43.7969 32.2031 45.0469 Q36 46.2969 40.5 46.2969 Q45.2031 46.2969 48.0938 43.75 Q51 41.2031 51 37.2031 Q51 34.7969 50.4062 32.0938 L42.4062 0 L34.5 0 L42 30.4062 Q42.5 32.5938 42.5 33.9062 Q42.5 39.2031 36 39.2031 Q33.0938 39.2031 28.6406 36.7031 Q24.2031 34.2031 21.7031 30.2031 L14.2031 0 L6.29688 0 L17.2031 44 L24.2969 46.4062 z " id="STIXGeneral-Italic-1d62f"/>
    </defs>
    <g transform="translate(110.32511811 33.3133316929)scale(0.18 -0.18)">
     <use transform="translate(0.0 0.703125)" xlink:href="#STIXGeneral-Italic-1d639"/>
     <use transform="translate(48.1999969482 -12.8859375)scale(0.7)" xlink:href="#STIXGeneral-Italic-1d62f"/>
    </g>
   </g>
   <g id="text_5">
    <!-- $A$ -->
    <defs>
     <path d=" M63.5 0 L53.9062 0 L50.5938 20 L25.7031 20 L12.7031 0 L3.09375 0 L48.7969 67.4062 L51.4062 67.4062 z  M49.5 27.4062 L45.7969 50.2969 L30.7031 27.4062 z " id="STIXGeneral-Italic-1d608"/>
    </defs>
    <g transform="translate(22.3164566929 21.9747490157)scale(0.18 -0.18)">
     <use transform="translate(0.0 0.59375)" xlink:href="#STIXGeneral-Italic-1d608"/>
    </g>
   </g>
  </g>
 </g>
 </svg>
