<svg xmlns="http://www.w3.org/2000/svg" xmlns:xlink="http://www.w3.org/1999/xlink" height="113pt" version="1.1" viewBox="0 0 113 113" width="113pt">
 <defs>
  <clipPath id="p76a90234e1">
   <rect height="113.385826772" width="113.385826772" x="0.0" y="0.0"/>
  </clipPath>
 </defs>
<defs>
  <style type="text/css">
*{stroke-linecap:butt;stroke-linejoin:round;}
  </style>
 </defs>
 <g id="figure_1">
  <g id="patch_1">
   <path d=" M0 113.386 L113.386 113.386 L113.386 0 L0 0 z " style="fill:#ffffff;"/>
  </g>
  <g id="axes_1">
   <g id="patch_2">
    <path clip-path="url(#p76a90234e1)" d=" M68.0315 28.3465 L65.1969 30.4724 L65.1969 28.3465 L45.3543 28.3465 L45.3543 28.3465 L65.1969 28.3465 L65.1969 26.2205 z " style="fill:none;stroke:#000000;"/>
   </g>
   <g id="patch_3">
    <path clip-path="url(#p76a90234e1)" d=" M73.013 73.013 L69.5053 72.5119 L71.0086 71.0086 L40.3728 40.3728 L40.3728 40.3728 L71.0086 71.0086 L72.5119 69.5053 z " style="fill:none;stroke:#000000;"/>
   </g>
   <g id="patch_4">
    <path clip-path="url(#p76a90234e1)" d=" M68.0315 85.0394 L65.1969 87.1654 L65.1969 85.0394 L45.3543 85.0394 L45.3543 85.0394 L65.1969 85.0394 L65.1969 82.9134 z " style="fill:none;stroke:#000000;"/>
   </g>
   <g id="patch_5">
    <path clip-path="url(#p76a90234e1)" d=" M85.0394 102.047 C89.5499 102.047 93.8763 100.255 97.0658 97.0658 C100.255 93.8763 102.047 89.5499 102.047 85.0394 C102.047 80.5288 100.255 76.2024 97.0658 73.013 C93.8763 69.8236 89.5499 68.0315 85.0394 68.0315 C80.5288 68.0315 76.2024 69.8236 73.013 73.013 C69.8236 76.2024 68.0315 80.5288 68.0315 85.0394 C68.0315 89.5499 69.8236 93.8763 73.013 97.0658 C76.2024 100.255 80.5288 102.047 85.0394 102.047 z " style="fill:none;stroke:#000000;"/>
   </g>
   <g id="patch_6">
    <path clip-path="url(#p76a90234e1)" d=" M85.0394 45.3543 C89.5499 45.3543 93.8763 43.5623 97.0658 40.3728 C100.255 37.1834 102.047 32.857 102.047 28.3465 C102.047 23.8359 100.255 19.5095 97.0658 16.3201 C93.8763 13.1306 89.5499 11.3386 85.0394 11.3386 C80.5288 11.3386 76.2024 13.1306 73.013 16.3201 C69.8236 19.5095 68.0315 23.8359 68.0315 28.3465 C68.0315 32.857 69.8236 37.1834 73.013 40.3728 C76.2024 43.5623 80.5288 45.3543 85.0394 45.3543 z " style="fill:none;stroke:#000000;"/>
   </g>
   <g id="patch_7">
    <path clip-path="url(#p76a90234e1)" d=" M28.3465 45.3543 C32.857 45.3543 37.1834 43.5623 40.3728 40.3728 C43.5623 37.1834 45.3543 32.857 45.3543 28.3465 C45.3543 23.8359 43.5623 19.5095 40.3728 16.3201 C37.1834 13.1306 32.857 11.3386 28.3465 11.3386 C23.8359 11.3386 19.5095 13.1306 16.3201 16.3201 C13.1306 19.5095 11.3386 23.8359 11.3386 28.3465 C11.3386 32.857 13.1306 37.1834 16.3201 40.3728 C19.5095 43.5623 23.8359 45.3543 28.3465 45.3543 z " style="fill:none;stroke:#000000;"/>
   </g>
   <g id="patch_8">
    <path clip-path="url(#p76a90234e1)" d=" M28.3465 102.047 C32.857 102.047 37.1834 100.255 40.3728 97.0658 C43.5623 93.8763 45.3543 89.5499 45.3543 85.0394 C45.3543 80.5288 43.5623 76.2024 40.3728 73.013 C37.1834 69.8236 32.857 68.0315 28.3465 68.0315 C23.8359 68.0315 19.5095 69.8236 16.3201 73.013 C13.1306 76.2024 11.3386 80.5288 11.3386 85.0394 C11.3386 89.5499 13.1306 93.8763 16.3201 97.0658 C19.5095 100.255 23.8359 102.047 28.3465 102.047 z " style="fill:none;stroke:#000000;"/>
   </g>
   <g id="matplotlib.axis_1"/>
   <g id="matplotlib.axis_2"/>
   <g id="text_1">
    <!-- T' -->
    <defs>
     <path d=" M-0.296875 72.9062 L61.375 72.9062 L61.375 64.5938 L35.5 64.5938 L35.5 0 L25.5938 0 L25.5938 64.5938 L-0.296875 64.5938 z " id="BitstreamVeraSans-Roman-54"/>
     <path d=" M17.9219 72.9062 L17.9219 45.7969 L9.625 45.7969 L9.625 72.9062 z " id="BitstreamVeraSans-Roman-27"/>
    </defs>
    <g transform="translate(77.9026513287 90.0062450787)scale(0.18 -0.18)">
     <use xlink:href="#BitstreamVeraSans-Roman-54"/>
     <use x="61.083984375" xlink:href="#BitstreamVeraSans-Roman-27"/>
    </g>
   </g>
   <g id="text_2">
    <!-- S -->
    <defs>
     <path d=" M53.5156 70.5156 L53.5156 60.8906 Q47.9062 63.5781 42.9219 64.8906 Q37.9375 66.2188 33.2969 66.2188 Q25.25 66.2188 20.875 63.0938 Q16.5 59.9688 16.5 54.2031 Q16.5 49.3594 19.4062 46.8906 Q22.3125 44.4375 30.4219 42.9219 L36.375 41.7031 Q47.4062 39.5938 52.6562 34.2969 Q57.9062 29 57.9062 20.125 Q57.9062 9.51562 50.7969 4.04688 Q43.7031 -1.42188 29.9844 -1.42188 Q24.8125 -1.42188 18.9688 -0.25 Q13.1406 0.921875 6.89062 3.21875 L6.89062 13.375 Q12.8906 10.0156 18.6562 8.29688 Q24.4219 6.59375 29.9844 6.59375 Q38.4219 6.59375 43.0156 9.90625 Q47.6094 13.2344 47.6094 19.3906 Q47.6094 24.75 44.3125 27.7812 Q41.0156 30.8125 33.5 32.3281 L27.4844 33.5 Q16.4531 35.6875 11.5156 40.375 Q6.59375 45.0625 6.59375 53.4219 Q6.59375 63.0938 13.4062 68.6562 Q20.2188 74.2188 32.1719 74.2188 Q37.3125 74.2188 42.625 73.2812 Q47.9531 72.3594 53.5156 70.5156" id="BitstreamVeraSans-Roman-53"/>
    </defs>
    <g transform="translate(80.4212450787 33.3133316929)scale(0.18 -0.18)">
     <use xlink:href="#BitstreamVeraSans-Roman-53"/>
    </g>
   </g>
   <g id="text_3">
    <!-- T -->
    <g transform="translate(22.7959879429 33.3133316929)scale(0.18 -0.18)">
     <use xlink:href="#BitstreamVeraSans-Roman-54"/>
    </g>
   </g>
   <g id="text_4">
    <!-- O -->
    <defs>
     <path d=" M39.4062 66.2188 Q28.6562 66.2188 22.3281 58.2031 Q16.0156 50.2031 16.0156 36.375 Q16.0156 22.6094 22.3281 14.5938 Q28.6562 6.59375 39.4062 6.59375 Q50.1406 6.59375 56.4219 14.5938 Q62.7031 22.6094 62.7031 36.375 Q62.7031 50.2031 56.4219 58.2031 Q50.1406 66.2188 39.4062 66.2188 M39.4062 74.2188 Q54.7344 74.2188 63.9062 63.9375 Q73.0938 53.6562 73.0938 36.375 Q73.0938 19.1406 63.9062 8.85938 Q54.7344 -1.42188 39.4062 -1.42188 Q24.0312 -1.42188 14.8125 8.82812 Q5.60938 19.0938 5.60938 36.375 Q5.60938 53.6562 14.8125 63.9375 Q24.0312 74.2188 39.4062 74.2188" id="BitstreamVeraSans-Roman-4f"/>
    </defs>
    <g transform="translate(22.2728629429 90.0062450787)scale(0.18 -0.18)">
     <use xlink:href="#BitstreamVeraSans-Roman-4f"/>
    </g>
   </g>
  </g>
 </g>
 </svg>
