<svg xmlns="http://www.w3.org/2000/svg" xmlns:xlink="http://www.w3.org/1999/xlink" height="170pt" version="1.1" viewBox="0 0 226 170" width="226pt">
 <defs>
  <clipPath id="pb4929fe270">
   <rect height="170.078740157" width="226.771653543" x="0.0" y="0.0"/>
  </clipPath>
 </defs>
<defs>
  <style type="text/css">
*{stroke-linecap:butt;stroke-linejoin:round;}
  </style>
 </defs>
 <g id="figure_1">
  <g id="patch_1">
   <path d=" M0 170.079 L226.772 170.079 L226.772 0 L0 0 z " style="fill:#ffffff;"/>
  </g>
  <g id="axes_1">
   <g id="patch_2">
    <path clip-path="url(#pb4929fe270)" d=" M74.8346 60.0945 L71.4331 59.1024 L73.1339 57.8268 L61.2283 41.9528 L61.2283 41.9528 L73.1339 57.8268 L74.8346 56.5512 z " style="fill:none;stroke:#000000;"/>
   </g>
   <g id="patch_3">
    <path clip-path="url(#pb4929fe270)" d=" M95.2441 60.0945 L95.2441 56.5512 L96.9449 57.8268 L108.85 41.9528 L108.85 41.9528 L96.9449 57.8268 L98.6457 59.1024 z " style="fill:none;stroke:#000000;"/>
   </g>
   <g id="patch_4">
    <path clip-path="url(#pb4929fe270)" d=" M142.866 60.0945 L139.465 59.1024 L141.165 57.8268 L129.26 41.9528 L129.26 41.9528 L141.165 57.8268 L142.866 56.5512 z " style="fill:none;stroke:#000000;"/>
   </g>
   <g id="patch_5">
    <path clip-path="url(#pb4929fe270)" d=" M85.0394 113.386 L82.9134 110.551 L85.0394 110.551 L85.0394 90.7087 L85.0394 90.7087 L85.0394 110.551 L87.1654 110.551 z " style="fill:none;stroke:#000000;"/>
   </g>
   <g id="patch_6">
    <path clip-path="url(#pb4929fe270)" d=" M119.055 45.3543 C123.566 45.3543 127.892 43.5623 131.082 40.3728 C134.271 37.1834 136.063 32.857 136.063 28.3465 C136.063 23.8359 134.271 19.5095 131.082 16.3201 C127.892 13.1306 123.566 11.3386 119.055 11.3386 C114.545 11.3386 110.218 13.1306 107.029 16.3201 C103.839 19.5095 102.047 23.8359 102.047 28.3465 C102.047 32.857 103.839 37.1834 107.029 40.3728 C110.218 43.5623 114.545 45.3543 119.055 45.3543 z " style="fill:none;stroke:#000000;"/>
   </g>
   <g id="patch_7">
    <path clip-path="url(#pb4929fe270)" d=" M153.071 90.7087 C157.581 90.7087 161.908 88.9166 165.097 85.7272 C168.287 82.5377 170.079 78.2113 170.079 73.7008 C170.079 69.1902 168.287 64.8638 165.097 61.6744 C161.908 58.485 157.581 56.6929 153.071 56.6929 C148.56 56.6929 144.234 58.485 141.044 61.6744 C137.855 64.8638 136.063 69.1902 136.063 73.7008 C136.063 78.2113 137.855 82.5377 141.044 85.7272 C144.234 88.9166 148.56 90.7087 153.071 90.7087 z " style="fill:none;stroke:#000000;"/>
   </g>
   <g id="patch_8">
    <path clip-path="url(#pb4929fe270)" d=" M51.0236 45.3543 C55.5342 45.3543 59.8606 43.5623 63.05 40.3728 C66.2394 37.1834 68.0315 32.857 68.0315 28.3465 C68.0315 23.8359 66.2394 19.5095 63.05 16.3201 C59.8606 13.1306 55.5342 11.3386 51.0236 11.3386 C46.5131 11.3386 42.1867 13.1306 38.9972 16.3201 C35.8078 19.5095 34.0157 23.8359 34.0157 28.3465 C34.0157 32.857 35.8078 37.1834 38.9972 40.3728 C42.1867 43.5623 46.5131 45.3543 51.0236 45.3543 z " style="fill:none;stroke:#000000;"/>
   </g>
   <g id="patch_9">
    <path clip-path="url(#pb4929fe270)" d=" M85.0394 90.7087 C89.5499 90.7087 93.8763 88.9166 97.0658 85.7272 C100.255 82.5377 102.047 78.2113 102.047 73.7008 C102.047 69.1902 100.255 64.8638 97.0658 61.6744 C93.8763 58.485 89.5499 56.6929 85.0394 56.6929 C80.5288 56.6929 76.2024 58.485 73.013 61.6744 C69.8236 64.8638 68.0315 69.1902 68.0315 73.7008 C68.0315 78.2113 69.8236 82.5377 73.013 85.7272 C76.2024 88.9166 80.5288 90.7087 85.0394 90.7087 z " style="fill:none;stroke:#000000;"/>
   </g>
   <g id="patch_10">
    <path clip-path="url(#pb4929fe270)" d=" M85.0394 147.402 C89.5499 147.402 93.8763 145.61 97.0658 142.42 C100.255 139.231 102.047 134.904 102.047 130.394 C102.047 125.883 100.255 121.557 97.0658 118.367 C93.8763 115.178 89.5499 113.386 85.0394 113.386 C80.5288 113.386 76.2024 115.178 73.013 118.367 C69.8236 121.557 68.0315 125.883 68.0315 130.394 C68.0315 134.904 69.8236 139.231 73.013 142.42 C76.2024 145.61 80.5288 147.402 85.0394 147.402 z " style="fill:none;stroke:#000000;"/>
   </g>
   <g id="matplotlib.axis_1"/>
   <g id="matplotlib.axis_2"/>
   <g id="text_1">
    <!-- $P(I)$ -->
    <defs>
     <path d=" M23.9062 66.2031 L42.2969 66.2031 Q63.7969 66.2031 63.7969 52.9062 Q63.7969 42.7031 55.6875 35.5938 Q47.5938 28.5 35.2031 28.5 L23.2031 28.5 L16.0938 0 L7.40625 0 z  M25 35.9062 L33.7969 35.9062 Q44.2969 35.9062 49.5 39.9531 Q54.7031 44 54.7031 50.7969 Q54.7031 58.7969 39 58.7969 L30.7031 58.7969 z " id="STIXGeneral-Italic-1d617"/>
     <path d=" M51.2031 66.2031 L50.2031 58.7969 L39.0938 58.7969 L26.2969 7.40625 L37.4062 7.40625 L34.7031 0 L5.90625 0 L6.29688 7.40625 L17.4062 7.40625 L30.2031 58.7969 L19.0938 58.7969 L22.4062 66.2031 z " id="STIXGeneral-Italic-1d610"/>
     <path d=" M30.4062 -16.0938 L29.2031 -17.7031 Q17.5938 -11.0938 11.1875 0.5 Q4.79688 12.0938 4.79688 25.2031 Q4.79688 52.9062 29.5 67.5938 L30.4062 66 Q20.2031 57.2969 16.7969 48.8438 Q13.4062 40.4062 13.4062 25.5 Q13.4062 10.7031 16.9062 1.5 Q20.4062 -7.70312 30.4062 -16.0938" id="STIXGeneral-Regular-28"/>
     <path d=" M2.90625 66 L4.09375 67.5938 Q15.5 60.7969 22 49.1875 Q28.5 37.5938 28.5 24.7031 Q28.5 -2.59375 3.79688 -17.7031 L2.90625 -16.0938 Q13.2031 -7.59375 16.5469 0.84375 Q19.9062 9.29688 19.9062 24.4062 Q19.9062 39.5938 16.5469 48.75 Q13.2031 57.9062 2.90625 66" id="STIXGeneral-Regular-29"/>
    </defs>
    <g transform="translate(110.25511811 31.3817691929)scale(0.11 -0.11)">
     <use transform="translate(0.0 0.40625)" xlink:href="#STIXGeneral-Italic-1d617"/>
     <use transform="translate(52.4999847412 0.40625)" xlink:href="#STIXGeneral-Regular-28"/>
     <use transform="translate(85.7999725342 0.40625)" xlink:href="#STIXGeneral-Italic-1d610"/>
     <use transform="translate(125.899963379 0.40625)" xlink:href="#STIXGeneral-Regular-29"/>
    </g>
   </g>
   <g id="text_2">
    <!-- $P(S|I)$ -->
    <defs>
     <path d=" M13.2969 -1.40625 L6.70312 -1.40625 L6.70312 67.5938 L13.2969 67.5938 z " id="STIXGeneral-Regular-7c"/>
     <path d=" M59.7031 59.5938 L56.7031 47.7031 L54.7969 47.7031 Q53.9062 53.7031 49.9062 56.8438 Q45.9062 60 40.0938 60 Q35 60 30.9531 56.5 Q26.9062 53 26.9062 48.7969 Q26.9062 42.9062 38.0938 37.7969 Q46 34.2969 49.4531 30.5938 Q52.9062 26.9062 52.9062 21.9062 Q52.9062 11.5 44.6562 5.04688 Q36.4062 -1.40625 25.4062 -1.40625 Q10.9062 -1.40625 6.20312 7 L8.29688 20.5 L10.0938 20.5 Q11.5 13.2031 16.3438 9.70312 Q21.2031 6.20312 26.9062 6.20312 Q34.2969 6.20312 38.8906 9.75 Q43.5 13.2969 43.5 18.5938 Q43.5 21.9062 41.1406 24.3438 Q38.7969 26.7969 33.5938 29.0938 Q25.4062 32.7969 21.6562 36.6406 Q17.9062 40.5 17.9062 45.5938 Q17.9062 55 25.3438 61.2969 Q32.7969 67.5938 42.5 67.5938 Q54.9062 67.5938 59.7031 59.5938" id="STIXGeneral-Italic-1d61a"/>
    </defs>
    <g transform="translate(140.200866142 76.7360999016)scale(0.11 -0.11)">
     <use transform="translate(0.0 0.40625)" xlink:href="#STIXGeneral-Italic-1d617"/>
     <use transform="translate(52.4999847412 0.40625)" xlink:href="#STIXGeneral-Regular-28"/>
     <use transform="translate(85.7999725342 0.40625)" xlink:href="#STIXGeneral-Italic-1d61a"/>
     <use transform="translate(139.899963379 0.40625)" xlink:href="#STIXGeneral-Regular-7c"/>
     <use transform="translate(159.89994812 0.40625)" xlink:href="#STIXGeneral-Italic-1d610"/>
     <use transform="translate(199.999938965 0.40625)" xlink:href="#STIXGeneral-Regular-29"/>
    </g>
   </g>
   <g id="text_3">
    <!-- $P(D)$ -->
    <defs>
     <path d=" M23.9062 66.2031 L40.5 66.2031 Q75.0938 66.2031 75.0938 42.9062 Q75.0938 35.2031 72 27.6406 Q68.9062 20.0938 63.25 13.8906 Q57.5938 7.70312 48.6406 3.84375 Q39.7031 0 28.9062 0 L7.40625 0 z  M17.9062 7.40625 L22.7969 7.40625 Q32.2031 7.40625 37.5 8.15625 Q42.7969 8.90625 48.2031 11.4062 Q56.2031 15.0938 61.0469 23.1406 Q65.9062 31.2031 65.9062 40.9062 Q65.9062 58.7969 36.7031 58.7969 L30.7031 58.7969 z " id="STIXGeneral-Italic-1d60b"/>
    </defs>
    <g transform="translate(40.6286220472 31.3817691929)scale(0.11 -0.11)">
     <use transform="translate(0.0 0.40625)" xlink:href="#STIXGeneral-Italic-1d617"/>
     <use transform="translate(52.4999847412 0.40625)" xlink:href="#STIXGeneral-Regular-28"/>
     <use transform="translate(85.7999725342 0.40625)" xlink:href="#STIXGeneral-Italic-1d60b"/>
     <use transform="translate(154.999954224 0.40625)" xlink:href="#STIXGeneral-Regular-29"/>
    </g>
   </g>
   <g id="text_4">
    <!-- $P(G\,|D,I)$ -->
    <defs>
     <path d=" M75.5 56.5 L73 46.2031 L71.0938 46.2031 Q67.9062 60 52.2031 60 Q42.7969 60 35.0469 54.9531 Q27.2969 49.9062 23.1406 42.2031 Q19 34.5 19 26.2031 Q19 17.5 24.2031 11.8438 Q29.4062 6.20312 39.4062 6.20312 Q47.7031 6.20312 52.0469 8 Q56.4062 9.79688 57 12.2969 L61 28.0938 L52.0938 28.0938 L52.0938 35.7031 L71.5938 35.7031 L64.0938 5.90625 Q59.5938 3.29688 57.1875 2.1875 Q54.7969 1.09375 49.3438 -0.15625 Q43.9062 -1.40625 37.0938 -1.40625 Q24.2031 -1.40625 16.9531 5.34375 Q9.70312 12.0938 9.70312 23.4062 Q9.70312 32.0938 13.3438 40.25 Q17 48.4062 23.0469 54.4062 Q29.0938 60.4062 37.2969 64 Q45.5 67.5938 54.0938 67.5938 Q70.5938 67.5938 75.5 56.5" id="STIXGeneral-Italic-1d60e"/>
     <path d=" M8.29688 -14.0938 L7.29688 -12.2031 Q15.5938 -6.59375 15.5938 -1.5 Q15.5938 -0.203125 14.2031 -0.203125 Q13.7969 -0.203125 12.8438 -0.390625 Q11.9062 -0.59375 11.2969 -0.59375 Q5.5 -0.59375 5.5 4.5 Q5.5 7.09375 7.14062 8.64062 Q8.79688 10.2031 11.5 10.2031 Q14.9062 10.2031 17.2031 7.75 Q19.5 5.29688 19.5 1.5 Q19.5 -3.09375 16.4531 -7.39062 Q13.4062 -11.7031 8.29688 -14.0938" id="STIXGeneral-Regular-2c"/>
    </defs>
    <g transform="translate(68.0293700787 76.1842249016)scale(0.09 -0.09)">
     <use transform="translate(0.0 0.40625)" xlink:href="#STIXGeneral-Italic-1d617"/>
     <use transform="translate(52.4999847412 0.40625)" xlink:href="#STIXGeneral-Regular-28"/>
     <use transform="translate(85.7999725342 0.40625)" xlink:href="#STIXGeneral-Italic-1d60e"/>
     <use transform="translate(185.539953613 0.40625)" xlink:href="#STIXGeneral-Regular-7c"/>
     <use transform="translate(205.539938354 0.40625)" xlink:href="#STIXGeneral-Italic-1d60b"/>
     <use transform="translate(274.739920044 0.40625)" xlink:href="#STIXGeneral-Regular-2c"/>
     <use transform="translate(303.859918213 0.40625)" xlink:href="#STIXGeneral-Italic-1d610"/>
     <use transform="translate(343.959909058 0.40625)" xlink:href="#STIXGeneral-Regular-29"/>
    </g>
   </g>
   <g id="text_5">
    <!-- $P(L|G)$ -->
    <defs>
     <path d=" M56.4062 7.40625 L52.7969 0 L7.40625 0 L23.9062 66.2031 L32.5938 66.2031 L17.9062 7.40625 z " id="STIXGeneral-Italic-1d613"/>
    </defs>
    <g transform="translate(71.7893700787 133.153075787)scale(0.1 -0.1)">
     <use transform="translate(0.0 0.40625)" xlink:href="#STIXGeneral-Italic-1d617"/>
     <use transform="translate(52.4999847412 0.40625)" xlink:href="#STIXGeneral-Regular-28"/>
     <use transform="translate(85.7999725342 0.40625)" xlink:href="#STIXGeneral-Italic-1d613"/>
     <use transform="translate(141.699966431 0.40625)" xlink:href="#STIXGeneral-Regular-7c"/>
     <use transform="translate(161.699951172 0.40625)" xlink:href="#STIXGeneral-Italic-1d60e"/>
     <use transform="translate(231.199935913 0.40625)" xlink:href="#STIXGeneral-Regular-29"/>
    </g>
   </g>
  </g>
 </g>
 </svg>
