<svg xmlns="http://www.w3.org/2000/svg" xmlns:xlink="http://www.w3.org/1999/xlink" height="170pt" version="1.1" viewBox="0 0 226 170" width="226pt">
 <defs>
  <clipPath id="pb4929fe270">
   <rect height="170.078740157" width="226.771653543" x="0.0" y="0.0"/>
  </clipPath>
 </defs>
<defs>
  <style type="text/css">
*{stroke-linecap:butt;stroke-linejoin:round;}
  </style>
 </defs>
 <g id="figure_1">
  <g id="patch_1">
   <path d=" M0 170.079 L226.772 170.079 L226.772 0 L0 0 z " style="fill:#ffffff;"/>
  </g>
  <g id="axes_1">
   <g id="patch_2">
    <path clip-path="url(#pb4929fe270)" d=" M74.8346 60.0945 L71.4331 59.1024 L73.1339 57.8268 L61.2283 41.9528 L61.2283 41.9528 L73.1339 57.8268 L74.8346 56.5512 z " style="fill:none;stroke:#000000;"/>
   </g>
   <g id="patch_3">
    <path clip-path="url(#pb4929fe270)" d=" M95.2441 60.0945 L95.2441 56.5512 L96.9449 57.8268 L108.85 41.9528 L108.85 41.9528 L96.9449 57.8268 L98.6457 59.1024 z " style="fill:none;stroke:#000000;"/>
   </g>
   <g id="patch_4">
    <path clip-path="url(#pb4929fe270)" d=" M142.866 60.0945 L139.465 59.1024 L141.165 57.8268 L129.26 41.9528 L129.26 41.9528 L141.165 57.8268 L142.866 56.5512 z " style="fill:none;stroke:#000000;"/>
   </g>
   <g id="patch_5">
    <path clip-path="url(#pb4929fe270)" d=" M85.0394 113.386 L82.9134 110.551 L85.0394 110.551 L85.0394 90.7087 L85.0394 90.7087 L85.0394 110.551 L87.1654 110.551 z " style="fill:none;stroke:#000000;"/>
   </g>
   <g id="patch_6">
    <path clip-path="url(#pb4929fe270)" d=" M68.0315 28.3465 L70.8661 26.2205 L70.8661 28.3465 L102.047 28.3465 L102.047 28.3465 L70.8661 28.3465 L70.8661 30.4724 z " style="fill:none;stroke:#000000;"/>
   </g>
   <g id="patch_7">
    <path clip-path="url(#pb4929fe270)" d=" M119.055 45.3543 C123.566 45.3543 127.892 43.5623 131.082 40.3728 C134.271 37.1834 136.063 32.857 136.063 28.3465 C136.063 23.8359 134.271 19.5095 131.082 16.3201 C127.892 13.1306 123.566 11.3386 119.055 11.3386 C114.545 11.3386 110.218 13.1306 107.029 16.3201 C103.839 19.5095 102.047 23.8359 102.047 28.3465 C102.047 32.857 103.839 37.1834 107.029 40.3728 C110.218 43.5623 114.545 45.3543 119.055 45.3543 z " style="fill:none;stroke:#000000;"/>
   </g>
   <g id="patch_8">
    <path clip-path="url(#pb4929fe270)" d=" M153.071 90.7087 C157.581 90.7087 161.908 88.9166 165.097 85.7272 C168.287 82.5377 170.079 78.2113 170.079 73.7008 C170.079 69.1902 168.287 64.8638 165.097 61.6744 C161.908 58.485 157.581 56.6929 153.071 56.6929 C148.56 56.6929 144.234 58.485 141.044 61.6744 C137.855 64.8638 136.063 69.1902 136.063 73.7008 C136.063 78.2113 137.855 82.5377 141.044 85.7272 C144.234 88.9166 148.56 90.7087 153.071 90.7087 z " style="fill:none;stroke:#000000;"/>
   </g>
   <g id="patch_9">
    <path clip-path="url(#pb4929fe270)" d=" M51.0236 45.3543 C55.5342 45.3543 59.8606 43.5623 63.05 40.3728 C66.2394 37.1834 68.0315 32.857 68.0315 28.3465 C68.0315 23.8359 66.2394 19.5095 63.05 16.3201 C59.8606 13.1306 55.5342 11.3386 51.0236 11.3386 C46.5131 11.3386 42.1867 13.1306 38.9972 16.3201 C35.8078 19.5095 34.0157 23.8359 34.0157 28.3465 C34.0157 32.857 35.8078 37.1834 38.9972 40.3728 C42.1867 43.5623 46.5131 45.3543 51.0236 45.3543 z " style="fill:none;stroke:#000000;"/>
   </g>
   <g id="patch_10">
    <path clip-path="url(#pb4929fe270)" d=" M85.0394 90.7087 C89.5499 90.7087 93.8763 88.9166 97.0658 85.7272 C100.255 82.5377 102.047 78.2113 102.047 73.7008 C102.047 69.1902 100.255 64.8638 97.0658 61.6744 C93.8763 58.485 89.5499 56.6929 85.0394 56.6929 C80.5288 56.6929 76.2024 58.485 73.013 61.6744 C69.8236 64.8638 68.0315 69.1902 68.0315 73.7008 C68.0315 78.2113 69.8236 82.5377 73.013 85.7272 C76.2024 88.9166 80.5288 90.7087 85.0394 90.7087 z " style="fill:none;stroke:#000000;"/>
   </g>
   <g id="patch_11">
    <path clip-path="url(#pb4929fe270)" d=" M85.0394 147.402 C89.5499 147.402 93.8763 145.61 97.0658 142.42 C100.255 139.231 102.047 134.904 102.047 130.394 C102.047 125.883 100.255 121.557 97.0658 118.367 C93.8763 115.178 89.5499 113.386 85.0394 113.386 C80.5288 113.386 76.2024 115.178 73.013 118.367 C69.8236 121.557 68.0315 125.883 68.0315 130.394 C68.0315 134.904 69.8236 139.231 73.013 142.42 C76.2024 145.61 80.5288 147.402 85.0394 147.402 z " style="fill:none;stroke:#000000;"/>
   </g>
   <g id="matplotlib.axis_1"/>
   <g id="matplotlib.axis_2"/>
   <g id="text_1">
    <!-- I -->
    <defs>
     <path d=" M9.8125 72.9062 L19.6719 72.9062 L19.6719 0 L9.8125 0 z " id="BitstreamVeraSans-Roman-49"/>
    </defs>
    <g transform="translate(118.16777436 33.3133316929)scale(0.18 -0.18)">
     <use xlink:href="#BitstreamVeraSans-Roman-49"/>
    </g>
   </g>
   <g id="text_2">
    <!-- S -->
    <defs>
     <path d=" M53.5156 70.5156 L53.5156 60.8906 Q47.9062 63.5781 42.9219 64.8906 Q37.9375 66.2188 33.2969 66.2188 Q25.25 66.2188 20.875 63.0938 Q16.5 59.9688 16.5 54.2031 Q16.5 49.3594 19.4062 46.8906 Q22.3125 44.4375 30.4219 42.9219 L36.375 41.7031 Q47.4062 39.5938 52.6562 34.2969 Q57.9062 29 57.9062 20.125 Q57.9062 9.51562 50.7969 4.04688 Q43.7031 -1.42188 29.9844 -1.42188 Q24.8125 -1.42188 18.9688 -0.25 Q13.1406 0.921875 6.89062 3.21875 L6.89062 13.375 Q12.8906 10.0156 18.6562 8.29688 Q24.4219 6.59375 29.9844 6.59375 Q38.4219 6.59375 43.0156 9.90625 Q47.6094 13.2344 47.6094 19.3906 Q47.6094 24.75 44.3125 27.7812 Q41.0156 30.8125 33.5 32.3281 L27.4844 33.5 Q16.4531 35.6875 11.5156 40.375 Q6.59375 45.0625 6.59375 53.4219 Q6.59375 63.0938 13.4062 68.6562 Q20.2188 74.2188 32.1719 74.2188 Q37.3125 74.2188 42.625 73.2812 Q47.9531 72.3594 53.5156 70.5156" id="BitstreamVeraSans-Roman-53"/>
    </defs>
    <g transform="translate(148.452741142 78.6676624016)scale(0.18 -0.18)">
     <use xlink:href="#BitstreamVeraSans-Roman-53"/>
    </g>
   </g>
   <g id="text_3">
    <!-- D -->
    <defs>
     <path d=" M19.6719 64.7969 L19.6719 8.10938 L31.5938 8.10938 Q46.6875 8.10938 53.6875 14.9375 Q60.6875 21.7812 60.6875 36.5312 Q60.6875 51.1719 53.6875 57.9844 Q46.6875 64.7969 31.5938 64.7969 z  M9.8125 72.9062 L30.0781 72.9062 Q51.2656 72.9062 61.1719 64.0938 Q71.0938 55.2812 71.0938 36.5312 Q71.0938 17.6719 61.125 8.82812 Q51.1719 0 30.0781 0 L9.8125 0 z " id="BitstreamVeraSans-Roman-44"/>
    </defs>
    <g transform="translate(45.5083095472 33.3133316929)scale(0.18 -0.18)">
     <use xlink:href="#BitstreamVeraSans-Roman-44"/>
    </g>
   </g>
   <g id="text_4">
    <!-- G -->
    <defs>
     <path d=" M59.5156 10.4062 L59.5156 29.9844 L43.4062 29.9844 L43.4062 38.0938 L69.2812 38.0938 L69.2812 6.78125 Q63.5781 2.73438 56.6875 0.65625 Q49.8125 -1.42188 42 -1.42188 Q24.9062 -1.42188 15.25 8.5625 Q5.60938 18.5625 5.60938 36.375 Q5.60938 54.25 15.25 64.2344 Q24.9062 74.2188 42 74.2188 Q49.125 74.2188 55.5469 72.4531 Q61.9688 70.7031 67.3906 67.2812 L67.3906 56.7812 Q61.9219 61.4219 55.7656 63.7656 Q49.6094 66.1094 42.8281 66.1094 Q29.4375 66.1094 22.7188 58.6406 Q16.0156 51.1719 16.0156 36.375 Q16.0156 21.625 22.7188 14.1562 Q29.4375 6.6875 42.8281 6.6875 Q48.0469 6.6875 52.1406 7.59375 Q56.25 8.5 59.5156 10.4062" id="BitstreamVeraSans-Roman-47"/>
    </defs>
    <g transform="translate(79.3089013287 78.6676624016)scale(0.18 -0.18)">
     <use xlink:href="#BitstreamVeraSans-Roman-47"/>
    </g>
   </g>
   <g id="text_5">
    <!-- L -->
    <defs>
     <path d=" M9.8125 72.9062 L19.6719 72.9062 L19.6719 8.29688 L55.1719 8.29688 L55.1719 0 L9.8125 0 z " id="BitstreamVeraSans-Roman-4c"/>
    </defs>
    <g transform="translate(80.9570263287 135.360575787)scale(0.18 -0.18)">
     <use xlink:href="#BitstreamVeraSans-Roman-4c"/>
    </g>
   </g>
  </g>
 </g>
 </svg>
