<svg xmlns="http://www.w3.org/2000/svg" xmlns:xlink="http://www.w3.org/1999/xlink" height="113pt" version="1.1" viewBox="0 0 141 113" width="141pt">
 <defs>
  <clipPath id="p16f9e740cd">
   <rect height="113.385826772" width="141.732283465" x="0.0" y="0.0"/>
  </clipPath>
 </defs>
<defs>
  <style type="text/css">
*{stroke-linecap:butt;stroke-linejoin:round;}
  </style>
 </defs>
 <g id="figure_1">
  <g id="patch_1">
   <path d=" M0 113.386 L141.732 113.386 L141.732 0 L0 0 z " style="fill:#ffffff;"/>
  </g>
  <g id="axes_1">
   <g id="patch_2">
    <path clip-path="url(#p16f9e740cd)" d=" M61.6744 61.6744 L58.1667 61.1733 L59.67 59.67 L40.3728 40.3728 L40.3728 40.3728 L59.67 59.67 L61.1733 58.1667 z " style="fill:none;stroke:#000000;"/>
   </g>
   <g id="patch_3">
    <path clip-path="url(#p16f9e740cd)" d=" M73.7008 56.6929 L71.5748 53.8583 L73.7008 53.8583 L73.7008 45.3543 L73.7008 45.3543 L73.7008 53.8583 L75.8268 53.8583 z " style="fill:none;stroke:#000000;"/>
   </g>
   <g id="patch_4">
    <path clip-path="url(#p16f9e740cd)" d=" M85.7272 61.6744 L86.2283 58.1667 L87.7316 59.67 L107.029 40.3728 L107.029 40.3728 L87.7316 59.67 L89.2349 61.1733 z " style="fill:none;stroke:#000000;"/>
   </g>
   <g id="patch_5">
    <path clip-path="url(#p16f9e740cd)" d=" M56.6929 73.7008 L53.8583 75.8268 L53.8583 73.7008 L45.3543 73.7008 L45.3543 73.7008 L53.8583 73.7008 L53.8583 71.5748 z " style="fill:none;stroke:#000000;"/>
   </g>
   <g id="patch_6">
    <path clip-path="url(#p16f9e740cd)" d=" M73.7008 89.0079 C77.7603 89.0079 81.654 87.395 84.5245 84.5245 C87.395 81.654 89.0079 77.7603 89.0079 73.7008 C89.0079 69.6413 87.395 65.7475 84.5245 62.877 C81.654 60.0066 77.7603 58.3937 73.7008 58.3937 C69.6413 58.3937 65.7475 60.0066 62.877 62.877 C60.0066 65.7475 58.3937 69.6413 58.3937 73.7008 C58.3937 77.7603 60.0066 81.654 62.877 84.5245 C65.7475 87.395 69.6413 89.0079 73.7008 89.0079 z " style="fill:none;stroke:#000000;"/>
   </g>
   <g id="patch_7">
    <path clip-path="url(#p16f9e740cd)" d=" M73.7008 90.7087 C78.2113 90.7087 82.5377 88.9166 85.7272 85.7272 C88.9166 82.5377 90.7087 78.2113 90.7087 73.7008 C90.7087 69.1902 88.9166 64.8638 85.7272 61.6744 C82.5377 58.485 78.2113 56.6929 73.7008 56.6929 C69.1902 56.6929 64.8638 58.485 61.6744 61.6744 C58.485 64.8638 56.6929 69.1902 56.6929 73.7008 C56.6929 78.2113 58.485 82.5377 61.6744 85.7272 C64.8638 88.9166 69.1902 90.7087 73.7008 90.7087 z " style="fill:none;stroke:#000000;"/>
   </g>
   <g id="patch_8">
    <path clip-path="url(#p16f9e740cd)" d=" M28.3465 90.7087 C32.857 90.7087 37.1834 88.9166 40.3728 85.7272 C43.5623 82.5377 45.3543 78.2113 45.3543 73.7008 C45.3543 69.1902 43.5623 64.8638 40.3728 61.6744 C37.1834 58.485 32.857 56.6929 28.3465 56.6929 C23.8359 56.6929 19.5095 58.485 16.3201 61.6744 C13.1306 64.8638 11.3386 69.1902 11.3386 73.7008 C11.3386 78.2113 13.1306 82.5377 16.3201 85.7272 C19.5095 88.9166 23.8359 90.7087 28.3465 90.7087 z " style="fill:none;stroke:#000000;"/>
   </g>
   <g id="patch_9">
    <path clip-path="url(#p16f9e740cd)" d=" M119.055 45.3543 C123.566 45.3543 127.892 43.5623 131.082 40.3728 C134.271 37.1834 136.063 32.857 136.063 28.3465 C136.063 23.8359 134.271 19.5095 131.082 16.3201 C127.892 13.1306 123.566 11.3386 119.055 11.3386 C114.545 11.3386 110.218 13.1306 107.029 16.3201 C103.839 19.5095 102.047 23.8359 102.047 28.3465 C102.047 32.857 103.839 37.1834 107.029 40.3728 C110.218 43.5623 114.545 45.3543 119.055 45.3543 z " style="fill:none;stroke:#000000;"/>
   </g>
   <g id="patch_10">
    <path clip-path="url(#p16f9e740cd)" d=" M73.7008 45.3543 C78.2113 45.3543 82.5377 43.5623 85.7272 40.3728 C88.9166 37.1834 90.7087 32.857 90.7087 28.3465 C90.7087 23.8359 88.9166 19.5095 85.7272 16.3201 C82.5377 13.1306 78.2113 11.3386 73.7008 11.3386 C69.1902 11.3386 64.8638 13.1306 61.6744 16.3201 C58.485 19.5095 56.6929 23.8359 56.6929 28.3465 C56.6929 32.857 58.485 37.1834 61.6744 40.3728 C64.8638 43.5623 69.1902 45.3543 73.7008 45.3543 z " style="fill:none;stroke:#000000;"/>
   </g>
   <g id="patch_11">
    <path clip-path="url(#p16f9e740cd)" d=" M28.3465 45.3543 C32.857 45.3543 37.1834 43.5623 40.3728 40.3728 C43.5623 37.1834 45.3543 32.857 45.3543 28.3465 C45.3543 23.8359 43.5623 19.5095 40.3728 16.3201 C37.1834 13.1306 32.857 11.3386 28.3465 11.3386 C23.8359 11.3386 19.5095 13.1306 16.3201 16.3201 C13.1306 19.5095 11.3386 23.8359 11.3386 28.3465 C11.3386 32.857 13.1306 37.1834 16.3201 40.3728 C19.5095 43.5623 23.8359 45.3543 28.3465 45.3543 z " style="fill:none;stroke:#000000;"/>
   </g>
   <g id="matplotlib.axis_1"/>
   <g id="matplotlib.axis_2"/>
   <g id="text_1">
    <!-- $Y$ -->
    <defs>
     <path d=" M77.4062 66.2031 L43 28.7969 L35.7969 0 L27.0938 0 L34.2031 28.7969 L18.5938 66.2031 L28.0938 66.2031 L40.5 36.2031 L67.9062 66.2031 z " id="STIXGeneral-Italic-1d620"/>
    </defs>
    <g transform="translate(68.0307874016 78.6676624016)scale(0.18 -0.18)">
     <use transform="translate(0.0 0.796875)" xlink:href="#STIXGeneral-Italic-1d620"/>
    </g>
   </g>
   <g id="text_2">
    <!-- $A$ -->
    <defs>
     <path d=" M63.5 0 L53.9062 0 L50.5938 20 L25.7031 20 L12.7031 0 L3.09375 0 L48.7969 67.4062 L51.4062 67.4062 z  M49.5 27.4062 L45.7969 50.2969 L30.7031 27.4062 z " id="STIXGeneral-Italic-1d608"/>
    </defs>
    <g transform="translate(22.3164566929 78.6676624016)scale(0.18 -0.18)">
     <use transform="translate(0.0 0.59375)" xlink:href="#STIXGeneral-Italic-1d608"/>
    </g>
   </g>
   <g id="text_3">
    <!-- $z_n$ -->
    <defs>
     <path d=" M51.7031 45.2969 L51.2031 43.2969 L17 7.09375 L43.4062 7.09375 L40.7031 0 L2.5 0 L2.90625 2 L37.0938 38.2031 L14.4062 38.2031 L17.2969 45.2969 z " id="STIXGeneral-Italic-1d63b"/>
     <path d=" M25.0938 45.9062 L23.9062 40.2031 Q28.4062 43.7969 32.2031 45.0469 Q36 46.2969 40.5 46.2969 Q45.2031 46.2969 48.0938 43.75 Q51 41.2031 51 37.2031 Q51 34.7969 50.4062 32.0938 L42.4062 0 L34.5 0 L42 30.4062 Q42.5 32.5938 42.5 33.9062 Q42.5 39.2031 36 39.2031 Q33.0938 39.2031 28.6406 36.7031 Q24.2031 34.2031 21.7031 30.2031 L14.2031 0 L6.29688 0 L17.2031 44 L24.2969 46.4062 z " id="STIXGeneral-Italic-1d62f"/>
    </defs>
    <g transform="translate(110.59511811 33.3133316929)scale(0.18 -0.18)">
     <use transform="translate(0.0 0.703125)" xlink:href="#STIXGeneral-Italic-1d63b"/>
     <use transform="translate(44.6999969482 -12.8859375)scale(0.7)" xlink:href="#STIXGeneral-Italic-1d62f"/>
    </g>
   </g>
   <g id="text_4">
    <!-- $\dots$ -->
    <defs>
     <path d=" M-18.0938 57.2031 Q-18.0938 55.0938 -19.5469 53.6875 Q-21 52.2969 -23.0938 52.2969 Q-25.0938 52.2969 -26.5469 53.75 Q-28 55.2031 -28 57.2031 Q-28 59.2969 -26.6406 60.75 Q-25.2969 62.2031 -23.0938 62.2031 Q-20.7969 62.2031 -19.4375 60.7969 Q-18.0938 59.4062 -18.0938 57.2031" id="STIXGeneral-Regular-307"/>
     <path d=" M43.2031 41 L41 32.0938 L39.5 32.0938 Q37.7969 36.5 35.2969 37.8906 Q32.7969 39.2969 28.8906 39.2969 Q25 39.2969 23.0469 37.1406 Q21.0938 35 21.0938 33 Q21.0938 31 22.7969 29.5469 Q24.5 28.0938 27.7969 26.5 Q33.7969 23.5938 36.1406 21.3438 Q38.5 19.0938 38.5 15.7969 Q38.5 9 32.8906 4 Q27.2969 -1 18.5938 -1 Q14.0938 -1 11.3906 0.296875 Q8.70312 1.59375 6.09375 4.5 L8.59375 14.7969 L10.0938 14.7969 Q11.9062 6.09375 21 6.09375 Q24.4062 6.09375 27.2969 7.84375 Q30.2031 9.59375 30.2031 12.7969 Q30.2031 14.2969 28.5938 15.6406 Q27 17 23.2031 18.9062 Q17.7031 21.5938 15.25 24.25 Q12.7969 26.9062 12.7969 30.2969 Q12.7969 36.5 18 41.3906 Q23.2031 46.2969 30.9062 46.2969 Q39.5938 46.2969 43.2031 41" id="STIXGeneral-Italic-1d634"/>
    </defs>
    <g transform="translate(70.1907874016 33.3133316929)scale(0.18 -0.18)">
     <use transform="translate(42.0 6.796875)" xlink:href="#STIXGeneral-Regular-307"/>
     <use transform="translate(0.0 0.296875)" xlink:href="#STIXGeneral-Italic-1d634"/>
    </g>
   </g>
   <g id="text_5">
    <!-- $z_1$ -->
    <defs>
     <path d=" M30.2031 0 L22.2969 0 L22.2969 57 Q20.0938 56 15.75 53.75 Q11.4062 51.5 10.7969 51.2031 L10.7969 58.5 L28.7969 67.7031 L30.2031 67.2031 z " id="STIXGeneral-Regular-1d7e3"/>
    </defs>
    <g transform="translate(19.7964566929 33.3133316929)scale(0.18 -0.18)">
     <use transform="translate(0.0 0.703125)" xlink:href="#STIXGeneral-Italic-1d63b"/>
     <use transform="translate(44.6999969482 -12.8859375)scale(0.7)" xlink:href="#STIXGeneral-Regular-1d7e3"/>
    </g>
   </g>
  </g>
 </g>
 </svg>
