<svg xmlns="http://www.w3.org/2000/svg" xmlns:xlink="http://www.w3.org/1999/xlink" height="113pt" version="1.1" viewBox="0 0 141 113" width="141pt">
 <defs>
  <clipPath id="p16f9e740cd">
   <rect height="113.385826772" width="141.732283465" x="0.0" y="0.0"/>
  </clipPath>
 </defs>
<defs>
  <style type="text/css">
*{stroke-linecap:butt;stroke-linejoin:round;}
  </style>
 </defs>
 <g id="figure_1">
  <g id="patch_1">
   <path d=" M0 113.386 L141.732 113.386 L141.732 0 L0 0 z " style="fill:#ffffff;"/>
  </g>
  <g id="axes_1">
   <g id="patch_2">
    <path clip-path="url(#p16f9e740cd)" d=" M40.3728 61.6744 L40.8739 58.1667 L42.3772 59.67 L61.6744 40.3728 L61.6744 40.3728 L42.3772 59.67 L43.8805 61.1733 z " style="fill:none;stroke:#000000;"/>
   </g>
   <g id="patch_3">
    <path clip-path="url(#p16f9e740cd)" d=" M107.029 61.6744 L103.521 61.1733 L105.024 59.67 L85.7272 40.3728 L85.7272 40.3728 L105.024 59.67 L106.528 58.1667 z " style="fill:none;stroke:#000000;"/>
   </g>
   <g id="patch_4">
    <path clip-path="url(#p16f9e740cd)" d=" M73.7008 56.6929 L71.5748 53.8583 L73.7008 53.8583 L73.7008 45.3543 L73.7008 45.3543 L73.7008 53.8583 L75.8268 53.8583 z " style="fill:none;stroke:#000000;"/>
   </g>
   <g id="patch_5">
    <path clip-path="url(#p16f9e740cd)" d=" M119.055 90.7087 C123.566 90.7087 127.892 88.9166 131.082 85.7272 C134.271 82.5377 136.063 78.2113 136.063 73.7008 C136.063 69.1902 134.271 64.8638 131.082 61.6744 C127.892 58.485 123.566 56.6929 119.055 56.6929 C114.545 56.6929 110.218 58.485 107.029 61.6744 C103.839 64.8638 102.047 69.1902 102.047 73.7008 C102.047 78.2113 103.839 82.5377 107.029 85.7272 C110.218 88.9166 114.545 90.7087 119.055 90.7087 z " style="fill:none;stroke:#000000;"/>
   </g>
   <g id="patch_6">
    <path clip-path="url(#p16f9e740cd)" d=" M73.7008 90.7087 C78.2113 90.7087 82.5377 88.9166 85.7272 85.7272 C88.9166 82.5377 90.7087 78.2113 90.7087 73.7008 C90.7087 69.1902 88.9166 64.8638 85.7272 61.6744 C82.5377 58.485 78.2113 56.6929 73.7008 56.6929 C69.1902 56.6929 64.8638 58.485 61.6744 61.6744 C58.485 64.8638 56.6929 69.1902 56.6929 73.7008 C56.6929 78.2113 58.485 82.5377 61.6744 85.7272 C64.8638 88.9166 69.1902 90.7087 73.7008 90.7087 z " style="fill:none;stroke:#000000;"/>
   </g>
   <g id="patch_7">
    <path clip-path="url(#p16f9e740cd)" d=" M73.7008 45.3543 C78.2113 45.3543 82.5377 43.5623 85.7272 40.3728 C88.9166 37.1834 90.7087 32.857 90.7087 28.3465 C90.7087 23.8359 88.9166 19.5095 85.7272 16.3201 C82.5377 13.1306 78.2113 11.3386 73.7008 11.3386 C69.1902 11.3386 64.8638 13.1306 61.6744 16.3201 C58.485 19.5095 56.6929 23.8359 56.6929 28.3465 C56.6929 32.857 58.485 37.1834 61.6744 40.3728 C64.8638 43.5623 69.1902 45.3543 73.7008 45.3543 z " style="fill:none;stroke:#000000;"/>
   </g>
   <g id="patch_8">
    <path clip-path="url(#p16f9e740cd)" d=" M28.3465 90.7087 C32.857 90.7087 37.1834 88.9166 40.3728 85.7272 C43.5623 82.5377 45.3543 78.2113 45.3543 73.7008 C45.3543 69.1902 43.5623 64.8638 40.3728 61.6744 C37.1834 58.485 32.857 56.6929 28.3465 56.6929 C23.8359 56.6929 19.5095 58.485 16.3201 61.6744 C13.1306 64.8638 11.3386 69.1902 11.3386 73.7008 C11.3386 78.2113 13.1306 82.5377 16.3201 85.7272 C19.5095 88.9166 23.8359 90.7087 28.3465 90.7087 z " style="fill:none;stroke:#000000;"/>
   </g>
   <g id="matplotlib.axis_1"/>
   <g id="matplotlib.axis_2"/>
   <g id="text_1">
    <!-- $X_n$ -->
    <defs>
     <path d=" M80.5938 66.2031 L48.9062 34.9062 L66.9062 0 L56.4062 0 L41.9062 28.2969 L13.5938 0 L3.09375 0 L38.2969 34.9062 L22.0938 66.2031 L32.7031 66.2031 L45.2031 41.4062 L69.9062 66.2031 z " id="STIXGeneral-Italic-1d61f"/>
     <path d=" M25.0938 45.9062 L23.9062 40.2031 Q28.4062 43.7969 32.2031 45.0469 Q36 46.2969 40.5 46.2969 Q45.2031 46.2969 48.0938 43.75 Q51 41.2031 51 37.2031 Q51 34.7969 50.4062 32.0938 L42.4062 0 L34.5 0 L42 30.4062 Q42.5 32.5938 42.5 33.9062 Q42.5 39.2031 36 39.2031 Q33.0938 39.2031 28.6406 36.7031 Q24.2031 34.2031 21.7031 30.2031 L14.2031 0 L6.29688 0 L17.2031 44 L24.2969 46.4062 z " id="STIXGeneral-Italic-1d62f"/>
    </defs>
    <g transform="translate(108.34511811 78.6676624016)scale(0.18 -0.18)">
     <use transform="translate(0.0 0.796875)" xlink:href="#STIXGeneral-Italic-1d61f"/>
     <use transform="translate(69.9999847412 -12.7921875)scale(0.7)" xlink:href="#STIXGeneral-Italic-1d62f"/>
    </g>
   </g>
   <g id="text_2">
    <!-- $\dots$ -->
    <defs>
     <path d=" M-18.0938 57.2031 Q-18.0938 55.0938 -19.5469 53.6875 Q-21 52.2969 -23.0938 52.2969 Q-25.0938 52.2969 -26.5469 53.75 Q-28 55.2031 -28 57.2031 Q-28 59.2969 -26.6406 60.75 Q-25.2969 62.2031 -23.0938 62.2031 Q-20.7969 62.2031 -19.4375 60.7969 Q-18.0938 59.4062 -18.0938 57.2031" id="STIXGeneral-Regular-307"/>
     <path d=" M43.2031 41 L41 32.0938 L39.5 32.0938 Q37.7969 36.5 35.2969 37.8906 Q32.7969 39.2969 28.8906 39.2969 Q25 39.2969 23.0469 37.1406 Q21.0938 35 21.0938 33 Q21.0938 31 22.7969 29.5469 Q24.5 28.0938 27.7969 26.5 Q33.7969 23.5938 36.1406 21.3438 Q38.5 19.0938 38.5 15.7969 Q38.5 9 32.8906 4 Q27.2969 -1 18.5938 -1 Q14.0938 -1 11.3906 0.296875 Q8.70312 1.59375 6.09375 4.5 L8.59375 14.7969 L10.0938 14.7969 Q11.9062 6.09375 21 6.09375 Q24.4062 6.09375 27.2969 7.84375 Q30.2031 9.59375 30.2031 12.7969 Q30.2031 14.2969 28.5938 15.6406 Q27 17 23.2031 18.9062 Q17.7031 21.5938 15.25 24.25 Q12.7969 26.9062 12.7969 30.2969 Q12.7969 36.5 18 41.3906 Q23.2031 46.2969 30.9062 46.2969 Q39.5938 46.2969 43.2031 41" id="STIXGeneral-Italic-1d634"/>
    </defs>
    <g transform="translate(70.1907874016 78.6676624016)scale(0.18 -0.18)">
     <use transform="translate(42.0 6.796875)" xlink:href="#STIXGeneral-Regular-307"/>
     <use transform="translate(0.0 0.296875)" xlink:href="#STIXGeneral-Italic-1d634"/>
    </g>
   </g>
   <g id="text_3">
    <!-- class -->
    <defs>
     <path d=" M34.2812 27.4844 Q23.3906 27.4844 19.1875 25 Q14.9844 22.5156 14.9844 16.5 Q14.9844 11.7188 18.1406 8.90625 Q21.2969 6.10938 26.7031 6.10938 Q34.1875 6.10938 38.7031 11.4062 Q43.2188 16.7031 43.2188 25.4844 L43.2188 27.4844 z  M52.2031 31.2031 L52.2031 0 L43.2188 0 L43.2188 8.29688 Q40.1406 3.32812 35.5469 0.953125 Q30.9531 -1.42188 24.3125 -1.42188 Q15.9219 -1.42188 10.9531 3.29688 Q6 8.01562 6 15.9219 Q6 25.1406 12.1719 29.8281 Q18.3594 34.5156 30.6094 34.5156 L43.2188 34.5156 L43.2188 35.4062 Q43.2188 41.6094 39.1406 45 Q35.0625 48.3906 27.6875 48.3906 Q23 48.3906 18.5469 47.2656 Q14.1094 46.1406 10.0156 43.8906 L10.0156 52.2031 Q14.9375 54.1094 19.5781 55.0469 Q24.2188 56 28.6094 56 Q40.4844 56 46.3438 49.8438 Q52.2031 43.7031 52.2031 31.2031" id="BitstreamVeraSans-Roman-61"/>
     <path d=" M9.42188 75.9844 L18.4062 75.9844 L18.4062 0 L9.42188 0 z " id="BitstreamVeraSans-Roman-6c"/>
     <path d=" M48.7812 52.5938 L48.7812 44.1875 Q44.9688 46.2969 41.1406 47.3438 Q37.3125 48.3906 33.4062 48.3906 Q24.6562 48.3906 19.8125 42.8438 Q14.9844 37.3125 14.9844 27.2969 Q14.9844 17.2812 19.8125 11.7344 Q24.6562 6.20312 33.4062 6.20312 Q37.3125 6.20312 41.1406 7.25 Q44.9688 8.29688 48.7812 10.4062 L48.7812 2.09375 Q45.0156 0.34375 40.9844 -0.53125 Q36.9688 -1.42188 32.4219 -1.42188 Q20.0625 -1.42188 12.7812 6.34375 Q5.51562 14.1094 5.51562 27.2969 Q5.51562 40.6719 12.8594 48.3281 Q20.2188 56 33.0156 56 Q37.1562 56 41.1094 55.1406 Q45.0625 54.2969 48.7812 52.5938" id="BitstreamVeraSans-Roman-63"/>
     <path d=" M44.2812 53.0781 L44.2812 44.5781 Q40.4844 46.5312 36.375 47.5 Q32.2812 48.4844 27.875 48.4844 Q21.1875 48.4844 17.8438 46.4375 Q14.5 44.3906 14.5 40.2812 Q14.5 37.1562 16.8906 35.375 Q19.2812 33.5938 26.5156 31.9844 L29.5938 31.2969 Q39.1562 29.25 43.1875 25.5156 Q47.2188 21.7812 47.2188 15.0938 Q47.2188 7.46875 41.1875 3.01562 Q35.1562 -1.42188 24.6094 -1.42188 Q20.2188 -1.42188 15.4531 -0.5625 Q10.6875 0.296875 5.42188 2 L5.42188 11.2812 Q10.4062 8.6875 15.2344 7.39062 Q20.0625 6.10938 24.8125 6.10938 Q31.1562 6.10938 34.5625 8.28125 Q37.9844 10.4531 37.9844 14.4062 Q37.9844 18.0625 35.5156 20.0156 Q33.0625 21.9688 24.7031 23.7812 L21.5781 24.5156 Q13.2344 26.2656 9.51562 29.9062 Q5.8125 33.5469 5.8125 39.8906 Q5.8125 47.6094 11.2812 51.7969 Q16.75 56 26.8125 56 Q31.7812 56 36.1719 55.2656 Q40.5781 54.5469 44.2812 53.0781" id="BitstreamVeraSans-Roman-73"/>
    </defs>
    <g transform="translate(62.9978186516 30.8298941929)scale(0.09 -0.09)">
     <use xlink:href="#BitstreamVeraSans-Roman-63"/>
     <use x="54.98046875" xlink:href="#BitstreamVeraSans-Roman-6c"/>
     <use x="82.763671875" xlink:href="#BitstreamVeraSans-Roman-61"/>
     <use x="144.04296875" xlink:href="#BitstreamVeraSans-Roman-73"/>
     <use x="196.142578125" xlink:href="#BitstreamVeraSans-Roman-73"/>
    </g>
   </g>
   <g id="text_4">
    <!-- $X_1$ -->
    <defs>
     <path d=" M30.2031 0 L22.2969 0 L22.2969 57 Q20.0938 56 15.75 53.75 Q11.4062 51.5 10.7969 51.2031 L10.7969 58.5 L28.7969 67.7031 L30.2031 67.2031 z " id="STIXGeneral-Regular-1d7e3"/>
    </defs>
    <g transform="translate(17.5464566929 78.6676624016)scale(0.18 -0.18)">
     <use transform="translate(0.0 0.796875)" xlink:href="#STIXGeneral-Italic-1d61f"/>
     <use transform="translate(69.9999847412 -12.7921875)scale(0.7)" xlink:href="#STIXGeneral-Regular-1d7e3"/>
    </g>
   </g>
  </g>
 </g>
 </svg>
