<svg xmlns="http://www.w3.org/2000/svg" xmlns:xlink="http://www.w3.org/1999/xlink" height="170pt" version="1.1" viewBox="0 0 226 170" width="226pt">
 <defs>
  <clipPath id="pb4929fe270">
   <rect height="170.078740157" width="226.771653543" x="0.0" y="0.0"/>
  </clipPath>
 </defs>
<defs>
  <style type="text/css">
*{stroke-linecap:butt;stroke-linejoin:round;}
  </style>
 </defs>
 <g id="figure_1">
  <g id="patch_1">
   <path d=" M0 170.079 L226.772 170.079 L226.772 0 L0 0 z " style="fill:#ffffff;"/>
  </g>
  <g id="axes_1">
   <g id="patch_2">
    <path clip-path="url(#pb4929fe270)" d=" M106.583 116.787 L106.583 113.244 L108.283 114.52 L120.189 98.6457 L120.189 98.6457 L108.283 114.52 L109.984 115.795 z " style="fill:none;stroke:#000000;"/>
   </g>
   <g id="patch_3">
    <path clip-path="url(#pb4929fe270)" d=" M103.984 115.181 L103.35 111.695 L105.252 112.646 L111.449 100.252 L111.449 100.252 L105.252 112.646 L107.153 113.597 z " style="fill:none;stroke:#000000;"/>
   </g>
   <g id="patch_4">
    <path clip-path="url(#pb4929fe270)" d=" M110.529 120.959 L111.709 117.618 L112.888 119.387 L150.258 94.4736 L150.258 94.4736 L112.888 119.387 L114.067 121.156 z " style="fill:none;stroke:#000000;"/>
   </g>
   <g id="patch_5">
    <path clip-path="url(#pb4929fe270)" d=" M82.2265 120.959 L78.6887 121.156 L79.868 119.387 L42.4979 94.4736 L42.4979 94.4736 L79.868 119.387 L81.0473 117.618 z " style="fill:none;stroke:#000000;"/>
   </g>
   <g id="patch_6">
    <path clip-path="url(#pb4929fe270)" d=" M118.367 73.013 L114.86 72.5119 L116.363 71.0086 L85.7272 40.3728 L85.7272 40.3728 L116.363 71.0086 L117.866 69.5053 z " style="fill:none;stroke:#000000;"/>
   </g>
   <g id="patch_7">
    <path clip-path="url(#pb4929fe270)" d=" M119.055 68.0315 L116.929 65.1969 L119.055 65.1969 L119.055 45.3543 L119.055 45.3543 L119.055 65.1969 L121.181 65.1969 z " style="fill:none;stroke:#000000;"/>
   </g>
   <g id="patch_8">
    <path clip-path="url(#pb4929fe270)" d=" M164.409 68.0315 L162.283 65.1969 L164.409 65.1969 L164.409 45.3543 L164.409 45.3543 L164.409 65.1969 L166.535 65.1969 z " style="fill:none;stroke:#000000;"/>
   </g>
   <g id="patch_9">
    <path clip-path="url(#pb4929fe270)" d=" M164.409 102.047 C168.92 102.047 173.246 100.255 176.436 97.0658 C179.625 93.8763 181.417 89.5499 181.417 85.0394 C181.417 80.5288 179.625 76.2024 176.436 73.013 C173.246 69.8236 168.92 68.0315 164.409 68.0315 C159.899 68.0315 155.572 69.8236 152.383 73.013 C149.194 76.2024 147.402 80.5288 147.402 85.0394 C147.402 89.5499 149.194 93.8763 152.383 97.0658 C155.572 100.255 159.899 102.047 164.409 102.047 z " style="fill:none;stroke:#000000;"/>
   </g>
   <g id="patch_10">
    <path clip-path="url(#pb4929fe270)" d=" M119.055 102.047 C123.566 102.047 127.892 100.255 131.082 97.0658 C134.271 93.8763 136.063 89.5499 136.063 85.0394 C136.063 80.5288 134.271 76.2024 131.082 73.013 C127.892 69.8236 123.566 68.0315 119.055 68.0315 C114.545 68.0315 110.218 69.8236 107.029 73.013 C103.839 76.2024 102.047 80.5288 102.047 85.0394 C102.047 89.5499 103.839 93.8763 107.029 97.0658 C110.218 100.255 114.545 102.047 119.055 102.047 z " style="fill:none;stroke:#000000;"/>
   </g>
   <g id="patch_11">
    <path clip-path="url(#pb4929fe270)" d=" M164.409 45.3543 C168.92 45.3543 173.246 43.5623 176.436 40.3728 C179.625 37.1834 181.417 32.857 181.417 28.3465 C181.417 23.8359 179.625 19.5095 176.436 16.3201 C173.246 13.1306 168.92 11.3386 164.409 11.3386 C159.899 11.3386 155.572 13.1306 152.383 16.3201 C149.194 19.5095 147.402 23.8359 147.402 28.3465 C147.402 32.857 149.194 37.1834 152.383 40.3728 C155.572 43.5623 159.899 45.3543 164.409 45.3543 z " style="fill:none;stroke:#000000;"/>
   </g>
   <g id="patch_12">
    <path clip-path="url(#pb4929fe270)" d=" M96.378 145.701 C100.437 145.701 104.331 144.088 107.202 141.217 C110.072 138.347 111.685 134.453 111.685 130.394 C111.685 126.334 110.072 122.44 107.202 119.57 C104.331 116.699 100.437 115.087 96.378 115.087 C92.3185 115.087 88.4247 116.699 85.5542 119.57 C82.6837 122.44 81.0709 126.334 81.0709 130.394 C81.0709 134.453 82.6837 138.347 85.5542 141.217 C88.4247 144.088 92.3185 145.701 96.378 145.701 z " style="fill:none;stroke:#000000;"/>
   </g>
   <g id="patch_13">
    <path clip-path="url(#pb4929fe270)" d=" M96.378 147.402 C100.888 147.402 105.215 145.61 108.404 142.42 C111.594 139.231 113.386 134.904 113.386 130.394 C113.386 125.883 111.594 121.557 108.404 118.367 C105.215 115.178 100.888 113.386 96.378 113.386 C91.8674 113.386 87.541 115.178 84.3516 118.367 C81.1621 121.557 79.3701 125.883 79.3701 130.394 C79.3701 134.904 81.1621 139.231 84.3516 142.42 C87.541 145.61 91.8674 147.402 96.378 147.402 z " style="fill:none;stroke:#000000;"/>
   </g>
   <g id="patch_14">
    <path clip-path="url(#pb4929fe270)" d=" M119.055 45.3543 C123.566 45.3543 127.892 43.5623 131.082 40.3728 C134.271 37.1834 136.063 32.857 136.063 28.3465 C136.063 23.8359 134.271 19.5095 131.082 16.3201 C127.892 13.1306 123.566 11.3386 119.055 11.3386 C114.545 11.3386 110.218 13.1306 107.029 16.3201 C103.839 19.5095 102.047 23.8359 102.047 28.3465 C102.047 32.857 103.839 37.1834 107.029 40.3728 C110.218 43.5623 114.545 45.3543 119.055 45.3543 z " style="fill:none;stroke:#000000;"/>
   </g>
   <g id="patch_15">
    <path clip-path="url(#pb4929fe270)" d=" M73.7008 45.3543 C78.2113 45.3543 82.5377 43.5623 85.7272 40.3728 C88.9166 37.1834 90.7087 32.857 90.7087 28.3465 C90.7087 23.8359 88.9166 19.5095 85.7272 16.3201 C82.5377 13.1306 78.2113 11.3386 73.7008 11.3386 C69.1902 11.3386 64.8638 13.1306 61.6744 16.3201 C58.485 19.5095 56.6929 23.8359 56.6929 28.3465 C56.6929 32.857 58.485 37.1834 61.6744 40.3728 C64.8638 43.5623 69.1902 45.3543 73.7008 45.3543 z " style="fill:none;stroke:#000000;"/>
   </g>
   <g id="patch_16">
    <path clip-path="url(#pb4929fe270)" d=" M28.3465 102.047 C32.857 102.047 37.1834 100.255 40.3728 97.0658 C43.5623 93.8763 45.3543 89.5499 45.3543 85.0394 C45.3543 80.5288 43.5623 76.2024 40.3728 73.013 C37.1834 69.8236 32.857 68.0315 28.3465 68.0315 C23.8359 68.0315 19.5095 69.8236 16.3201 73.013 C13.1306 76.2024 11.3386 80.5288 11.3386 85.0394 C11.3386 89.5499 13.1306 93.8763 16.3201 97.0658 C19.5095 100.255 23.8359 102.047 28.3465 102.047 z " style="fill:none;stroke:#000000;"/>
   </g>
   <g id="patch_17">
    <path clip-path="url(#pb4929fe270)" d=" M130.394 102.047 C134.904 102.047 139.231 100.255 142.42 97.0658 C145.61 93.8763 147.402 89.5499 147.402 85.0394 C147.402 80.5288 145.61 76.2024 142.42 73.013 C139.231 69.8236 134.904 68.0315 130.394 68.0315 C125.883 68.0315 121.557 69.8236 118.367 73.013 C115.178 76.2024 113.386 80.5288 113.386 85.0394 C113.386 89.5499 115.178 93.8763 118.367 97.0658 C121.557 100.255 125.883 102.047 130.394 102.047 z " style="fill:none;stroke:#000000;"/>
   </g>
   <g id="matplotlib.axis_1"/>
   <g id="matplotlib.axis_2"/>
   <g id="text_1">
    <!-- $z_n$ -->
    <defs>
     <path d=" M51.7031 45.2969 L51.2031 43.2969 L17 7.09375 L43.4062 7.09375 L40.7031 0 L2.5 0 L2.90625 2 L37.0938 38.2031 L14.4062 38.2031 L17.2969 45.2969 z " id="STIXGeneral-Italic-1d63b"/>
     <path d=" M25.0938 45.9062 L23.9062 40.2031 Q28.4062 43.7969 32.2031 45.0469 Q36 46.2969 40.5 46.2969 Q45.2031 46.2969 48.0938 43.75 Q51 41.2031 51 37.2031 Q51 34.7969 50.4062 32.0938 L42.4062 0 L34.5 0 L42 30.4062 Q42.5 32.5938 42.5 33.9062 Q42.5 39.2031 36 39.2031 Q33.0938 39.2031 28.6406 36.7031 Q24.2031 34.2031 21.7031 30.2031 L14.2031 0 L6.29688 0 L17.2031 44 L24.2969 46.4062 z " id="STIXGeneral-Italic-1d62f"/>
    </defs>
    <g transform="translate(155.949448819 90.0062450787)scale(0.18 -0.18)">
     <use transform="translate(0.0 0.703125)" xlink:href="#STIXGeneral-Italic-1d63b"/>
     <use transform="translate(44.6999969482 -12.8859375)scale(0.7)" xlink:href="#STIXGeneral-Italic-1d62f"/>
    </g>
   </g>
   <g id="text_2">
    <!-- $\dots$ -->
    <defs>
     <path d=" M-18.0938 57.2031 Q-18.0938 55.0938 -19.5469 53.6875 Q-21 52.2969 -23.0938 52.2969 Q-25.0938 52.2969 -26.5469 53.75 Q-28 55.2031 -28 57.2031 Q-28 59.2969 -26.6406 60.75 Q-25.2969 62.2031 -23.0938 62.2031 Q-20.7969 62.2031 -19.4375 60.7969 Q-18.0938 59.4062 -18.0938 57.2031" id="STIXGeneral-Regular-307"/>
     <path d=" M43.2031 41 L41 32.0938 L39.5 32.0938 Q37.7969 36.5 35.2969 37.8906 Q32.7969 39.2969 28.8906 39.2969 Q25 39.2969 23.0469 37.1406 Q21.0938 35 21.0938 33 Q21.0938 31 22.7969 29.5469 Q24.5 28.0938 27.7969 26.5 Q33.7969 23.5938 36.1406 21.3438 Q38.5 19.0938 38.5 15.7969 Q38.5 9 32.8906 4 Q27.2969 -1 18.5938 -1 Q14.0938 -1 11.3906 0.296875 Q8.70312 1.59375 6.09375 4.5 L8.59375 14.7969 L10.0938 14.7969 Q11.9062 6.09375 21 6.09375 Q24.4062 6.09375 27.2969 7.84375 Q30.2031 9.59375 30.2031 12.7969 Q30.2031 14.2969 28.5938 15.6406 Q27 17 23.2031 18.9062 Q17.7031 21.5938 15.25 24.25 Q12.7969 26.9062 12.7969 30.2969 Q12.7969 36.5 18 41.3906 Q23.2031 46.2969 30.9062 46.2969 Q39.5938 46.2969 43.2031 41" id="STIXGeneral-Italic-1d634"/>
    </defs>
    <g transform="translate(115.54511811 90.0062450787)scale(0.18 -0.18)">
     <use transform="translate(42.0 6.796875)" xlink:href="#STIXGeneral-Regular-307"/>
     <use transform="translate(0.0 0.296875)" xlink:href="#STIXGeneral-Italic-1d634"/>
    </g>
   </g>
   <g id="text_3">
    <!-- $x_n$ -->
    <defs>
     <path d=" M54.4062 45.2969 L34.4062 23.5938 L45.2031 0 L35.7969 0 L27.9062 17.5 L12.4062 0 L3 0 L25 23.9062 L15.4062 45.2969 L24.7969 45.2969 L31.5938 30.2031 L45 45.2969 z " id="STIXGeneral-Italic-1d639"/>
    </defs>
    <g transform="translate(155.679448819 33.3133316929)scale(0.18 -0.18)">
     <use transform="translate(0.0 0.703125)" xlink:href="#STIXGeneral-Italic-1d639"/>
     <use transform="translate(48.1999969482 -12.8859375)scale(0.7)" xlink:href="#STIXGeneral-Italic-1d62f"/>
    </g>
   </g>
   <g id="text_4">
    <!-- $Y$ -->
    <defs>
     <path d=" M77.4062 66.2031 L43 28.7969 L35.7969 0 L27.0938 0 L34.2031 28.7969 L18.5938 66.2031 L28.0938 66.2031 L40.5 36.2031 L67.9062 66.2031 z " id="STIXGeneral-Italic-1d620"/>
    </defs>
    <g transform="translate(90.7079527559 135.360575787)scale(0.18 -0.18)">
     <use transform="translate(0.0 0.796875)" xlink:href="#STIXGeneral-Italic-1d620"/>
    </g>
   </g>
   <g id="text_5">
    <!-- $\dots$ -->
    <g transform="translate(115.54511811 33.3133316929)scale(0.18 -0.18)">
     <use transform="translate(42.0 6.796875)" xlink:href="#STIXGeneral-Regular-307"/>
     <use transform="translate(0.0 0.296875)" xlink:href="#STIXGeneral-Italic-1d634"/>
    </g>
   </g>
   <g id="text_6">
    <!-- $x_1$ -->
    <defs>
     <path d=" M30.2031 0 L22.2969 0 L22.2969 57 Q20.0938 56 15.75 53.75 Q11.4062 51.5 10.7969 51.2031 L10.7969 58.5 L28.7969 67.7031 L30.2031 67.2031 z " id="STIXGeneral-Regular-1d7e3"/>
    </defs>
    <g transform="translate(64.7907874016 33.3133316929)scale(0.18 -0.18)">
     <use transform="translate(0.0 0.703125)" xlink:href="#STIXGeneral-Italic-1d639"/>
     <use transform="translate(48.1999969482 -12.8859375)scale(0.7)" xlink:href="#STIXGeneral-Regular-1d7e3"/>
    </g>
   </g>
   <g id="text_7">
    <!-- $z_0$ -->
    <defs>
     <path d=" M47.7031 33 Q47.7031 23.7969 45.5469 16.3438 Q43.4062 8.90625 38.0938 3.75 Q32.7969 -1.40625 25 -1.40625 Q18.7969 -1.40625 14.25 1.6875 Q9.70312 4.79688 7.20312 10.0469 Q4.70312 15.2969 3.5 21.1406 Q2.29688 27 2.29688 33.5938 Q2.29688 42.9062 4.59375 50.3438 Q6.90625 57.7969 12.2969 62.6875 Q17.7031 67.5938 25.4062 67.5938 Q35.2031 67.5938 41.4531 57.9375 Q47.7031 48.2969 47.7031 33 M39.7969 33 Q39.7969 45.2031 35.75 52.8438 Q31.7031 60.5 25.2031 60.5 Q17.7969 60.5 14 52.75 Q10.2031 45 10.2031 33.4062 Q10.2031 28.2031 10.9531 23.5469 Q11.7031 18.9062 13.3438 14.75 Q15 10.5938 18 8.14062 Q21 5.70312 25 5.70312 Q30.0938 5.70312 33.5469 9.79688 Q37 13.9062 38.3906 19.8438 Q39.7969 25.7969 39.7969 33" id="STIXGeneral-Regular-1d7e2"/>
    </defs>
    <g transform="translate(19.7964566929 90.0062450787)scale(0.18 -0.18)">
     <use transform="translate(0.0 0.703125)" xlink:href="#STIXGeneral-Italic-1d63b"/>
     <use transform="translate(44.6999969482 -12.8859375)scale(0.7)" xlink:href="#STIXGeneral-Regular-1d7e2"/>
    </g>
   </g>
   <g id="text_8">
    <!-- $z_1$ -->
    <g transform="translate(121.843700787 90.0062450787)scale(0.18 -0.18)">
     <use transform="translate(0.0 0.703125)" xlink:href="#STIXGeneral-Italic-1d63b"/>
     <use transform="translate(44.6999969482 -12.8859375)scale(0.7)" xlink:href="#STIXGeneral-Regular-1d7e3"/>
    </g>
   </g>
  </g>
 </g>
 </svg>
