<svg xmlns="http://www.w3.org/2000/svg" xmlns:xlink="http://www.w3.org/1999/xlink" height="113pt" version="1.1" viewBox="0 0 141 113" width="141pt">
 <defs>
  <clipPath id="p16f9e740cd">
   <rect height="113.385826772" width="141.732283465" x="0.0" y="0.0"/>
  </clipPath>
 </defs>
<defs>
  <style type="text/css">
*{stroke-linecap:butt;stroke-linejoin:round;}
  </style>
 </defs>
 <g id="figure_1">
  <g id="patch_1">
   <path d=" M0 113.386 L141.732 113.386 L141.732 0 L0 0 z " style="fill:#ffffff;"/>
  </g>
  <g id="axes_1">
   <g id="patch_2">
    <path clip-path="url(#p16f9e740cd)" d=" M74.8346 60.0945 L71.4331 59.1024 L73.1339 57.8268 L61.2283 41.9528 L61.2283 41.9528 L73.1339 57.8268 L74.8346 56.5512 z " style="fill:none;stroke:#000000;"/>
   </g>
   <g id="patch_3">
    <path clip-path="url(#p16f9e740cd)" d=" M95.2441 60.0945 L95.2441 56.5512 L96.9449 57.8268 L108.85 41.9528 L108.85 41.9528 L96.9449 57.8268 L98.6457 59.1024 z " style="fill:none;stroke:#000000;"/>
   </g>
   <g id="patch_4">
    <path clip-path="url(#p16f9e740cd)" d=" M85.0394 90.7087 C89.5499 90.7087 93.8763 88.9166 97.0658 85.7272 C100.255 82.5377 102.047 78.2113 102.047 73.7008 C102.047 69.1902 100.255 64.8638 97.0658 61.6744 C93.8763 58.485 89.5499 56.6929 85.0394 56.6929 C80.5288 56.6929 76.2024 58.485 73.013 61.6744 C69.8236 64.8638 68.0315 69.1902 68.0315 73.7008 C68.0315 78.2113 69.8236 82.5377 73.013 85.7272 C76.2024 88.9166 80.5288 90.7087 85.0394 90.7087 z " style="fill:none;stroke:#000000;"/>
   </g>
   <g id="patch_5">
    <path clip-path="url(#p16f9e740cd)" d=" M119.055 45.3543 C123.566 45.3543 127.892 43.5623 131.082 40.3728 C134.271 37.1834 136.063 32.857 136.063 28.3465 C136.063 23.8359 134.271 19.5095 131.082 16.3201 C127.892 13.1306 123.566 11.3386 119.055 11.3386 C114.545 11.3386 110.218 13.1306 107.029 16.3201 C103.839 19.5095 102.047 23.8359 102.047 28.3465 C102.047 32.857 103.839 37.1834 107.029 40.3728 C110.218 43.5623 114.545 45.3543 119.055 45.3543 z " style="fill:none;stroke:#000000;"/>
   </g>
   <g id="patch_6">
    <path clip-path="url(#p16f9e740cd)" d=" M51.0236 45.3543 C55.5342 45.3543 59.8606 43.5623 63.05 40.3728 C66.2394 37.1834 68.0315 32.857 68.0315 28.3465 C68.0315 23.8359 66.2394 19.5095 63.05 16.3201 C59.8606 13.1306 55.5342 11.3386 51.0236 11.3386 C46.5131 11.3386 42.1867 13.1306 38.9972 16.3201 C35.8078 19.5095 34.0157 23.8359 34.0157 28.3465 C34.0157 32.857 35.8078 37.1834 38.9972 40.3728 C42.1867 43.5623 46.5131 45.3543 51.0236 45.3543 z " style="fill:none;stroke:#000000;"/>
   </g>
   <g id="matplotlib.axis_1"/>
   <g id="matplotlib.axis_2"/>
   <g id="text_1">
    <!-- Y -->
    <defs>
     <path d=" M-0.203125 72.9062 L10.4062 72.9062 L30.6094 42.9219 L50.6875 72.9062 L61.2812 72.9062 L35.5 34.7188 L35.5 0 L25.5938 0 L25.5938 34.7188 z " id="BitstreamVeraSans-Roman-59"/>
    </defs>
    <g transform="translate(79.5057763287 78.6676624016)scale(0.18 -0.18)">
     <use xlink:href="#BitstreamVeraSans-Roman-59"/>
    </g>
   </g>
   <g id="text_2">
    <!-- $X_2$ -->
    <defs>
     <path d=" M80.5938 66.2031 L48.9062 34.9062 L66.9062 0 L56.4062 0 L41.9062 28.2969 L13.5938 0 L3.09375 0 L38.2969 34.9062 L22.0938 66.2031 L32.7031 66.2031 L45.2031 41.4062 L69.9062 66.2031 z " id="STIXGeneral-Italic-1d61f"/>
     <path d=" M46.9062 7.09375 L44 0 L3.5 0 L3.5 2.09375 L21 23.5 L21 23.4062 L26.5938 30.2031 Q30.5 34.9062 32.0938 36.9531 Q33.7031 39 35.2031 41.9531 Q36.7031 44.9062 36.7031 47.5 Q36.7031 53.7031 33.3438 57.0938 Q30 60.5 24.2031 60.5 Q19.5938 60.5 15.75 56.7031 Q11.9062 52.9062 10.9062 45.9062 L3.70312 47.5938 Q5.29688 56.5 11.1875 62.0469 Q17.0938 67.5938 24.9062 67.5938 Q33.5938 67.5938 39.0938 62.1875 Q44.5938 56.7969 44.5938 49.0938 Q44.5938 43.5 42.5 39.4531 Q40.4062 35.4062 33.7031 27 L17.7031 7.09375 z " id="STIXGeneral-Regular-1d7e4"/>
    </defs>
    <g transform="translate(108.25511811 33.3133316929)scale(0.18 -0.18)">
     <use transform="translate(0.0 0.796875)" xlink:href="#STIXGeneral-Italic-1d61f"/>
     <use transform="translate(69.9999847412 -12.7921875)scale(0.7)" xlink:href="#STIXGeneral-Regular-1d7e4"/>
    </g>
   </g>
   <g id="text_3">
    <!-- $X_1$ -->
    <defs>
     <path d=" M30.2031 0 L22.2969 0 L22.2969 57 Q20.0938 56 15.75 53.75 Q11.4062 51.5 10.7969 51.2031 L10.7969 58.5 L28.7969 67.7031 L30.2031 67.2031 z " id="STIXGeneral-Regular-1d7e3"/>
    </defs>
    <g transform="translate(40.2236220472 33.3133316929)scale(0.18 -0.18)">
     <use transform="translate(0.0 0.796875)" xlink:href="#STIXGeneral-Italic-1d61f"/>
     <use transform="translate(69.9999847412 -12.7921875)scale(0.7)" xlink:href="#STIXGeneral-Regular-1d7e3"/>
    </g>
   </g>
  </g>
 </g>
 </svg>
