<svg xmlns="http://www.w3.org/2000/svg" xmlns:xlink="http://www.w3.org/1999/xlink" height="170pt" version="1.1" viewBox="0 0 340 170" width="340pt">
 <defs>
  <clipPath id="p1853b699a0">
   <rect height="170.078740157" width="340.157480315" x="0.0" y="0.0"/>
  </clipPath>
 </defs>
<defs>
  <style type="text/css">
*{stroke-linecap:butt;stroke-linejoin:round;}
  </style>
 </defs>
 <g id="figure_1">
  <g id="patch_1">
   <path d=" M0 170.079 L340.157 170.079 L340.157 0 L0 0 z " style="fill:#ffffff;"/>
  </g>
  <g id="axes_1">
   <g id="patch_2">
    <path clip-path="url(#p1853b699a0)" d=" M67.2494 125.442 L66.0276 122.116 L68.0639 122.727 L91.4908 44.637 L91.4908 44.637 L68.0639 122.727 L70.1002 123.337 z " style="fill:none;stroke:#000000;"/>
   </g>
   <g id="patch_3">
    <path clip-path="url(#p1853b699a0)" d=" M56.0456 125.941 L53.019 124.099 L54.9929 123.309 L46.0016 100.831 L46.0016 100.831 L54.9929 123.309 L56.9668 122.519 z " style="fill:none;stroke:#000000;"/>
   </g>
   <g id="patch_4">
    <path clip-path="url(#p1853b699a0)" d=" M125.507 125.442 L122.656 123.337 L124.692 122.727 L101.265 44.637 L101.265 44.637 L124.692 122.727 L126.728 122.116 z " style="fill:none;stroke:#000000;"/>
   </g>
   <g id="patch_5">
    <path clip-path="url(#p1853b699a0)" d=" M136.71 125.941 L135.789 122.519 L137.763 123.309 L146.754 100.831 L146.754 100.831 L137.763 123.309 L139.737 124.099 z " style="fill:none;stroke:#000000;"/>
   </g>
   <g id="patch_6">
    <path clip-path="url(#p1853b699a0)" d=" M237.328 125.442 L236.106 122.116 L238.143 122.727 L261.57 44.637 L261.57 44.637 L238.143 122.727 L240.179 123.337 z " style="fill:none;stroke:#000000;"/>
   </g>
   <g id="patch_7">
    <path clip-path="url(#p1853b699a0)" d=" M226.124 125.941 L223.098 124.099 L225.072 123.309 L216.08 100.831 L216.08 100.831 L225.072 123.309 L227.046 122.519 z " style="fill:none;stroke:#000000;"/>
   </g>
   <g id="patch_8">
    <path clip-path="url(#p1853b699a0)" d=" M295.585 125.442 L292.734 123.337 L294.771 122.727 L271.344 44.637 L271.344 44.637 L294.771 122.727 L296.807 122.116 z " style="fill:none;stroke:#000000;"/>
   </g>
   <g id="patch_9">
    <path clip-path="url(#p1853b699a0)" d=" M306.789 125.941 L305.868 122.519 L307.842 123.309 L316.833 100.831 L316.833 100.831 L307.842 123.309 L309.816 124.099 z " style="fill:none;stroke:#000000;"/>
   </g>
   <g id="patch_10">
    <path clip-path="url(#p1853b699a0)" d=" M323.15 102.047 C327.66 102.047 331.987 100.255 335.176 97.0658 C338.365 93.8763 340.157 89.5499 340.157 85.0394 C340.157 80.5288 338.365 76.2024 335.176 73.013 C331.987 69.8236 327.66 68.0315 323.15 68.0315 C318.639 68.0315 314.313 69.8236 311.123 73.013 C307.934 76.2024 306.142 80.5288 306.142 85.0394 C306.142 89.5499 307.934 93.8763 311.123 97.0658 C314.313 100.255 318.639 102.047 323.15 102.047 z " style="fill:none;stroke:#000000;"/>
   </g>
   <g id="patch_11">
    <path clip-path="url(#p1853b699a0)" d=" M153.071 102.047 C157.581 102.047 161.908 100.255 165.097 97.0658 C168.287 93.8763 170.079 89.5499 170.079 85.0394 C170.079 80.5288 168.287 76.2024 165.097 73.013 C161.908 69.8236 157.581 68.0315 153.071 68.0315 C148.56 68.0315 144.234 69.8236 141.044 73.013 C137.855 76.2024 136.063 80.5288 136.063 85.0394 C136.063 89.5499 137.855 93.8763 141.044 97.0658 C144.234 100.255 148.56 102.047 153.071 102.047 z " style="fill:none;stroke:#000000;"/>
   </g>
   <g id="patch_12">
    <path clip-path="url(#p1853b699a0)" d=" M39.685 102.047 C44.1956 102.047 48.522 100.255 51.7114 97.0658 C54.9009 93.8763 56.6929 89.5499 56.6929 85.0394 C56.6929 80.5288 54.9009 76.2024 51.7114 73.013 C48.522 69.8236 44.1956 68.0315 39.685 68.0315 C35.1745 68.0315 30.8481 69.8236 27.6587 73.013 C24.4692 76.2024 22.6772 80.5288 22.6772 85.0394 C22.6772 89.5499 24.4692 93.8763 27.6587 97.0658 C30.8481 100.255 35.1745 102.047 39.685 102.047 z " style="fill:none;stroke:#000000;"/>
   </g>
   <g id="patch_13">
    <path clip-path="url(#p1853b699a0)" d=" M62.3622 158.74 C66.8727 158.74 71.1992 156.948 74.3886 153.759 C77.578 150.569 79.3701 146.243 79.3701 141.732 C79.3701 137.222 77.578 132.895 74.3886 129.706 C71.1992 126.516 66.8727 124.724 62.3622 124.724 C57.8517 124.724 53.5253 126.516 50.3358 129.706 C47.1464 132.895 45.3543 137.222 45.3543 141.732 C45.3543 146.243 47.1464 150.569 50.3358 153.759 C53.5253 156.948 57.8517 158.74 62.3622 158.74 z " style="fill:none;stroke:#000000;"/>
   </g>
   <g id="patch_14">
    <path clip-path="url(#p1853b699a0)" d=" M232.441 158.74 C236.951 158.74 241.278 156.948 244.467 153.759 C247.657 150.569 249.449 146.243 249.449 141.732 C249.449 137.222 247.657 132.895 244.467 129.706 C241.278 126.516 236.951 124.724 232.441 124.724 C227.93 124.724 223.604 126.516 220.415 129.706 C217.225 132.895 215.433 137.222 215.433 141.732 C215.433 146.243 217.225 150.569 220.415 153.759 C223.604 156.948 227.93 158.74 232.441 158.74 z " style="fill:none;stroke:#000000;"/>
   </g>
   <g id="patch_15">
    <path clip-path="url(#p1853b699a0)" d=" M209.764 102.047 C214.274 102.047 218.601 100.255 221.79 97.0658 C224.98 93.8763 226.772 89.5499 226.772 85.0394 C226.772 80.5288 224.98 76.2024 221.79 73.013 C218.601 69.8236 214.274 68.0315 209.764 68.0315 C205.253 68.0315 200.927 69.8236 197.737 73.013 C194.548 76.2024 192.756 80.5288 192.756 85.0394 C192.756 89.5499 194.548 93.8763 197.737 97.0658 C200.927 100.255 205.253 102.047 209.764 102.047 z " style="fill:none;stroke:#000000;"/>
   </g>
   <g id="patch_16">
    <path clip-path="url(#p1853b699a0)" d=" M266.457 45.3543 C270.967 45.3543 275.294 43.5623 278.483 40.3728 C281.673 37.1834 283.465 32.857 283.465 28.3465 C283.465 23.8359 281.673 19.5095 278.483 16.3201 C275.294 13.1306 270.967 11.3386 266.457 11.3386 C261.946 11.3386 257.62 13.1306 254.43 16.3201 C251.241 19.5095 249.449 23.8359 249.449 28.3465 C249.449 32.857 251.241 37.1834 254.43 40.3728 C257.62 43.5623 261.946 45.3543 266.457 45.3543 z " style="fill:none;stroke:#000000;"/>
   </g>
   <g id="patch_17">
    <path clip-path="url(#p1853b699a0)" d=" M130.394 158.74 C134.904 158.74 139.231 156.948 142.42 153.759 C145.61 150.569 147.402 146.243 147.402 141.732 C147.402 137.222 145.61 132.895 142.42 129.706 C139.231 126.516 134.904 124.724 130.394 124.724 C125.883 124.724 121.557 126.516 118.367 129.706 C115.178 132.895 113.386 137.222 113.386 141.732 C113.386 146.243 115.178 150.569 118.367 153.759 C121.557 156.948 125.883 158.74 130.394 158.74 z " style="fill:none;stroke:#000000;"/>
   </g>
   <g id="patch_18">
    <path clip-path="url(#p1853b699a0)" d=" M300.472 158.74 C304.983 158.74 309.309 156.948 312.499 153.759 C315.688 150.569 317.48 146.243 317.48 141.732 C317.48 137.222 315.688 132.895 312.499 129.706 C309.309 126.516 304.983 124.724 300.472 124.724 C295.962 124.724 291.635 126.516 288.446 129.706 C285.257 132.895 283.465 137.222 283.465 141.732 C283.465 146.243 285.257 150.569 288.446 153.759 C291.635 156.948 295.962 158.74 300.472 158.74 z " style="fill:none;stroke:#000000;"/>
   </g>
   <g id="patch_19">
    <path clip-path="url(#p1853b699a0)" d=" M96.378 45.3543 C100.888 45.3543 105.215 43.5623 108.404 40.3728 C111.594 37.1834 113.386 32.857 113.386 28.3465 C113.386 23.8359 111.594 19.5095 108.404 16.3201 C105.215 13.1306 100.888 11.3386 96.378 11.3386 C91.8674 11.3386 87.541 13.1306 84.3516 16.3201 C81.1621 19.5095 79.3701 23.8359 79.3701 28.3465 C79.3701 32.857 81.1621 37.1834 84.3516 40.3728 C87.541 43.5623 91.8674 45.3543 96.378 45.3543 z " style="fill:none;stroke:#000000;"/>
   </g>
   <g id="matplotlib.axis_1"/>
   <g id="matplotlib.axis_2"/>
   <g id="text_1">
    <!-- $I(s_2, c_2)$ -->
    <defs>
     <path d=" M51.2031 66.2031 L50.2031 58.7969 L39.0938 58.7969 L26.2969 7.40625 L37.4062 7.40625 L34.7031 0 L5.90625 0 L6.29688 7.40625 L17.4062 7.40625 L30.2031 58.7969 L19.0938 58.7969 L22.4062 66.2031 z " id="STIXGeneral-Italic-1d610"/>
     <path d=" M46.9062 7.09375 L44 0 L3.5 0 L3.5 2.09375 L21 23.5 L21 23.4062 L26.5938 30.2031 Q30.5 34.9062 32.0938 36.9531 Q33.7031 39 35.2031 41.9531 Q36.7031 44.9062 36.7031 47.5 Q36.7031 53.7031 33.3438 57.0938 Q30 60.5 24.2031 60.5 Q19.5938 60.5 15.75 56.7031 Q11.9062 52.9062 10.9062 45.9062 L3.70312 47.5938 Q5.29688 56.5 11.1875 62.0469 Q17.0938 67.5938 24.9062 67.5938 Q33.5938 67.5938 39.0938 62.1875 Q44.5938 56.7969 44.5938 49.0938 Q44.5938 43.5 42.5 39.4531 Q40.4062 35.4062 33.7031 27 L17.7031 7.09375 z " id="STIXGeneral-Regular-1d7e4"/>
     <path d=" M8.29688 -14.0938 L7.29688 -12.2031 Q15.5938 -6.59375 15.5938 -1.5 Q15.5938 -0.203125 14.2031 -0.203125 Q13.7969 -0.203125 12.8438 -0.390625 Q11.9062 -0.59375 11.2969 -0.59375 Q5.5 -0.59375 5.5 4.5 Q5.5 7.09375 7.14062 8.64062 Q8.79688 10.2031 11.5 10.2031 Q14.9062 10.2031 17.2031 7.75 Q19.5 5.29688 19.5 1.5 Q19.5 -3.09375 16.4531 -7.39062 Q13.4062 -11.7031 8.29688 -14.0938" id="STIXGeneral-Regular-2c"/>
     <path d=" M30.4062 -16.0938 L29.2031 -17.7031 Q17.5938 -11.0938 11.1875 0.5 Q4.79688 12.0938 4.79688 25.2031 Q4.79688 52.9062 29.5 67.5938 L30.4062 66 Q20.2031 57.2969 16.7969 48.8438 Q13.4062 40.4062 13.4062 25.5 Q13.4062 10.7031 16.9062 1.5 Q20.4062 -7.70312 30.4062 -16.0938" id="STIXGeneral-Regular-28"/>
     <path d=" M2.90625 66 L4.09375 67.5938 Q15.5 60.7969 22 49.1875 Q28.5 37.5938 28.5 24.7031 Q28.5 -2.59375 3.79688 -17.7031 L2.90625 -16.0938 Q13.2031 -7.59375 16.5469 0.84375 Q19.9062 9.29688 19.9062 24.4062 Q19.9062 39.5938 16.5469 48.75 Q13.2031 57.9062 2.90625 66" id="STIXGeneral-Regular-29"/>
     <path d=" M50.2969 37.0938 L44.5938 31.7031 L43 31.7031 Q41.5938 39.2031 33.5 39.2031 Q27.0938 39.2031 21.0469 33.0938 Q15 27 15 16.9062 Q15 11.7969 17.8438 8.9375 Q20.7031 6.09375 25.2969 6.09375 Q33.4062 6.09375 40.7969 16.5938 L46.4062 13.2031 Q36.7969 -1 22.9062 -1 Q15.5 -1 11.0938 3.20312 Q6.70312 7.40625 6.70312 15 Q6.70312 28 15.8906 37.1406 Q25.0938 46.2969 35.7031 46.2969 Q41.2031 46.2969 45.1406 44 Q49.0938 41.7031 50.2969 37.0938" id="STIXGeneral-Italic-1d624"/>
     <path d=" M43.2031 41 L41 32.0938 L39.5 32.0938 Q37.7969 36.5 35.2969 37.8906 Q32.7969 39.2969 28.8906 39.2969 Q25 39.2969 23.0469 37.1406 Q21.0938 35 21.0938 33 Q21.0938 31 22.7969 29.5469 Q24.5 28.0938 27.7969 26.5 Q33.7969 23.5938 36.1406 21.3438 Q38.5 19.0938 38.5 15.7969 Q38.5 9 32.8906 4 Q27.2969 -1 18.5938 -1 Q14.0938 -1 11.3906 0.296875 Q8.70312 1.59375 6.09375 4.5 L8.59375 14.7969 L10.0938 14.7969 Q11.9062 6.09375 21 6.09375 Q24.4062 6.09375 27.2969 7.84375 Q30.2031 9.59375 30.2031 12.7969 Q30.2031 14.2969 28.5938 15.6406 Q27 17 23.2031 18.9062 Q17.7031 21.5938 15.25 24.25 Q12.7969 26.9062 12.7969 30.2969 Q12.7969 36.5 18 41.3906 Q23.2031 46.2969 30.9062 46.2969 Q39.5938 46.2969 43.2031 41" id="STIXGeneral-Italic-1d634"/>
    </defs>
    <g transform="translate(305.494606299 88.0746825787)scale(0.11 -0.11)">
     <use transform="translate(0.0 0.40625)" xlink:href="#STIXGeneral-Italic-1d610"/>
     <use transform="translate(40.0999908447 0.40625)" xlink:href="#STIXGeneral-Regular-28"/>
     <use transform="translate(73.3999786377 0.40625)" xlink:href="#STIXGeneral-Italic-1d634"/>
     <use transform="translate(112.299972534 -13.1828125)scale(0.7)" xlink:href="#STIXGeneral-Regular-1d7e4"/>
     <use transform="translate(162.299957275 0.40625)" xlink:href="#STIXGeneral-Regular-2c"/>
     <use transform="translate(191.419955444 0.40625)" xlink:href="#STIXGeneral-Italic-1d624"/>
     <use transform="translate(237.019946289 -13.1828125)scale(0.7)" xlink:href="#STIXGeneral-Regular-1d7e4"/>
     <use transform="translate(287.01993103 0.40625)" xlink:href="#STIXGeneral-Regular-29"/>
    </g>
   </g>
   <g id="text_2">
    <!-- $I(s_2, c_1)$ -->
    <defs>
     <path d=" M30.2031 0 L22.2969 0 L22.2969 57 Q20.0938 56 15.75 53.75 Q11.4062 51.5 10.7969 51.2031 L10.7969 58.5 L28.7969 67.7031 L30.2031 67.2031 z " id="STIXGeneral-Regular-1d7e3"/>
    </defs>
    <g transform="translate(135.415866142 88.0746825787)scale(0.11 -0.11)">
     <use transform="translate(0.0 0.40625)" xlink:href="#STIXGeneral-Italic-1d610"/>
     <use transform="translate(40.0999908447 0.40625)" xlink:href="#STIXGeneral-Regular-28"/>
     <use transform="translate(73.3999786377 0.40625)" xlink:href="#STIXGeneral-Italic-1d634"/>
     <use transform="translate(112.299972534 -13.1828125)scale(0.7)" xlink:href="#STIXGeneral-Regular-1d7e4"/>
     <use transform="translate(162.299957275 0.40625)" xlink:href="#STIXGeneral-Regular-2c"/>
     <use transform="translate(191.419955444 0.40625)" xlink:href="#STIXGeneral-Italic-1d624"/>
     <use transform="translate(237.019946289 -13.1828125)scale(0.7)" xlink:href="#STIXGeneral-Regular-1d7e3"/>
     <use transform="translate(287.01993103 0.40625)" xlink:href="#STIXGeneral-Regular-29"/>
    </g>
   </g>
   <g id="text_3">
    <!-- $I(s_1, c_1)$ -->
    <g transform="translate(22.0300393701 88.0746825787)scale(0.11 -0.11)">
     <use transform="translate(0.0 0.40625)" xlink:href="#STIXGeneral-Italic-1d610"/>
     <use transform="translate(40.0999908447 0.40625)" xlink:href="#STIXGeneral-Regular-28"/>
     <use transform="translate(73.3999786377 0.40625)" xlink:href="#STIXGeneral-Italic-1d634"/>
     <use transform="translate(112.299972534 -13.1828125)scale(0.7)" xlink:href="#STIXGeneral-Regular-1d7e3"/>
     <use transform="translate(162.299957275 0.40625)" xlink:href="#STIXGeneral-Regular-2c"/>
     <use transform="translate(191.419955444 0.40625)" xlink:href="#STIXGeneral-Italic-1d624"/>
     <use transform="translate(237.019946289 -13.1828125)scale(0.7)" xlink:href="#STIXGeneral-Regular-1d7e3"/>
     <use transform="translate(287.01993103 0.40625)" xlink:href="#STIXGeneral-Regular-29"/>
    </g>
   </g>
   <g id="text_4">
    <!-- $G(s_1, c_1)$ -->
    <defs>
     <path d=" M75.5 56.5 L73 46.2031 L71.0938 46.2031 Q67.9062 60 52.2031 60 Q42.7969 60 35.0469 54.9531 Q27.2969 49.9062 23.1406 42.2031 Q19 34.5 19 26.2031 Q19 17.5 24.2031 11.8438 Q29.4062 6.20312 39.4062 6.20312 Q47.7031 6.20312 52.0469 8 Q56.4062 9.79688 57 12.2969 L61 28.0938 L52.0938 28.0938 L52.0938 35.7031 L71.5938 35.7031 L64.0938 5.90625 Q59.5938 3.29688 57.1875 2.1875 Q54.7969 1.09375 49.3438 -0.15625 Q43.9062 -1.40625 37.0938 -1.40625 Q24.2031 -1.40625 16.9531 5.34375 Q9.70312 12.0938 9.70312 23.4062 Q9.70312 32.0938 13.3438 40.25 Q17 48.4062 23.0469 54.4062 Q29.0938 60.4062 37.2969 64 Q45.5 67.5938 54.0938 67.5938 Q70.5938 67.5938 75.5 56.5" id="STIXGeneral-Italic-1d60e"/>
    </defs>
    <g transform="translate(43.1122047244 144.767595965)scale(0.11 -0.11)">
     <use transform="translate(0.0 0.40625)" xlink:href="#STIXGeneral-Italic-1d60e"/>
     <use transform="translate(69.4999847412 0.40625)" xlink:href="#STIXGeneral-Regular-28"/>
     <use transform="translate(102.799972534 0.40625)" xlink:href="#STIXGeneral-Italic-1d634"/>
     <use transform="translate(141.699966431 -13.1828125)scale(0.7)" xlink:href="#STIXGeneral-Regular-1d7e3"/>
     <use transform="translate(191.699951172 0.40625)" xlink:href="#STIXGeneral-Regular-2c"/>
     <use transform="translate(220.819949341 0.40625)" xlink:href="#STIXGeneral-Italic-1d624"/>
     <use transform="translate(266.419940186 -13.1828125)scale(0.7)" xlink:href="#STIXGeneral-Regular-1d7e3"/>
     <use transform="translate(316.419924927 0.40625)" xlink:href="#STIXGeneral-Regular-29"/>
    </g>
   </g>
   <g id="text_5">
    <!-- $G(s_1, c_2)$ -->
    <g transform="translate(213.190944882 144.767595965)scale(0.11 -0.11)">
     <use transform="translate(0.0 0.40625)" xlink:href="#STIXGeneral-Italic-1d60e"/>
     <use transform="translate(69.4999847412 0.40625)" xlink:href="#STIXGeneral-Regular-28"/>
     <use transform="translate(102.799972534 0.40625)" xlink:href="#STIXGeneral-Italic-1d634"/>
     <use transform="translate(141.699966431 -13.1828125)scale(0.7)" xlink:href="#STIXGeneral-Regular-1d7e3"/>
     <use transform="translate(191.699951172 0.40625)" xlink:href="#STIXGeneral-Regular-2c"/>
     <use transform="translate(220.819949341 0.40625)" xlink:href="#STIXGeneral-Italic-1d624"/>
     <use transform="translate(266.419940186 -13.1828125)scale(0.7)" xlink:href="#STIXGeneral-Regular-1d7e4"/>
     <use transform="translate(316.419924927 0.40625)" xlink:href="#STIXGeneral-Regular-29"/>
    </g>
   </g>
   <g id="text_6">
    <!-- $I(s_1, c_2)$ -->
    <g transform="translate(192.108779528 88.0746825787)scale(0.11 -0.11)">
     <use transform="translate(0.0 0.40625)" xlink:href="#STIXGeneral-Italic-1d610"/>
     <use transform="translate(40.0999908447 0.40625)" xlink:href="#STIXGeneral-Regular-28"/>
     <use transform="translate(73.3999786377 0.40625)" xlink:href="#STIXGeneral-Italic-1d634"/>
     <use transform="translate(112.299972534 -13.1828125)scale(0.7)" xlink:href="#STIXGeneral-Regular-1d7e3"/>
     <use transform="translate(162.299957275 0.40625)" xlink:href="#STIXGeneral-Regular-2c"/>
     <use transform="translate(191.419955444 0.40625)" xlink:href="#STIXGeneral-Italic-1d624"/>
     <use transform="translate(237.019946289 -13.1828125)scale(0.7)" xlink:href="#STIXGeneral-Regular-1d7e4"/>
     <use transform="translate(287.01993103 0.40625)" xlink:href="#STIXGeneral-Regular-29"/>
    </g>
   </g>
   <g id="text_7">
    <!-- $D(c_2)$ -->
    <defs>
     <path d=" M23.9062 66.2031 L40.5 66.2031 Q75.0938 66.2031 75.0938 42.9062 Q75.0938 35.2031 72 27.6406 Q68.9062 20.0938 63.25 13.8906 Q57.5938 7.70312 48.6406 3.84375 Q39.7031 0 28.9062 0 L7.40625 0 z  M17.9062 7.40625 L22.7969 7.40625 Q32.2031 7.40625 37.5 8.15625 Q42.7969 8.90625 48.2031 11.4062 Q56.2031 15.0938 61.0469 23.1406 Q65.9062 31.2031 65.9062 40.9062 Q65.9062 58.7969 36.7031 58.7969 L30.7031 58.7969 z " id="STIXGeneral-Italic-1d60b"/>
    </defs>
    <g transform="translate(252.536692913 31.6577066929)scale(0.12 -0.12)">
     <use transform="translate(0.0 0.40625)" xlink:href="#STIXGeneral-Italic-1d60b"/>
     <use transform="translate(69.1999816895 0.40625)" xlink:href="#STIXGeneral-Regular-28"/>
     <use transform="translate(102.499969482 0.40625)" xlink:href="#STIXGeneral-Italic-1d624"/>
     <use transform="translate(148.099960327 -13.1828125)scale(0.7)" xlink:href="#STIXGeneral-Regular-1d7e4"/>
     <use transform="translate(198.099945068 0.40625)" xlink:href="#STIXGeneral-Regular-29"/>
    </g>
   </g>
   <g id="text_8">
    <!-- $G(s_2, c_1)$ -->
    <g transform="translate(111.143700787 144.767595965)scale(0.11 -0.11)">
     <use transform="translate(0.0 0.40625)" xlink:href="#STIXGeneral-Italic-1d60e"/>
     <use transform="translate(69.4999847412 0.40625)" xlink:href="#STIXGeneral-Regular-28"/>
     <use transform="translate(102.799972534 0.40625)" xlink:href="#STIXGeneral-Italic-1d634"/>
     <use transform="translate(141.699966431 -13.1828125)scale(0.7)" xlink:href="#STIXGeneral-Regular-1d7e4"/>
     <use transform="translate(191.699951172 0.40625)" xlink:href="#STIXGeneral-Regular-2c"/>
     <use transform="translate(220.819949341 0.40625)" xlink:href="#STIXGeneral-Italic-1d624"/>
     <use transform="translate(266.419940186 -13.1828125)scale(0.7)" xlink:href="#STIXGeneral-Regular-1d7e3"/>
     <use transform="translate(316.419924927 0.40625)" xlink:href="#STIXGeneral-Regular-29"/>
    </g>
   </g>
   <g id="text_9">
    <!-- $G(s_2, c_2)$ -->
    <g transform="translate(281.222440945 144.767595965)scale(0.11 -0.11)">
     <use transform="translate(0.0 0.40625)" xlink:href="#STIXGeneral-Italic-1d60e"/>
     <use transform="translate(69.4999847412 0.40625)" xlink:href="#STIXGeneral-Regular-28"/>
     <use transform="translate(102.799972534 0.40625)" xlink:href="#STIXGeneral-Italic-1d634"/>
     <use transform="translate(141.699966431 -13.1828125)scale(0.7)" xlink:href="#STIXGeneral-Regular-1d7e4"/>
     <use transform="translate(191.699951172 0.40625)" xlink:href="#STIXGeneral-Regular-2c"/>
     <use transform="translate(220.819949341 0.40625)" xlink:href="#STIXGeneral-Italic-1d624"/>
     <use transform="translate(266.419940186 -13.1828125)scale(0.7)" xlink:href="#STIXGeneral-Regular-1d7e4"/>
     <use transform="translate(316.419924927 0.40625)" xlink:href="#STIXGeneral-Regular-29"/>
    </g>
   </g>
   <g id="text_10">
    <!-- $D(c_1)$ -->
    <g transform="translate(82.4579527559 31.6577066929)scale(0.12 -0.12)">
     <use transform="translate(0.0 0.40625)" xlink:href="#STIXGeneral-Italic-1d60b"/>
     <use transform="translate(69.1999816895 0.40625)" xlink:href="#STIXGeneral-Regular-28"/>
     <use transform="translate(102.499969482 0.40625)" xlink:href="#STIXGeneral-Italic-1d624"/>
     <use transform="translate(148.099960327 -13.1828125)scale(0.7)" xlink:href="#STIXGeneral-Regular-1d7e3"/>
     <use transform="translate(198.099945068 0.40625)" xlink:href="#STIXGeneral-Regular-29"/>
    </g>
   </g>
  </g>
 </g>
 </svg>
