<svg xmlns="http://www.w3.org/2000/svg" xmlns:xlink="http://www.w3.org/1999/xlink" height="113pt" version="1.1" viewBox="0 0 141 113" width="141pt">
 <defs>
  <clipPath id="p16f9e740cd">
   <rect height="113.385826772" width="141.732283465" x="0.0" y="0.0"/>
  </clipPath>
 </defs>
<defs>
  <style type="text/css">
*{stroke-linecap:butt;stroke-linejoin:round;}
  </style>
 </defs>
 <g id="figure_1">
  <g id="patch_1">
   <path d=" M0 113.386 L141.732 113.386 L141.732 0 L0 0 z " style="fill:#ffffff;"/>
  </g>
  <g id="axes_1">
   <g id="patch_2">
    <path clip-path="url(#p16f9e740cd)" d=" M40.3728 61.6744 L40.8739 58.1667 L42.3772 59.67 L61.6744 40.3728 L61.6744 40.3728 L42.3772 59.67 L43.8805 61.1733 z " style="fill:none;stroke:#000000;"/>
   </g>
   <g id="patch_3">
    <path clip-path="url(#p16f9e740cd)" d=" M107.029 61.6744 L103.521 61.1733 L105.024 59.67 L85.7272 40.3728 L85.7272 40.3728 L105.024 59.67 L106.528 58.1667 z " style="fill:none;stroke:#000000;"/>
   </g>
   <g id="patch_4">
    <path clip-path="url(#p16f9e740cd)" d=" M73.7008 56.6929 L71.5748 53.8583 L73.7008 53.8583 L73.7008 45.3543 L73.7008 45.3543 L73.7008 53.8583 L75.8268 53.8583 z " style="fill:none;stroke:#000000;"/>
   </g>
   <g id="patch_5">
    <path clip-path="url(#p16f9e740cd)" d=" M119.055 90.7087 C123.566 90.7087 127.892 88.9166 131.082 85.7272 C134.271 82.5377 136.063 78.2113 136.063 73.7008 C136.063 69.1902 134.271 64.8638 131.082 61.6744 C127.892 58.485 123.566 56.6929 119.055 56.6929 C114.545 56.6929 110.218 58.485 107.029 61.6744 C103.839 64.8638 102.047 69.1902 102.047 73.7008 C102.047 78.2113 103.839 82.5377 107.029 85.7272 C110.218 88.9166 114.545 90.7087 119.055 90.7087 z " style="fill:none;stroke:#000000;"/>
   </g>
   <g id="patch_6">
    <path clip-path="url(#p16f9e740cd)" d=" M73.7008 45.3543 C78.2113 45.3543 82.5377 43.5623 85.7272 40.3728 C88.9166 37.1834 90.7087 32.857 90.7087 28.3465 C90.7087 23.8359 88.9166 19.5095 85.7272 16.3201 C82.5377 13.1306 78.2113 11.3386 73.7008 11.3386 C69.1902 11.3386 64.8638 13.1306 61.6744 16.3201 C58.485 19.5095 56.6929 23.8359 56.6929 28.3465 C56.6929 32.857 58.485 37.1834 61.6744 40.3728 C64.8638 43.5623 69.1902 45.3543 73.7008 45.3543 z " style="fill:none;stroke:#000000;"/>
   </g>
   <g id="patch_7">
    <path clip-path="url(#p16f9e740cd)" d=" M28.3465 90.7087 C32.857 90.7087 37.1834 88.9166 40.3728 85.7272 C43.5623 82.5377 45.3543 78.2113 45.3543 73.7008 C45.3543 69.1902 43.5623 64.8638 40.3728 61.6744 C37.1834 58.485 32.857 56.6929 28.3465 56.6929 C23.8359 56.6929 19.5095 58.485 16.3201 61.6744 C13.1306 64.8638 11.3386 69.1902 11.3386 73.7008 C11.3386 78.2113 13.1306 82.5377 16.3201 85.7272 C19.5095 88.9166 23.8359 90.7087 28.3465 90.7087 z " style="fill:none;stroke:#000000;"/>
   </g>
   <g id="patch_8">
    <path clip-path="url(#p16f9e740cd)" d=" M73.7008 90.7087 C78.2113 90.7087 82.5377 88.9166 85.7272 85.7272 C88.9166 82.5377 90.7087 78.2113 90.7087 73.7008 C90.7087 69.1902 88.9166 64.8638 85.7272 61.6744 C82.5377 58.485 78.2113 56.6929 73.7008 56.6929 C69.1902 56.6929 64.8638 58.485 61.6744 61.6744 C58.485 64.8638 56.6929 69.1902 56.6929 73.7008 C56.6929 78.2113 58.485 82.5377 61.6744 85.7272 C64.8638 88.9166 69.1902 90.7087 73.7008 90.7087 z " style="fill:none;stroke:#000000;"/>
   </g>
   <g id="matplotlib.axis_1"/>
   <g id="matplotlib.axis_2"/>
   <g id="text_1">
    <!-- $o(t_n)$ -->
    <defs>
     <path d=" M2.90625 66 L4.09375 67.5938 Q15.5 60.7969 22 49.1875 Q28.5 37.5938 28.5 24.7031 Q28.5 -2.59375 3.79688 -17.7031 L2.90625 -16.0938 Q13.2031 -7.59375 16.5469 0.84375 Q19.9062 9.29688 19.9062 24.4062 Q19.9062 39.5938 16.5469 48.75 Q13.2031 57.9062 2.90625 66" id="STIXGeneral-Regular-29"/>
     <path d=" M53.5938 30 Q53.5938 25.0938 51.5469 19.6875 Q49.5 14.2969 45.8906 9.64062 Q42.2969 5 36.6406 2 Q31 -1 24.5 -1 Q16.5938 -1 12.0938 3.70312 Q7.59375 8.40625 7.59375 16 Q7.59375 27.5 16.0469 36.8906 Q24.5 46.2969 36 46.2969 Q44.2031 46.2969 48.8906 42 Q53.5938 37.7031 53.5938 30 M45.5 28.2031 Q45.5 33.4062 42.5469 36.2969 Q39.5938 39.2031 34.2969 39.2031 Q26.7969 39.2031 21.25 32.5 Q15.7031 25.7969 15.7031 17.7031 Q15.7031 12.4062 18.5469 9.25 Q21.4062 6.09375 26.4062 6.09375 Q31.2031 6.09375 35.0938 8.6875 Q39 11.2969 41.1406 15 Q43.2969 18.7031 44.3906 22.2031 Q45.5 25.7031 45.5 28.2031" id="STIXGeneral-Italic-1d630"/>
     <path d=" M25.0938 45.9062 L23.9062 40.2031 Q28.4062 43.7969 32.2031 45.0469 Q36 46.2969 40.5 46.2969 Q45.2031 46.2969 48.0938 43.75 Q51 41.2031 51 37.2031 Q51 34.7969 50.4062 32.0938 L42.4062 0 L34.5 0 L42 30.4062 Q42.5 32.5938 42.5 33.9062 Q42.5 39.2031 36 39.2031 Q33.0938 39.2031 28.6406 36.7031 Q24.2031 34.2031 21.7031 30.2031 L14.2031 0 L6.29688 0 L17.2031 44 L24.2969 46.4062 z " id="STIXGeneral-Italic-1d62f"/>
     <path d=" M30.4062 -16.0938 L29.2031 -17.7031 Q17.5938 -11.0938 11.1875 0.5 Q4.79688 12.0938 4.79688 25.2031 Q4.79688 52.9062 29.5 67.5938 L30.4062 66 Q20.2031 57.2969 16.7969 48.8438 Q13.4062 40.4062 13.4062 25.5 Q13.4062 10.7031 16.9062 1.5 Q20.4062 -7.70312 30.4062 -16.0938" id="STIXGeneral-Regular-28"/>
     <path d=" M37.5938 45.2969 L35.9062 38.2031 L25.5 38.2031 L19.4062 13.7031 Q18.7969 11.2969 18.7969 9.79688 Q18.7969 6.09375 22.5938 6.09375 Q26.2031 6.09375 29.5938 8.70312 L30.7969 8.70312 L27.7969 1.20312 Q24.4062 -1 18.5 -1 Q14.4062 -1 12.25 1.04688 Q10.0938 3.09375 10.0938 6.70312 Q10.0938 8.20312 10.5938 10.4062 L17.5938 38.2031 L9.59375 38.2031 L10 39.9062 L15.7969 45.2969 L19.2969 45.2969 L20.9062 51.7031 L28.5938 58 L30.4062 58 L27.2031 45.2969 z " id="STIXGeneral-Italic-1d635"/>
    </defs>
    <g transform="translate(105.40511811 77.5639124016)scale(0.14 -0.14)">
     <use transform="translate(0.0 0.40625)" xlink:href="#STIXGeneral-Italic-1d630"/>
     <use transform="translate(49.8999938965 0.40625)" xlink:href="#STIXGeneral-Regular-28"/>
     <use transform="translate(83.1999816895 0.40625)" xlink:href="#STIXGeneral-Italic-1d635"/>
     <use transform="translate(112.299972534 -13.1828125)scale(0.7)" xlink:href="#STIXGeneral-Italic-1d62f"/>
     <use transform="translate(160.999969482 0.40625)" xlink:href="#STIXGeneral-Regular-29"/>
    </g>
   </g>
   <g id="text_2">
    <!-- $\theta$ -->
    <defs>
     <path d=" M51.0938 49 Q51.0938 38 47.1406 26.5 Q43.2031 15 36 7 Q28.7969 -1 20.5938 -1 Q13.4062 -1 9.95312 4.25 Q6.5 9.5 6.5 18.4062 Q6.5 24.5938 8.64062 32.8438 Q10.7969 41.0938 14.5469 49.1406 Q18.2969 57.2031 24.5469 62.75 Q30.7969 68.2969 37.9062 68.2969 Q44.7031 68.2969 47.8906 62.9375 Q51.0938 57.5938 51.0938 49 M17.2969 37.2969 L41.9062 37.2969 Q43.2031 43.5 43.2031 48.5 Q43.2031 61.2031 36 61.2031 Q30.5 61.2031 25.3906 54.0938 Q20.2969 47 17.2969 37.2969 M40.2031 30.2031 L15.5938 30.2031 Q14.4062 24.2969 14.4062 19.2969 Q14.4062 6.09375 22.2969 6.09375 Q27.7969 6.09375 32.4375 12.8438 Q37.0938 19.5938 40.2031 30.2031" id="STIXNonUnicode-Italic-e1df"/>
    </defs>
    <g transform="translate(69.0207874016 33.3133316929)scale(0.18 -0.18)">
     <use transform="translate(0.0 0.703125)" xlink:href="#STIXNonUnicode-Italic-e1df"/>
    </g>
   </g>
   <g id="text_3">
    <!-- $o(t_1)$ -->
    <defs>
     <path d=" M30.2031 0 L22.2969 0 L22.2969 57 Q20.0938 56 15.75 53.75 Q11.4062 51.5 10.7969 51.2031 L10.7969 58.5 L28.7969 67.7031 L30.2031 67.2031 z " id="STIXGeneral-Regular-1d7e3"/>
    </defs>
    <g transform="translate(14.6264566929 77.5639124016)scale(0.14 -0.14)">
     <use transform="translate(0.0 0.40625)" xlink:href="#STIXGeneral-Italic-1d630"/>
     <use transform="translate(49.8999938965 0.40625)" xlink:href="#STIXGeneral-Regular-28"/>
     <use transform="translate(83.1999816895 0.40625)" xlink:href="#STIXGeneral-Italic-1d635"/>
     <use transform="translate(112.299972534 -13.1828125)scale(0.7)" xlink:href="#STIXGeneral-Regular-1d7e3"/>
     <use transform="translate(162.299957275 0.40625)" xlink:href="#STIXGeneral-Regular-29"/>
    </g>
   </g>
   <g id="text_4">
    <!-- $\dots$ -->
    <defs>
     <path d=" M-18.0938 57.2031 Q-18.0938 55.0938 -19.5469 53.6875 Q-21 52.2969 -23.0938 52.2969 Q-25.0938 52.2969 -26.5469 53.75 Q-28 55.2031 -28 57.2031 Q-28 59.2969 -26.6406 60.75 Q-25.2969 62.2031 -23.0938 62.2031 Q-20.7969 62.2031 -19.4375 60.7969 Q-18.0938 59.4062 -18.0938 57.2031" id="STIXGeneral-Regular-307"/>
     <path d=" M43.2031 41 L41 32.0938 L39.5 32.0938 Q37.7969 36.5 35.2969 37.8906 Q32.7969 39.2969 28.8906 39.2969 Q25 39.2969 23.0469 37.1406 Q21.0938 35 21.0938 33 Q21.0938 31 22.7969 29.5469 Q24.5 28.0938 27.7969 26.5 Q33.7969 23.5938 36.1406 21.3438 Q38.5 19.0938 38.5 15.7969 Q38.5 9 32.8906 4 Q27.2969 -1 18.5938 -1 Q14.0938 -1 11.3906 0.296875 Q8.70312 1.59375 6.09375 4.5 L8.59375 14.7969 L10.0938 14.7969 Q11.9062 6.09375 21 6.09375 Q24.4062 6.09375 27.2969 7.84375 Q30.2031 9.59375 30.2031 12.7969 Q30.2031 14.2969 28.5938 15.6406 Q27 17 23.2031 18.9062 Q17.7031 21.5938 15.25 24.25 Q12.7969 26.9062 12.7969 30.2969 Q12.7969 36.5 18 41.3906 Q23.2031 46.2969 30.9062 46.2969 Q39.5938 46.2969 43.2031 41" id="STIXGeneral-Italic-1d634"/>
    </defs>
    <g transform="translate(70.1907874016 78.6676624016)scale(0.18 -0.18)">
     <use transform="translate(42.0 6.796875)" xlink:href="#STIXGeneral-Regular-307"/>
     <use transform="translate(0.0 0.296875)" xlink:href="#STIXGeneral-Italic-1d634"/>
    </g>
   </g>
  </g>
 </g>
 </svg>
