<svg xmlns="http://www.w3.org/2000/svg" xmlns:xlink="http://www.w3.org/1999/xlink" height="255pt" version="1.1" viewBox="0 0 255 255" width="255pt">
 <defs>
  <clipPath id="p9f51778fc5">
   <rect height="255.118110236" width="255.118110236" x="0.0" y="0.0"/>
  </clipPath>
 </defs>
<defs>
  <style type="text/css">
*{stroke-linecap:butt;stroke-linejoin:round;}
  </style>
 </defs>
 <g id="figure_1">
  <g id="patch_1">
   <path d=" M0 255.118 L255.118 255.118 L255.118 0 L0 0 z " style="fill:#ffffff;"/>
  </g>
  <g id="axes_1">
   <g id="patch_2">
    <path clip-path="url(#p9f51778fc5)" d=" M85.0394 226.772 L198.425 226.772 L198.425 85.0394 L85.0394 85.0394 z " style="fill:none;stroke:#000000;"/>
   </g>
   <g id="patch_3">
    <path clip-path="url(#p9f51778fc5)" d=" M56.6929 255.118 L226.772 255.118 L226.772 28.3465 L56.6929 28.3465 z " style="fill:none;stroke:#000000;"/>
   </g>
   <g id="patch_4">
    <path clip-path="url(#p9f51778fc5)" d=" M119.055 153.071 L116.929 150.236 L119.055 150.236 L119.055 130.394 L119.055 130.394 L119.055 150.236 L121.181 150.236 z " style="fill:none;stroke:#000000;"/>
   </g>
   <g id="patch_5">
    <path clip-path="url(#p9f51778fc5)" d=" M119.055 96.378 L116.929 93.5433 L119.055 93.5433 L119.055 73.7008 L119.055 73.7008 L119.055 93.5433 L121.181 93.5433 z " style="fill:none;stroke:#000000;"/>
   </g>
   <g id="patch_6">
    <path clip-path="url(#p9f51778fc5)" d=" M119.055 130.394 C123.566 130.394 127.892 128.602 131.082 125.412 C134.271 122.223 136.063 117.896 136.063 113.386 C136.063 108.875 134.271 104.549 131.082 101.359 C127.892 98.17 123.566 96.378 119.055 96.378 C114.545 96.378 110.218 98.17 107.029 101.359 C103.839 104.549 102.047 108.875 102.047 113.386 C102.047 117.896 103.839 122.223 107.029 125.412 C110.218 128.602 114.545 130.394 119.055 130.394 z " style="fill:none;stroke:#000000;"/>
   </g>
   <g id="patch_7">
    <path clip-path="url(#p9f51778fc5)" d=" M119.055 73.7008 C123.566 73.7008 127.892 71.9087 131.082 68.7193 C134.271 65.5299 136.063 61.2035 136.063 56.6929 C136.063 52.1824 134.271 47.856 131.082 44.6665 C127.892 41.4771 123.566 39.685 119.055 39.685 C114.545 39.685 110.218 41.4771 107.029 44.6665 C103.839 47.856 102.047 52.1824 102.047 56.6929 C102.047 61.2035 103.839 65.5299 107.029 68.7193 C110.218 71.9087 114.545 73.7008 119.055 73.7008 z " style="fill:none;stroke:#000000;"/>
   </g>
   <g id="patch_8">
    <path clip-path="url(#p9f51778fc5)" d=" M119.055 187.087 C123.566 187.087 127.892 185.295 131.082 182.105 C134.271 178.916 136.063 174.589 136.063 170.079 C136.063 165.568 134.271 161.242 131.082 158.052 C127.892 154.863 123.566 153.071 119.055 153.071 C114.545 153.071 110.218 154.863 107.029 158.052 C103.839 161.242 102.047 165.568 102.047 170.079 C102.047 174.589 103.839 178.916 107.029 182.105 C110.218 185.295 114.545 187.087 119.055 187.087 z " style="fill:none;stroke:#000000;"/>
   </g>
   <g id="matplotlib.axis_1"/>
   <g id="matplotlib.axis_2"/>
   <g id="text_1">
    <!-- students $s$ -->
    <defs>
     <path id="BitstreamVeraSans-Roman-20"/>
     <path d=" M54.8906 33.0156 L54.8906 0 L45.9062 0 L45.9062 32.7188 Q45.9062 40.4844 42.875 44.3281 Q39.8438 48.1875 33.7969 48.1875 Q26.5156 48.1875 22.3125 43.5469 Q18.1094 38.9219 18.1094 30.9062 L18.1094 0 L9.07812 0 L9.07812 54.6875 L18.1094 54.6875 L18.1094 46.1875 Q21.3438 51.125 25.7031 53.5625 Q30.0781 56 35.7969 56 Q45.2188 56 50.0469 50.1719 Q54.8906 44.3438 54.8906 33.0156" id="BitstreamVeraSans-Roman-6e"/>
     <path d=" M56.2031 29.5938 L56.2031 25.2031 L14.8906 25.2031 Q15.4844 15.9219 20.4844 11.0625 Q25.4844 6.20312 34.4219 6.20312 Q39.5938 6.20312 44.4531 7.46875 Q49.3125 8.73438 54.1094 11.2812 L54.1094 2.78125 Q49.2656 0.734375 44.1875 -0.34375 Q39.1094 -1.42188 33.8906 -1.42188 Q20.7969 -1.42188 13.1562 6.1875 Q5.51562 13.8125 5.51562 26.8125 Q5.51562 40.2344 12.7656 48.1094 Q20.0156 56 32.3281 56 Q43.3594 56 49.7812 48.8906 Q56.2031 41.7969 56.2031 29.5938 M47.2188 32.2344 Q47.125 39.5938 43.0938 43.9844 Q39.0625 48.3906 32.4219 48.3906 Q24.9062 48.3906 20.3906 44.1406 Q15.875 39.8906 15.1875 32.1719 z " id="BitstreamVeraSans-Roman-65"/>
     <path d=" M45.4062 46.3906 L45.4062 75.9844 L54.3906 75.9844 L54.3906 0 L45.4062 0 L45.4062 8.20312 Q42.5781 3.32812 38.25 0.953125 Q33.9375 -1.42188 27.875 -1.42188 Q17.9688 -1.42188 11.7344 6.48438 Q5.51562 14.4062 5.51562 27.2969 Q5.51562 40.1875 11.7344 48.0938 Q17.9688 56 27.875 56 Q33.9375 56 38.25 53.625 Q42.5781 51.2656 45.4062 46.3906 M14.7969 27.2969 Q14.7969 17.3906 18.875 11.75 Q22.9531 6.10938 30.0781 6.10938 Q37.2031 6.10938 41.2969 11.75 Q45.4062 17.3906 45.4062 27.2969 Q45.4062 37.2031 41.2969 42.8438 Q37.2031 48.4844 30.0781 48.4844 Q22.9531 48.4844 18.875 42.8438 Q14.7969 37.2031 14.7969 27.2969" id="BitstreamVeraSans-Roman-64"/>
     <path d=" M18.3125 70.2188 L18.3125 54.6875 L36.8125 54.6875 L36.8125 47.7031 L18.3125 47.7031 L18.3125 18.0156 Q18.3125 11.3281 20.1406 9.42188 Q21.9688 7.51562 27.5938 7.51562 L36.8125 7.51562 L36.8125 0 L27.5938 0 Q17.1875 0 13.2344 3.875 Q9.28125 7.76562 9.28125 18.0156 L9.28125 47.7031 L2.6875 47.7031 L2.6875 54.6875 L9.28125 54.6875 L9.28125 70.2188 z " id="BitstreamVeraSans-Roman-74"/>
     <path d=" M8.5 21.5781 L8.5 54.6875 L17.4844 54.6875 L17.4844 21.9219 Q17.4844 14.1562 20.5 10.2656 Q23.5312 6.39062 29.5938 6.39062 Q36.8594 6.39062 41.0781 11.0312 Q45.3125 15.6719 45.3125 23.6875 L45.3125 54.6875 L54.2969 54.6875 L54.2969 0 L45.3125 0 L45.3125 8.40625 Q42.0469 3.42188 37.7188 1 Q33.4062 -1.42188 27.6875 -1.42188 Q18.2656 -1.42188 13.375 4.4375 Q8.5 10.2969 8.5 21.5781" id="BitstreamVeraSans-Roman-75"/>
     <path d=" M44.2812 53.0781 L44.2812 44.5781 Q40.4844 46.5312 36.375 47.5 Q32.2812 48.4844 27.875 48.4844 Q21.1875 48.4844 17.8438 46.4375 Q14.5 44.3906 14.5 40.2812 Q14.5 37.1562 16.8906 35.375 Q19.2812 33.5938 26.5156 31.9844 L29.5938 31.2969 Q39.1562 29.25 43.1875 25.5156 Q47.2188 21.7812 47.2188 15.0938 Q47.2188 7.46875 41.1875 3.01562 Q35.1562 -1.42188 24.6094 -1.42188 Q20.2188 -1.42188 15.4531 -0.5625 Q10.6875 0.296875 5.42188 2 L5.42188 11.2812 Q10.4062 8.6875 15.2344 7.39062 Q20.0625 6.10938 24.8125 6.10938 Q31.1562 6.10938 34.5625 8.28125 Q37.9844 10.4531 37.9844 14.4062 Q37.9844 18.0625 35.5156 20.0156 Q33.0625 21.9688 24.7031 23.7812 L21.5781 24.5156 Q13.2344 26.2656 9.51562 29.9062 Q5.8125 33.5469 5.8125 39.8906 Q5.8125 47.6094 11.2812 51.7969 Q16.75 56 26.8125 56 Q31.7812 56 36.1719 55.2656 Q40.5781 54.5469 44.2812 53.0781" id="BitstreamVeraSans-Roman-73"/>
     <path d=" M43.2031 41 L41 32.0938 L39.5 32.0938 Q37.7969 36.5 35.2969 37.8906 Q32.7969 39.2969 28.8906 39.2969 Q25 39.2969 23.0469 37.1406 Q21.0938 35 21.0938 33 Q21.0938 31 22.7969 29.5469 Q24.5 28.0938 27.7969 26.5 Q33.7969 23.5938 36.1406 21.3438 Q38.5 19.0938 38.5 15.7969 Q38.5 9 32.8906 4 Q27.2969 -1 18.5938 -1 Q14.0938 -1 11.3906 0.296875 Q8.70312 1.59375 6.09375 4.5 L8.59375 14.7969 L10.0938 14.7969 Q11.9062 6.09375 21 6.09375 Q24.4062 6.09375 27.2969 7.84375 Q30.2031 9.59375 30.2031 12.7969 Q30.2031 14.2969 28.5938 15.6406 Q27 17 23.2031 18.9062 Q17.7031 21.5938 15.25 24.25 Q12.7969 26.9062 12.7969 30.2969 Q12.7969 36.5 18 41.3906 Q23.2031 46.2969 30.9062 46.2969 Q39.5938 46.2969 43.2031 41" id="STIXGeneral-Italic-1d634"/>
    </defs>
    <g transform="translate(90.0393700787 221.771653543)scale(0.18 -0.18)">
     <use transform="translate(0.0 0.015625)" xlink:href="#BitstreamVeraSans-Roman-73"/>
     <use transform="translate(52.099609375 0.015625)" xlink:href="#BitstreamVeraSans-Roman-74"/>
     <use transform="translate(91.30859375 0.015625)" xlink:href="#BitstreamVeraSans-Roman-75"/>
     <use transform="translate(154.6875 0.015625)" xlink:href="#BitstreamVeraSans-Roman-64"/>
     <use transform="translate(218.1640625 0.015625)" xlink:href="#BitstreamVeraSans-Roman-65"/>
     <use transform="translate(279.6875 0.015625)" xlink:href="#BitstreamVeraSans-Roman-6e"/>
     <use transform="translate(343.06640625 0.015625)" xlink:href="#BitstreamVeraSans-Roman-74"/>
     <use transform="translate(382.275390625 0.015625)" xlink:href="#BitstreamVeraSans-Roman-73"/>
     <use transform="translate(434.375 0.015625)" xlink:href="#BitstreamVeraSans-Roman-20"/>
     <use transform="translate(466.162109375 0.015625)" xlink:href="#STIXGeneral-Italic-1d634"/>
    </g>
   </g>
   <g id="text_2">
    <!-- courses $c$ -->
    <defs>
     <path d=" M50.2969 37.0938 L44.5938 31.7031 L43 31.7031 Q41.5938 39.2031 33.5 39.2031 Q27.0938 39.2031 21.0469 33.0938 Q15 27 15 16.9062 Q15 11.7969 17.8438 8.9375 Q20.7031 6.09375 25.2969 6.09375 Q33.4062 6.09375 40.7969 16.5938 L46.4062 13.2031 Q36.7969 -1 22.9062 -1 Q15.5 -1 11.0938 3.20312 Q6.70312 7.40625 6.70312 15 Q6.70312 28 15.8906 37.1406 Q25.0938 46.2969 35.7031 46.2969 Q41.2031 46.2969 45.1406 44 Q49.0938 41.7031 50.2969 37.0938" id="STIXGeneral-Italic-1d624"/>
     <path d=" M30.6094 48.3906 Q23.3906 48.3906 19.1875 42.75 Q14.9844 37.1094 14.9844 27.2969 Q14.9844 17.4844 19.1562 11.8438 Q23.3438 6.20312 30.6094 6.20312 Q37.7969 6.20312 41.9844 11.8594 Q46.1875 17.5312 46.1875 27.2969 Q46.1875 37.0156 41.9844 42.7031 Q37.7969 48.3906 30.6094 48.3906 M30.6094 56 Q42.3281 56 49.0156 48.375 Q55.7188 40.7656 55.7188 27.2969 Q55.7188 13.875 49.0156 6.21875 Q42.3281 -1.42188 30.6094 -1.42188 Q18.8438 -1.42188 12.1719 6.21875 Q5.51562 13.875 5.51562 27.2969 Q5.51562 40.7656 12.1719 48.375 Q18.8438 56 30.6094 56" id="BitstreamVeraSans-Roman-6f"/>
     <path d=" M41.1094 46.2969 Q39.5938 47.1719 37.8125 47.5781 Q36.0312 48 33.8906 48 Q26.2656 48 22.1875 43.0469 Q18.1094 38.0938 18.1094 28.8125 L18.1094 0 L9.07812 0 L9.07812 54.6875 L18.1094 54.6875 L18.1094 46.1875 Q20.9531 51.1719 25.4844 53.5781 Q30.0312 56 36.5312 56 Q37.4531 56 38.5781 55.875 Q39.7031 55.7656 41.0625 55.5156 z " id="BitstreamVeraSans-Roman-72"/>
     <path d=" M48.7812 52.5938 L48.7812 44.1875 Q44.9688 46.2969 41.1406 47.3438 Q37.3125 48.3906 33.4062 48.3906 Q24.6562 48.3906 19.8125 42.8438 Q14.9844 37.3125 14.9844 27.2969 Q14.9844 17.2812 19.8125 11.7344 Q24.6562 6.20312 33.4062 6.20312 Q37.3125 6.20312 41.1406 7.25 Q44.9688 8.29688 48.7812 10.4062 L48.7812 2.09375 Q45.0156 0.34375 40.9844 -0.53125 Q36.9688 -1.42188 32.4219 -1.42188 Q20.0625 -1.42188 12.7812 6.34375 Q5.51562 14.1094 5.51562 27.2969 Q5.51562 40.6719 12.8594 48.3281 Q20.2188 56 33.0156 56 Q37.1562 56 41.1094 55.1406 Q45.0625 54.2969 48.7812 52.5938" id="BitstreamVeraSans-Roman-63"/>
    </defs>
    <g transform="translate(61.6929133858 250.118110236)scale(0.18 -0.18)">
     <use xlink:href="#BitstreamVeraSans-Roman-63"/>
     <use transform="translate(54.98046875 0.0)" xlink:href="#BitstreamVeraSans-Roman-6f"/>
     <use transform="translate(116.162109375 0.0)" xlink:href="#BitstreamVeraSans-Roman-75"/>
     <use transform="translate(179.541015625 0.0)" xlink:href="#BitstreamVeraSans-Roman-72"/>
     <use transform="translate(220.654296875 0.0)" xlink:href="#BitstreamVeraSans-Roman-73"/>
     <use transform="translate(272.75390625 0.0)" xlink:href="#BitstreamVeraSans-Roman-65"/>
     <use transform="translate(334.27734375 0.0)" xlink:href="#BitstreamVeraSans-Roman-73"/>
     <use transform="translate(386.376953125 0.0)" xlink:href="#BitstreamVeraSans-Roman-20"/>
     <use transform="translate(418.1640625 0.0)" xlink:href="#STIXGeneral-Italic-1d624"/>
    </g>
   </g>
   <g id="text_3">
    <!-- intell. -->
    <defs>
     <path d=" M10.6875 12.4062 L21 12.4062 L21 0 L10.6875 0 z " id="BitstreamVeraSans-Roman-2e"/>
     <path d=" M9.42188 54.6875 L18.4062 54.6875 L18.4062 0 L9.42188 0 z  M9.42188 75.9844 L18.4062 75.9844 L18.4062 64.5938 L9.42188 64.5938 z " id="BitstreamVeraSans-Roman-69"/>
     <path d=" M9.42188 75.9844 L18.4062 75.9844 L18.4062 0 L9.42188 0 z " id="BitstreamVeraSans-Roman-6c"/>
    </defs>
    <g transform="translate(108.69386811 115.593326772)scale(0.08 -0.08)">
     <use xlink:href="#BitstreamVeraSans-Roman-69"/>
     <use x="27.783203125" xlink:href="#BitstreamVeraSans-Roman-6e"/>
     <use x="91.162109375" xlink:href="#BitstreamVeraSans-Roman-74"/>
     <use x="130.37109375" xlink:href="#BitstreamVeraSans-Roman-65"/>
     <use x="191.89453125" xlink:href="#BitstreamVeraSans-Roman-6c"/>
     <use x="219.677734375" xlink:href="#BitstreamVeraSans-Roman-6c"/>
     <use x="247.4609375" xlink:href="#BitstreamVeraSans-Roman-2e"/>
    </g>
   </g>
   <g id="text_4">
    <!-- diffic. -->
    <defs>
     <path d=" M37.1094 75.9844 L37.1094 68.5 L28.5156 68.5 Q23.6875 68.5 21.7969 66.5469 Q19.9219 64.5938 19.9219 59.5156 L19.9219 54.6875 L34.7188 54.6875 L34.7188 47.7031 L19.9219 47.7031 L19.9219 0 L10.8906 0 L10.8906 47.7031 L2.29688 47.7031 L2.29688 54.6875 L10.8906 54.6875 L10.8906 58.5 Q10.8906 67.625 15.1406 71.7969 Q19.3906 75.9844 28.6094 75.9844 z " id="BitstreamVeraSans-Roman-66"/>
    </defs>
    <g transform="translate(108.65824311 58.9004133858)scale(0.08 -0.08)">
     <use xlink:href="#BitstreamVeraSans-Roman-64"/>
     <use x="63.4765625" xlink:href="#BitstreamVeraSans-Roman-69"/>
     <use x="91.259765625" xlink:href="#BitstreamVeraSans-Roman-66"/>
     <use x="126.46484375" xlink:href="#BitstreamVeraSans-Roman-66"/>
     <use x="161.669921875" xlink:href="#BitstreamVeraSans-Roman-69"/>
     <use x="189.453125" xlink:href="#BitstreamVeraSans-Roman-63"/>
     <use x="244.43359375" xlink:href="#BitstreamVeraSans-Roman-2e"/>
    </g>
   </g>
   <g id="text_5">
    <!-- grade -->
    <defs>
     <path d=" M45.4062 27.9844 Q45.4062 37.75 41.375 43.1094 Q37.3594 48.4844 30.0781 48.4844 Q22.8594 48.4844 18.8281 43.1094 Q14.7969 37.75 14.7969 27.9844 Q14.7969 18.2656 18.8281 12.8906 Q22.8594 7.51562 30.0781 7.51562 Q37.3594 7.51562 41.375 12.8906 Q45.4062 18.2656 45.4062 27.9844 M54.3906 6.78125 Q54.3906 -7.17188 48.1875 -13.9844 Q42 -20.7969 29.2031 -20.7969 Q24.4688 -20.7969 20.2656 -20.0938 Q16.0625 -19.3906 12.1094 -17.9219 L12.1094 -9.1875 Q16.0625 -11.3281 19.9219 -12.3438 Q23.7812 -13.375 27.7812 -13.375 Q36.625 -13.375 41.0156 -8.76562 Q45.4062 -4.15625 45.4062 5.17188 L45.4062 9.625 Q42.625 4.78125 38.2812 2.39062 Q33.9375 0 27.875 0 Q17.8281 0 11.6719 7.65625 Q5.51562 15.3281 5.51562 27.9844 Q5.51562 40.6719 11.6719 48.3281 Q17.8281 56 27.875 56 Q33.9375 56 38.2812 53.6094 Q42.625 51.2188 45.4062 46.3906 L45.4062 54.6875 L54.3906 54.6875 z " id="BitstreamVeraSans-Roman-67"/>
     <path d=" M34.2812 27.4844 Q23.3906 27.4844 19.1875 25 Q14.9844 22.5156 14.9844 16.5 Q14.9844 11.7188 18.1406 8.90625 Q21.2969 6.10938 26.7031 6.10938 Q34.1875 6.10938 38.7031 11.4062 Q43.2188 16.7031 43.2188 25.4844 L43.2188 27.4844 z  M52.2031 31.2031 L52.2031 0 L43.2188 0 L43.2188 8.29688 Q40.1406 3.32812 35.5469 0.953125 Q30.9531 -1.42188 24.3125 -1.42188 Q15.9219 -1.42188 10.9531 3.29688 Q6 8.01562 6 15.9219 Q6 25.1406 12.1719 29.8281 Q18.3594 34.5156 30.6094 34.5156 L43.2188 34.5156 L43.2188 35.4062 Q43.2188 41.6094 39.1406 45 Q35.0625 48.3906 27.6875 48.3906 Q23 48.3906 18.5469 47.2656 Q14.1094 46.1406 10.0156 43.8906 L10.0156 52.2031 Q14.9375 54.1094 19.5781 55.0469 Q24.2188 56 28.6094 56 Q40.4844 56 46.3438 49.8438 Q52.2031 43.7031 52.2031 31.2031" id="BitstreamVeraSans-Roman-61"/>
    </defs>
    <g transform="translate(107.85324311 172.286240157)scale(0.08 -0.08)">
     <use xlink:href="#BitstreamVeraSans-Roman-67"/>
     <use x="63.4765625" xlink:href="#BitstreamVeraSans-Roman-72"/>
     <use x="104.58984375" xlink:href="#BitstreamVeraSans-Roman-61"/>
     <use x="165.869140625" xlink:href="#BitstreamVeraSans-Roman-64"/>
     <use x="229.345703125" xlink:href="#BitstreamVeraSans-Roman-65"/>
    </g>
   </g>
  </g>
 </g>
 </svg>
