<svg xmlns="http://www.w3.org/2000/svg" xmlns:xlink="http://www.w3.org/1999/xlink" height="226pt" version="1.1" viewBox="0 0 226 226" width="226pt">
 <defs>
  <clipPath id="p04fbb655f9">
   <rect height="226.771653543" width="226.771653543" x="0.0" y="0.0"/>
  </clipPath>
 </defs>
<defs>
  <style type="text/css">
*{stroke-linecap:butt;stroke-linejoin:round;}
  </style>
 </defs>
 <g id="figure_1">
  <g id="patch_1">
   <path d=" M0 226.772 L226.772 226.772 L226.772 0 L0 0 z " style="fill:#ffffff;"/>
  </g>
  <g id="axes_1">
   <g id="patch_2">
    <path clip-path="url(#p04fbb655f9)" d=" M85.0394 198.425 L198.425 198.425 L198.425 56.6929 L85.0394 56.6929 z " style="fill:none;stroke:#000000;"/>
   </g>
   <g id="patch_3">
    <path clip-path="url(#p04fbb655f9)" d=" M102.047 85.0394 L99.2126 87.1654 L99.2126 85.0394 L68.0315 85.0394 L68.0315 85.0394 L99.2126 85.0394 L99.2126 82.9134 z " style="fill:none;stroke:#000000;"/>
   </g>
   <g id="patch_4">
    <path clip-path="url(#p04fbb655f9)" d=" M102.047 141.732 L99.2126 143.858 L99.2126 141.732 L68.0315 141.732 L68.0315 141.732 L99.2126 141.732 L99.2126 139.606 z " style="fill:none;stroke:#000000;"/>
   </g>
   <g id="patch_5">
    <path clip-path="url(#p04fbb655f9)" d=" M119.055 124.724 L116.929 121.89 L119.055 121.89 L119.055 102.047 L119.055 102.047 L119.055 121.89 L121.181 121.89 z " style="fill:none;stroke:#000000;"/>
   </g>
   <g id="patch_6">
    <path clip-path="url(#p04fbb655f9)" d=" M119.055 102.047 C123.566 102.047 127.892 100.255 131.082 97.0658 C134.271 93.8763 136.063 89.5499 136.063 85.0394 C136.063 80.5288 134.271 76.2024 131.082 73.013 C127.892 69.8236 123.566 68.0315 119.055 68.0315 C114.545 68.0315 110.218 69.8236 107.029 73.013 C103.839 76.2024 102.047 80.5288 102.047 85.0394 C102.047 89.5499 103.839 93.8763 107.029 97.0658 C110.218 100.255 114.545 102.047 119.055 102.047 z " style="fill:none;stroke:#000000;"/>
   </g>
   <g id="patch_7">
    <path clip-path="url(#p04fbb655f9)" d=" M51.0236 158.74 C55.5342 158.74 59.8606 156.948 63.05 153.759 C66.2394 150.569 68.0315 146.243 68.0315 141.732 C68.0315 137.222 66.2394 132.895 63.05 129.706 C59.8606 126.516 55.5342 124.724 51.0236 124.724 C46.5131 124.724 42.1867 126.516 38.9972 129.706 C35.8078 132.895 34.0157 137.222 34.0157 141.732 C34.0157 146.243 35.8078 150.569 38.9972 153.759 C42.1867 156.948 46.5131 158.74 51.0236 158.74 z " style="fill:none;stroke:#000000;"/>
   </g>
   <g id="patch_8">
    <path clip-path="url(#p04fbb655f9)" d=" M119.055 158.74 C123.566 158.74 127.892 156.948 131.082 153.759 C134.271 150.569 136.063 146.243 136.063 141.732 C136.063 137.222 134.271 132.895 131.082 129.706 C127.892 126.516 123.566 124.724 119.055 124.724 C114.545 124.724 110.218 126.516 107.029 129.706 C103.839 132.895 102.047 137.222 102.047 141.732 C102.047 146.243 103.839 150.569 107.029 153.759 C110.218 156.948 114.545 158.74 119.055 158.74 z " style="fill:none;stroke:#000000;"/>
   </g>
   <g id="patch_9">
    <path clip-path="url(#p04fbb655f9)" d=" M51.0236 102.047 C55.5342 102.047 59.8606 100.255 63.05 97.0658 C66.2394 93.8763 68.0315 89.5499 68.0315 85.0394 C68.0315 80.5288 66.2394 76.2024 63.05 73.013 C59.8606 69.8236 55.5342 68.0315 51.0236 68.0315 C46.5131 68.0315 42.1867 69.8236 38.9972 73.013 C35.8078 76.2024 34.0157 80.5288 34.0157 85.0394 C34.0157 89.5499 35.8078 93.8763 38.9972 97.0658 C42.1867 100.255 46.5131 102.047 51.0236 102.047 z " style="fill:none;stroke:#000000;"/>
   </g>
   <g id="matplotlib.axis_1"/>
   <g id="matplotlib.axis_2"/>
   <g id="text_1">
    <!-- students $s$ -->
    <defs>
     <path id="BitstreamVeraSans-Roman-20"/>
     <path d=" M54.8906 33.0156 L54.8906 0 L45.9062 0 L45.9062 32.7188 Q45.9062 40.4844 42.875 44.3281 Q39.8438 48.1875 33.7969 48.1875 Q26.5156 48.1875 22.3125 43.5469 Q18.1094 38.9219 18.1094 30.9062 L18.1094 0 L9.07812 0 L9.07812 54.6875 L18.1094 54.6875 L18.1094 46.1875 Q21.3438 51.125 25.7031 53.5625 Q30.0781 56 35.7969 56 Q45.2188 56 50.0469 50.1719 Q54.8906 44.3438 54.8906 33.0156" id="BitstreamVeraSans-Roman-6e"/>
     <path d=" M56.2031 29.5938 L56.2031 25.2031 L14.8906 25.2031 Q15.4844 15.9219 20.4844 11.0625 Q25.4844 6.20312 34.4219 6.20312 Q39.5938 6.20312 44.4531 7.46875 Q49.3125 8.73438 54.1094 11.2812 L54.1094 2.78125 Q49.2656 0.734375 44.1875 -0.34375 Q39.1094 -1.42188 33.8906 -1.42188 Q20.7969 -1.42188 13.1562 6.1875 Q5.51562 13.8125 5.51562 26.8125 Q5.51562 40.2344 12.7656 48.1094 Q20.0156 56 32.3281 56 Q43.3594 56 49.7812 48.8906 Q56.2031 41.7969 56.2031 29.5938 M47.2188 32.2344 Q47.125 39.5938 43.0938 43.9844 Q39.0625 48.3906 32.4219 48.3906 Q24.9062 48.3906 20.3906 44.1406 Q15.875 39.8906 15.1875 32.1719 z " id="BitstreamVeraSans-Roman-65"/>
     <path d=" M45.4062 46.3906 L45.4062 75.9844 L54.3906 75.9844 L54.3906 0 L45.4062 0 L45.4062 8.20312 Q42.5781 3.32812 38.25 0.953125 Q33.9375 -1.42188 27.875 -1.42188 Q17.9688 -1.42188 11.7344 6.48438 Q5.51562 14.4062 5.51562 27.2969 Q5.51562 40.1875 11.7344 48.0938 Q17.9688 56 27.875 56 Q33.9375 56 38.25 53.625 Q42.5781 51.2656 45.4062 46.3906 M14.7969 27.2969 Q14.7969 17.3906 18.875 11.75 Q22.9531 6.10938 30.0781 6.10938 Q37.2031 6.10938 41.2969 11.75 Q45.4062 17.3906 45.4062 27.2969 Q45.4062 37.2031 41.2969 42.8438 Q37.2031 48.4844 30.0781 48.4844 Q22.9531 48.4844 18.875 42.8438 Q14.7969 37.2031 14.7969 27.2969" id="BitstreamVeraSans-Roman-64"/>
     <path d=" M18.3125 70.2188 L18.3125 54.6875 L36.8125 54.6875 L36.8125 47.7031 L18.3125 47.7031 L18.3125 18.0156 Q18.3125 11.3281 20.1406 9.42188 Q21.9688 7.51562 27.5938 7.51562 L36.8125 7.51562 L36.8125 0 L27.5938 0 Q17.1875 0 13.2344 3.875 Q9.28125 7.76562 9.28125 18.0156 L9.28125 47.7031 L2.6875 47.7031 L2.6875 54.6875 L9.28125 54.6875 L9.28125 70.2188 z " id="BitstreamVeraSans-Roman-74"/>
     <path d=" M8.5 21.5781 L8.5 54.6875 L17.4844 54.6875 L17.4844 21.9219 Q17.4844 14.1562 20.5 10.2656 Q23.5312 6.39062 29.5938 6.39062 Q36.8594 6.39062 41.0781 11.0312 Q45.3125 15.6719 45.3125 23.6875 L45.3125 54.6875 L54.2969 54.6875 L54.2969 0 L45.3125 0 L45.3125 8.40625 Q42.0469 3.42188 37.7188 1 Q33.4062 -1.42188 27.6875 -1.42188 Q18.2656 -1.42188 13.375 4.4375 Q8.5 10.2969 8.5 21.5781" id="BitstreamVeraSans-Roman-75"/>
     <path d=" M44.2812 53.0781 L44.2812 44.5781 Q40.4844 46.5312 36.375 47.5 Q32.2812 48.4844 27.875 48.4844 Q21.1875 48.4844 17.8438 46.4375 Q14.5 44.3906 14.5 40.2812 Q14.5 37.1562 16.8906 35.375 Q19.2812 33.5938 26.5156 31.9844 L29.5938 31.2969 Q39.1562 29.25 43.1875 25.5156 Q47.2188 21.7812 47.2188 15.0938 Q47.2188 7.46875 41.1875 3.01562 Q35.1562 -1.42188 24.6094 -1.42188 Q20.2188 -1.42188 15.4531 -0.5625 Q10.6875 0.296875 5.42188 2 L5.42188 11.2812 Q10.4062 8.6875 15.2344 7.39062 Q20.0625 6.10938 24.8125 6.10938 Q31.1562 6.10938 34.5625 8.28125 Q37.9844 10.4531 37.9844 14.4062 Q37.9844 18.0625 35.5156 20.0156 Q33.0625 21.9688 24.7031 23.7812 L21.5781 24.5156 Q13.2344 26.2656 9.51562 29.9062 Q5.8125 33.5469 5.8125 39.8906 Q5.8125 47.6094 11.2812 51.7969 Q16.75 56 26.8125 56 Q31.7812 56 36.1719 55.2656 Q40.5781 54.5469 44.2812 53.0781" id="BitstreamVeraSans-Roman-73"/>
     <path d=" M43.2031 41 L41 32.0938 L39.5 32.0938 Q37.7969 36.5 35.2969 37.8906 Q32.7969 39.2969 28.8906 39.2969 Q25 39.2969 23.0469 37.1406 Q21.0938 35 21.0938 33 Q21.0938 31 22.7969 29.5469 Q24.5 28.0938 27.7969 26.5 Q33.7969 23.5938 36.1406 21.3438 Q38.5 19.0938 38.5 15.7969 Q38.5 9 32.8906 4 Q27.2969 -1 18.5938 -1 Q14.0938 -1 11.3906 0.296875 Q8.70312 1.59375 6.09375 4.5 L8.59375 14.7969 L10.0938 14.7969 Q11.9062 6.09375 21 6.09375 Q24.4062 6.09375 27.2969 7.84375 Q30.2031 9.59375 30.2031 12.7969 Q30.2031 14.2969 28.5938 15.6406 Q27 17 23.2031 18.9062 Q17.7031 21.5938 15.25 24.25 Q12.7969 26.9062 12.7969 30.2969 Q12.7969 36.5 18 41.3906 Q23.2031 46.2969 30.9062 46.2969 Q39.5938 46.2969 43.2031 41" id="STIXGeneral-Italic-1d634"/>
    </defs>
    <g transform="translate(90.0393700787 193.42519685)scale(0.18 -0.18)">
     <use transform="translate(0.0 0.015625)" xlink:href="#BitstreamVeraSans-Roman-73"/>
     <use transform="translate(52.099609375 0.015625)" xlink:href="#BitstreamVeraSans-Roman-74"/>
     <use transform="translate(91.30859375 0.015625)" xlink:href="#BitstreamVeraSans-Roman-75"/>
     <use transform="translate(154.6875 0.015625)" xlink:href="#BitstreamVeraSans-Roman-64"/>
     <use transform="translate(218.1640625 0.015625)" xlink:href="#BitstreamVeraSans-Roman-65"/>
     <use transform="translate(279.6875 0.015625)" xlink:href="#BitstreamVeraSans-Roman-6e"/>
     <use transform="translate(343.06640625 0.015625)" xlink:href="#BitstreamVeraSans-Roman-74"/>
     <use transform="translate(382.275390625 0.015625)" xlink:href="#BitstreamVeraSans-Roman-73"/>
     <use transform="translate(434.375 0.015625)" xlink:href="#BitstreamVeraSans-Roman-20"/>
     <use transform="translate(466.162109375 0.015625)" xlink:href="#STIXGeneral-Italic-1d634"/>
    </g>
   </g>
   <g id="text_2">
    <!-- intell. -->
    <defs>
     <path d=" M10.6875 12.4062 L21 12.4062 L21 0 L10.6875 0 z " id="BitstreamVeraSans-Roman-2e"/>
     <path d=" M9.42188 54.6875 L18.4062 54.6875 L18.4062 0 L9.42188 0 z  M9.42188 75.9844 L18.4062 75.9844 L18.4062 64.5938 L9.42188 64.5938 z " id="BitstreamVeraSans-Roman-69"/>
     <path d=" M9.42188 75.9844 L18.4062 75.9844 L18.4062 0 L9.42188 0 z " id="BitstreamVeraSans-Roman-6c"/>
    </defs>
    <g transform="translate(108.69386811 87.2468700787)scale(0.08 -0.08)">
     <use xlink:href="#BitstreamVeraSans-Roman-69"/>
     <use x="27.783203125" xlink:href="#BitstreamVeraSans-Roman-6e"/>
     <use x="91.162109375" xlink:href="#BitstreamVeraSans-Roman-74"/>
     <use x="130.37109375" xlink:href="#BitstreamVeraSans-Roman-65"/>
     <use x="191.89453125" xlink:href="#BitstreamVeraSans-Roman-6c"/>
     <use x="219.677734375" xlink:href="#BitstreamVeraSans-Roman-6c"/>
     <use x="247.4609375" xlink:href="#BitstreamVeraSans-Roman-2e"/>
    </g>
   </g>
   <g id="text_3">
    <!-- $\theta_G$ -->
    <defs>
     <path d=" M51.0938 49 Q51.0938 38 47.1406 26.5 Q43.2031 15 36 7 Q28.7969 -1 20.5938 -1 Q13.4062 -1 9.95312 4.25 Q6.5 9.5 6.5 18.4062 Q6.5 24.5938 8.64062 32.8438 Q10.7969 41.0938 14.5469 49.1406 Q18.2969 57.2031 24.5469 62.75 Q30.7969 68.2969 37.9062 68.2969 Q44.7031 68.2969 47.8906 62.9375 Q51.0938 57.5938 51.0938 49 M17.2969 37.2969 L41.9062 37.2969 Q43.2031 43.5 43.2031 48.5 Q43.2031 61.2031 36 61.2031 Q30.5 61.2031 25.3906 54.0938 Q20.2969 47 17.2969 37.2969 M40.2031 30.2031 L15.5938 30.2031 Q14.4062 24.2969 14.4062 19.2969 Q14.4062 6.09375 22.2969 6.09375 Q27.7969 6.09375 32.4375 12.8438 Q37.0938 19.5938 40.2031 30.2031" id="STIXNonUnicode-Italic-e1df"/>
     <path d=" M75.5 56.5 L73 46.2031 L71.0938 46.2031 Q67.9062 60 52.2031 60 Q42.7969 60 35.0469 54.9531 Q27.2969 49.9062 23.1406 42.2031 Q19 34.5 19 26.2031 Q19 17.5 24.2031 11.8438 Q29.4062 6.20312 39.4062 6.20312 Q47.7031 6.20312 52.0469 8 Q56.4062 9.79688 57 12.2969 L61 28.0938 L52.0938 28.0938 L52.0938 35.7031 L71.5938 35.7031 L64.0938 5.90625 Q59.5938 3.29688 57.1875 2.1875 Q54.7969 1.09375 49.3438 -0.15625 Q43.9062 -1.40625 37.0938 -1.40625 Q24.2031 -1.40625 16.9531 5.34375 Q9.70312 12.0938 9.70312 23.4062 Q9.70312 32.0938 13.3438 40.25 Q17 48.4062 23.0469 54.4062 Q29.0938 60.4062 37.2969 64 Q45.5 67.5938 54.0938 67.5938 Q70.5938 67.5938 75.5 56.5" id="STIXGeneral-Italic-1d60e"/>
    </defs>
    <g transform="translate(40.0436220472 146.699158465)scale(0.18 -0.18)">
     <use transform="translate(0.0 0.703125)" xlink:href="#STIXNonUnicode-Italic-e1df"/>
     <use transform="translate(51.799987793 -12.8859375)scale(0.7)" xlink:href="#STIXGeneral-Italic-1d60e"/>
    </g>
   </g>
   <g id="text_4">
    <!-- grade -->
    <defs>
     <path d=" M34.2812 27.4844 Q23.3906 27.4844 19.1875 25 Q14.9844 22.5156 14.9844 16.5 Q14.9844 11.7188 18.1406 8.90625 Q21.2969 6.10938 26.7031 6.10938 Q34.1875 6.10938 38.7031 11.4062 Q43.2188 16.7031 43.2188 25.4844 L43.2188 27.4844 z  M52.2031 31.2031 L52.2031 0 L43.2188 0 L43.2188 8.29688 Q40.1406 3.32812 35.5469 0.953125 Q30.9531 -1.42188 24.3125 -1.42188 Q15.9219 -1.42188 10.9531 3.29688 Q6 8.01562 6 15.9219 Q6 25.1406 12.1719 29.8281 Q18.3594 34.5156 30.6094 34.5156 L43.2188 34.5156 L43.2188 35.4062 Q43.2188 41.6094 39.1406 45 Q35.0625 48.3906 27.6875 48.3906 Q23 48.3906 18.5469 47.2656 Q14.1094 46.1406 10.0156 43.8906 L10.0156 52.2031 Q14.9375 54.1094 19.5781 55.0469 Q24.2188 56 28.6094 56 Q40.4844 56 46.3438 49.8438 Q52.2031 43.7031 52.2031 31.2031" id="BitstreamVeraSans-Roman-61"/>
     <path d=" M45.4062 27.9844 Q45.4062 37.75 41.375 43.1094 Q37.3594 48.4844 30.0781 48.4844 Q22.8594 48.4844 18.8281 43.1094 Q14.7969 37.75 14.7969 27.9844 Q14.7969 18.2656 18.8281 12.8906 Q22.8594 7.51562 30.0781 7.51562 Q37.3594 7.51562 41.375 12.8906 Q45.4062 18.2656 45.4062 27.9844 M54.3906 6.78125 Q54.3906 -7.17188 48.1875 -13.9844 Q42 -20.7969 29.2031 -20.7969 Q24.4688 -20.7969 20.2656 -20.0938 Q16.0625 -19.3906 12.1094 -17.9219 L12.1094 -9.1875 Q16.0625 -11.3281 19.9219 -12.3438 Q23.7812 -13.375 27.7812 -13.375 Q36.625 -13.375 41.0156 -8.76562 Q45.4062 -4.15625 45.4062 5.17188 L45.4062 9.625 Q42.625 4.78125 38.2812 2.39062 Q33.9375 0 27.875 0 Q17.8281 0 11.6719 7.65625 Q5.51562 15.3281 5.51562 27.9844 Q5.51562 40.6719 11.6719 48.3281 Q17.8281 56 27.875 56 Q33.9375 56 38.2812 53.6094 Q42.625 51.2188 45.4062 46.3906 L45.4062 54.6875 L54.3906 54.6875 z " id="BitstreamVeraSans-Roman-67"/>
     <path d=" M41.1094 46.2969 Q39.5938 47.1719 37.8125 47.5781 Q36.0312 48 33.8906 48 Q26.2656 48 22.1875 43.0469 Q18.1094 38.0938 18.1094 28.8125 L18.1094 0 L9.07812 0 L9.07812 54.6875 L18.1094 54.6875 L18.1094 46.1875 Q20.9531 51.1719 25.4844 53.5781 Q30.0312 56 36.5312 56 Q37.4531 56 38.5781 55.875 Q39.7031 55.7656 41.0625 55.5156 z " id="BitstreamVeraSans-Roman-72"/>
    </defs>
    <g transform="translate(107.85324311 143.939783465)scale(0.08 -0.08)">
     <use xlink:href="#BitstreamVeraSans-Roman-67"/>
     <use x="63.4765625" xlink:href="#BitstreamVeraSans-Roman-72"/>
     <use x="104.58984375" xlink:href="#BitstreamVeraSans-Roman-61"/>
     <use x="165.869140625" xlink:href="#BitstreamVeraSans-Roman-64"/>
     <use x="229.345703125" xlink:href="#BitstreamVeraSans-Roman-65"/>
    </g>
   </g>
   <g id="text_5">
    <!-- $\theta_I$ -->
    <defs>
     <path d=" M51.2031 66.2031 L50.2031 58.7969 L39.0938 58.7969 L26.2969 7.40625 L37.4062 7.40625 L34.7031 0 L5.90625 0 L6.29688 7.40625 L17.4062 7.40625 L30.2031 58.7969 L19.0938 58.7969 L22.4062 66.2031 z " id="STIXGeneral-Italic-1d610"/>
    </defs>
    <g transform="translate(42.7436220472 90.0062450787)scale(0.18 -0.18)">
     <use transform="translate(0.0 0.703125)" xlink:href="#STIXNonUnicode-Italic-e1df"/>
     <use transform="translate(51.799987793 -12.8859375)scale(0.7)" xlink:href="#STIXGeneral-Italic-1d610"/>
    </g>
   </g>
  </g>
 </g>
 </svg>
