<svg xmlns="http://www.w3.org/2000/svg" xmlns:xlink="http://www.w3.org/1999/xlink" height="170pt" version="1.1" viewBox="0 0 283 170" width="283pt">
 <defs>
  <clipPath id="p0f0c60426c">
   <rect height="170.078740157" width="283.464566929" x="0.0" y="0.0"/>
  </clipPath>
 </defs>
<defs>
  <style type="text/css">
*{stroke-linecap:butt;stroke-linejoin:round;}
  </style>
 </defs>
 <g id="figure_1">
  <g id="patch_1">
   <path d=" M0 170.079 L283.465 170.079 L283.465 0 L0 0 z " style="fill:#ffffff;"/>
  </g>
  <g id="axes_1">
   <g id="patch_2">
    <path clip-path="url(#p0f0c60426c)" d=" M85.0394 141.732 L198.425 141.732 L198.425 28.3465 L85.0394 28.3465 z " style="fill:none;stroke:#000000;"/>
   </g>
   <g id="patch_3">
    <path clip-path="url(#p0f0c60426c)" d=" M102.047 85.0394 L99.2126 87.1654 L99.2126 85.0394 L68.0315 85.0394 L68.0315 85.0394 L99.2126 85.0394 L99.2126 82.9134 z " style="fill:none;stroke:#000000;"/>
   </g>
   <g id="patch_4">
    <path clip-path="url(#p0f0c60426c)" d=" M51.0236 102.047 C55.5342 102.047 59.8606 100.255 63.05 97.0658 C66.2394 93.8763 68.0315 89.5499 68.0315 85.0394 C68.0315 80.5288 66.2394 76.2024 63.05 73.013 C59.8606 69.8236 55.5342 68.0315 51.0236 68.0315 C46.5131 68.0315 42.1867 69.8236 38.9972 73.013 C35.8078 76.2024 34.0157 80.5288 34.0157 85.0394 C34.0157 89.5499 35.8078 93.8763 38.9972 97.0658 C42.1867 100.255 46.5131 102.047 51.0236 102.047 z " style="fill:none;stroke:#000000;"/>
   </g>
   <g id="patch_5">
    <path clip-path="url(#p0f0c60426c)" d=" M119.055 102.047 C123.566 102.047 127.892 100.255 131.082 97.0658 C134.271 93.8763 136.063 89.5499 136.063 85.0394 C136.063 80.5288 134.271 76.2024 131.082 73.013 C127.892 69.8236 123.566 68.0315 119.055 68.0315 C114.545 68.0315 110.218 69.8236 107.029 73.013 C103.839 76.2024 102.047 80.5288 102.047 85.0394 C102.047 89.5499 103.839 93.8763 107.029 97.0658 C110.218 100.255 114.545 102.047 119.055 102.047 z " style="fill:none;stroke:#000000;"/>
   </g>
   <g id="matplotlib.axis_1"/>
   <g id="matplotlib.axis_2"/>
   <g id="text_1">
    <!-- tosses $t$ -->
    <defs>
     <path id="BitstreamVeraSans-Roman-20"/>
     <path d=" M30.6094 48.3906 Q23.3906 48.3906 19.1875 42.75 Q14.9844 37.1094 14.9844 27.2969 Q14.9844 17.4844 19.1562 11.8438 Q23.3438 6.20312 30.6094 6.20312 Q37.7969 6.20312 41.9844 11.8594 Q46.1875 17.5312 46.1875 27.2969 Q46.1875 37.0156 41.9844 42.7031 Q37.7969 48.3906 30.6094 48.3906 M30.6094 56 Q42.3281 56 49.0156 48.375 Q55.7188 40.7656 55.7188 27.2969 Q55.7188 13.875 49.0156 6.21875 Q42.3281 -1.42188 30.6094 -1.42188 Q18.8438 -1.42188 12.1719 6.21875 Q5.51562 13.875 5.51562 27.2969 Q5.51562 40.7656 12.1719 48.375 Q18.8438 56 30.6094 56" id="BitstreamVeraSans-Roman-6f"/>
     <path d=" M56.2031 29.5938 L56.2031 25.2031 L14.8906 25.2031 Q15.4844 15.9219 20.4844 11.0625 Q25.4844 6.20312 34.4219 6.20312 Q39.5938 6.20312 44.4531 7.46875 Q49.3125 8.73438 54.1094 11.2812 L54.1094 2.78125 Q49.2656 0.734375 44.1875 -0.34375 Q39.1094 -1.42188 33.8906 -1.42188 Q20.7969 -1.42188 13.1562 6.1875 Q5.51562 13.8125 5.51562 26.8125 Q5.51562 40.2344 12.7656 48.1094 Q20.0156 56 32.3281 56 Q43.3594 56 49.7812 48.8906 Q56.2031 41.7969 56.2031 29.5938 M47.2188 32.2344 Q47.125 39.5938 43.0938 43.9844 Q39.0625 48.3906 32.4219 48.3906 Q24.9062 48.3906 20.3906 44.1406 Q15.875 39.8906 15.1875 32.1719 z " id="BitstreamVeraSans-Roman-65"/>
     <path d=" M18.3125 70.2188 L18.3125 54.6875 L36.8125 54.6875 L36.8125 47.7031 L18.3125 47.7031 L18.3125 18.0156 Q18.3125 11.3281 20.1406 9.42188 Q21.9688 7.51562 27.5938 7.51562 L36.8125 7.51562 L36.8125 0 L27.5938 0 Q17.1875 0 13.2344 3.875 Q9.28125 7.76562 9.28125 18.0156 L9.28125 47.7031 L2.6875 47.7031 L2.6875 54.6875 L9.28125 54.6875 L9.28125 70.2188 z " id="BitstreamVeraSans-Roman-74"/>
     <path d=" M44.2812 53.0781 L44.2812 44.5781 Q40.4844 46.5312 36.375 47.5 Q32.2812 48.4844 27.875 48.4844 Q21.1875 48.4844 17.8438 46.4375 Q14.5 44.3906 14.5 40.2812 Q14.5 37.1562 16.8906 35.375 Q19.2812 33.5938 26.5156 31.9844 L29.5938 31.2969 Q39.1562 29.25 43.1875 25.5156 Q47.2188 21.7812 47.2188 15.0938 Q47.2188 7.46875 41.1875 3.01562 Q35.1562 -1.42188 24.6094 -1.42188 Q20.2188 -1.42188 15.4531 -0.5625 Q10.6875 0.296875 5.42188 2 L5.42188 11.2812 Q10.4062 8.6875 15.2344 7.39062 Q20.0625 6.10938 24.8125 6.10938 Q31.1562 6.10938 34.5625 8.28125 Q37.9844 10.4531 37.9844 14.4062 Q37.9844 18.0625 35.5156 20.0156 Q33.0625 21.9688 24.7031 23.7812 L21.5781 24.5156 Q13.2344 26.2656 9.51562 29.9062 Q5.8125 33.5469 5.8125 39.8906 Q5.8125 47.6094 11.2812 51.7969 Q16.75 56 26.8125 56 Q31.7812 56 36.1719 55.2656 Q40.5781 54.5469 44.2812 53.0781" id="BitstreamVeraSans-Roman-73"/>
     <path d=" M37.5938 45.2969 L35.9062 38.2031 L25.5 38.2031 L19.4062 13.7031 Q18.7969 11.2969 18.7969 9.79688 Q18.7969 6.09375 22.5938 6.09375 Q26.2031 6.09375 29.5938 8.70312 L30.7969 8.70312 L27.7969 1.20312 Q24.4062 -1 18.5 -1 Q14.4062 -1 12.25 1.04688 Q10.0938 3.09375 10.0938 6.70312 Q10.0938 8.20312 10.5938 10.4062 L17.5938 38.2031 L9.59375 38.2031 L10 39.9062 L15.7969 45.2969 L19.2969 45.2969 L20.9062 51.7031 L28.5938 58 L30.4062 58 L27.2031 45.2969 z " id="STIXGeneral-Italic-1d635"/>
    </defs>
    <g transform="translate(90.0393700787 136.732283465)scale(0.18 -0.18)">
     <use transform="translate(0.0 0.78125)" xlink:href="#BitstreamVeraSans-Roman-74"/>
     <use transform="translate(39.208984375 0.78125)" xlink:href="#BitstreamVeraSans-Roman-6f"/>
     <use transform="translate(100.390625 0.78125)" xlink:href="#BitstreamVeraSans-Roman-73"/>
     <use transform="translate(152.490234375 0.78125)" xlink:href="#BitstreamVeraSans-Roman-73"/>
     <use transform="translate(204.58984375 0.78125)" xlink:href="#BitstreamVeraSans-Roman-65"/>
     <use transform="translate(266.11328125 0.78125)" xlink:href="#BitstreamVeraSans-Roman-73"/>
     <use transform="translate(318.212890625 0.78125)" xlink:href="#BitstreamVeraSans-Roman-20"/>
     <use transform="translate(350.0 0.78125)" xlink:href="#STIXGeneral-Italic-1d635"/>
    </g>
   </g>
   <g id="text_2">
    <!-- $\theta$ -->
    <defs>
     <path d=" M51.0938 49 Q51.0938 38 47.1406 26.5 Q43.2031 15 36 7 Q28.7969 -1 20.5938 -1 Q13.4062 -1 9.95312 4.25 Q6.5 9.5 6.5 18.4062 Q6.5 24.5938 8.64062 32.8438 Q10.7969 41.0938 14.5469 49.1406 Q18.2969 57.2031 24.5469 62.75 Q30.7969 68.2969 37.9062 68.2969 Q44.7031 68.2969 47.8906 62.9375 Q51.0938 57.5938 51.0938 49 M17.2969 37.2969 L41.9062 37.2969 Q43.2031 43.5 43.2031 48.5 Q43.2031 61.2031 36 61.2031 Q30.5 61.2031 25.3906 54.0938 Q20.2969 47 17.2969 37.2969 M40.2031 30.2031 L15.5938 30.2031 Q14.4062 24.2969 14.4062 19.2969 Q14.4062 6.09375 22.2969 6.09375 Q27.7969 6.09375 32.4375 12.8438 Q37.0938 19.5938 40.2031 30.2031" id="STIXNonUnicode-Italic-e1df"/>
    </defs>
    <g transform="translate(46.3436220472 90.0062450787)scale(0.18 -0.18)">
     <use transform="translate(0.0 0.703125)" xlink:href="#STIXNonUnicode-Italic-e1df"/>
    </g>
   </g>
   <g id="text_3">
    <!-- outcome -->
    <defs>
     <path d=" M52 44.1875 Q55.375 50.25 60.0625 53.125 Q64.75 56 71.0938 56 Q79.6406 56 84.2812 50.0156 Q88.9219 44.0469 88.9219 33.0156 L88.9219 0 L79.8906 0 L79.8906 32.7188 Q79.8906 40.5781 77.0938 44.375 Q74.3125 48.1875 68.6094 48.1875 Q61.625 48.1875 57.5625 43.5469 Q53.5156 38.9219 53.5156 30.9062 L53.5156 0 L44.4844 0 L44.4844 32.7188 Q44.4844 40.625 41.7031 44.4062 Q38.9219 48.1875 33.1094 48.1875 Q26.2188 48.1875 22.1562 43.5312 Q18.1094 38.875 18.1094 30.9062 L18.1094 0 L9.07812 0 L9.07812 54.6875 L18.1094 54.6875 L18.1094 46.1875 Q21.1875 51.2188 25.4844 53.6094 Q29.7812 56 35.6875 56 Q41.6562 56 45.8281 52.9688 Q50 49.9531 52 44.1875" id="BitstreamVeraSans-Roman-6d"/>
     <path d=" M8.5 21.5781 L8.5 54.6875 L17.4844 54.6875 L17.4844 21.9219 Q17.4844 14.1562 20.5 10.2656 Q23.5312 6.39062 29.5938 6.39062 Q36.8594 6.39062 41.0781 11.0312 Q45.3125 15.6719 45.3125 23.6875 L45.3125 54.6875 L54.2969 54.6875 L54.2969 0 L45.3125 0 L45.3125 8.40625 Q42.0469 3.42188 37.7188 1 Q33.4062 -1.42188 27.6875 -1.42188 Q18.2656 -1.42188 13.375 4.4375 Q8.5 10.2969 8.5 21.5781" id="BitstreamVeraSans-Roman-75"/>
     <path d=" M48.7812 52.5938 L48.7812 44.1875 Q44.9688 46.2969 41.1406 47.3438 Q37.3125 48.3906 33.4062 48.3906 Q24.6562 48.3906 19.8125 42.8438 Q14.9844 37.3125 14.9844 27.2969 Q14.9844 17.2812 19.8125 11.7344 Q24.6562 6.20312 33.4062 6.20312 Q37.3125 6.20312 41.1406 7.25 Q44.9688 8.29688 48.7812 10.4062 L48.7812 2.09375 Q45.0156 0.34375 40.9844 -0.53125 Q36.9688 -1.42188 32.4219 -1.42188 Q20.0625 -1.42188 12.7812 6.34375 Q5.51562 14.1094 5.51562 27.2969 Q5.51562 40.6719 12.8594 48.3281 Q20.2188 56 33.0156 56 Q37.1562 56 41.1094 55.1406 Q45.0625 54.2969 48.7812 52.5938" id="BitstreamVeraSans-Roman-63"/>
    </defs>
    <g transform="translate(104.07402436 86.9709325787)scale(0.07 -0.07)">
     <use xlink:href="#BitstreamVeraSans-Roman-6f"/>
     <use x="61.181640625" xlink:href="#BitstreamVeraSans-Roman-75"/>
     <use x="124.560546875" xlink:href="#BitstreamVeraSans-Roman-74"/>
     <use x="163.76953125" xlink:href="#BitstreamVeraSans-Roman-63"/>
     <use x="218.75" xlink:href="#BitstreamVeraSans-Roman-6f"/>
     <use x="279.931640625" xlink:href="#BitstreamVeraSans-Roman-6d"/>
     <use x="377.34375" xlink:href="#BitstreamVeraSans-Roman-65"/>
    </g>
   </g>
  </g>
 </g>
 </svg>
