<svg xmlns="http://www.w3.org/2000/svg" xmlns:xlink="http://www.w3.org/1999/xlink" height="113pt" version="1.1" viewBox="0 0 425 113" width="425pt">
 <defs>
  <clipPath id="p3f8fa5a5c0">
   <rect height="113.385826772" width="425.196850394" x="0.0" y="0.0"/>
  </clipPath>
 </defs>
<defs>
  <style type="text/css">
*{stroke-linecap:butt;stroke-linejoin:round;}
  </style>
 </defs>
 <g id="figure_1">
  <g id="patch_1">
   <path d=" M0 113.386 L425.197 113.386 L425.197 0 L0 0 z " style="fill:#ffffff;"/>
  </g>
  <g id="axes_1">
   <g id="patch_2">
    <path clip-path="url(#p3f8fa5a5c0)" d=" M61.2283 41.9528 L64.6299 42.9449 L62.9291 44.2205 L74.8346 60.0945 L74.8346 60.0945 L62.9291 44.2205 L61.2283 45.4961 z " style="fill:none;stroke:#000000;"/>
   </g>
   <g id="patch_3">
    <path clip-path="url(#p3f8fa5a5c0)" d=" M108.85 41.9528 L108.85 45.4961 L107.15 44.2205 L95.2441 60.0945 L95.2441 60.0945 L107.15 44.2205 L105.449 42.9449 z " style="fill:none;stroke:#000000;"/>
   </g>
   <g id="patch_4">
    <path clip-path="url(#p3f8fa5a5c0)" d=" M202.961 41.9528 L206.362 42.9449 L204.661 44.2205 L216.567 60.0945 L216.567 60.0945 L204.661 44.2205 L202.961 45.4961 z " style="fill:none;stroke:#000000;"/>
   </g>
   <g id="patch_5">
    <path clip-path="url(#p3f8fa5a5c0)" d=" M236.976 60.0945 L236.976 56.5512 L238.677 57.8268 L250.583 41.9528 L250.583 41.9528 L238.677 57.8268 L240.378 59.1024 z " style="fill:none;stroke:#000000;"/>
   </g>
   <g id="patch_6">
    <path clip-path="url(#p3f8fa5a5c0)" d=" M358.299 60.0945 L354.898 59.1024 L356.598 57.8268 L344.693 41.9528 L344.693 41.9528 L356.598 57.8268 L358.299 56.5512 z " style="fill:none;stroke:#000000;"/>
   </g>
   <g id="patch_7">
    <path clip-path="url(#p3f8fa5a5c0)" d=" M392.315 41.9528 L392.315 45.4961 L390.614 44.2205 L378.709 60.0945 L378.709 60.0945 L390.614 44.2205 L388.913 42.9449 z " style="fill:none;stroke:#000000;"/>
   </g>
   <g id="patch_8">
    <path clip-path="url(#p3f8fa5a5c0)" d=" M51.0236 45.3543 C55.5342 45.3543 59.8606 43.5623 63.05 40.3728 C66.2394 37.1834 68.0315 32.857 68.0315 28.3465 C68.0315 23.8359 66.2394 19.5095 63.05 16.3201 C59.8606 13.1306 55.5342 11.3386 51.0236 11.3386 C46.5131 11.3386 42.1867 13.1306 38.9972 16.3201 C35.8078 19.5095 34.0157 23.8359 34.0157 28.3465 C34.0157 32.857 35.8078 37.1834 38.9972 40.3728 C42.1867 43.5623 46.5131 45.3543 51.0236 45.3543 z " style="fill:none;stroke:#000000;"/>
   </g>
   <g id="patch_9">
    <path clip-path="url(#p3f8fa5a5c0)" d=" M85.0394 90.7087 C89.5499 90.7087 93.8763 88.9166 97.0658 85.7272 C100.255 82.5377 102.047 78.2113 102.047 73.7008 C102.047 69.1902 100.255 64.8638 97.0658 61.6744 C93.8763 58.485 89.5499 56.6929 85.0394 56.6929 C80.5288 56.6929 76.2024 58.485 73.013 61.6744 C69.8236 64.8638 68.0315 69.1902 68.0315 73.7008 C68.0315 78.2113 69.8236 82.5377 73.013 85.7272 C76.2024 88.9166 80.5288 90.7087 85.0394 90.7087 z " style="fill:none;stroke:#000000;"/>
   </g>
   <g id="patch_10">
    <path clip-path="url(#p3f8fa5a5c0)" d=" M119.055 45.3543 C123.566 45.3543 127.892 43.5623 131.082 40.3728 C134.271 37.1834 136.063 32.857 136.063 28.3465 C136.063 23.8359 134.271 19.5095 131.082 16.3201 C127.892 13.1306 123.566 11.3386 119.055 11.3386 C114.545 11.3386 110.218 13.1306 107.029 16.3201 C103.839 19.5095 102.047 23.8359 102.047 28.3465 C102.047 32.857 103.839 37.1834 107.029 40.3728 C110.218 43.5623 114.545 45.3543 119.055 45.3543 z " style="fill:none;stroke:#000000;"/>
   </g>
   <g id="patch_11">
    <path clip-path="url(#p3f8fa5a5c0)" d=" M334.488 45.3543 C338.999 45.3543 343.325 43.5623 346.515 40.3728 C349.704 37.1834 351.496 32.857 351.496 28.3465 C351.496 23.8359 349.704 19.5095 346.515 16.3201 C343.325 13.1306 338.999 11.3386 334.488 11.3386 C329.978 11.3386 325.651 13.1306 322.462 16.3201 C319.272 19.5095 317.48 23.8359 317.48 28.3465 C317.48 32.857 319.272 37.1834 322.462 40.3728 C325.651 43.5623 329.978 45.3543 334.488 45.3543 z " style="fill:none;stroke:#000000;"/>
   </g>
   <g id="patch_12">
    <path clip-path="url(#p3f8fa5a5c0)" d=" M192.756 45.3543 C197.266 45.3543 201.593 43.5623 204.782 40.3728 C207.972 37.1834 209.764 32.857 209.764 28.3465 C209.764 23.8359 207.972 19.5095 204.782 16.3201 C201.593 13.1306 197.266 11.3386 192.756 11.3386 C188.245 11.3386 183.919 13.1306 180.73 16.3201 C177.54 19.5095 175.748 23.8359 175.748 28.3465 C175.748 32.857 177.54 37.1834 180.73 40.3728 C183.919 43.5623 188.245 45.3543 192.756 45.3543 z " style="fill:none;stroke:#000000;"/>
   </g>
   <g id="patch_13">
    <path clip-path="url(#p3f8fa5a5c0)" d=" M260.787 45.3543 C265.298 45.3543 269.624 43.5623 272.814 40.3728 C276.003 37.1834 277.795 32.857 277.795 28.3465 C277.795 23.8359 276.003 19.5095 272.814 16.3201 C269.624 13.1306 265.298 11.3386 260.787 11.3386 C256.277 11.3386 251.95 13.1306 248.761 16.3201 C245.572 19.5095 243.78 23.8359 243.78 28.3465 C243.78 32.857 245.572 37.1834 248.761 40.3728 C251.95 43.5623 256.277 45.3543 260.787 45.3543 z " style="fill:none;stroke:#000000;"/>
   </g>
   <g id="patch_14">
    <path clip-path="url(#p3f8fa5a5c0)" d=" M402.52 45.3543 C407.03 45.3543 411.357 43.5623 414.546 40.3728 C417.736 37.1834 419.528 32.857 419.528 28.3465 C419.528 23.8359 417.736 19.5095 414.546 16.3201 C411.357 13.1306 407.03 11.3386 402.52 11.3386 C398.009 11.3386 393.683 13.1306 390.493 16.3201 C387.304 19.5095 385.512 23.8359 385.512 28.3465 C385.512 32.857 387.304 37.1834 390.493 40.3728 C393.683 43.5623 398.009 45.3543 402.52 45.3543 z " style="fill:none;stroke:#000000;"/>
   </g>
   <g id="patch_15">
    <path clip-path="url(#p3f8fa5a5c0)" d=" M368.504 90.7087 C373.014 90.7087 377.341 88.9166 380.53 85.7272 C383.72 82.5377 385.512 78.2113 385.512 73.7008 C385.512 69.1902 383.72 64.8638 380.53 61.6744 C377.341 58.485 373.014 56.6929 368.504 56.6929 C363.993 56.6929 359.667 58.485 356.478 61.6744 C353.288 64.8638 351.496 69.1902 351.496 73.7008 C351.496 78.2113 353.288 82.5377 356.478 85.7272 C359.667 88.9166 363.993 90.7087 368.504 90.7087 z " style="fill:none;stroke:#000000;"/>
   </g>
   <g id="patch_16">
    <path clip-path="url(#p3f8fa5a5c0)" d=" M226.772 90.7087 C231.282 90.7087 235.609 88.9166 238.798 85.7272 C241.987 82.5377 243.78 78.2113 243.78 73.7008 C243.78 69.1902 241.987 64.8638 238.798 61.6744 C235.609 58.485 231.282 56.6929 226.772 56.6929 C222.261 56.6929 217.935 58.485 214.745 61.6744 C211.556 64.8638 209.764 69.1902 209.764 73.7008 C209.764 78.2113 211.556 82.5377 214.745 85.7272 C217.935 88.9166 222.261 90.7087 226.772 90.7087 z " style="fill:none;stroke:#000000;"/>
   </g>
   <g id="matplotlib.axis_1"/>
   <g id="matplotlib.axis_2"/>
   <g id="text_1">
    <!-- A -->
    <defs>
     <path d=" M34.1875 63.1875 L20.7969 26.9062 L47.6094 26.9062 z  M28.6094 72.9062 L39.7969 72.9062 L67.5781 0 L57.3281 0 L50.6875 18.7031 L17.8281 18.7031 L11.1875 0 L0.78125 0 z " id="BitstreamVeraSans-Roman-41"/>
    </defs>
    <g transform="translate(45.0119032972 33.3133316929)scale(0.18 -0.18)">
     <use xlink:href="#BitstreamVeraSans-Roman-41"/>
    </g>
   </g>
   <g id="text_2">
    <!-- C -->
    <defs>
     <path d=" M64.4062 67.2812 L64.4062 56.8906 Q59.4219 61.5312 53.7812 63.8125 Q48.1406 66.1094 41.7969 66.1094 Q29.2969 66.1094 22.6562 58.4688 Q16.0156 50.8281 16.0156 36.375 Q16.0156 21.9688 22.6562 14.3281 Q29.2969 6.6875 41.7969 6.6875 Q48.1406 6.6875 53.7812 8.98438 Q59.4219 11.2812 64.4062 15.9219 L64.4062 5.60938 Q59.2344 2.09375 53.4375 0.328125 Q47.6562 -1.42188 41.2188 -1.42188 Q24.6562 -1.42188 15.125 8.70312 Q5.60938 18.8438 5.60938 36.375 Q5.60938 53.9531 15.125 64.0781 Q24.6562 74.2188 41.2188 74.2188 Q47.75 74.2188 53.5312 72.4844 Q59.3281 70.75 64.4062 67.2812" id="BitstreamVeraSans-Roman-43"/>
    </defs>
    <g transform="translate(79.7476513287 78.6676624016)scale(0.18 -0.18)">
     <use xlink:href="#BitstreamVeraSans-Roman-43"/>
    </g>
   </g>
   <g id="text_3">
    <!-- B -->
    <defs>
     <path d=" M19.6719 34.8125 L19.6719 8.10938 L35.5 8.10938 Q43.4531 8.10938 47.2812 11.4062 Q51.125 14.7031 51.125 21.4844 Q51.125 28.3281 47.2812 31.5625 Q43.4531 34.8125 35.5 34.8125 z  M19.6719 64.7969 L19.6719 42.8281 L34.2812 42.8281 Q41.5 42.8281 45.0312 45.5312 Q48.5781 48.25 48.5781 53.8125 Q48.5781 59.3281 45.0312 62.0625 Q41.5 64.7969 34.2812 64.7969 z  M9.8125 72.9062 L35.0156 72.9062 Q46.2969 72.9062 52.3906 68.2188 Q58.5 63.5312 58.5 54.8906 Q58.5 48.1875 55.375 44.2344 Q52.25 40.2812 46.1875 39.3125 Q53.4688 37.75 57.5 32.7812 Q61.5312 27.8281 61.5312 20.4062 Q61.5312 10.6406 54.8906 5.3125 Q48.25 0 35.9844 0 L9.8125 0 z " id="BitstreamVeraSans-Roman-42"/>
    </defs>
    <g transform="translate(114.40043061 33.3133316929)scale(0.18 -0.18)">
     <use xlink:href="#BitstreamVeraSans-Roman-42"/>
    </g>
   </g>
   <g id="text_4">
    <!-- A -->
    <g transform="translate(328.476470226 33.3133316929)scale(0.18 -0.18)">
     <use xlink:href="#BitstreamVeraSans-Roman-41"/>
    </g>
   </g>
   <g id="text_5">
    <!-- A -->
    <g transform="translate(186.744186762 33.3133316929)scale(0.18 -0.18)">
     <use xlink:href="#BitstreamVeraSans-Roman-41"/>
    </g>
   </g>
   <g id="text_6">
    <!-- B -->
    <g transform="translate(256.132714075 33.3133316929)scale(0.18 -0.18)">
     <use xlink:href="#BitstreamVeraSans-Roman-42"/>
    </g>
   </g>
   <g id="text_7">
    <!-- B -->
    <g transform="translate(397.864997539 33.3133316929)scale(0.18 -0.18)">
     <use xlink:href="#BitstreamVeraSans-Roman-42"/>
    </g>
   </g>
   <g id="text_8">
    <!-- C -->
    <g transform="translate(363.212218258 78.6676624016)scale(0.18 -0.18)">
     <use xlink:href="#BitstreamVeraSans-Roman-43"/>
    </g>
   </g>
   <g id="text_9">
    <!-- C -->
    <g transform="translate(221.479934793 78.6676624016)scale(0.18 -0.18)">
     <use xlink:href="#BitstreamVeraSans-Roman-43"/>
    </g>
   </g>
  </g>
 </g>
 </svg>
