<svg xmlns="http://www.w3.org/2000/svg" xmlns:xlink="http://www.w3.org/1999/xlink" height="226pt" version="1.1" viewBox="0 0 141 226" width="141pt">
 <defs>
  <clipPath id="pc6d7a7ea7f">
   <rect height="226.771653543" width="141.732283465" x="0.0" y="0.0"/>
  </clipPath>
 </defs>
<defs>
  <style type="text/css">
*{stroke-linecap:butt;stroke-linejoin:round;}
  </style>
 </defs>
 <g id="figure_1">
  <g id="patch_1">
   <path d=" M0 226.772 L141.732 226.772 L141.732 0 L0 0 z " style="fill:#ffffff;"/>
  </g>
  <g id="axes_1">
   <g id="patch_2">
    <path clip-path="url(#pc6d7a7ea7f)" d=" M74.8346 60.0945 L71.4331 59.1024 L73.1339 57.8268 L61.2283 41.9528 L61.2283 41.9528 L73.1339 57.8268 L74.8346 56.5512 z " style="fill:none;stroke:#000000;"/>
   </g>
   <g id="patch_3">
    <path clip-path="url(#pc6d7a7ea7f)" d=" M95.2441 60.0945 L95.2441 56.5512 L96.9449 57.8268 L108.85 41.9528 L108.85 41.9528 L96.9449 57.8268 L98.6457 59.1024 z " style="fill:none;stroke:#000000;"/>
   </g>
   <g id="patch_4">
    <path clip-path="url(#pc6d7a7ea7f)" d=" M85.0394 113.386 L82.9134 110.551 L85.0394 110.551 L85.0394 90.7087 L85.0394 90.7087 L85.0394 110.551 L87.1654 110.551 z " style="fill:none;stroke:#000000;"/>
   </g>
   <g id="patch_5">
    <path clip-path="url(#pc6d7a7ea7f)" d=" M102.047 198.425 L99.2126 200.551 L99.2126 198.425 L68.0315 198.425 L68.0315 198.425 L99.2126 198.425 L99.2126 196.299 z " style="fill:none;stroke:#000000;"/>
   </g>
   <g id="patch_6">
    <path clip-path="url(#pc6d7a7ea7f)" d=" M68.0315 198.425 L70.8661 196.299 L70.8661 198.425 L102.047 198.425 L102.047 198.425 L70.8661 198.425 L70.8661 200.551 z " style="fill:none;stroke:#000000;"/>
   </g>
   <g id="patch_7">
    <path clip-path="url(#pc6d7a7ea7f)" d=" M51.0236 45.3543 C55.5342 45.3543 59.8606 43.5623 63.05 40.3728 C66.2394 37.1834 68.0315 32.857 68.0315 28.3465 C68.0315 23.8359 66.2394 19.5095 63.05 16.3201 C59.8606 13.1306 55.5342 11.3386 51.0236 11.3386 C46.5131 11.3386 42.1867 13.1306 38.9972 16.3201 C35.8078 19.5095 34.0157 23.8359 34.0157 28.3465 C34.0157 32.857 35.8078 37.1834 38.9972 40.3728 C42.1867 43.5623 46.5131 45.3543 51.0236 45.3543 z " style="fill:none;stroke:#000000;"/>
   </g>
   <g id="patch_8">
    <path clip-path="url(#pc6d7a7ea7f)" d=" M85.0394 90.7087 C89.5499 90.7087 93.8763 88.9166 97.0658 85.7272 C100.255 82.5377 102.047 78.2113 102.047 73.7008 C102.047 69.1902 100.255 64.8638 97.0658 61.6744 C93.8763 58.485 89.5499 56.6929 85.0394 56.6929 C80.5288 56.6929 76.2024 58.485 73.013 61.6744 C69.8236 64.8638 68.0315 69.1902 68.0315 73.7008 C68.0315 78.2113 69.8236 82.5377 73.013 85.7272 C76.2024 88.9166 80.5288 90.7087 85.0394 90.7087 z " style="fill:#386df9;stroke:#000000;"/>
   </g>
   <g id="patch_9">
    <path clip-path="url(#pc6d7a7ea7f)" d=" M119.055 45.3543 C123.566 45.3543 127.892 43.5623 131.082 40.3728 C134.271 37.1834 136.063 32.857 136.063 28.3465 C136.063 23.8359 134.271 19.5095 131.082 16.3201 C127.892 13.1306 123.566 11.3386 119.055 11.3386 C114.545 11.3386 110.218 13.1306 107.029 16.3201 C103.839 19.5095 102.047 23.8359 102.047 28.3465 C102.047 32.857 103.839 37.1834 107.029 40.3728 C110.218 43.5623 114.545 45.3543 119.055 45.3543 z " style="fill:none;stroke:#000000;"/>
   </g>
   <g id="patch_10">
    <path clip-path="url(#pc6d7a7ea7f)" d=" M85.0394 147.402 C89.5499 147.402 93.8763 145.61 97.0658 142.42 C100.255 139.231 102.047 134.904 102.047 130.394 C102.047 125.883 100.255 121.557 97.0658 118.367 C93.8763 115.178 89.5499 113.386 85.0394 113.386 C80.5288 113.386 76.2024 115.178 73.013 118.367 C69.8236 121.557 68.0315 125.883 68.0315 130.394 C68.0315 134.904 69.8236 139.231 73.013 142.42 C76.2024 145.61 80.5288 147.402 85.0394 147.402 z " style="fill:none;stroke:#000000;"/>
   </g>
   <g id="patch_11">
    <path clip-path="url(#pc6d7a7ea7f)" d=" M51.0236 215.433 C55.5342 215.433 59.8606 213.641 63.05 210.452 C66.2394 207.262 68.0315 202.936 68.0315 198.425 C68.0315 193.915 66.2394 189.588 63.05 186.399 C59.8606 183.209 55.5342 181.417 51.0236 181.417 C46.5131 181.417 42.1867 183.209 38.9972 186.399 C35.8078 189.588 34.0157 193.915 34.0157 198.425 C34.0157 202.936 35.8078 207.262 38.9972 210.452 C42.1867 213.641 46.5131 215.433 51.0236 215.433 z " style="fill:none;stroke:#000000;"/>
   </g>
   <g id="patch_12">
    <path clip-path="url(#pc6d7a7ea7f)" d=" M119.055 215.433 C123.566 215.433 127.892 213.641 131.082 210.452 C134.271 207.262 136.063 202.936 136.063 198.425 C136.063 193.915 134.271 189.588 131.082 186.399 C127.892 183.209 123.566 181.417 119.055 181.417 C114.545 181.417 110.218 183.209 107.029 186.399 C103.839 189.588 102.047 193.915 102.047 198.425 C102.047 202.936 103.839 207.262 107.029 210.452 C110.218 213.641 114.545 215.433 119.055 215.433 z " style="fill:none;stroke:#000000;"/>
   </g>
   <g id="matplotlib.axis_1"/>
   <g id="matplotlib.axis_2"/>
   <g id="text_1">
    <!-- A -->
    <defs>
     <path d=" M34.1875 63.1875 L20.7969 26.9062 L47.6094 26.9062 z  M28.6094 72.9062 L39.7969 72.9062 L67.5781 0 L57.3281 0 L50.6875 18.7031 L17.8281 18.7031 L11.1875 0 L0.78125 0 z " id="BitstreamVeraSans-Roman-41"/>
    </defs>
    <g transform="translate(45.0119032972 33.3133316929)scale(0.18 -0.18)">
     <use xlink:href="#BitstreamVeraSans-Roman-41"/>
    </g>
   </g>
   <g id="text_2">
    <!-- C -->
    <defs>
     <path d=" M64.4062 67.2812 L64.4062 56.8906 Q59.4219 61.5312 53.7812 63.8125 Q48.1406 66.1094 41.7969 66.1094 Q29.2969 66.1094 22.6562 58.4688 Q16.0156 50.8281 16.0156 36.375 Q16.0156 21.9688 22.6562 14.3281 Q29.2969 6.6875 41.7969 6.6875 Q48.1406 6.6875 53.7812 8.98438 Q59.4219 11.2812 64.4062 15.9219 L64.4062 5.60938 Q59.2344 2.09375 53.4375 0.328125 Q47.6562 -1.42188 41.2188 -1.42188 Q24.6562 -1.42188 15.125 8.70312 Q5.60938 18.8438 5.60938 36.375 Q5.60938 53.9531 15.125 64.0781 Q24.6562 74.2188 41.2188 74.2188 Q47.75 74.2188 53.5312 72.4844 Q59.3281 70.75 64.4062 67.2812" id="BitstreamVeraSans-Roman-43"/>
    </defs>
    <g style="fill:#ffffff;" transform="translate(79.7476513287 78.6676624016)scale(0.18 -0.18)">
     <use xlink:href="#BitstreamVeraSans-Roman-43"/>
    </g>
   </g>
   <g id="text_3">
    <!-- B -->
    <defs>
     <path d=" M19.6719 34.8125 L19.6719 8.10938 L35.5 8.10938 Q43.4531 8.10938 47.2812 11.4062 Q51.125 14.7031 51.125 21.4844 Q51.125 28.3281 47.2812 31.5625 Q43.4531 34.8125 35.5 34.8125 z  M19.6719 64.7969 L19.6719 42.8281 L34.2812 42.8281 Q41.5 42.8281 45.0312 45.5312 Q48.5781 48.25 48.5781 53.8125 Q48.5781 59.3281 45.0312 62.0625 Q41.5 64.7969 34.2812 64.7969 z  M9.8125 72.9062 L35.0156 72.9062 Q46.2969 72.9062 52.3906 68.2188 Q58.5 63.5312 58.5 54.8906 Q58.5 48.1875 55.375 44.2344 Q52.25 40.2812 46.1875 39.3125 Q53.4688 37.75 57.5 32.7812 Q61.5312 27.8281 61.5312 20.4062 Q61.5312 10.6406 54.8906 5.3125 Q48.25 0 35.9844 0 L9.8125 0 z " id="BitstreamVeraSans-Roman-42"/>
    </defs>
    <g transform="translate(114.40043061 33.3133316929)scale(0.18 -0.18)">
     <use xlink:href="#BitstreamVeraSans-Roman-42"/>
    </g>
   </g>
   <g id="text_4">
    <!-- D -->
    <defs>
     <path d=" M19.6719 64.7969 L19.6719 8.10938 L31.5938 8.10938 Q46.6875 8.10938 53.6875 14.9375 Q60.6875 21.7812 60.6875 36.5312 Q60.6875 51.1719 53.6875 57.9844 Q46.6875 64.7969 31.5938 64.7969 z  M9.8125 72.9062 L30.0781 72.9062 Q51.2656 72.9062 61.1719 64.0938 Q71.0938 55.2812 71.0938 36.5312 Q71.0938 17.6719 61.125 8.82812 Q51.1719 0 30.0781 0 L9.8125 0 z " id="BitstreamVeraSans-Roman-44"/>
    </defs>
    <g transform="translate(79.5240575787 135.360575787)scale(0.18 -0.18)">
     <use xlink:href="#BitstreamVeraSans-Roman-44"/>
    </g>
   </g>
   <g id="text_5">
    <!-- A -->
    <g transform="translate(45.0119032972 203.39207185)scale(0.18 -0.18)">
     <use xlink:href="#BitstreamVeraSans-Roman-41"/>
    </g>
   </g>
   <g id="text_6">
    <!-- B -->
    <g transform="translate(114.40043061 203.39207185)scale(0.18 -0.18)">
     <use xlink:href="#BitstreamVeraSans-Roman-42"/>
    </g>
   </g>
  </g>
 </g>
 </svg>
