<svg xmlns="http://www.w3.org/2000/svg" xmlns:xlink="http://www.w3.org/1999/xlink" height="113pt" version="1.1" viewBox="0 0 141 113" width="141pt">
 <defs>
  <clipPath id="p16f9e740cd">
   <rect height="113.385826772" width="141.732283465" x="0.0" y="0.0"/>
  </clipPath>
 </defs>
<defs>
  <style type="text/css">
*{stroke-linecap:butt;stroke-linejoin:round;}
  </style>
 </defs>
 <g id="figure_1">
  <g id="patch_1">
   <path d=" M0 113.386 L141.732 113.386 L141.732 0 L0 0 z " style="fill:#ffffff;"/>
  </g>
  <g id="axes_1">
   <g id="patch_2">
    <path clip-path="url(#p16f9e740cd)" d=" M74.8346 60.0945 L71.4331 59.1024 L73.1339 57.8268 L61.2283 41.9528 L61.2283 41.9528 L73.1339 57.8268 L74.8346 56.5512 z " style="fill:none;stroke:#000000;"/>
   </g>
   <g id="patch_3">
    <path clip-path="url(#p16f9e740cd)" d=" M95.2441 60.0945 L95.2441 56.5512 L96.9449 57.8268 L108.85 41.9528 L108.85 41.9528 L96.9449 57.8268 L98.6457 59.1024 z " style="fill:none;stroke:#000000;"/>
   </g>
   <g id="patch_4">
    <path clip-path="url(#p16f9e740cd)" d=" M51.0236 45.3543 C55.5342 45.3543 59.8606 43.5623 63.05 40.3728 C66.2394 37.1834 68.0315 32.857 68.0315 28.3465 C68.0315 23.8359 66.2394 19.5095 63.05 16.3201 C59.8606 13.1306 55.5342 11.3386 51.0236 11.3386 C46.5131 11.3386 42.1867 13.1306 38.9972 16.3201 C35.8078 19.5095 34.0157 23.8359 34.0157 28.3465 C34.0157 32.857 35.8078 37.1834 38.9972 40.3728 C42.1867 43.5623 46.5131 45.3543 51.0236 45.3543 z " style="fill:none;stroke:#000000;"/>
   </g>
   <g id="patch_5">
    <path clip-path="url(#p16f9e740cd)" d=" M119.055 45.3543 C123.566 45.3543 127.892 43.5623 131.082 40.3728 C134.271 37.1834 136.063 32.857 136.063 28.3465 C136.063 23.8359 134.271 19.5095 131.082 16.3201 C127.892 13.1306 123.566 11.3386 119.055 11.3386 C114.545 11.3386 110.218 13.1306 107.029 16.3201 C103.839 19.5095 102.047 23.8359 102.047 28.3465 C102.047 32.857 103.839 37.1834 107.029 40.3728 C110.218 43.5623 114.545 45.3543 119.055 45.3543 z " style="fill:none;stroke:#000000;"/>
   </g>
   <g id="patch_6">
    <path clip-path="url(#p16f9e740cd)" d=" M85.0394 90.7087 C89.5499 90.7087 93.8763 88.9166 97.0658 85.7272 C100.255 82.5377 102.047 78.2113 102.047 73.7008 C102.047 69.1902 100.255 64.8638 97.0658 61.6744 C93.8763 58.485 89.5499 56.6929 85.0394 56.6929 C80.5288 56.6929 76.2024 58.485 73.013 61.6744 C69.8236 64.8638 68.0315 69.1902 68.0315 73.7008 C68.0315 78.2113 69.8236 82.5377 73.013 85.7272 C76.2024 88.9166 80.5288 90.7087 85.0394 90.7087 z " style="fill:none;stroke:#000000;"/>
   </g>
   <g id="matplotlib.axis_1"/>
   <g id="matplotlib.axis_2"/>
   <g id="text_1">
    <!-- I -->
    <defs>
     <path d=" M9.8125 72.9062 L19.6719 72.9062 L19.6719 0 L9.8125 0 z " id="BitstreamVeraSans-Roman-49"/>
    </defs>
    <g transform="translate(50.1362782972 33.3133316929)scale(0.18 -0.18)">
     <use xlink:href="#BitstreamVeraSans-Roman-49"/>
    </g>
   </g>
   <g id="text_2">
    <!-- D -->
    <defs>
     <path d=" M19.6719 64.7969 L19.6719 8.10938 L31.5938 8.10938 Q46.6875 8.10938 53.6875 14.9375 Q60.6875 21.7812 60.6875 36.5312 Q60.6875 51.1719 53.6875 57.9844 Q46.6875 64.7969 31.5938 64.7969 z  M9.8125 72.9062 L30.0781 72.9062 Q51.2656 72.9062 61.1719 64.0938 Q71.0938 55.2812 71.0938 36.5312 Q71.0938 17.6719 61.125 8.82812 Q51.1719 0 30.0781 0 L9.8125 0 z " id="BitstreamVeraSans-Roman-44"/>
    </defs>
    <g transform="translate(113.53980561 33.3133316929)scale(0.18 -0.18)">
     <use xlink:href="#BitstreamVeraSans-Roman-44"/>
    </g>
   </g>
   <g id="text_3">
    <!-- G -->
    <defs>
     <path d=" M59.5156 10.4062 L59.5156 29.9844 L43.4062 29.9844 L43.4062 38.0938 L69.2812 38.0938 L69.2812 6.78125 Q63.5781 2.73438 56.6875 0.65625 Q49.8125 -1.42188 42 -1.42188 Q24.9062 -1.42188 15.25 8.5625 Q5.60938 18.5625 5.60938 36.375 Q5.60938 54.25 15.25 64.2344 Q24.9062 74.2188 42 74.2188 Q49.125 74.2188 55.5469 72.4531 Q61.9688 70.7031 67.3906 67.2812 L67.3906 56.7812 Q61.9219 61.4219 55.7656 63.7656 Q49.6094 66.1094 42.8281 66.1094 Q29.4375 66.1094 22.7188 58.6406 Q16.0156 51.1719 16.0156 36.375 Q16.0156 21.625 22.7188 14.1562 Q29.4375 6.6875 42.8281 6.6875 Q48.0469 6.6875 52.1406 7.59375 Q56.25 8.5 59.5156 10.4062" id="BitstreamVeraSans-Roman-47"/>
    </defs>
    <g transform="translate(79.3089013287 78.6676624016)scale(0.18 -0.18)">
     <use xlink:href="#BitstreamVeraSans-Roman-47"/>
    </g>
   </g>
  </g>
 </g>
 </svg>
