<svg xmlns="http://www.w3.org/2000/svg" xmlns:xlink="http://www.w3.org/1999/xlink" height="113pt" version="1.1" viewBox="0 0 283 113" width="283pt">
 <defs>
  <clipPath id="p914de9f766">
   <rect height="113.385826772" width="283.464566929" x="0.0" y="0.0"/>
  </clipPath>
 </defs>
<defs>
  <style type="text/css">
*{stroke-linecap:butt;stroke-linejoin:round;}
  </style>
 </defs>
 <g id="figure_1">
  <g id="patch_1">
   <path d=" M0 113.386 L283.465 113.386 L283.465 0 L0 0 z " style="fill:#ffffff;"/>
  </g>
  <g id="axes_1">
   <g id="patch_2">
    <path clip-path="url(#p914de9f766)" d=" M102.047 28.3465 L99.2126 30.4724 L99.2126 28.3465 L68.0315 28.3465 L68.0315 28.3465 L99.2126 28.3465 L99.2126 26.2205 z " style="fill:none;stroke:#000000;"/>
   </g>
   <g id="patch_3">
    <path clip-path="url(#p914de9f766)" d=" M119.055 68.0315 L116.929 65.1969 L119.055 65.1969 L119.055 45.3543 L119.055 45.3543 L119.055 65.1969 L121.181 65.1969 z " style="fill:none;stroke:#000000;"/>
   </g>
   <g id="patch_4">
    <path clip-path="url(#p914de9f766)" d=" M170.079 28.3465 L167.244 30.4724 L167.244 28.3465 L136.063 28.3465 L136.063 28.3465 L167.244 28.3465 L167.244 26.2205 z " style="fill:none;stroke:#000000;"/>
   </g>
   <g id="patch_5">
    <path clip-path="url(#p914de9f766)" d=" M187.087 68.0315 L184.961 65.1969 L187.087 65.1969 L187.087 45.3543 L187.087 45.3543 L187.087 65.1969 L189.213 65.1969 z " style="fill:none;stroke:#000000;"/>
   </g>
   <g id="patch_6">
    <path clip-path="url(#p914de9f766)" d=" M238.11 28.3465 L235.276 30.4724 L235.276 28.3465 L204.094 28.3465 L204.094 28.3465 L235.276 28.3465 L235.276 26.2205 z " style="fill:none;stroke:#000000;"/>
   </g>
   <g id="patch_7">
    <path clip-path="url(#p914de9f766)" d=" M255.118 45.3543 C259.629 45.3543 263.955 43.5623 267.144 40.3728 C270.334 37.1834 272.126 32.857 272.126 28.3465 C272.126 23.8359 270.334 19.5095 267.144 16.3201 C263.955 13.1306 259.629 11.3386 255.118 11.3386 C250.608 11.3386 246.281 13.1306 243.092 16.3201 C239.902 19.5095 238.11 23.8359 238.11 28.3465 C238.11 32.857 239.902 37.1834 243.092 40.3728 C246.281 43.5623 250.608 45.3543 255.118 45.3543 z " style="fill:none;stroke:#000000;"/>
   </g>
   <g id="patch_8">
    <path clip-path="url(#p914de9f766)" d=" M187.087 45.3543 C191.597 45.3543 195.924 43.5623 199.113 40.3728 C202.302 37.1834 204.094 32.857 204.094 28.3465 C204.094 23.8359 202.302 19.5095 199.113 16.3201 C195.924 13.1306 191.597 11.3386 187.087 11.3386 C182.576 11.3386 178.25 13.1306 175.06 16.3201 C171.871 19.5095 170.079 23.8359 170.079 28.3465 C170.079 32.857 171.871 37.1834 175.06 40.3728 C178.25 43.5623 182.576 45.3543 187.087 45.3543 z " style="fill:none;stroke:#000000;"/>
   </g>
   <g id="patch_9">
    <path clip-path="url(#p914de9f766)" d=" M119.055 45.3543 C123.566 45.3543 127.892 43.5623 131.082 40.3728 C134.271 37.1834 136.063 32.857 136.063 28.3465 C136.063 23.8359 134.271 19.5095 131.082 16.3201 C127.892 13.1306 123.566 11.3386 119.055 11.3386 C114.545 11.3386 110.218 13.1306 107.029 16.3201 C103.839 19.5095 102.047 23.8359 102.047 28.3465 C102.047 32.857 103.839 37.1834 107.029 40.3728 C110.218 43.5623 114.545 45.3543 119.055 45.3543 z " style="fill:none;stroke:#000000;"/>
   </g>
   <g id="patch_10">
    <path clip-path="url(#p914de9f766)" d=" M51.0236 45.3543 C55.5342 45.3543 59.8606 43.5623 63.05 40.3728 C66.2394 37.1834 68.0315 32.857 68.0315 28.3465 C68.0315 23.8359 66.2394 19.5095 63.05 16.3201 C59.8606 13.1306 55.5342 11.3386 51.0236 11.3386 C46.5131 11.3386 42.1867 13.1306 38.9972 16.3201 C35.8078 19.5095 34.0157 23.8359 34.0157 28.3465 C34.0157 32.857 35.8078 37.1834 38.9972 40.3728 C42.1867 43.5623 46.5131 45.3543 51.0236 45.3543 z " style="fill:none;stroke:#000000;"/>
   </g>
   <g id="patch_11">
    <path clip-path="url(#p914de9f766)" d=" M187.087 102.047 C191.597 102.047 195.924 100.255 199.113 97.0658 C202.302 93.8763 204.094 89.5499 204.094 85.0394 C204.094 80.5288 202.302 76.2024 199.113 73.013 C195.924 69.8236 191.597 68.0315 187.087 68.0315 C182.576 68.0315 178.25 69.8236 175.06 73.013 C171.871 76.2024 170.079 80.5288 170.079 85.0394 C170.079 89.5499 171.871 93.8763 175.06 97.0658 C178.25 100.255 182.576 102.047 187.087 102.047 z " style="fill:none;stroke:#000000;"/>
   </g>
   <g id="patch_12">
    <path clip-path="url(#p914de9f766)" d=" M119.055 102.047 C123.566 102.047 127.892 100.255 131.082 97.0658 C134.271 93.8763 136.063 89.5499 136.063 85.0394 C136.063 80.5288 134.271 76.2024 131.082 73.013 C127.892 69.8236 123.566 68.0315 119.055 68.0315 C114.545 68.0315 110.218 69.8236 107.029 73.013 C103.839 76.2024 102.047 80.5288 102.047 85.0394 C102.047 89.5499 103.839 93.8763 107.029 97.0658 C110.218 100.255 114.545 102.047 119.055 102.047 z " style="fill:none;stroke:#000000;"/>
   </g>
   <g id="matplotlib.axis_1"/>
   <g id="matplotlib.axis_2"/>
   <g id="text_1">
    <!-- $\dots$ -->
    <defs>
     <path d=" M-18.0938 57.2031 Q-18.0938 55.0938 -19.5469 53.6875 Q-21 52.2969 -23.0938 52.2969 Q-25.0938 52.2969 -26.5469 53.75 Q-28 55.2031 -28 57.2031 Q-28 59.2969 -26.6406 60.75 Q-25.2969 62.2031 -23.0938 62.2031 Q-20.7969 62.2031 -19.4375 60.7969 Q-18.0938 59.4062 -18.0938 57.2031" id="STIXGeneral-Regular-307"/>
     <path d=" M43.2031 41 L41 32.0938 L39.5 32.0938 Q37.7969 36.5 35.2969 37.8906 Q32.7969 39.2969 28.8906 39.2969 Q25 39.2969 23.0469 37.1406 Q21.0938 35 21.0938 33 Q21.0938 31 22.7969 29.5469 Q24.5 28.0938 27.7969 26.5 Q33.7969 23.5938 36.1406 21.3438 Q38.5 19.0938 38.5 15.7969 Q38.5 9 32.8906 4 Q27.2969 -1 18.5938 -1 Q14.0938 -1 11.3906 0.296875 Q8.70312 1.59375 6.09375 4.5 L8.59375 14.7969 L10.0938 14.7969 Q11.9062 6.09375 21 6.09375 Q24.4062 6.09375 27.2969 7.84375 Q30.2031 9.59375 30.2031 12.7969 Q30.2031 14.2969 28.5938 15.6406 Q27 17 23.2031 18.9062 Q17.7031 21.5938 15.25 24.25 Q12.7969 26.9062 12.7969 30.2969 Q12.7969 36.5 18 41.3906 Q23.2031 46.2969 30.9062 46.2969 Q39.5938 46.2969 43.2031 41" id="STIXGeneral-Italic-1d634"/>
    </defs>
    <g transform="translate(251.608110236 33.3133316929)scale(0.18 -0.18)">
     <use transform="translate(42.0 6.796875)" xlink:href="#STIXGeneral-Regular-307"/>
     <use transform="translate(0.0 0.296875)" xlink:href="#STIXGeneral-Italic-1d634"/>
    </g>
   </g>
   <g id="text_2">
    <!-- $S^2$ -->
    <defs>
     <path d=" M46.9062 7.09375 L44 0 L3.5 0 L3.5 2.09375 L21 23.5 L21 23.4062 L26.5938 30.2031 Q30.5 34.9062 32.0938 36.9531 Q33.7031 39 35.2031 41.9531 Q36.7031 44.9062 36.7031 47.5 Q36.7031 53.7031 33.3438 57.0938 Q30 60.5 24.2031 60.5 Q19.5938 60.5 15.75 56.7031 Q11.9062 52.9062 10.9062 45.9062 L3.70312 47.5938 Q5.29688 56.5 11.1875 62.0469 Q17.0938 67.5938 24.9062 67.5938 Q33.5938 67.5938 39.0938 62.1875 Q44.5938 56.7969 44.5938 49.0938 Q44.5938 43.5 42.5 39.4531 Q40.4062 35.4062 33.7031 27 L17.7031 7.09375 z " id="STIXGeneral-Regular-1d7e4"/>
     <path d=" M59.7031 59.5938 L56.7031 47.7031 L54.7969 47.7031 Q53.9062 53.7031 49.9062 56.8438 Q45.9062 60 40.0938 60 Q35 60 30.9531 56.5 Q26.9062 53 26.9062 48.7969 Q26.9062 42.9062 38.0938 37.7969 Q46 34.2969 49.4531 30.5938 Q52.9062 26.9062 52.9062 21.9062 Q52.9062 11.5 44.6562 5.04688 Q36.4062 -1.40625 25.4062 -1.40625 Q10.9062 -1.40625 6.20312 7 L8.29688 20.5 L10.0938 20.5 Q11.5 13.2031 16.3438 9.70312 Q21.2031 6.20312 26.9062 6.20312 Q34.2969 6.20312 38.8906 9.75 Q43.5 13.2969 43.5 18.5938 Q43.5 21.9062 41.1406 24.3438 Q38.7969 26.7969 33.5938 29.0938 Q25.4062 32.7969 21.6562 36.6406 Q17.9062 40.5 17.9062 45.5938 Q17.9062 55 25.3438 61.2969 Q32.7969 67.5938 42.5 67.5938 Q54.9062 67.5938 59.7031 59.5938" id="STIXGeneral-Italic-1d61a"/>
    </defs>
    <g transform="translate(176.826614173 33.9630191929)scale(0.18 -0.18)">
     <use transform="translate(0.0 0.6796875)" xlink:href="#STIXGeneral-Italic-1d61a"/>
     <use transform="translate(54.0999908447 54.684375)scale(0.7)" xlink:href="#STIXGeneral-Regular-1d7e4"/>
    </g>
   </g>
   <g id="text_3">
    <!-- $S^1$ -->
    <defs>
     <path d=" M30.2031 0 L22.2969 0 L22.2969 57 Q20.0938 56 15.75 53.75 Q11.4062 51.5 10.7969 51.2031 L10.7969 58.5 L28.7969 67.7031 L30.2031 67.2031 z " id="STIXGeneral-Regular-1d7e3"/>
    </defs>
    <g transform="translate(108.79511811 33.9630191929)scale(0.18 -0.18)">
     <use transform="translate(0.0 0.603125)" xlink:href="#STIXGeneral-Italic-1d61a"/>
     <use transform="translate(54.0999908447 54.6078125)scale(0.7)" xlink:href="#STIXGeneral-Regular-1d7e3"/>
    </g>
   </g>
   <g id="text_4">
    <!-- $S^0$ -->
    <defs>
     <path d=" M47.7031 33 Q47.7031 23.7969 45.5469 16.3438 Q43.4062 8.90625 38.0938 3.75 Q32.7969 -1.40625 25 -1.40625 Q18.7969 -1.40625 14.25 1.6875 Q9.70312 4.79688 7.20312 10.0469 Q4.70312 15.2969 3.5 21.1406 Q2.29688 27 2.29688 33.5938 Q2.29688 42.9062 4.59375 50.3438 Q6.90625 57.7969 12.2969 62.6875 Q17.7031 67.5938 25.4062 67.5938 Q35.2031 67.5938 41.4531 57.9375 Q47.7031 48.2969 47.7031 33 M39.7969 33 Q39.7969 45.2031 35.75 52.8438 Q31.7031 60.5 25.2031 60.5 Q17.7969 60.5 14 52.75 Q10.2031 45 10.2031 33.4062 Q10.2031 28.2031 10.9531 23.5469 Q11.7031 18.9062 13.3438 14.75 Q15 10.5938 18 8.14062 Q21 5.70312 25 5.70312 Q30.0938 5.70312 33.5469 9.79688 Q37 13.9062 38.3906 19.8438 Q39.7969 25.7969 39.7969 33" id="STIXGeneral-Regular-1d7e2"/>
    </defs>
    <g transform="translate(40.7636220472 33.9630191929)scale(0.18 -0.18)">
     <use transform="translate(0.0 0.6796875)" xlink:href="#STIXGeneral-Italic-1d61a"/>
     <use transform="translate(54.0999908447 54.684375)scale(0.7)" xlink:href="#STIXGeneral-Regular-1d7e2"/>
    </g>
   </g>
   <g id="text_5">
    <!-- $O^2$ -->
    <defs>
     <path d=" M77.9062 43 Q77.9062 30.7031 71.5469 20.2969 Q65.2031 9.90625 55.4531 4.25 Q45.7031 -1.40625 35.2969 -1.40625 Q23.7031 -1.40625 16.7969 5.25 Q9.90625 11.9062 9.90625 23.2031 Q9.90625 35.5938 16.25 46 Q22.5938 56.4062 32.2969 62 Q42 67.5938 52.5 67.5938 Q64.0938 67.5938 71 60.9375 Q77.9062 54.2969 77.9062 43 M68.9062 42.0938 Q68.9062 50.5938 64.1562 55.2969 Q59.4062 60 50.5938 60 Q39.5938 60 31.3906 52.75 Q23.2031 45.5 20.0938 33.0938 Q18.9062 28.2031 18.9062 24.0938 Q18.9062 15.5938 23.6562 10.8906 Q28.4062 6.20312 37.2031 6.20312 Q48.2031 6.20312 56.3906 13.4531 Q64.5938 20.7031 67.7031 33.0938 Q68.9062 38.0938 68.9062 42.0938" id="STIXGeneral-Italic-1d616"/>
    </defs>
    <g transform="translate(175.296614173 90.6559325787)scale(0.18 -0.18)">
     <use transform="translate(0.0 0.6796875)" xlink:href="#STIXGeneral-Italic-1d616"/>
     <use transform="translate(71.3999938965 54.684375)scale(0.7)" xlink:href="#STIXGeneral-Regular-1d7e4"/>
    </g>
   </g>
   <g id="text_6">
    <!-- $O^1$ -->
    <g transform="translate(107.26511811 90.6559325787)scale(0.18 -0.18)">
     <use transform="translate(0.0 0.603125)" xlink:href="#STIXGeneral-Italic-1d616"/>
     <use transform="translate(71.3999938965 54.6078125)scale(0.7)" xlink:href="#STIXGeneral-Regular-1d7e3"/>
    </g>
   </g>
  </g>
 </g>
 </svg>
