<svg xmlns="http://www.w3.org/2000/svg" xmlns:xlink="http://www.w3.org/1999/xlink" height="113pt" version="1.1" viewBox="0 0 141 113" width="141pt">
 <defs>
  <clipPath id="p16f9e740cd">
   <rect height="113.385826772" width="141.732283465" x="0.0" y="0.0"/>
  </clipPath>
 </defs>
<defs>
  <style type="text/css">
*{stroke-linecap:butt;stroke-linejoin:round;}
  </style>
 </defs>
 <g id="figure_1">
  <g id="patch_1">
   <path d=" M0 113.386 L141.732 113.386 L141.732 0 L0 0 z " style="fill:#ffffff;"/>
  </g>
  <g id="axes_1">
   <g id="patch_2">
    <path clip-path="url(#p16f9e740cd)" d=" M102.047 28.3465 L99.2126 30.4724 L99.2126 28.3465 L68.0315 28.3465 L68.0315 28.3465 L99.2126 28.3465 L99.2126 26.2205 z " style="fill:none;stroke:#000000;"/>
   </g>
   <g id="patch_3">
    <path clip-path="url(#p16f9e740cd)" d=" M119.055 68.0315 L116.929 65.1969 L119.055 65.1969 L119.055 45.3543 L119.055 45.3543 L119.055 65.1969 L121.181 65.1969 z " style="fill:none;stroke:#000000;"/>
   </g>
   <g id="patch_4">
    <path clip-path="url(#p16f9e740cd)" d=" M51.0236 45.3543 C55.5342 45.3543 59.8606 43.5623 63.05 40.3728 C66.2394 37.1834 68.0315 32.857 68.0315 28.3465 C68.0315 23.8359 66.2394 19.5095 63.05 16.3201 C59.8606 13.1306 55.5342 11.3386 51.0236 11.3386 C46.5131 11.3386 42.1867 13.1306 38.9972 16.3201 C35.8078 19.5095 34.0157 23.8359 34.0157 28.3465 C34.0157 32.857 35.8078 37.1834 38.9972 40.3728 C42.1867 43.5623 46.5131 45.3543 51.0236 45.3543 z " style="fill:none;stroke:#000000;"/>
   </g>
   <g id="patch_5">
    <path clip-path="url(#p16f9e740cd)" d=" M119.055 45.3543 C123.566 45.3543 127.892 43.5623 131.082 40.3728 C134.271 37.1834 136.063 32.857 136.063 28.3465 C136.063 23.8359 134.271 19.5095 131.082 16.3201 C127.892 13.1306 123.566 11.3386 119.055 11.3386 C114.545 11.3386 110.218 13.1306 107.029 16.3201 C103.839 19.5095 102.047 23.8359 102.047 28.3465 C102.047 32.857 103.839 37.1834 107.029 40.3728 C110.218 43.5623 114.545 45.3543 119.055 45.3543 z " style="fill:none;stroke:#000000;"/>
   </g>
   <g id="patch_6">
    <path clip-path="url(#p16f9e740cd)" d=" M119.055 102.047 C123.566 102.047 127.892 100.255 131.082 97.0658 C134.271 93.8763 136.063 89.5499 136.063 85.0394 C136.063 80.5288 134.271 76.2024 131.082 73.013 C127.892 69.8236 123.566 68.0315 119.055 68.0315 C114.545 68.0315 110.218 69.8236 107.029 73.013 C103.839 76.2024 102.047 80.5288 102.047 85.0394 C102.047 89.5499 103.839 93.8763 107.029 97.0658 C110.218 100.255 114.545 102.047 119.055 102.047 z " style="fill:none;stroke:#000000;"/>
   </g>
   <g id="matplotlib.axis_1"/>
   <g id="matplotlib.axis_2"/>
   <g id="text_1">
    <!-- S -->
    <defs>
     <path d=" M53.5156 70.5156 L53.5156 60.8906 Q47.9062 63.5781 42.9219 64.8906 Q37.9375 66.2188 33.2969 66.2188 Q25.25 66.2188 20.875 63.0938 Q16.5 59.9688 16.5 54.2031 Q16.5 49.3594 19.4062 46.8906 Q22.3125 44.4375 30.4219 42.9219 L36.375 41.7031 Q47.4062 39.5938 52.6562 34.2969 Q57.9062 29 57.9062 20.125 Q57.9062 9.51562 50.7969 4.04688 Q43.7031 -1.42188 29.9844 -1.42188 Q24.8125 -1.42188 18.9688 -0.25 Q13.1406 0.921875 6.89062 3.21875 L6.89062 13.375 Q12.8906 10.0156 18.6562 8.29688 Q24.4219 6.59375 29.9844 6.59375 Q38.4219 6.59375 43.0156 9.90625 Q47.6094 13.2344 47.6094 19.3906 Q47.6094 24.75 44.3125 27.7812 Q41.0156 30.8125 33.5 32.3281 L27.4844 33.5 Q16.4531 35.6875 11.5156 40.375 Q6.59375 45.0625 6.59375 53.4219 Q6.59375 63.0938 13.4062 68.6562 Q20.2188 74.2188 32.1719 74.2188 Q37.3125 74.2188 42.625 73.2812 Q47.9531 72.3594 53.5156 70.5156" id="BitstreamVeraSans-Roman-53"/>
    </defs>
    <g transform="translate(46.4054970472 33.3133316929)scale(0.18 -0.18)">
     <use xlink:href="#BitstreamVeraSans-Roman-53"/>
    </g>
   </g>
   <g id="text_2">
    <!-- S' -->
    <defs>
     <path d=" M17.9219 72.9062 L17.9219 45.7969 L9.625 45.7969 L9.625 72.9062 z " id="BitstreamVeraSans-Roman-27"/>
    </defs>
    <g transform="translate(112.32199311 33.3133316929)scale(0.18 -0.18)">
     <use xlink:href="#BitstreamVeraSans-Roman-53"/>
     <use x="63.4765625" xlink:href="#BitstreamVeraSans-Roman-27"/>
    </g>
   </g>
   <g id="text_3">
    <!-- O -->
    <defs>
     <path d=" M39.4062 66.2188 Q28.6562 66.2188 22.3281 58.2031 Q16.0156 50.2031 16.0156 36.375 Q16.0156 22.6094 22.3281 14.5938 Q28.6562 6.59375 39.4062 6.59375 Q50.1406 6.59375 56.4219 14.5938 Q62.7031 22.6094 62.7031 36.375 Q62.7031 50.2031 56.4219 58.2031 Q50.1406 66.2188 39.4062 66.2188 M39.4062 74.2188 Q54.7344 74.2188 63.9062 63.9375 Q73.0938 53.6562 73.0938 36.375 Q73.0938 19.1406 63.9062 8.85938 Q54.7344 -1.42188 39.4062 -1.42188 Q24.0312 -1.42188 14.8125 8.82812 Q5.60938 19.0938 5.60938 36.375 Q5.60938 53.6562 14.8125 63.9375 Q24.0312 74.2188 39.4062 74.2188" id="BitstreamVeraSans-Roman-4f"/>
    </defs>
    <g transform="translate(112.98152436 90.0062450787)scale(0.18 -0.18)">
     <use xlink:href="#BitstreamVeraSans-Roman-4f"/>
    </g>
   </g>
  </g>
 </g>
 </svg>
