<svg xmlns="http://www.w3.org/2000/svg" xmlns:xlink="http://www.w3.org/1999/xlink" height="226pt" version="1.1" viewBox="0 0 181 226" width="181pt">
 <defs>
  <clipPath id="p4bc594ec32">
   <rect height="226.771653543" width="181.417322835" x="0.0" y="0.0"/>
  </clipPath>
 </defs>
<defs>
  <style type="text/css">
*{stroke-linecap:butt;stroke-linejoin:round;}
  </style>
 </defs>
 <g id="figure_1">
  <g id="patch_1">
   <path d=" M0 226.772 L181.417 226.772 L181.417 0 L0 0 z " style="fill:#ffffff;"/>
  </g>
  <g id="axes_1">
   <g id="patch_2">
    <path clip-path="url(#p4bc594ec32)" d=" M79.3701 28.3465 L76.5354 30.4724 L76.5354 28.3465 L45.3543 28.3465 L45.3543 28.3465 L76.5354 28.3465 L76.5354 26.2205 z " style="fill:none;stroke:#000000;"/>
   </g>
   <g id="patch_3">
    <path clip-path="url(#p4bc594ec32)" d=" M83.3121 74.1512 L79.7735 73.9697 L81.1345 72.3365 L41.4123 39.2346 L41.4123 39.2346 L81.1345 72.3365 L82.4955 70.7033 z " style="fill:none;stroke:#000000;"/>
   </g>
   <g id="patch_4">
    <path clip-path="url(#p4bc594ec32)" d=" M90.0614 182.634 L87.0347 180.791 L89.0086 180.002 L34.663 44.1379 L34.663 44.1379 L89.0086 180.002 L90.9826 179.212 z " style="fill:none;stroke:#000000;"/>
   </g>
   <g id="patch_5">
    <path clip-path="url(#p4bc594ec32)" d=" M79.3701 85.0394 L76.5354 87.1654 L76.5354 85.0394 L45.3543 85.0394 L45.3543 85.0394 L76.5354 85.0394 L76.5354 82.9134 z " style="fill:none;stroke:#000000;"/>
   </g>
   <g id="patch_6">
    <path clip-path="url(#p4bc594ec32)" d=" M83.3121 130.844 L79.7735 130.663 L81.1345 129.029 L41.4123 95.9275 L41.4123 95.9275 L81.1345 129.029 L82.4955 127.396 z " style="fill:none;stroke:#000000;"/>
   </g>
   <g id="patch_7">
    <path clip-path="url(#p4bc594ec32)" d=" M79.3701 141.732 L76.5354 143.858 L76.5354 141.732 L45.3543 141.732 L45.3543 141.732 L76.5354 141.732 L76.5354 139.606 z " style="fill:none;stroke:#000000;"/>
   </g>
   <g id="patch_8">
    <path clip-path="url(#p4bc594ec32)" d=" M79.3701 198.425 L76.5354 200.551 L76.5354 198.425 L45.3543 198.425 L45.3543 198.425 L76.5354 198.425 L76.5354 196.299 z " style="fill:none;stroke:#000000;"/>
   </g>
   <g id="patch_9">
    <path clip-path="url(#p4bc594ec32)" d=" M137.859 162.473 L134.372 163.106 L135.323 161.205 L111.59 149.338 L111.59 149.338 L135.323 161.205 L136.274 159.303 z " style="fill:none;stroke:#000000;"/>
   </g>
   <g id="patch_10">
    <path clip-path="url(#p4bc594ec32)" d=" M137.859 177.685 L136.274 180.854 L135.323 178.953 L111.59 190.819 L111.59 190.819 L135.323 178.953 L134.372 177.051 z " style="fill:none;stroke:#000000;"/>
   </g>
   <g id="patch_11">
    <path clip-path="url(#p4bc594ec32)" d=" M28.3465 215.433 C32.857 215.433 37.1834 213.641 40.3728 210.452 C43.5623 207.262 45.3543 202.936 45.3543 198.425 C45.3543 193.915 43.5623 189.588 40.3728 186.399 C37.1834 183.209 32.857 181.417 28.3465 181.417 C23.8359 181.417 19.5095 183.209 16.3201 186.399 C13.1306 189.588 11.3386 193.915 11.3386 198.425 C11.3386 202.936 13.1306 207.262 16.3201 210.452 C19.5095 213.641 23.8359 215.433 28.3465 215.433 z " style="fill:none;stroke:#000000;"/>
   </g>
   <g id="patch_12">
    <path clip-path="url(#p4bc594ec32)" d=" M28.3465 158.74 C32.857 158.74 37.1834 156.948 40.3728 153.759 C43.5623 150.569 45.3543 146.243 45.3543 141.732 C45.3543 137.222 43.5623 132.895 40.3728 129.706 C37.1834 126.516 32.857 124.724 28.3465 124.724 C23.8359 124.724 19.5095 126.516 16.3201 129.706 C13.1306 132.895 11.3386 137.222 11.3386 141.732 C11.3386 146.243 13.1306 150.569 16.3201 153.759 C19.5095 156.948 23.8359 158.74 28.3465 158.74 z " style="fill:none;stroke:#000000;"/>
   </g>
   <g id="patch_13">
    <path clip-path="url(#p4bc594ec32)" d=" M96.378 215.433 C100.888 215.433 105.215 213.641 108.404 210.452 C111.594 207.262 113.386 202.936 113.386 198.425 C113.386 193.915 111.594 189.588 108.404 186.399 C105.215 183.209 100.888 181.417 96.378 181.417 C91.8674 181.417 87.541 183.209 84.3516 186.399 C81.1621 189.588 79.3701 193.915 79.3701 198.425 C79.3701 202.936 81.1621 207.262 84.3516 210.452 C87.541 213.641 91.8674 215.433 96.378 215.433 z " style="fill:none;stroke:#000000;"/>
   </g>
   <g id="patch_14">
    <path clip-path="url(#p4bc594ec32)" d=" M153.071 187.087 C157.581 187.087 161.908 185.295 165.097 182.105 C168.287 178.916 170.079 174.589 170.079 170.079 C170.079 165.568 168.287 161.242 165.097 158.052 C161.908 154.863 157.581 153.071 153.071 153.071 C148.56 153.071 144.234 154.863 141.044 158.052 C137.855 161.242 136.063 165.568 136.063 170.079 C136.063 174.589 137.855 178.916 141.044 182.105 C144.234 185.295 148.56 187.087 153.071 187.087 z " style="fill:none;stroke:#000000;"/>
   </g>
   <g id="patch_15">
    <path clip-path="url(#p4bc594ec32)" d=" M28.3465 45.3543 C32.857 45.3543 37.1834 43.5623 40.3728 40.3728 C43.5623 37.1834 45.3543 32.857 45.3543 28.3465 C45.3543 23.8359 43.5623 19.5095 40.3728 16.3201 C37.1834 13.1306 32.857 11.3386 28.3465 11.3386 C23.8359 11.3386 19.5095 13.1306 16.3201 16.3201 C13.1306 19.5095 11.3386 23.8359 11.3386 28.3465 C11.3386 32.857 13.1306 37.1834 16.3201 40.3728 C19.5095 43.5623 23.8359 45.3543 28.3465 45.3543 z " style="fill:none;stroke:#000000;"/>
   </g>
   <g id="patch_16">
    <path clip-path="url(#p4bc594ec32)" d=" M28.3465 102.047 C32.857 102.047 37.1834 100.255 40.3728 97.0658 C43.5623 93.8763 45.3543 89.5499 45.3543 85.0394 C45.3543 80.5288 43.5623 76.2024 40.3728 73.013 C37.1834 69.8236 32.857 68.0315 28.3465 68.0315 C23.8359 68.0315 19.5095 69.8236 16.3201 73.013 C13.1306 76.2024 11.3386 80.5288 11.3386 85.0394 C11.3386 89.5499 13.1306 93.8763 16.3201 97.0658 C19.5095 100.255 23.8359 102.047 28.3465 102.047 z " style="fill:none;stroke:#000000;"/>
   </g>
   <g id="patch_17">
    <path clip-path="url(#p4bc594ec32)" d=" M96.378 45.3543 C100.888 45.3543 105.215 43.5623 108.404 40.3728 C111.594 37.1834 113.386 32.857 113.386 28.3465 C113.386 23.8359 111.594 19.5095 108.404 16.3201 C105.215 13.1306 100.888 11.3386 96.378 11.3386 C91.8674 11.3386 87.541 13.1306 84.3516 16.3201 C81.1621 19.5095 79.3701 23.8359 79.3701 28.3465 C79.3701 32.857 81.1621 37.1834 84.3516 40.3728 C87.541 43.5623 91.8674 45.3543 96.378 45.3543 z " style="fill:none;stroke:#000000;"/>
   </g>
   <g id="patch_18">
    <path clip-path="url(#p4bc594ec32)" d=" M96.378 158.74 C100.888 158.74 105.215 156.948 108.404 153.759 C111.594 150.569 113.386 146.243 113.386 141.732 C113.386 137.222 111.594 132.895 108.404 129.706 C105.215 126.516 100.888 124.724 96.378 124.724 C91.8674 124.724 87.541 126.516 84.3516 129.706 C81.1621 132.895 79.3701 137.222 79.3701 141.732 C79.3701 146.243 81.1621 150.569 84.3516 153.759 C87.541 156.948 91.8674 158.74 96.378 158.74 z " style="fill:none;stroke:#000000;"/>
   </g>
   <g id="patch_19">
    <path clip-path="url(#p4bc594ec32)" d=" M96.378 102.047 C100.888 102.047 105.215 100.255 108.404 97.0658 C111.594 93.8763 113.386 89.5499 113.386 85.0394 C113.386 80.5288 111.594 76.2024 108.404 73.013 C105.215 69.8236 100.888 68.0315 96.378 68.0315 C91.8674 68.0315 87.541 69.8236 84.3516 73.013 C81.1621 76.2024 79.3701 80.5288 79.3701 85.0394 C79.3701 89.5499 81.1621 93.8763 84.3516 97.0658 C87.541 100.255 91.8674 102.047 96.378 102.047 z " style="fill:none;stroke:#000000;"/>
   </g>
   <g id="matplotlib.axis_1"/>
   <g id="matplotlib.axis_2"/>
   <g id="text_1">
    <!-- F -->
    <defs>
     <path d=" M9.8125 72.9062 L51.7031 72.9062 L51.7031 64.5938 L19.6719 64.5938 L19.6719 43.1094 L48.5781 43.1094 L48.5781 34.8125 L19.6719 34.8125 L19.6719 0 L9.8125 0 z " id="BitstreamVeraSans-Roman-46"/>
    </defs>
    <g transform="translate(24.5763004429 203.39207185)scale(0.18 -0.18)">
     <use xlink:href="#BitstreamVeraSans-Roman-46"/>
    </g>
   </g>
   <g id="text_2">
    <!-- L -->
    <defs>
     <path d=" M9.8125 72.9062 L19.6719 72.9062 L19.6719 8.29688 L55.1719 8.29688 L55.1719 0 L9.8125 0 z " id="BitstreamVeraSans-Roman-4c"/>
    </defs>
    <g transform="translate(24.2641129429 146.699158465)scale(0.18 -0.18)">
     <use xlink:href="#BitstreamVeraSans-Roman-4c"/>
    </g>
   </g>
   <g id="text_3">
    <!-- F' -->
    <defs>
     <path d=" M17.9219 72.9062 L17.9219 45.7969 L9.625 45.7969 L9.625 72.9062 z " id="BitstreamVeraSans-Roman-27"/>
    </defs>
    <g transform="translate(90.4717027559 203.39207185)scale(0.18 -0.18)">
     <use xlink:href="#BitstreamVeraSans-Roman-46"/>
     <use x="57.51953125" xlink:href="#BitstreamVeraSans-Roman-27"/>
    </g>
   </g>
   <g id="text_4">
    <!-- O' -->
    <defs>
     <path d=" M39.4062 66.2188 Q28.6562 66.2188 22.3281 58.2031 Q16.0156 50.2031 16.0156 36.375 Q16.0156 22.6094 22.3281 14.5938 Q28.6562 6.59375 39.4062 6.59375 Q50.1406 6.59375 56.4219 14.5938 Q62.7031 22.6094 62.7031 36.375 Q62.7031 50.2031 56.4219 58.2031 Q50.1406 66.2188 39.4062 66.2188 M39.4062 74.2188 Q54.7344 74.2188 63.9062 63.9375 Q73.0938 53.6562 73.0938 36.375 Q73.0938 19.1406 63.9062 8.85938 Q54.7344 -1.42188 39.4062 -1.42188 Q24.0312 -1.42188 14.8125 8.82812 Q5.60938 19.0938 5.60938 36.375 Q5.60938 53.6562 14.8125 63.9375 Q24.0312 74.2188 39.4062 74.2188" id="BitstreamVeraSans-Roman-4f"/>
    </defs>
    <g transform="translate(144.878053642 175.045615157)scale(0.18 -0.18)">
     <use xlink:href="#BitstreamVeraSans-Roman-4f"/>
     <use x="78.7109375" xlink:href="#BitstreamVeraSans-Roman-27"/>
    </g>
   </g>
   <g id="text_5">
    <!-- W -->
    <defs>
     <path d=" M3.32812 72.9062 L13.2812 72.9062 L28.6094 11.2812 L43.8906 72.9062 L54.9844 72.9062 L70.3125 11.2812 L85.5938 72.9062 L95.6094 72.9062 L77.2969 0 L64.8906 0 L49.5156 63.2812 L33.9844 0 L21.5781 0 z " id="BitstreamVeraSans-Roman-57"/>
    </defs>
    <g transform="translate(20.0411441929 33.3133316929)scale(0.18 -0.18)">
     <use xlink:href="#BitstreamVeraSans-Roman-57"/>
    </g>
   </g>
   <g id="text_6">
    <!-- V -->
    <defs>
     <path d=" M28.6094 0 L0.78125 72.9062 L11.0781 72.9062 L34.1875 11.5312 L57.3281 72.9062 L67.5781 72.9062 L39.7969 0 z " id="BitstreamVeraSans-Roman-56"/>
    </defs>
    <g transform="translate(22.3347379429 90.0062450787)scale(0.18 -0.18)">
     <use xlink:href="#BitstreamVeraSans-Roman-56"/>
    </g>
   </g>
   <g id="text_7">
    <!-- W' -->
    <g transform="translate(86.1657652559 33.3133316929)scale(0.18 -0.18)">
     <use xlink:href="#BitstreamVeraSans-Roman-57"/>
     <use x="98.876953125" xlink:href="#BitstreamVeraSans-Roman-27"/>
    </g>
   </g>
   <g id="text_8">
    <!-- L' -->
    <g transform="translate(90.6334215059 146.699158465)scale(0.18 -0.18)">
     <use xlink:href="#BitstreamVeraSans-Roman-4c"/>
     <use x="55.712890625" xlink:href="#BitstreamVeraSans-Roman-27"/>
    </g>
   </g>
   <g id="text_9">
    <!-- V' -->
    <g transform="translate(88.6787340059 90.0062450787)scale(0.18 -0.18)">
     <use xlink:href="#BitstreamVeraSans-Roman-56"/>
     <use x="68.408203125" xlink:href="#BitstreamVeraSans-Roman-27"/>
    </g>
   </g>
  </g>
 </g>
 </svg>
