<svg xmlns="http://www.w3.org/2000/svg" xmlns:xlink="http://www.w3.org/1999/xlink" height="170pt" version="1.1" viewBox="0 0 340 170" width="340pt">
 <defs>
  <clipPath id="p1853b699a0">
   <rect height="170.078740157" width="340.157480315" x="0.0" y="0.0"/>
  </clipPath>
 </defs>
<defs>
  <style type="text/css">
*{stroke-linecap:butt;stroke-linejoin:round;}
  </style>
 </defs>
 <g id="figure_1">
  <g id="patch_1">
   <path d=" M0 170.079 L340.157 170.079 L340.157 0 L0 0 z " style="fill:#ffffff;"/>
  </g>
  <g id="axes_1">
   <g id="patch_2">
    <path clip-path="url(#p1853b699a0)" d=" M88.1234 76.0252 L89.4004 72.72 L90.5272 74.5229 L149.987 37.3606 L149.987 37.3606 L90.5272 74.5229 L91.654 76.3257 z " style="fill:none;stroke:#000000;"/>
   </g>
   <g id="patch_3">
    <path clip-path="url(#p1853b699a0)" d=" M229.94 75.1537 L226.397 75.2361 L227.633 73.5061 L178.249 38.2321 L178.249 38.2321 L227.633 73.5061 L228.869 71.7762 z " style="fill:none;stroke:#000000;"/>
   </g>
   <g id="patch_4">
    <path clip-path="url(#p1853b699a0)" d=" M38.9712 128.451 L39.0819 124.91 L40.742 126.238 L63.0761 98.3203 L63.0761 98.3203 L40.742 126.238 L42.4021 127.566 z " style="fill:none;stroke:#000000;"/>
   </g>
   <g id="patch_5">
    <path clip-path="url(#p1853b699a0)" d=" M108.43 128.451 L104.999 127.566 L106.66 126.238 L84.3255 98.3203 L84.3255 98.3203 L106.66 126.238 L108.32 124.91 z " style="fill:none;stroke:#000000;"/>
   </g>
   <g id="patch_6">
    <path clip-path="url(#p1853b699a0)" d=" M209.05 128.451 L209.161 124.91 L210.821 126.238 L233.155 98.3203 L233.155 98.3203 L210.821 126.238 L212.481 127.566 z " style="fill:none;stroke:#000000;"/>
   </g>
   <g id="patch_7">
    <path clip-path="url(#p1853b699a0)" d=" M278.509 128.451 L275.078 127.566 L276.738 126.238 L254.404 98.3203 L254.404 98.3203 L276.738 126.238 L278.398 124.91 z " style="fill:none;stroke:#000000;"/>
   </g>
   <g id="patch_8">
    <path clip-path="url(#p1853b699a0)" d=" M164.409 45.3543 C168.92 45.3543 173.246 43.5623 176.436 40.3728 C179.625 37.1834 181.417 32.857 181.417 28.3465 C181.417 23.8359 179.625 19.5095 176.436 16.3201 C173.246 13.1306 168.92 11.3386 164.409 11.3386 C159.899 11.3386 155.572 13.1306 152.383 16.3201 C149.194 19.5095 147.402 23.8359 147.402 28.3465 C147.402 32.857 149.194 37.1834 152.383 40.3728 C155.572 43.5623 159.899 45.3543 164.409 45.3543 z " style="fill:none;stroke:#000000;"/>
   </g>
   <g id="patch_9">
    <path clip-path="url(#p1853b699a0)" d=" M289.134 158.74 C293.644 158.74 297.971 156.948 301.16 153.759 C304.35 150.569 306.142 146.243 306.142 141.732 C306.142 137.222 304.35 132.895 301.16 129.706 C297.971 126.516 293.644 124.724 289.134 124.724 C284.623 124.724 280.297 126.516 277.107 129.706 C273.918 132.895 272.126 137.222 272.126 141.732 C272.126 146.243 273.918 150.569 277.107 153.759 C280.297 156.948 284.623 158.74 289.134 158.74 z " style="fill:none;"/>
   </g>
   <g id="patch_10">
    <path clip-path="url(#p1853b699a0)" d=" M119.055 158.74 C123.566 158.74 127.892 156.948 131.082 153.759 C134.271 150.569 136.063 146.243 136.063 141.732 C136.063 137.222 134.271 132.895 131.082 129.706 C127.892 126.516 123.566 124.724 119.055 124.724 C114.545 124.724 110.218 126.516 107.029 129.706 C103.839 132.895 102.047 137.222 102.047 141.732 C102.047 146.243 103.839 150.569 107.029 153.759 C110.218 156.948 114.545 158.74 119.055 158.74 z " style="fill:none;"/>
   </g>
   <g id="patch_11">
    <path clip-path="url(#p1853b699a0)" d=" M198.425 158.74 C202.936 158.74 207.262 156.948 210.452 153.759 C213.641 150.569 215.433 146.243 215.433 141.732 C215.433 137.222 213.641 132.895 210.452 129.706 C207.262 126.516 202.936 124.724 198.425 124.724 C193.915 124.724 189.588 126.516 186.399 129.706 C183.209 132.895 181.417 137.222 181.417 141.732 C181.417 146.243 183.209 150.569 186.399 153.759 C189.588 156.948 193.915 158.74 198.425 158.74 z " style="fill:none;"/>
   </g>
   <g id="patch_12">
    <path clip-path="url(#p1853b699a0)" d=" M28.3465 158.74 C32.857 158.74 37.1834 156.948 40.3728 153.759 C43.5623 150.569 45.3543 146.243 45.3543 141.732 C45.3543 137.222 43.5623 132.895 40.3728 129.706 C37.1834 126.516 32.857 124.724 28.3465 124.724 C23.8359 124.724 19.5095 126.516 16.3201 129.706 C13.1306 132.895 11.3386 137.222 11.3386 141.732 C11.3386 146.243 13.1306 150.569 16.3201 153.759 C19.5095 156.948 23.8359 158.74 28.3465 158.74 z " style="fill:none;"/>
   </g>
   <g id="patch_13">
    <path clip-path="url(#p1853b699a0)" d=" M243.78 102.047 C248.29 102.047 252.616 100.255 255.806 97.0658 C258.995 93.8763 260.787 89.5499 260.787 85.0394 C260.787 80.5288 258.995 76.2024 255.806 73.013 C252.616 69.8236 248.29 68.0315 243.78 68.0315 C239.269 68.0315 234.943 69.8236 231.753 73.013 C228.564 76.2024 226.772 80.5288 226.772 85.0394 C226.772 89.5499 228.564 93.8763 231.753 97.0658 C234.943 100.255 239.269 102.047 243.78 102.047 z " style="fill:none;stroke:#000000;"/>
   </g>
   <g id="patch_14">
    <path clip-path="url(#p1853b699a0)" d=" M73.7008 102.047 C78.2113 102.047 82.5377 100.255 85.7272 97.0658 C88.9166 93.8763 90.7087 89.5499 90.7087 85.0394 C90.7087 80.5288 88.9166 76.2024 85.7272 73.013 C82.5377 69.8236 78.2113 68.0315 73.7008 68.0315 C69.1902 68.0315 64.8638 69.8236 61.6744 73.013 C58.485 76.2024 56.6929 80.5288 56.6929 85.0394 C56.6929 89.5499 58.485 93.8763 61.6744 97.0658 C64.8638 100.255 69.1902 102.047 73.7008 102.047 z " style="fill:none;stroke:#000000;"/>
   </g>
   <g id="matplotlib.axis_1"/>
   <g id="matplotlib.axis_2"/>
   <g id="text_1">
    <!-- $c_1$ -->
    <defs>
     <path d=" M50.2969 37.0938 L44.5938 31.7031 L43 31.7031 Q41.5938 39.2031 33.5 39.2031 Q27.0938 39.2031 21.0469 33.0938 Q15 27 15 16.9062 Q15 11.7969 17.8438 8.9375 Q20.7031 6.09375 25.2969 6.09375 Q33.4062 6.09375 40.7969 16.5938 L46.4062 13.2031 Q36.7969 -1 22.9062 -1 Q15.5 -1 11.0938 3.20312 Q6.70312 7.40625 6.70312 15 Q6.70312 28 15.8906 37.1406 Q25.0938 46.2969 35.7031 46.2969 Q41.2031 46.2969 45.1406 44 Q49.0938 41.7031 50.2969 37.0938" id="STIXGeneral-Italic-1d624"/>
     <path d=" M30.2031 0 L22.2969 0 L22.2969 57 Q20.0938 56 15.75 53.75 Q11.4062 51.5 10.7969 51.2031 L10.7969 58.5 L28.7969 67.7031 L30.2031 67.2031 z " id="STIXGeneral-Regular-1d7e3"/>
    </defs>
    <g transform="translate(110.41511811 58.6597883858)scale(0.18 -0.18)">
     <use transform="translate(0.0 0.703125)" xlink:href="#STIXGeneral-Italic-1d624"/>
     <use transform="translate(45.5999908447 -12.8859375)scale(0.7)" xlink:href="#STIXGeneral-Regular-1d7e3"/>
    </g>
   </g>
   <g id="text_2">
    <!-- $c_2$ -->
    <defs>
     <path d=" M46.9062 7.09375 L44 0 L3.5 0 L3.5 2.09375 L21 23.5 L21 23.4062 L26.5938 30.2031 Q30.5 34.9062 32.0938 36.9531 Q33.7031 39 35.2031 41.9531 Q36.7031 44.9062 36.7031 47.5 Q36.7031 53.7031 33.3438 57.0938 Q30 60.5 24.2031 60.5 Q19.5938 60.5 15.75 56.7031 Q11.9062 52.9062 10.9062 45.9062 L3.70312 47.5938 Q5.29688 56.5 11.1875 62.0469 Q17.0938 67.5938 24.9062 67.5938 Q33.5938 67.5938 39.0938 62.1875 Q44.5938 56.7969 44.5938 49.0938 Q44.5938 43.5 42.5 39.4531 Q40.4062 35.4062 33.7031 27 L17.7031 7.09375 z " id="STIXGeneral-Regular-1d7e4"/>
    </defs>
    <g transform="translate(195.454488189 58.6597883858)scale(0.18 -0.18)">
     <use transform="translate(0.0 0.703125)" xlink:href="#STIXGeneral-Italic-1d624"/>
     <use transform="translate(45.5999908447 -12.8859375)scale(0.7)" xlink:href="#STIXGeneral-Regular-1d7e4"/>
    </g>
   </g>
   <g id="text_3">
    <!-- $-l$ -->
    <defs>
     <path d=" M31.2969 67.9062 L14.4062 0 L6.09375 0 L22.5 66 L30.5 68.4062 z " id="STIXGeneral-Italic-1d62d"/>
     <path d=" M62.0938 22 L6.40625 22 L6.40625 28.5938 L62.0938 28.5938 z " id="STIXGeneral-Regular-2212"/>
    </defs>
    <g transform="translate(43.0136220472 115.352701772)scale(0.18 -0.18)">
     <use transform="translate(0.0 0.59375)" xlink:href="#STIXGeneral-Regular-2212"/>
     <use transform="translate(68.4999847412 0.59375)" xlink:href="#STIXGeneral-Italic-1d62d"/>
    </g>
   </g>
   <g id="text_4">
    <!-- $+l$ -->
    <defs>
     <path d=" M63.5938 22 L37.5 22 L37.5 -4.09375 L30.9062 -4.09375 L30.9062 22 L4.79688 22 L4.79688 28.5938 L30.9062 28.5938 L30.9062 54.7031 L37.5 54.7031 L37.5 28.5938 L63.5938 28.5938 z " id="STIXGeneral-Regular-2b"/>
    </defs>
    <g transform="translate(86.4779527559 115.352701772)scale(0.18 -0.18)">
     <use transform="translate(15.1199981689 0.59375)" xlink:href="#STIXGeneral-Regular-2b"/>
     <use transform="translate(89.0368713379 0.59375)" xlink:href="#STIXGeneral-Italic-1d62d"/>
    </g>
   </g>
   <g id="text_5">
    <!-- $-l$ -->
    <g transform="translate(213.092362205 115.352701772)scale(0.18 -0.18)">
     <use transform="translate(0.0 0.59375)" xlink:href="#STIXGeneral-Regular-2212"/>
     <use transform="translate(68.4999847412 0.59375)" xlink:href="#STIXGeneral-Italic-1d62d"/>
    </g>
   </g>
   <g id="text_6">
    <!-- $+l$ -->
    <g transform="translate(256.556692913 115.352701772)scale(0.18 -0.18)">
     <use transform="translate(15.1199981689 0.59375)" xlink:href="#STIXGeneral-Regular-2b"/>
     <use transform="translate(89.0368713379 0.59375)" xlink:href="#STIXGeneral-Italic-1d62d"/>
    </g>
   </g>
   <g id="text_7">
    <!-- $C$ -->
    <defs>
     <path d=" M75.5 55.4062 L72.9062 45.2969 L71 45.2969 Q70.2031 50.7969 66.8906 54.25 Q63.5938 57.7031 59.75 58.8438 Q55.9062 60 51.2969 60 Q38 60 28.3438 49.3906 Q18.7031 38.7969 18.7031 24.7031 Q18.7031 16 23.75 11.0938 Q28.7969 6.20312 38.2031 6.20312 Q50.5 6.20312 62.7969 17 L66.5938 11.9062 Q53 -1.40625 36 -1.40625 Q23.2031 -1.40625 16.3906 5.14062 Q9.59375 11.7031 9.59375 22.7969 Q9.59375 34.7031 15.5469 45.0469 Q21.5 55.4062 31.5469 61.5 Q41.5938 67.5938 53.0938 67.5938 Q60.5938 67.5938 66.75 64.6406 Q72.9062 61.7031 75.5 55.4062" id="STIXGeneral-Italic-1d60a"/>
    </defs>
    <g transform="translate(158.289448819 33.3133316929)scale(0.18 -0.18)">
     <use transform="translate(0.0 0.40625)" xlink:href="#STIXGeneral-Italic-1d60a"/>
    </g>
   </g>
   <g id="text_8">
    <!-- $(0.1,0.9)$ -->
    <defs>
     <path d=" M18.0938 4.29688 Q18.0938 2.09375 16.4375 0.5 Q14.7969 -1.09375 12.5 -1.09375 Q10.2031 -1.09375 8.59375 0.5 Q7 2.09375 7 4.39062 Q7 6.70312 8.64062 8.34375 Q10.2969 10 12.5938 10 Q14.7969 10 16.4375 8.29688 Q18.0938 6.59375 18.0938 4.29688" id="STIXGeneral-Regular-2e"/>
     <path d=" M47.7031 33 Q47.7031 23.7969 45.5469 16.3438 Q43.4062 8.90625 38.0938 3.75 Q32.7969 -1.40625 25 -1.40625 Q18.7969 -1.40625 14.25 1.6875 Q9.70312 4.79688 7.20312 10.0469 Q4.70312 15.2969 3.5 21.1406 Q2.29688 27 2.29688 33.5938 Q2.29688 42.9062 4.59375 50.3438 Q6.90625 57.7969 12.2969 62.6875 Q17.7031 67.5938 25.4062 67.5938 Q35.2031 67.5938 41.4531 57.9375 Q47.7031 48.2969 47.7031 33 M39.7969 33 Q39.7969 45.2031 35.75 52.8438 Q31.7031 60.5 25.2031 60.5 Q17.7969 60.5 14 52.75 Q10.2031 45 10.2031 33.4062 Q10.2031 28.2031 10.9531 23.5469 Q11.7031 18.9062 13.3438 14.75 Q15 10.5938 18 8.14062 Q21 5.70312 25 5.70312 Q30.0938 5.70312 33.5469 9.79688 Q37 13.9062 38.3906 19.8438 Q39.7969 25.7969 39.7969 33" id="STIXGeneral-Regular-1d7e2"/>
     <path d=" M8.29688 -14.0938 L7.29688 -12.2031 Q15.5938 -6.59375 15.5938 -1.5 Q15.5938 -0.203125 14.2031 -0.203125 Q13.7969 -0.203125 12.8438 -0.390625 Q11.9062 -0.59375 11.2969 -0.59375 Q5.5 -0.59375 5.5 4.5 Q5.5 7.09375 7.14062 8.64062 Q8.79688 10.2031 11.5 10.2031 Q14.9062 10.2031 17.2031 7.75 Q19.5 5.29688 19.5 1.5 Q19.5 -3.09375 16.4531 -7.39062 Q13.4062 -11.7031 8.29688 -14.0938" id="STIXGeneral-Regular-2c"/>
     <path d=" M30.4062 -16.0938 L29.2031 -17.7031 Q17.5938 -11.0938 11.1875 0.5 Q4.79688 12.0938 4.79688 25.2031 Q4.79688 52.9062 29.5 67.5938 L30.4062 66 Q20.2031 57.2969 16.7969 48.8438 Q13.4062 40.4062 13.4062 25.5 Q13.4062 10.7031 16.9062 1.5 Q20.4062 -7.70312 30.4062 -16.0938" id="STIXGeneral-Regular-28"/>
     <path d=" M2.90625 66 L4.09375 67.5938 Q15.5 60.7969 22 49.1875 Q28.5 37.5938 28.5 24.7031 Q28.5 -2.59375 3.79688 -17.7031 L2.90625 -16.0938 Q13.2031 -7.59375 16.5469 0.84375 Q19.9062 9.29688 19.9062 24.4062 Q19.9062 39.5938 16.5469 48.75 Q13.2031 57.9062 2.90625 66" id="STIXGeneral-Regular-29"/>
     <path d=" M5.5 -0.203125 L6.79688 4.70312 Q18.2031 5.5 26.1406 11.25 Q34.0938 17 37.5938 27.5 Q31.7969 23.0938 23.9062 23.0938 Q15.2969 23.0938 9.04688 28.8906 Q2.79688 34.7031 2.79688 44.2031 Q2.79688 53.9062 8.84375 60.75 Q14.9062 67.5938 24.2031 67.5938 Q30.0938 67.5938 34.5 65.3438 Q38.9062 63.0938 41.5 59.0938 Q44.0938 55.0938 45.3438 50.25 Q46.5938 45.4062 46.5938 39.7969 Q46.5938 31.4062 43.5469 23.2031 Q40.5 15 35.5 10.0938 Q28.7969 3.59375 22.8438 1.29688 Q16.9062 -1 5.70312 -2.09375 z  M38.5938 42.2031 Q38.5 50.2969 34.5469 55.3906 Q30.5938 60.5 23.9062 60.5 Q18.4062 60.5 14.5938 56.2969 Q10.7969 52.0938 10.7969 45.5938 Q10.7969 38.4062 14.8906 34.3438 Q19 30.2969 24.7031 30.2969 Q29.9062 30.2969 33.7969 33.3438 Q37.7031 36.4062 38.5938 42.2031" id="STIXGeneral-Regular-1d7eb"/>
    </defs>
    <g transform="translate(257.723858268 146.699158465)scale(0.18 -0.18)">
     <use transform="translate(0.0 0.296875)" xlink:href="#STIXGeneral-Regular-28"/>
     <use transform="translate(33.299987793 0.296875)" xlink:href="#STIXGeneral-Regular-1d7e2"/>
     <use transform="translate(83.2999725342 0.296875)" xlink:href="#STIXGeneral-Regular-2e"/>
     <use transform="translate(109.513720703 0.296875)" xlink:href="#STIXGeneral-Regular-1d7e3"/>
     <use transform="translate(159.513705444 0.296875)" xlink:href="#STIXGeneral-Regular-2c"/>
     <use transform="translate(188.633703613 0.296875)" xlink:href="#STIXGeneral-Regular-1d7e2"/>
     <use transform="translate(238.633688354 0.296875)" xlink:href="#STIXGeneral-Regular-2e"/>
     <use transform="translate(264.847436523 0.296875)" xlink:href="#STIXGeneral-Regular-1d7eb"/>
     <use transform="translate(314.847421265 0.296875)" xlink:href="#STIXGeneral-Regular-29"/>
    </g>
   </g>
   <g id="text_9">
    <!-- $(0.3,0.7)$ -->
    <defs>
     <path d=" M11.2969 49.2031 L4.20312 50.9062 Q6.40625 58.7031 11.5 63.1406 Q16.5938 67.5938 24.2969 67.5938 Q31.4062 67.5938 36.2031 63.0938 Q41 58.5938 41 51.9062 Q41 43 32.4062 37 Q38 35 41.0469 30.3438 Q44.0938 25.7031 44.0938 21 Q44.0938 11.2969 37.7969 5 Q31.4062 -1.40625 20.5 -1.40625 Q9.5 -1.40625 3.09375 5.59375 L7.79688 11.2031 Q12.9062 5.70312 20 5.70312 Q27.4062 5.70312 31.5938 9.29688 Q36.2031 13.2031 36.2031 19.0938 Q36.2031 24.2969 32.4531 27.7969 Q28.7031 31.2969 22.2031 32.2031 L15.7969 32.2031 L15.7969 34.2969 L20.5938 39.4062 Q25.0938 39.4062 29.0938 42.8438 Q33.0938 46.2969 33.0938 51.2031 Q33.0938 55.4062 30.4375 57.9531 Q27.7969 60.5 24 60.5 Q20 60.5 16.5469 57.6406 Q13.0938 54.7969 11.2969 49.2031" id="STIXGeneral-Regular-1d7e5"/>
     <path d=" M45.0938 64.2031 L23 -0.796875 L14.7969 -0.796875 L35.4062 59.0938 L3.79688 59.0938 L6.90625 66.2031 L45.0938 66.2031 z " id="STIXGeneral-Regular-1d7e9"/>
    </defs>
    <g transform="translate(87.6451181102 146.699158465)scale(0.18 -0.18)">
     <use transform="translate(0.0 0.40625)" xlink:href="#STIXGeneral-Regular-28"/>
     <use transform="translate(33.299987793 0.40625)" xlink:href="#STIXGeneral-Regular-1d7e2"/>
     <use transform="translate(83.2999725342 0.40625)" xlink:href="#STIXGeneral-Regular-2e"/>
     <use transform="translate(109.513720703 0.40625)" xlink:href="#STIXGeneral-Regular-1d7e5"/>
     <use transform="translate(159.513705444 0.40625)" xlink:href="#STIXGeneral-Regular-2c"/>
     <use transform="translate(188.633703613 0.40625)" xlink:href="#STIXGeneral-Regular-1d7e2"/>
     <use transform="translate(238.633688354 0.40625)" xlink:href="#STIXGeneral-Regular-2e"/>
     <use transform="translate(264.847436523 0.40625)" xlink:href="#STIXGeneral-Regular-1d7e9"/>
     <use transform="translate(314.847421265 0.40625)" xlink:href="#STIXGeneral-Regular-29"/>
    </g>
   </g>
   <g id="text_10">
    <!-- $(0.8,0.2)$ -->
    <defs>
     <path d=" M44.7031 16.0938 Q44.7031 8.79688 39.3906 3.6875 Q34.0938 -1.40625 24.7969 -1.40625 Q16.2969 -1.40625 10.5938 3.4375 Q4.90625 8.29688 4.90625 15.4062 Q4.90625 20.7969 7.75 25.25 Q10.5938 29.7031 17.7031 34.5 Q6 41.4062 6 51.4062 Q6 58.5938 11.5469 63.0938 Q17.0938 67.5938 25.5938 67.5938 Q32.9062 67.5938 37.7969 62.8438 Q42.7031 58.0938 42.7031 52 Q42.7031 46.4062 40.0938 42.7031 Q37.5 39 31.0938 35.2969 Q44.7031 27 44.7031 16.0938 M35.5 51.5 Q35.5 55.5 32.3906 58 Q29.2969 60.5 24.4062 60.5 Q19.7969 60.5 16.8438 57.8438 Q13.9062 55.2031 13.9062 51.7969 Q13.9062 47.5 16.3438 44.8438 Q18.7969 42.2031 24.9062 39.4062 Q35.5 45.2031 35.5 51.5 M27.5938 28.5938 L24.0938 30.5 Q18.9062 28.7031 15.8438 24.6406 Q12.7969 20.5938 12.7969 16.2969 Q12.7969 11.7969 16 8.75 Q19.2031 5.70312 25.2031 5.70312 Q29.7969 5.70312 33.2969 8.45312 Q36.7969 11.2031 36.7969 15.7969 Q36.7969 20 34.6875 22.9531 Q32.5938 25.9062 27.5938 28.5938" id="STIXGeneral-Regular-1d7ea"/>
    </defs>
    <g transform="translate(167.01519685 146.699158465)scale(0.18 -0.18)">
     <use transform="translate(0.0 0.40625)" xlink:href="#STIXGeneral-Regular-28"/>
     <use transform="translate(33.299987793 0.40625)" xlink:href="#STIXGeneral-Regular-1d7e2"/>
     <use transform="translate(83.2999725342 0.40625)" xlink:href="#STIXGeneral-Regular-2e"/>
     <use transform="translate(109.513720703 0.40625)" xlink:href="#STIXGeneral-Regular-1d7ea"/>
     <use transform="translate(159.513705444 0.40625)" xlink:href="#STIXGeneral-Regular-2c"/>
     <use transform="translate(188.633703613 0.40625)" xlink:href="#STIXGeneral-Regular-1d7e2"/>
     <use transform="translate(238.633688354 0.40625)" xlink:href="#STIXGeneral-Regular-2e"/>
     <use transform="translate(264.847436523 0.40625)" xlink:href="#STIXGeneral-Regular-1d7e4"/>
     <use transform="translate(314.847421265 0.40625)" xlink:href="#STIXGeneral-Regular-29"/>
    </g>
   </g>
   <g id="text_11">
    <!-- $(0.9,0.1)$ -->
    <g transform="translate(-3.06354330709 146.699158465)scale(0.18 -0.18)">
     <use transform="translate(0.0 0.296875)" xlink:href="#STIXGeneral-Regular-28"/>
     <use transform="translate(33.299987793 0.296875)" xlink:href="#STIXGeneral-Regular-1d7e2"/>
     <use transform="translate(83.2999725342 0.296875)" xlink:href="#STIXGeneral-Regular-2e"/>
     <use transform="translate(109.513720703 0.296875)" xlink:href="#STIXGeneral-Regular-1d7eb"/>
     <use transform="translate(159.513705444 0.296875)" xlink:href="#STIXGeneral-Regular-2c"/>
     <use transform="translate(188.633703613 0.296875)" xlink:href="#STIXGeneral-Regular-1d7e2"/>
     <use transform="translate(238.633688354 0.296875)" xlink:href="#STIXGeneral-Regular-2e"/>
     <use transform="translate(264.847436523 0.296875)" xlink:href="#STIXGeneral-Regular-1d7e3"/>
     <use transform="translate(314.847421265 0.296875)" xlink:href="#STIXGeneral-Regular-29"/>
    </g>
   </g>
   <g id="text_12">
    <!-- $L_2$ -->
    <defs>
     <path d=" M56.4062 7.40625 L52.7969 0 L7.40625 0 L23.9062 66.2031 L32.5938 66.2031 L17.9062 7.40625 z " id="STIXGeneral-Italic-1d613"/>
    </defs>
    <g transform="translate(234.239527559 90.0062450787)scale(0.18 -0.18)">
     <use transform="translate(0.0 0.796875)" xlink:href="#STIXGeneral-Italic-1d613"/>
     <use transform="translate(55.8999938965 -12.7921875)scale(0.7)" xlink:href="#STIXGeneral-Regular-1d7e4"/>
    </g>
   </g>
   <g id="text_13">
    <!-- $L_1$ -->
    <g transform="translate(64.1607874016 90.0062450787)scale(0.18 -0.18)">
     <use transform="translate(0.0 0.796875)" xlink:href="#STIXGeneral-Italic-1d613"/>
     <use transform="translate(55.8999938965 -12.7921875)scale(0.7)" xlink:href="#STIXGeneral-Regular-1d7e3"/>
    </g>
   </g>
  </g>
 </g>
 </svg>
