<svg xmlns="http://www.w3.org/2000/svg" xmlns:xlink="http://www.w3.org/1999/xlink" height="226pt" version="1.1" viewBox="0 0 226 226" width="226pt">
 <defs>
  <clipPath id="p04fbb655f9">
   <rect height="226.771653543" width="226.771653543" x="0.0" y="0.0"/>
  </clipPath>
 </defs>
<defs>
  <style type="text/css">
*{stroke-linecap:butt;stroke-linejoin:round;}
  </style>
 </defs>
 <g id="figure_1">
  <g id="patch_1">
   <path d=" M0 226.772 L226.772 226.772 L226.772 0 L0 0 z " style="fill:#ffffff;"/>
  </g>
  <g id="axes_1">
   <g id="patch_2">
    <path clip-path="url(#p04fbb655f9)" d=" M108.43 71.7585 L104.999 70.8731 L106.66 69.545 L84.3255 41.6274 L84.3255 41.6274 L106.66 69.545 L108.32 68.2169 z " style="fill:none;stroke:#000000;"/>
   </g>
   <g id="patch_3">
    <path clip-path="url(#p04fbb655f9)" d=" M84.3255 128.451 L84.4362 124.91 L86.0963 126.238 L108.43 98.3203 L108.43 98.3203 L86.0963 126.238 L87.7564 127.566 z " style="fill:none;stroke:#000000;"/>
   </g>
   <g id="patch_4">
    <path clip-path="url(#p04fbb655f9)" d=" M38.9712 71.7585 L39.0819 68.2169 L40.742 69.545 L63.0761 41.6274 L63.0761 41.6274 L40.742 69.545 L42.4021 70.8731 z " style="fill:none;stroke:#000000;"/>
   </g>
   <g id="patch_5">
    <path clip-path="url(#p04fbb655f9)" d=" M153.785 128.451 L150.354 127.566 L152.014 126.238 L129.68 98.3203 L129.68 98.3203 L152.014 126.238 L153.674 124.91 z " style="fill:none;stroke:#000000;"/>
   </g>
   <g id="patch_6">
    <path clip-path="url(#p04fbb655f9)" d=" M38.9712 185.144 L39.0819 181.603 L40.742 182.931 L63.0761 155.013 L63.0761 155.013 L40.742 182.931 L42.4021 184.259 z " style="fill:none;stroke:#000000;"/>
   </g>
   <g id="patch_7">
    <path clip-path="url(#p04fbb655f9)" d=" M108.43 185.144 L104.999 184.259 L106.66 182.931 L84.3255 155.013 L84.3255 155.013 L106.66 182.931 L108.32 181.603 z " style="fill:none;stroke:#000000;"/>
   </g>
   <g id="patch_8">
    <path clip-path="url(#p04fbb655f9)" d=" M73.7008 45.3543 C78.2113 45.3543 82.5377 43.5623 85.7272 40.3728 C88.9166 37.1834 90.7087 32.857 90.7087 28.3465 C90.7087 23.8359 88.9166 19.5095 85.7272 16.3201 C82.5377 13.1306 78.2113 11.3386 73.7008 11.3386 C69.1902 11.3386 64.8638 13.1306 61.6744 16.3201 C58.485 19.5095 56.6929 23.8359 56.6929 28.3465 C56.6929 32.857 58.485 37.1834 61.6744 40.3728 C64.8638 43.5623 69.1902 45.3543 73.7008 45.3543 z " style="fill:none;stroke:#000000;"/>
   </g>
   <g id="patch_9">
    <path clip-path="url(#p04fbb655f9)" d=" M119.055 215.433 C123.566 215.433 127.892 213.641 131.082 210.452 C134.271 207.262 136.063 202.936 136.063 198.425 C136.063 193.915 134.271 189.588 131.082 186.399 C127.892 183.209 123.566 181.417 119.055 181.417 C114.545 181.417 110.218 183.209 107.029 186.399 C103.839 189.588 102.047 193.915 102.047 198.425 C102.047 202.936 103.839 207.262 107.029 210.452 C110.218 213.641 114.545 215.433 119.055 215.433 z " style="fill:none;"/>
   </g>
   <g id="patch_10">
    <path clip-path="url(#p04fbb655f9)" d=" M164.409 158.74 C168.92 158.74 173.246 156.948 176.436 153.759 C179.625 150.569 181.417 146.243 181.417 141.732 C181.417 137.222 179.625 132.895 176.436 129.706 C173.246 126.516 168.92 124.724 164.409 124.724 C159.899 124.724 155.572 126.516 152.383 129.706 C149.194 132.895 147.402 137.222 147.402 141.732 C147.402 146.243 149.194 150.569 152.383 153.759 C155.572 156.948 159.899 158.74 164.409 158.74 z " style="fill:none;"/>
   </g>
   <g id="patch_11">
    <path clip-path="url(#p04fbb655f9)" d=" M28.3465 215.433 C32.857 215.433 37.1834 213.641 40.3728 210.452 C43.5623 207.262 45.3543 202.936 45.3543 198.425 C45.3543 193.915 43.5623 189.588 40.3728 186.399 C37.1834 183.209 32.857 181.417 28.3465 181.417 C23.8359 181.417 19.5095 183.209 16.3201 186.399 C13.1306 189.588 11.3386 193.915 11.3386 198.425 C11.3386 202.936 13.1306 207.262 16.3201 210.452 C19.5095 213.641 23.8359 215.433 28.3465 215.433 z " style="fill:none;"/>
   </g>
   <g id="patch_12">
    <path clip-path="url(#p04fbb655f9)" d=" M73.7008 158.74 C78.2113 158.74 82.5377 156.948 85.7272 153.759 C88.9166 150.569 90.7087 146.243 90.7087 141.732 C90.7087 137.222 88.9166 132.895 85.7272 129.706 C82.5377 126.516 78.2113 124.724 73.7008 124.724 C69.1902 124.724 64.8638 126.516 61.6744 129.706 C58.485 132.895 56.6929 137.222 56.6929 141.732 C56.6929 146.243 58.485 150.569 61.6744 153.759 C64.8638 156.948 69.1902 158.74 73.7008 158.74 z " style="fill:none;stroke:#000000;"/>
   </g>
   <g id="patch_13">
    <path clip-path="url(#p04fbb655f9)" d=" M119.055 102.047 C123.566 102.047 127.892 100.255 131.082 97.0658 C134.271 93.8763 136.063 89.5499 136.063 85.0394 C136.063 80.5288 134.271 76.2024 131.082 73.013 C127.892 69.8236 123.566 68.0315 119.055 68.0315 C114.545 68.0315 110.218 69.8236 107.029 73.013 C103.839 76.2024 102.047 80.5288 102.047 85.0394 C102.047 89.5499 103.839 93.8763 107.029 97.0658 C110.218 100.255 114.545 102.047 119.055 102.047 z " style="fill:none;stroke:#000000;"/>
   </g>
   <g id="patch_14">
    <path clip-path="url(#p04fbb655f9)" d=" M28.3465 102.047 C32.857 102.047 37.1834 100.255 40.3728 97.0658 C43.5623 93.8763 45.3543 89.5499 45.3543 85.0394 C45.3543 80.5288 43.5623 76.2024 40.3728 73.013 C37.1834 69.8236 32.857 68.0315 28.3465 68.0315 C23.8359 68.0315 19.5095 69.8236 16.3201 73.013 C13.1306 76.2024 11.3386 80.5288 11.3386 85.0394 C11.3386 89.5499 13.1306 93.8763 16.3201 97.0658 C19.5095 100.255 23.8359 102.047 28.3465 102.047 z " style="fill:none;"/>
   </g>
   <g id="matplotlib.axis_1"/>
   <g id="matplotlib.axis_2"/>
   <g id="text_1">
    <!-- $+a$ -->
    <defs>
     <path d=" M63.5938 22 L37.5 22 L37.5 -4.09375 L30.9062 -4.09375 L30.9062 22 L4.79688 22 L4.79688 28.5938 L30.9062 28.5938 L30.9062 54.7031 L37.5 54.7031 L37.5 28.5938 L63.5938 28.5938 z " id="STIXGeneral-Regular-2b"/>
     <path d=" M16.9062 30.2031 L12.7969 33.2969 Q15.7969 40.0938 21.3438 43.1875 Q26.9062 46.2969 33.4062 46.2969 Q39.7031 46.2969 43.2031 43.6406 Q46.7031 41 46.7031 36.2031 Q46.7031 34.7969 46.2031 32.5938 L39.9062 7.59375 Q39.0938 4.70312 39.0938 0 L30.5938 0 L31.0938 4.40625 Q23.9062 -1 14.9062 -1 Q10.5 -1 8 0.953125 Q5.5 2.90625 5.5 6.59375 Q5.5 23.4062 37.5 29.4062 L38.2969 32.7031 Q38.5 33.7031 38.5 34.2031 Q38.5 36.5 36.5469 37.8438 Q34.5938 39.2031 31.4062 39.2031 Q23.7969 39.2031 18.4062 30.2031 z  M33.4062 13.2031 L35.7031 22.2031 Q13.9062 18.7031 13.9062 9.59375 Q13.9062 6.09375 18.7031 6.09375 Q25.5 6.09375 33.4062 13.2031" id="STIXGeneral-Italic-1d622"/>
    </defs>
    <g transform="translate(84.3179527559 58.6597883858)scale(0.18 -0.18)">
     <use transform="translate(15.1199981689 0.296875)" xlink:href="#STIXGeneral-Regular-2b"/>
     <use transform="translate(89.0368713379 0.296875)" xlink:href="#STIXGeneral-Italic-1d622"/>
    </g>
   </g>
   <g id="text_2">
    <!-- $-s$ -->
    <defs>
     <path d=" M43.2031 41 L41 32.0938 L39.5 32.0938 Q37.7969 36.5 35.2969 37.8906 Q32.7969 39.2969 28.8906 39.2969 Q25 39.2969 23.0469 37.1406 Q21.0938 35 21.0938 33 Q21.0938 31 22.7969 29.5469 Q24.5 28.0938 27.7969 26.5 Q33.7969 23.5938 36.1406 21.3438 Q38.5 19.0938 38.5 15.7969 Q38.5 9 32.8906 4 Q27.2969 -1 18.5938 -1 Q14.0938 -1 11.3906 0.296875 Q8.70312 1.59375 6.09375 4.5 L8.59375 14.7969 L10.0938 14.7969 Q11.9062 6.09375 21 6.09375 Q24.4062 6.09375 27.2969 7.84375 Q30.2031 9.59375 30.2031 12.7969 Q30.2031 14.2969 28.5938 15.6406 Q27 17 23.2031 18.9062 Q17.7031 21.5938 15.25 24.25 Q12.7969 26.9062 12.7969 30.2969 Q12.7969 36.5 18 41.3906 Q23.2031 46.2969 30.9062 46.2969 Q39.5938 46.2969 43.2031 41" id="STIXGeneral-Italic-1d634"/>
     <path d=" M62.0938 22 L6.40625 22 L6.40625 28.5938 L62.0938 28.5938 z " id="STIXGeneral-Regular-2212"/>
    </defs>
    <g transform="translate(86.6579527559 115.352701772)scale(0.18 -0.18)">
     <use transform="translate(0.0 0.703125)" xlink:href="#STIXGeneral-Regular-2212"/>
     <use transform="translate(68.4999847412 0.703125)" xlink:href="#STIXGeneral-Italic-1d634"/>
    </g>
   </g>
   <g id="text_3">
    <!-- $-a$ -->
    <g transform="translate(40.7636220472 58.6597883858)scale(0.18 -0.18)">
     <use transform="translate(0.0 0.703125)" xlink:href="#STIXGeneral-Regular-2212"/>
     <use transform="translate(68.4999847412 0.703125)" xlink:href="#STIXGeneral-Italic-1d622"/>
    </g>
   </g>
   <g id="text_4">
    <!-- $+s$ -->
    <g transform="translate(130.212283465 115.352701772)scale(0.18 -0.18)">
     <use transform="translate(15.1199981689 0.296875)" xlink:href="#STIXGeneral-Regular-2b"/>
     <use transform="translate(89.0368713379 0.296875)" xlink:href="#STIXGeneral-Italic-1d634"/>
    </g>
   </g>
   <g id="text_5">
    <!-- $-l$ -->
    <defs>
     <path d=" M31.2969 67.9062 L14.4062 0 L6.09375 0 L22.5 66 L30.5 68.4062 z " id="STIXGeneral-Italic-1d62d"/>
    </defs>
    <g transform="translate(43.0136220472 172.045615157)scale(0.18 -0.18)">
     <use transform="translate(0.0 0.59375)" xlink:href="#STIXGeneral-Regular-2212"/>
     <use transform="translate(68.4999847412 0.59375)" xlink:href="#STIXGeneral-Italic-1d62d"/>
    </g>
   </g>
   <g id="text_6">
    <!-- $+l$ -->
    <g transform="translate(86.4779527559 172.045615157)scale(0.18 -0.18)">
     <use transform="translate(15.1199981689 0.59375)" xlink:href="#STIXGeneral-Regular-2b"/>
     <use transform="translate(89.0368713379 0.59375)" xlink:href="#STIXGeneral-Italic-1d62d"/>
    </g>
   </g>
   <g id="text_7">
    <!-- A -->
    <defs>
     <path d=" M34.1875 63.1875 L20.7969 26.9062 L47.6094 26.9062 z  M28.6094 72.9062 L39.7969 72.9062 L67.5781 0 L57.3281 0 L50.6875 18.7031 L17.8281 18.7031 L11.1875 0 L0.78125 0 z " id="BitstreamVeraSans-Roman-41"/>
    </defs>
    <g transform="translate(67.6890686516 33.3133316929)scale(0.18 -0.18)">
     <use xlink:href="#BitstreamVeraSans-Roman-41"/>
    </g>
   </g>
   <g id="text_8">
    <!-- $(0.4, 0.6)$ -->
    <defs>
     <path d=" M44.7969 66.7969 L43 61.5 Q31.5938 60.7031 23.6406 54.9531 Q15.7031 49.2031 12.2031 38.7969 Q18.0938 43.0938 25.9062 43.0938 Q34.5 43.0938 40.75 37.2969 Q47 31.5 47 22 Q47 12.2969 40.9531 5.4375 Q34.9062 -1.40625 25.7031 -1.40625 Q18 -1.40625 12.75 2.64062 Q7.5 6.70312 5.34375 12.75 Q3.20312 18.7969 3.20312 26.4062 Q3.20312 34.9062 6.20312 43.0469 Q9.20312 51.2031 14.2969 56.2031 Q21 62.7969 27.0938 65.0469 Q33.2031 67.2969 44.7031 68.4062 z  M39 20.7031 Q39 27.9062 34.8906 31.9531 Q30.7969 36 25.0938 36 Q19.9062 36 16 32.9531 Q12.0938 29.9062 11.2031 24 Q11.2031 15.9062 15.2031 10.7969 Q19.2031 5.70312 26 5.70312 Q31.5 5.70312 35.25 9.95312 Q39 14.2031 39 20.7031" id="STIXGeneral-Regular-1d7e8"/>
     <path d=" M48.9062 23.5938 L45.5938 16.5 L37.2969 16.5 L37.2969 0 L29.4062 0 L29.4062 16.5 L1.09375 16.5 L1.09375 23.2969 L32.2969 67.5938 L37.2969 67.5938 L37.2969 23.5938 z  M29.4062 23.5938 L29.4062 51 L10 23.5938 z " id="STIXGeneral-Regular-1d7e6"/>
     <path d=" M18.0938 4.29688 Q18.0938 2.09375 16.4375 0.5 Q14.7969 -1.09375 12.5 -1.09375 Q10.2031 -1.09375 8.59375 0.5 Q7 2.09375 7 4.39062 Q7 6.70312 8.64062 8.34375 Q10.2969 10 12.5938 10 Q14.7969 10 16.4375 8.29688 Q18.0938 6.59375 18.0938 4.29688" id="STIXGeneral-Regular-2e"/>
     <path d=" M47.7031 33 Q47.7031 23.7969 45.5469 16.3438 Q43.4062 8.90625 38.0938 3.75 Q32.7969 -1.40625 25 -1.40625 Q18.7969 -1.40625 14.25 1.6875 Q9.70312 4.79688 7.20312 10.0469 Q4.70312 15.2969 3.5 21.1406 Q2.29688 27 2.29688 33.5938 Q2.29688 42.9062 4.59375 50.3438 Q6.90625 57.7969 12.2969 62.6875 Q17.7031 67.5938 25.4062 67.5938 Q35.2031 67.5938 41.4531 57.9375 Q47.7031 48.2969 47.7031 33 M39.7969 33 Q39.7969 45.2031 35.75 52.8438 Q31.7031 60.5 25.2031 60.5 Q17.7969 60.5 14 52.75 Q10.2031 45 10.2031 33.4062 Q10.2031 28.2031 10.9531 23.5469 Q11.7031 18.9062 13.3438 14.75 Q15 10.5938 18 8.14062 Q21 5.70312 25 5.70312 Q30.0938 5.70312 33.5469 9.79688 Q37 13.9062 38.3906 19.8438 Q39.7969 25.7969 39.7969 33" id="STIXGeneral-Regular-1d7e2"/>
     <path d=" M8.29688 -14.0938 L7.29688 -12.2031 Q15.5938 -6.59375 15.5938 -1.5 Q15.5938 -0.203125 14.2031 -0.203125 Q13.7969 -0.203125 12.8438 -0.390625 Q11.9062 -0.59375 11.2969 -0.59375 Q5.5 -0.59375 5.5 4.5 Q5.5 7.09375 7.14062 8.64062 Q8.79688 10.2031 11.5 10.2031 Q14.9062 10.2031 17.2031 7.75 Q19.5 5.29688 19.5 1.5 Q19.5 -3.09375 16.4531 -7.39062 Q13.4062 -11.7031 8.29688 -14.0938" id="STIXGeneral-Regular-2c"/>
     <path d=" M30.4062 -16.0938 L29.2031 -17.7031 Q17.5938 -11.0938 11.1875 0.5 Q4.79688 12.0938 4.79688 25.2031 Q4.79688 52.9062 29.5 67.5938 L30.4062 66 Q20.2031 57.2969 16.7969 48.8438 Q13.4062 40.4062 13.4062 25.5 Q13.4062 10.7031 16.9062 1.5 Q20.4062 -7.70312 30.4062 -16.0938" id="STIXGeneral-Regular-28"/>
     <path d=" M2.90625 66 L4.09375 67.5938 Q15.5 60.7969 22 49.1875 Q28.5 37.5938 28.5 24.7031 Q28.5 -2.59375 3.79688 -17.7031 L2.90625 -16.0938 Q13.2031 -7.59375 16.5469 0.84375 Q19.9062 9.29688 19.9062 24.4062 Q19.9062 39.5938 16.5469 48.75 Q13.2031 57.9062 2.90625 66" id="STIXGeneral-Regular-29"/>
    </defs>
    <g transform="translate(87.6451181102 203.39207185)scale(0.18 -0.18)">
     <use transform="translate(0.0 0.59375)" xlink:href="#STIXGeneral-Regular-28"/>
     <use transform="translate(33.299987793 0.59375)" xlink:href="#STIXGeneral-Regular-1d7e2"/>
     <use transform="translate(83.2999725342 0.59375)" xlink:href="#STIXGeneral-Regular-2e"/>
     <use transform="translate(109.513720703 0.59375)" xlink:href="#STIXGeneral-Regular-1d7e6"/>
     <use transform="translate(159.513705444 0.59375)" xlink:href="#STIXGeneral-Regular-2c"/>
     <use transform="translate(188.633703613 0.59375)" xlink:href="#STIXGeneral-Regular-1d7e2"/>
     <use transform="translate(238.633688354 0.59375)" xlink:href="#STIXGeneral-Regular-2e"/>
     <use transform="translate(264.847436523 0.59375)" xlink:href="#STIXGeneral-Regular-1d7e8"/>
     <use transform="translate(314.847421265 0.59375)" xlink:href="#STIXGeneral-Regular-29"/>
    </g>
   </g>
   <g id="text_9">
    <!-- $(0.1, 0.9)$ -->
    <defs>
     <path d=" M5.5 -0.203125 L6.79688 4.70312 Q18.2031 5.5 26.1406 11.25 Q34.0938 17 37.5938 27.5 Q31.7969 23.0938 23.9062 23.0938 Q15.2969 23.0938 9.04688 28.8906 Q2.79688 34.7031 2.79688 44.2031 Q2.79688 53.9062 8.84375 60.75 Q14.9062 67.5938 24.2031 67.5938 Q30.0938 67.5938 34.5 65.3438 Q38.9062 63.0938 41.5 59.0938 Q44.0938 55.0938 45.3438 50.25 Q46.5938 45.4062 46.5938 39.7969 Q46.5938 31.4062 43.5469 23.2031 Q40.5 15 35.5 10.0938 Q28.7969 3.59375 22.8438 1.29688 Q16.9062 -1 5.70312 -2.09375 z  M38.5938 42.2031 Q38.5 50.2969 34.5469 55.3906 Q30.5938 60.5 23.9062 60.5 Q18.4062 60.5 14.5938 56.2969 Q10.7969 52.0938 10.7969 45.5938 Q10.7969 38.4062 14.8906 34.3438 Q19 30.2969 24.7031 30.2969 Q29.9062 30.2969 33.7969 33.3438 Q37.7031 36.4062 38.5938 42.2031" id="STIXGeneral-Regular-1d7eb"/>
     <path d=" M30.2031 0 L22.2969 0 L22.2969 57 Q20.0938 56 15.75 53.75 Q11.4062 51.5 10.7969 51.2031 L10.7969 58.5 L28.7969 67.7031 L30.2031 67.2031 z " id="STIXGeneral-Regular-1d7e3"/>
    </defs>
    <g transform="translate(132.999448819 146.699158465)scale(0.18 -0.18)">
     <use transform="translate(0.0 0.296875)" xlink:href="#STIXGeneral-Regular-28"/>
     <use transform="translate(33.299987793 0.296875)" xlink:href="#STIXGeneral-Regular-1d7e2"/>
     <use transform="translate(83.2999725342 0.296875)" xlink:href="#STIXGeneral-Regular-2e"/>
     <use transform="translate(109.513720703 0.296875)" xlink:href="#STIXGeneral-Regular-1d7e3"/>
     <use transform="translate(159.513705444 0.296875)" xlink:href="#STIXGeneral-Regular-2c"/>
     <use transform="translate(188.633703613 0.296875)" xlink:href="#STIXGeneral-Regular-1d7e2"/>
     <use transform="translate(238.633688354 0.296875)" xlink:href="#STIXGeneral-Regular-2e"/>
     <use transform="translate(264.847436523 0.296875)" xlink:href="#STIXGeneral-Regular-1d7eb"/>
     <use transform="translate(314.847421265 0.296875)" xlink:href="#STIXGeneral-Regular-29"/>
    </g>
   </g>
   <g id="text_10">
    <!-- $(0.9, 0.1)$ -->
    <g transform="translate(-3.06354330709 203.39207185)scale(0.18 -0.18)">
     <use transform="translate(0.0 0.296875)" xlink:href="#STIXGeneral-Regular-28"/>
     <use transform="translate(33.299987793 0.296875)" xlink:href="#STIXGeneral-Regular-1d7e2"/>
     <use transform="translate(83.2999725342 0.296875)" xlink:href="#STIXGeneral-Regular-2e"/>
     <use transform="translate(109.513720703 0.296875)" xlink:href="#STIXGeneral-Regular-1d7eb"/>
     <use transform="translate(159.513705444 0.296875)" xlink:href="#STIXGeneral-Regular-2c"/>
     <use transform="translate(188.633703613 0.296875)" xlink:href="#STIXGeneral-Regular-1d7e2"/>
     <use transform="translate(238.633688354 0.296875)" xlink:href="#STIXGeneral-Regular-2e"/>
     <use transform="translate(264.847436523 0.296875)" xlink:href="#STIXGeneral-Regular-1d7e3"/>
     <use transform="translate(314.847421265 0.296875)" xlink:href="#STIXGeneral-Regular-29"/>
    </g>
   </g>
   <g id="text_11">
    <!-- L -->
    <defs>
     <path d=" M9.8125 72.9062 L19.6719 72.9062 L19.6719 8.29688 L55.1719 8.29688 L55.1719 0 L9.8125 0 z " id="BitstreamVeraSans-Roman-4c"/>
    </defs>
    <g transform="translate(69.6184436516 146.699158465)scale(0.18 -0.18)">
     <use xlink:href="#BitstreamVeraSans-Roman-4c"/>
    </g>
   </g>
   <g id="text_12">
    <!-- S -->
    <defs>
     <path d=" M53.5156 70.5156 L53.5156 60.8906 Q47.9062 63.5781 42.9219 64.8906 Q37.9375 66.2188 33.2969 66.2188 Q25.25 66.2188 20.875 63.0938 Q16.5 59.9688 16.5 54.2031 Q16.5 49.3594 19.4062 46.8906 Q22.3125 44.4375 30.4219 42.9219 L36.375 41.7031 Q47.4062 39.5938 52.6562 34.2969 Q57.9062 29 57.9062 20.125 Q57.9062 9.51562 50.7969 4.04688 Q43.7031 -1.42188 29.9844 -1.42188 Q24.8125 -1.42188 18.9688 -0.25 Q13.1406 0.921875 6.89062 3.21875 L6.89062 13.375 Q12.8906 10.0156 18.6562 8.29688 Q24.4219 6.59375 29.9844 6.59375 Q38.4219 6.59375 43.0156 9.90625 Q47.6094 13.2344 47.6094 19.3906 Q47.6094 24.75 44.3125 27.7812 Q41.0156 30.8125 33.5 32.3281 L27.4844 33.5 Q16.4531 35.6875 11.5156 40.375 Q6.59375 45.0625 6.59375 53.4219 Q6.59375 63.0938 13.4062 68.6562 Q20.2188 74.2188 32.1719 74.2188 Q37.3125 74.2188 42.625 73.2812 Q47.9531 72.3594 53.5156 70.5156" id="BitstreamVeraSans-Roman-53"/>
    </defs>
    <g transform="translate(114.43699311 90.0062450787)scale(0.18 -0.18)">
     <use xlink:href="#BitstreamVeraSans-Roman-53"/>
    </g>
   </g>
   <g id="text_13">
    <!-- $(0.8, 0.2)$ -->
    <defs>
     <path d=" M46.9062 7.09375 L44 0 L3.5 0 L3.5 2.09375 L21 23.5 L21 23.4062 L26.5938 30.2031 Q30.5 34.9062 32.0938 36.9531 Q33.7031 39 35.2031 41.9531 Q36.7031 44.9062 36.7031 47.5 Q36.7031 53.7031 33.3438 57.0938 Q30 60.5 24.2031 60.5 Q19.5938 60.5 15.75 56.7031 Q11.9062 52.9062 10.9062 45.9062 L3.70312 47.5938 Q5.29688 56.5 11.1875 62.0469 Q17.0938 67.5938 24.9062 67.5938 Q33.5938 67.5938 39.0938 62.1875 Q44.5938 56.7969 44.5938 49.0938 Q44.5938 43.5 42.5 39.4531 Q40.4062 35.4062 33.7031 27 L17.7031 7.09375 z " id="STIXGeneral-Regular-1d7e4"/>
     <path d=" M44.7031 16.0938 Q44.7031 8.79688 39.3906 3.6875 Q34.0938 -1.40625 24.7969 -1.40625 Q16.2969 -1.40625 10.5938 3.4375 Q4.90625 8.29688 4.90625 15.4062 Q4.90625 20.7969 7.75 25.25 Q10.5938 29.7031 17.7031 34.5 Q6 41.4062 6 51.4062 Q6 58.5938 11.5469 63.0938 Q17.0938 67.5938 25.5938 67.5938 Q32.9062 67.5938 37.7969 62.8438 Q42.7031 58.0938 42.7031 52 Q42.7031 46.4062 40.0938 42.7031 Q37.5 39 31.0938 35.2969 Q44.7031 27 44.7031 16.0938 M35.5 51.5 Q35.5 55.5 32.3906 58 Q29.2969 60.5 24.4062 60.5 Q19.7969 60.5 16.8438 57.8438 Q13.9062 55.2031 13.9062 51.7969 Q13.9062 47.5 16.3438 44.8438 Q18.7969 42.2031 24.9062 39.4062 Q35.5 45.2031 35.5 51.5 M27.5938 28.5938 L24.0938 30.5 Q18.9062 28.7031 15.8438 24.6406 Q12.7969 20.5938 12.7969 16.2969 Q12.7969 11.7969 16 8.75 Q19.2031 5.70312 25.2031 5.70312 Q29.7969 5.70312 33.2969 8.45312 Q36.7969 11.2031 36.7969 15.7969 Q36.7969 20 34.6875 22.9531 Q32.5938 25.9062 27.5938 28.5938" id="STIXGeneral-Regular-1d7ea"/>
    </defs>
    <g transform="translate(-3.06354330709 90.0062450787)scale(0.18 -0.18)">
     <use transform="translate(0.0 0.40625)" xlink:href="#STIXGeneral-Regular-28"/>
     <use transform="translate(33.299987793 0.40625)" xlink:href="#STIXGeneral-Regular-1d7e2"/>
     <use transform="translate(83.2999725342 0.40625)" xlink:href="#STIXGeneral-Regular-2e"/>
     <use transform="translate(109.513720703 0.40625)" xlink:href="#STIXGeneral-Regular-1d7ea"/>
     <use transform="translate(159.513705444 0.40625)" xlink:href="#STIXGeneral-Regular-2c"/>
     <use transform="translate(188.633703613 0.40625)" xlink:href="#STIXGeneral-Regular-1d7e2"/>
     <use transform="translate(238.633688354 0.40625)" xlink:href="#STIXGeneral-Regular-2e"/>
     <use transform="translate(264.847436523 0.40625)" xlink:href="#STIXGeneral-Regular-1d7e4"/>
     <use transform="translate(314.847421265 0.40625)" xlink:href="#STIXGeneral-Regular-29"/>
    </g>
   </g>
  </g>
 </g>
 </svg>
