<svg xmlns="http://www.w3.org/2000/svg" xmlns:xlink="http://www.w3.org/1999/xlink" height="113pt" version="1.1" viewBox="0 0 141 113" width="141pt">
 <defs>
  <clipPath id="p16f9e740cd">
   <rect height="113.385826772" width="141.732283465" x="0.0" y="0.0"/>
  </clipPath>
 </defs>
<defs>
  <style type="text/css">
*{stroke-linecap:butt;stroke-linejoin:round;}
  </style>
 </defs>
 <g id="figure_1">
  <g id="patch_1">
   <path d=" M0 113.386 L141.732 113.386 L141.732 0 L0 0 z " style="fill:#ffffff;"/>
  </g>
  <g id="axes_1">
   <g id="patch_2">
    <path clip-path="url(#p16f9e740cd)" d=" M61.6744 61.6744 L58.1667 61.1733 L59.67 59.67 L40.3728 40.3728 L40.3728 40.3728 L59.67 59.67 L61.1733 58.1667 z " style="fill:none;stroke:#000000;"/>
   </g>
   <g id="patch_3">
    <path clip-path="url(#p16f9e740cd)" d=" M73.7008 56.6929 L71.5748 53.8583 L73.7008 53.8583 L73.7008 45.3543 L73.7008 45.3543 L73.7008 53.8583 L75.8268 53.8583 z " style="fill:none;stroke:#000000;"/>
   </g>
   <g id="patch_4">
    <path clip-path="url(#p16f9e740cd)" d=" M85.7272 61.6744 L86.2283 58.1667 L87.7316 59.67 L107.029 40.3728 L107.029 40.3728 L87.7316 59.67 L89.2349 61.1733 z " style="fill:none;stroke:#000000;"/>
   </g>
   <g id="patch_5">
    <path clip-path="url(#p16f9e740cd)" d=" M28.3465 45.3543 C32.857 45.3543 37.1834 43.5623 40.3728 40.3728 C43.5623 37.1834 45.3543 32.857 45.3543 28.3465 C45.3543 23.8359 43.5623 19.5095 40.3728 16.3201 C37.1834 13.1306 32.857 11.3386 28.3465 11.3386 C23.8359 11.3386 19.5095 13.1306 16.3201 16.3201 C13.1306 19.5095 11.3386 23.8359 11.3386 28.3465 C11.3386 32.857 13.1306 37.1834 16.3201 40.3728 C19.5095 43.5623 23.8359 45.3543 28.3465 45.3543 z " style="fill:none;stroke:#000000;"/>
   </g>
   <g id="patch_6">
    <path clip-path="url(#p16f9e740cd)" d=" M119.055 45.3543 C123.566 45.3543 127.892 43.5623 131.082 40.3728 C134.271 37.1834 136.063 32.857 136.063 28.3465 C136.063 23.8359 134.271 19.5095 131.082 16.3201 C127.892 13.1306 123.566 11.3386 119.055 11.3386 C114.545 11.3386 110.218 13.1306 107.029 16.3201 C103.839 19.5095 102.047 23.8359 102.047 28.3465 C102.047 32.857 103.839 37.1834 107.029 40.3728 C110.218 43.5623 114.545 45.3543 119.055 45.3543 z " style="fill:none;stroke:#000000;"/>
   </g>
   <g id="patch_7">
    <path clip-path="url(#p16f9e740cd)" d=" M73.7008 90.7087 C78.2113 90.7087 82.5377 88.9166 85.7272 85.7272 C88.9166 82.5377 90.7087 78.2113 90.7087 73.7008 C90.7087 69.1902 88.9166 64.8638 85.7272 61.6744 C82.5377 58.485 78.2113 56.6929 73.7008 56.6929 C69.1902 56.6929 64.8638 58.485 61.6744 61.6744 C58.485 64.8638 56.6929 69.1902 56.6929 73.7008 C56.6929 78.2113 58.485 82.5377 61.6744 85.7272 C64.8638 88.9166 69.1902 90.7087 73.7008 90.7087 z " style="fill:none;stroke:#000000;"/>
   </g>
   <g id="patch_8">
    <path clip-path="url(#p16f9e740cd)" d=" M73.7008 45.3543 C78.2113 45.3543 82.5377 43.5623 85.7272 40.3728 C88.9166 37.1834 90.7087 32.857 90.7087 28.3465 C90.7087 23.8359 88.9166 19.5095 85.7272 16.3201 C82.5377 13.1306 78.2113 11.3386 73.7008 11.3386 C69.1902 11.3386 64.8638 13.1306 61.6744 16.3201 C58.485 19.5095 56.6929 23.8359 56.6929 28.3465 C56.6929 32.857 58.485 37.1834 61.6744 40.3728 C64.8638 43.5623 69.1902 45.3543 73.7008 45.3543 z " style="fill:none;stroke:#000000;"/>
   </g>
   <g id="matplotlib.axis_1"/>
   <g id="matplotlib.axis_2"/>
   <g id="text_1">
    <!-- apply -->
    <defs>
     <path d=" M34.2812 27.4844 Q23.3906 27.4844 19.1875 25 Q14.9844 22.5156 14.9844 16.5 Q14.9844 11.7188 18.1406 8.90625 Q21.2969 6.10938 26.7031 6.10938 Q34.1875 6.10938 38.7031 11.4062 Q43.2188 16.7031 43.2188 25.4844 L43.2188 27.4844 z  M52.2031 31.2031 L52.2031 0 L43.2188 0 L43.2188 8.29688 Q40.1406 3.32812 35.5469 0.953125 Q30.9531 -1.42188 24.3125 -1.42188 Q15.9219 -1.42188 10.9531 3.29688 Q6 8.01562 6 15.9219 Q6 25.1406 12.1719 29.8281 Q18.3594 34.5156 30.6094 34.5156 L43.2188 34.5156 L43.2188 35.4062 Q43.2188 41.6094 39.1406 45 Q35.0625 48.3906 27.6875 48.3906 Q23 48.3906 18.5469 47.2656 Q14.1094 46.1406 10.0156 43.8906 L10.0156 52.2031 Q14.9375 54.1094 19.5781 55.0469 Q24.2188 56 28.6094 56 Q40.4844 56 46.3438 49.8438 Q52.2031 43.7031 52.2031 31.2031" id="BitstreamVeraSans-Roman-61"/>
     <path d=" M9.42188 75.9844 L18.4062 75.9844 L18.4062 0 L9.42188 0 z " id="BitstreamVeraSans-Roman-6c"/>
     <path d=" M18.1094 8.20312 L18.1094 -20.7969 L9.07812 -20.7969 L9.07812 54.6875 L18.1094 54.6875 L18.1094 46.3906 Q20.9531 51.2656 25.2656 53.625 Q29.5938 56 35.5938 56 Q45.5625 56 51.7812 48.0938 Q58.0156 40.1875 58.0156 27.2969 Q58.0156 14.4062 51.7812 6.48438 Q45.5625 -1.42188 35.5938 -1.42188 Q29.5938 -1.42188 25.2656 0.953125 Q20.9531 3.32812 18.1094 8.20312 M48.6875 27.2969 Q48.6875 37.2031 44.6094 42.8438 Q40.5312 48.4844 33.4062 48.4844 Q26.2656 48.4844 22.1875 42.8438 Q18.1094 37.2031 18.1094 27.2969 Q18.1094 17.3906 22.1875 11.75 Q26.2656 6.10938 33.4062 6.10938 Q40.5312 6.10938 44.6094 11.75 Q48.6875 17.3906 48.6875 27.2969" id="BitstreamVeraSans-Roman-70"/>
     <path d=" M32.1719 -5.07812 Q28.375 -14.8438 24.75 -17.8125 Q21.1406 -20.7969 15.0938 -20.7969 L7.90625 -20.7969 L7.90625 -13.2812 L13.1875 -13.2812 Q16.8906 -13.2812 18.9375 -11.5156 Q21 -9.76562 23.4844 -3.21875 L25.0938 0.875 L2.98438 54.6875 L12.5 54.6875 L29.5938 11.9219 L46.6875 54.6875 L56.2031 54.6875 z " id="BitstreamVeraSans-Roman-79"/>
    </defs>
    <g transform="translate(13.7035660679 31.3817691929)scale(0.11 -0.11)">
     <use xlink:href="#BitstreamVeraSans-Roman-61"/>
     <use x="61.279296875" xlink:href="#BitstreamVeraSans-Roman-70"/>
     <use x="124.755859375" xlink:href="#BitstreamVeraSans-Roman-70"/>
     <use x="188.232421875" xlink:href="#BitstreamVeraSans-Roman-6c"/>
     <use x="216.015625" xlink:href="#BitstreamVeraSans-Roman-79"/>
    </g>
   </g>
   <g id="text_2">
    <!-- SAT -->
    <defs>
     <path d=" M53.5156 70.5156 L53.5156 60.8906 Q47.9062 63.5781 42.9219 64.8906 Q37.9375 66.2188 33.2969 66.2188 Q25.25 66.2188 20.875 63.0938 Q16.5 59.9688 16.5 54.2031 Q16.5 49.3594 19.4062 46.8906 Q22.3125 44.4375 30.4219 42.9219 L36.375 41.7031 Q47.4062 39.5938 52.6562 34.2969 Q57.9062 29 57.9062 20.125 Q57.9062 9.51562 50.7969 4.04688 Q43.7031 -1.42188 29.9844 -1.42188 Q24.8125 -1.42188 18.9688 -0.25 Q13.1406 0.921875 6.89062 3.21875 L6.89062 13.375 Q12.8906 10.0156 18.6562 8.29688 Q24.4219 6.59375 29.9844 6.59375 Q38.4219 6.59375 43.0156 9.90625 Q47.6094 13.2344 47.6094 19.3906 Q47.6094 24.75 44.3125 27.7812 Q41.0156 30.8125 33.5 32.3281 L27.4844 33.5 Q16.4531 35.6875 11.5156 40.375 Q6.59375 45.0625 6.59375 53.4219 Q6.59375 63.0938 13.4062 68.6562 Q20.2188 74.2188 32.1719 74.2188 Q37.3125 74.2188 42.625 73.2812 Q47.9531 72.3594 53.5156 70.5156" id="BitstreamVeraSans-Roman-53"/>
     <path d=" M-0.296875 72.9062 L61.375 72.9062 L61.375 64.5938 L35.5 64.5938 L35.5 0 L25.5938 0 L25.5938 64.5938 L-0.296875 64.5938 z " id="BitstreamVeraSans-Roman-54"/>
     <path d=" M34.1875 63.1875 L20.7969 26.9062 L47.6094 26.9062 z  M28.6094 72.9062 L39.7969 72.9062 L67.5781 0 L57.3281 0 L50.6875 18.7031 L17.8281 18.7031 L11.1875 0 L0.78125 0 z " id="BitstreamVeraSans-Roman-41"/>
    </defs>
    <g transform="translate(109.111289985 31.3817691929)scale(0.11 -0.11)">
     <use xlink:href="#BitstreamVeraSans-Roman-53"/>
     <use x="65.3515625" xlink:href="#BitstreamVeraSans-Roman-41"/>
     <use x="126.009765625" xlink:href="#BitstreamVeraSans-Roman-54"/>
    </g>
   </g>
   <g id="text_3">
    <!-- job -->
    <defs>
     <path d=" M30.6094 48.3906 Q23.3906 48.3906 19.1875 42.75 Q14.9844 37.1094 14.9844 27.2969 Q14.9844 17.4844 19.1562 11.8438 Q23.3438 6.20312 30.6094 6.20312 Q37.7969 6.20312 41.9844 11.8594 Q46.1875 17.5312 46.1875 27.2969 Q46.1875 37.0156 41.9844 42.7031 Q37.7969 48.3906 30.6094 48.3906 M30.6094 56 Q42.3281 56 49.0156 48.375 Q55.7188 40.7656 55.7188 27.2969 Q55.7188 13.875 49.0156 6.21875 Q42.3281 -1.42188 30.6094 -1.42188 Q18.8438 -1.42188 12.1719 6.21875 Q5.51562 13.875 5.51562 27.2969 Q5.51562 40.7656 12.1719 48.375 Q18.8438 56 30.6094 56" id="BitstreamVeraSans-Roman-6f"/>
     <path d=" M9.42188 54.6875 L18.4062 54.6875 L18.4062 -0.984375 Q18.4062 -11.4219 14.4219 -16.1094 Q10.4531 -20.7969 1.60938 -20.7969 L-1.8125 -20.7969 L-1.8125 -13.1875 L0.59375 -13.1875 Q5.71875 -13.1875 7.5625 -10.8125 Q9.42188 -8.45312 9.42188 -0.984375 z  M9.42188 75.9844 L18.4062 75.9844 L18.4062 64.5938 L9.42188 64.5938 z " id="BitstreamVeraSans-Roman-6a"/>
     <path d=" M48.6875 27.2969 Q48.6875 37.2031 44.6094 42.8438 Q40.5312 48.4844 33.4062 48.4844 Q26.2656 48.4844 22.1875 42.8438 Q18.1094 37.2031 18.1094 27.2969 Q18.1094 17.3906 22.1875 11.75 Q26.2656 6.10938 33.4062 6.10938 Q40.5312 6.10938 44.6094 11.75 Q48.6875 17.3906 48.6875 27.2969 M18.1094 46.3906 Q20.9531 51.2656 25.2656 53.625 Q29.5938 56 35.5938 56 Q45.5625 56 51.7812 48.0938 Q58.0156 40.1875 58.0156 27.2969 Q58.0156 14.4062 51.7812 6.48438 Q45.5625 -1.42188 35.5938 -1.42188 Q29.5938 -1.42188 25.2656 0.953125 Q20.9531 3.32812 18.1094 8.20312 L18.1094 0 L9.07812 0 L9.07812 75.9844 L18.1094 75.9844 z " id="BitstreamVeraSans-Roman-62"/>
    </defs>
    <g transform="translate(65.5169592766 76.7360999016)scale(0.11 -0.11)">
     <use xlink:href="#BitstreamVeraSans-Roman-6a"/>
     <use x="27.783203125" xlink:href="#BitstreamVeraSans-Roman-6f"/>
     <use x="88.96484375" xlink:href="#BitstreamVeraSans-Roman-62"/>
    </g>
   </g>
   <g id="text_4">
    <!-- letter -->
    <defs>
     <path d=" M56.2031 29.5938 L56.2031 25.2031 L14.8906 25.2031 Q15.4844 15.9219 20.4844 11.0625 Q25.4844 6.20312 34.4219 6.20312 Q39.5938 6.20312 44.4531 7.46875 Q49.3125 8.73438 54.1094 11.2812 L54.1094 2.78125 Q49.2656 0.734375 44.1875 -0.34375 Q39.1094 -1.42188 33.8906 -1.42188 Q20.7969 -1.42188 13.1562 6.1875 Q5.51562 13.8125 5.51562 26.8125 Q5.51562 40.2344 12.7656 48.1094 Q20.0156 56 32.3281 56 Q43.3594 56 49.7812 48.8906 Q56.2031 41.7969 56.2031 29.5938 M47.2188 32.2344 Q47.125 39.5938 43.0938 43.9844 Q39.0625 48.3906 32.4219 48.3906 Q24.9062 48.3906 20.3906 44.1406 Q15.875 39.8906 15.1875 32.1719 z " id="BitstreamVeraSans-Roman-65"/>
     <path d=" M18.3125 70.2188 L18.3125 54.6875 L36.8125 54.6875 L36.8125 47.7031 L18.3125 47.7031 L18.3125 18.0156 Q18.3125 11.3281 20.1406 9.42188 Q21.9688 7.51562 27.5938 7.51562 L36.8125 7.51562 L36.8125 0 L27.5938 0 Q17.1875 0 13.2344 3.875 Q9.28125 7.76562 9.28125 18.0156 L9.28125 47.7031 L2.6875 47.7031 L2.6875 54.6875 L9.28125 54.6875 L9.28125 70.2188 z " id="BitstreamVeraSans-Roman-74"/>
     <path d=" M41.1094 46.2969 Q39.5938 47.1719 37.8125 47.5781 Q36.0312 48 33.8906 48 Q26.2656 48 22.1875 43.0469 Q18.1094 38.0938 18.1094 28.8125 L18.1094 0 L9.07812 0 L9.07812 54.6875 L18.1094 54.6875 L18.1094 46.1875 Q20.9531 51.1719 25.4844 53.5781 Q30.0312 56 36.5312 56 Q37.4531 56 38.5781 55.875 Q39.7031 55.7656 41.0625 55.5156 z " id="BitstreamVeraSans-Roman-72"/>
    </defs>
    <g transform="translate(59.3492249016 31.3817691929)scale(0.11 -0.11)">
     <use xlink:href="#BitstreamVeraSans-Roman-6c"/>
     <use x="27.783203125" xlink:href="#BitstreamVeraSans-Roman-65"/>
     <use x="89.306640625" xlink:href="#BitstreamVeraSans-Roman-74"/>
     <use x="128.515625" xlink:href="#BitstreamVeraSans-Roman-74"/>
     <use x="167.724609375" xlink:href="#BitstreamVeraSans-Roman-65"/>
     <use x="229.248046875" xlink:href="#BitstreamVeraSans-Roman-72"/>
    </g>
   </g>
  </g>
 </g>
 </svg>
