<svg xmlns="http://www.w3.org/2000/svg" xmlns:xlink="http://www.w3.org/1999/xlink" height="226pt" version="1.1" viewBox="0 0 124 226" width="124pt">
 <defs>
  <clipPath id="p25a6d71250">
   <rect height="226.771653543" width="124.724409449" x="0.0" y="0.0"/>
  </clipPath>
 </defs>
<defs>
  <style type="text/css">
*{stroke-linecap:butt;stroke-linejoin:round;}
  </style>
 </defs>
 <g id="figure_1">
  <g id="patch_1">
   <path d=" M0 226.772 L124.724 226.772 L124.724 0 L0 0 z " style="fill:#ffffff;"/>
  </g>
  <g id="axes_1">
   <g id="patch_2">
    <path clip-path="url(#p25a6d71250)" d=" M28.3465 102.047 L30.4724 104.882 L28.3465 104.882 L28.3465 124.724 L28.3465 124.724 L28.3465 104.882 L26.2205 104.882 z " style="fill:none;stroke:#000000;"/>
   </g>
   <g id="patch_3">
    <path clip-path="url(#p25a6d71250)" d=" M80.6784 163.537 L77.2441 164.409 L78.0618 162.447 L44.046 148.274 L44.046 148.274 L78.0618 162.447 L78.8795 160.485 z " style="fill:none;stroke:#000000;"/>
   </g>
   <g id="patch_4">
    <path clip-path="url(#p25a6d71250)" d=" M80.6784 176.62 L78.8795 179.673 L78.0618 177.71 L44.046 191.884 L44.046 191.884 L78.0618 177.71 L77.2441 175.748 z " style="fill:none;stroke:#000000;"/>
   </g>
   <g id="patch_5">
    <path clip-path="url(#p25a6d71250)" d=" M96.378 187.087 C100.888 187.087 105.215 185.295 108.404 182.105 C111.594 178.916 113.386 174.589 113.386 170.079 C113.386 165.568 111.594 161.242 108.404 158.052 C105.215 154.863 100.888 153.071 96.378 153.071 C91.8674 153.071 87.541 154.863 84.3516 158.052 C81.1621 161.242 79.3701 165.568 79.3701 170.079 C79.3701 174.589 81.1621 178.916 84.3516 182.105 C87.541 185.295 91.8674 187.087 96.378 187.087 z " style="fill:none;stroke:#000000;"/>
   </g>
   <g id="patch_6">
    <path clip-path="url(#p25a6d71250)" d=" M28.3465 215.433 C32.857 215.433 37.1834 213.641 40.3728 210.452 C43.5623 207.262 45.3543 202.936 45.3543 198.425 C45.3543 193.915 43.5623 189.588 40.3728 186.399 C37.1834 183.209 32.857 181.417 28.3465 181.417 C23.8359 181.417 19.5095 183.209 16.3201 186.399 C13.1306 189.588 11.3386 193.915 11.3386 198.425 C11.3386 202.936 13.1306 207.262 16.3201 210.452 C19.5095 213.641 23.8359 215.433 28.3465 215.433 z " style="fill:none;stroke:#000000;"/>
   </g>
   <g id="patch_7">
    <path clip-path="url(#p25a6d71250)" d=" M28.3465 158.74 C32.857 158.74 37.1834 156.948 40.3728 153.759 C43.5623 150.569 45.3543 146.243 45.3543 141.732 C45.3543 137.222 43.5623 132.895 40.3728 129.706 C37.1834 126.516 32.857 124.724 28.3465 124.724 C23.8359 124.724 19.5095 126.516 16.3201 129.706 C13.1306 132.895 11.3386 137.222 11.3386 141.732 C11.3386 146.243 13.1306 150.569 16.3201 153.759 C19.5095 156.948 23.8359 158.74 28.3465 158.74 z " style="fill:none;stroke:#000000;"/>
   </g>
   <g id="patch_8">
    <path clip-path="url(#p25a6d71250)" d=" M28.3465 45.3543 C32.857 45.3543 37.1834 43.5623 40.3728 40.3728 C43.5623 37.1834 45.3543 32.857 45.3543 28.3465 C45.3543 23.8359 43.5623 19.5095 40.3728 16.3201 C37.1834 13.1306 32.857 11.3386 28.3465 11.3386 C23.8359 11.3386 19.5095 13.1306 16.3201 16.3201 C13.1306 19.5095 11.3386 23.8359 11.3386 28.3465 C11.3386 32.857 13.1306 37.1834 16.3201 40.3728 C19.5095 43.5623 23.8359 45.3543 28.3465 45.3543 z " style="fill:none;stroke:#000000;"/>
   </g>
   <g id="patch_9">
    <path clip-path="url(#p25a6d71250)" d=" M28.3465 102.047 C32.857 102.047 37.1834 100.255 40.3728 97.0658 C43.5623 93.8763 45.3543 89.5499 45.3543 85.0394 C45.3543 80.5288 43.5623 76.2024 40.3728 73.013 C37.1834 69.8236 32.857 68.0315 28.3465 68.0315 C23.8359 68.0315 19.5095 69.8236 16.3201 73.013 C13.1306 76.2024 11.3386 80.5288 11.3386 85.0394 C11.3386 89.5499 13.1306 93.8763 16.3201 97.0658 C19.5095 100.255 23.8359 102.047 28.3465 102.047 z " style="fill:none;stroke:#000000;"/>
   </g>
   <g id="matplotlib.axis_1"/>
   <g id="matplotlib.axis_2"/>
   <g id="text_1">
    <!-- $O_0$ -->
    <defs>
     <path d=" M77.9062 43 Q77.9062 30.7031 71.5469 20.2969 Q65.2031 9.90625 55.4531 4.25 Q45.7031 -1.40625 35.2969 -1.40625 Q23.7031 -1.40625 16.7969 5.25 Q9.90625 11.9062 9.90625 23.2031 Q9.90625 35.5938 16.25 46 Q22.5938 56.4062 32.2969 62 Q42 67.5938 52.5 67.5938 Q64.0938 67.5938 71 60.9375 Q77.9062 54.2969 77.9062 43 M68.9062 42.0938 Q68.9062 50.5938 64.1562 55.2969 Q59.4062 60 50.5938 60 Q39.5938 60 31.3906 52.75 Q23.2031 45.5 20.0938 33.0938 Q18.9062 28.2031 18.9062 24.0938 Q18.9062 15.5938 23.6562 10.8906 Q28.4062 6.20312 37.2031 6.20312 Q48.2031 6.20312 56.3906 13.4531 Q64.5938 20.7031 67.7031 33.0938 Q68.9062 38.0938 68.9062 42.0938" id="STIXGeneral-Italic-1d616"/>
     <path d=" M47.7031 33 Q47.7031 23.7969 45.5469 16.3438 Q43.4062 8.90625 38.0938 3.75 Q32.7969 -1.40625 25 -1.40625 Q18.7969 -1.40625 14.25 1.6875 Q9.70312 4.79688 7.20312 10.0469 Q4.70312 15.2969 3.5 21.1406 Q2.29688 27 2.29688 33.5938 Q2.29688 42.9062 4.59375 50.3438 Q6.90625 57.7969 12.2969 62.6875 Q17.7031 67.5938 25.4062 67.5938 Q35.2031 67.5938 41.4531 57.9375 Q47.7031 48.2969 47.7031 33 M39.7969 33 Q39.7969 45.2031 35.75 52.8438 Q31.7031 60.5 25.2031 60.5 Q17.7969 60.5 14 52.75 Q10.2031 45 10.2031 33.4062 Q10.2031 28.2031 10.9531 23.5469 Q11.7031 18.9062 13.3438 14.75 Q15 10.5938 18 8.14062 Q21 5.70312 25 5.70312 Q30.0938 5.70312 33.5469 9.79688 Q37 13.9062 38.3906 19.8438 Q39.7969 25.7969 39.7969 33" id="STIXGeneral-Regular-1d7e2"/>
    </defs>
    <g transform="translate(85.3979527559 175.045615157)scale(0.18 -0.18)">
     <use transform="translate(0.0 0.40625)" xlink:href="#STIXGeneral-Italic-1d616"/>
     <use transform="translate(71.3999938965 -13.1828125)scale(0.7)" xlink:href="#STIXGeneral-Regular-1d7e2"/>
    </g>
   </g>
   <g id="text_2">
    <!-- $F_0$ -->
    <defs>
     <path d=" M67.9062 66.2031 L66.9062 58.7969 L30.7031 58.7969 L25.7031 38.5938 L55.2969 38.5938 L53.4062 31.0938 L23.7969 31.0938 L16.0938 0 L7.40625 0 L23.9062 66.2031 z " id="STIXGeneral-Italic-1d60d"/>
    </defs>
    <g transform="translate(18.9864566929 203.39207185)scale(0.18 -0.18)">
     <use transform="translate(0.0 0.796875)" xlink:href="#STIXGeneral-Italic-1d60d"/>
     <use transform="translate(53.4999847412 -12.7921875)scale(0.7)" xlink:href="#STIXGeneral-Regular-1d7e2"/>
    </g>
   </g>
   <g id="text_3">
    <!-- $L_0$ -->
    <defs>
     <path d=" M56.4062 7.40625 L52.7969 0 L7.40625 0 L23.9062 66.2031 L32.5938 66.2031 L17.9062 7.40625 z " id="STIXGeneral-Italic-1d613"/>
    </defs>
    <g transform="translate(18.8064566929 146.699158465)scale(0.18 -0.18)">
     <use transform="translate(0.0 0.796875)" xlink:href="#STIXGeneral-Italic-1d613"/>
     <use transform="translate(55.8999938965 -12.7921875)scale(0.7)" xlink:href="#STIXGeneral-Regular-1d7e2"/>
    </g>
   </g>
   <g id="text_4">
    <!-- $W_0$ -->
    <defs>
     <path d=" M105.703 66.2031 L66.0938 -1.09375 L63.2969 -1.09375 L56.5938 43.5 L28.2031 -1.09375 L25.4062 -1.09375 L19.4062 66.2031 L28.9062 66.2031 L32.2969 18.5938 L32.2969 18.7969 L62.4062 66.2031 L68.9062 18.5938 L68.9062 18.7969 L96.2031 66.2031 z " id="STIXGeneral-Italic-1d61e"/>
    </defs>
    <g transform="translate(15.4764566929 33.3133316929)scale(0.18 -0.18)">
     <use transform="translate(0.0 0.796875)" xlink:href="#STIXGeneral-Italic-1d61e"/>
     <use transform="translate(92.0999908447 -12.7921875)scale(0.7)" xlink:href="#STIXGeneral-Regular-1d7e2"/>
    </g>
   </g>
   <g id="text_5">
    <!-- $V_0$ -->
    <defs>
     <path d=" M78.7969 66.2031 L33.7031 -1.09375 L31.0938 -1.09375 L19.5938 66.2031 L29.0938 66.2031 L36.7969 16.4062 L69.2031 66.2031 z " id="STIXGeneral-Italic-1d61d"/>
    </defs>
    <g transform="translate(17.9064566929 90.0062450787)scale(0.18 -0.18)">
     <use transform="translate(0.0 0.796875)" xlink:href="#STIXGeneral-Italic-1d61d"/>
     <use transform="translate(65.3999938965 -12.7921875)scale(0.7)" xlink:href="#STIXGeneral-Regular-1d7e2"/>
    </g>
   </g>
  </g>
 </g>
 </svg>
