<svg xmlns="http://www.w3.org/2000/svg" xmlns:xlink="http://www.w3.org/1999/xlink" height="226pt" version="1.1" viewBox="0 0 181 226" width="181pt">
 <defs>
  <clipPath id="p4bc594ec32">
   <rect height="226.771653543" width="181.417322835" x="0.0" y="0.0"/>
  </clipPath>
 </defs>
<defs>
  <style type="text/css">
*{stroke-linecap:butt;stroke-linejoin:round;}
  </style>
 </defs>
 <g id="figure_1">
  <g id="patch_1">
   <path d=" M0 226.772 L181.417 226.772 L181.417 0 L0 0 z " style="fill:#ffffff;"/>
  </g>
  <g id="axes_1">
   <g id="patch_2">
    <path clip-path="url(#p4bc594ec32)" d=" M79.3701 28.3465 L76.5354 30.4724 L76.5354 28.3465 L45.3543 28.3465 L45.3543 28.3465 L76.5354 28.3465 L76.5354 26.2205 z " style="fill:none;stroke:#000000;"/>
   </g>
   <g id="patch_3">
    <path clip-path="url(#p4bc594ec32)" d=" M83.3121 74.1512 L79.7735 73.9697 L81.1345 72.3365 L41.4123 39.2346 L41.4123 39.2346 L81.1345 72.3365 L82.4955 70.7033 z " style="fill:none;stroke:#000000;"/>
   </g>
   <g id="patch_4">
    <path clip-path="url(#p4bc594ec32)" d=" M90.0614 182.634 L87.0347 180.791 L89.0086 180.002 L34.663 44.1379 L34.663 44.1379 L89.0086 180.002 L90.9826 179.212 z " style="fill:none;stroke:#000000;"/>
   </g>
   <g id="patch_5">
    <path clip-path="url(#p4bc594ec32)" d=" M79.3701 85.0394 L76.5354 87.1654 L76.5354 85.0394 L45.3543 85.0394 L45.3543 85.0394 L76.5354 85.0394 L76.5354 82.9134 z " style="fill:none;stroke:#000000;"/>
   </g>
   <g id="patch_6">
    <path clip-path="url(#p4bc594ec32)" d=" M83.3121 130.844 L79.7735 130.663 L81.1345 129.029 L41.4123 95.9275 L41.4123 95.9275 L81.1345 129.029 L82.4955 127.396 z " style="fill:none;stroke:#000000;"/>
   </g>
   <g id="patch_7">
    <path clip-path="url(#p4bc594ec32)" d=" M79.3701 141.732 L76.5354 143.858 L76.5354 141.732 L45.3543 141.732 L45.3543 141.732 L76.5354 141.732 L76.5354 139.606 z " style="fill:none;stroke:#000000;"/>
   </g>
   <g id="patch_8">
    <path clip-path="url(#p4bc594ec32)" d=" M79.3701 198.425 L76.5354 200.551 L76.5354 198.425 L45.3543 198.425 L45.3543 198.425 L76.5354 198.425 L76.5354 196.299 z " style="fill:none;stroke:#000000;"/>
   </g>
   <g id="patch_9">
    <path clip-path="url(#p4bc594ec32)" d=" M137.859 162.473 L134.372 163.106 L135.323 161.205 L111.59 149.338 L111.59 149.338 L135.323 161.205 L136.274 159.303 z " style="fill:none;stroke:#000000;"/>
   </g>
   <g id="patch_10">
    <path clip-path="url(#p4bc594ec32)" d=" M137.859 177.685 L136.274 180.854 L135.323 178.953 L111.59 190.819 L111.59 190.819 L135.323 178.953 L134.372 177.051 z " style="fill:none;stroke:#000000;"/>
   </g>
   <g id="patch_11">
    <path clip-path="url(#p4bc594ec32)" d=" M28.3465 102.047 L30.4724 104.882 L28.3465 104.882 L28.3465 124.724 L28.3465 124.724 L28.3465 104.882 L26.2205 104.882 z " style="fill:none;stroke:#000000;"/>
   </g>
   <g id="patch_12">
    <path clip-path="url(#p4bc594ec32)" d=" M49.2964 159.191 L45.7577 159.009 L47.1188 157.376 L41.4123 152.62 L41.4123 152.62 L47.1188 157.376 L48.4798 155.743 z " style="fill:none;stroke:#000000;"/>
   </g>
   <g id="patch_13">
    <path clip-path="url(#p4bc594ec32)" d=" M49.2964 180.967 L48.4798 184.415 L47.1188 182.782 L41.4123 187.537 L41.4123 187.537 L47.1188 182.782 L45.7577 181.148 z " style="fill:none;stroke:#000000;"/>
   </g>
   <g id="patch_14">
    <path clip-path="url(#p4bc594ec32)" d=" M28.3465 215.433 C32.857 215.433 37.1834 213.641 40.3728 210.452 C43.5623 207.262 45.3543 202.936 45.3543 198.425 C45.3543 193.915 43.5623 189.588 40.3728 186.399 C37.1834 183.209 32.857 181.417 28.3465 181.417 C23.8359 181.417 19.5095 183.209 16.3201 186.399 C13.1306 189.588 11.3386 193.915 11.3386 198.425 C11.3386 202.936 13.1306 207.262 16.3201 210.452 C19.5095 213.641 23.8359 215.433 28.3465 215.433 z " style="fill:none;stroke:#000000;"/>
   </g>
   <g id="patch_15">
    <path clip-path="url(#p4bc594ec32)" d=" M28.3465 158.74 C32.857 158.74 37.1834 156.948 40.3728 153.759 C43.5623 150.569 45.3543 146.243 45.3543 141.732 C45.3543 137.222 43.5623 132.895 40.3728 129.706 C37.1834 126.516 32.857 124.724 28.3465 124.724 C23.8359 124.724 19.5095 126.516 16.3201 129.706 C13.1306 132.895 11.3386 137.222 11.3386 141.732 C11.3386 146.243 13.1306 150.569 16.3201 153.759 C19.5095 156.948 23.8359 158.74 28.3465 158.74 z " style="fill:none;stroke:#000000;"/>
   </g>
   <g id="patch_16">
    <path clip-path="url(#p4bc594ec32)" d=" M62.3622 187.087 C66.8727 187.087 71.1992 185.295 74.3886 182.105 C77.578 178.916 79.3701 174.589 79.3701 170.079 C79.3701 165.568 77.578 161.242 74.3886 158.052 C71.1992 154.863 66.8727 153.071 62.3622 153.071 C57.8517 153.071 53.5253 154.863 50.3358 158.052 C47.1464 161.242 45.3543 165.568 45.3543 170.079 C45.3543 174.589 47.1464 178.916 50.3358 182.105 C53.5253 185.295 57.8517 187.087 62.3622 187.087 z " style="fill:none;stroke:#000000;"/>
   </g>
   <g id="patch_17">
    <path clip-path="url(#p4bc594ec32)" d=" M96.378 215.433 C100.888 215.433 105.215 213.641 108.404 210.452 C111.594 207.262 113.386 202.936 113.386 198.425 C113.386 193.915 111.594 189.588 108.404 186.399 C105.215 183.209 100.888 181.417 96.378 181.417 C91.8674 181.417 87.541 183.209 84.3516 186.399 C81.1621 189.588 79.3701 193.915 79.3701 198.425 C79.3701 202.936 81.1621 207.262 84.3516 210.452 C87.541 213.641 91.8674 215.433 96.378 215.433 z " style="fill:none;stroke:#000000;"/>
   </g>
   <g id="patch_18">
    <path clip-path="url(#p4bc594ec32)" d=" M153.071 187.087 C157.581 187.087 161.908 185.295 165.097 182.105 C168.287 178.916 170.079 174.589 170.079 170.079 C170.079 165.568 168.287 161.242 165.097 158.052 C161.908 154.863 157.581 153.071 153.071 153.071 C148.56 153.071 144.234 154.863 141.044 158.052 C137.855 161.242 136.063 165.568 136.063 170.079 C136.063 174.589 137.855 178.916 141.044 182.105 C144.234 185.295 148.56 187.087 153.071 187.087 z " style="fill:none;stroke:#000000;"/>
   </g>
   <g id="patch_19">
    <path clip-path="url(#p4bc594ec32)" d=" M28.3465 45.3543 C32.857 45.3543 37.1834 43.5623 40.3728 40.3728 C43.5623 37.1834 45.3543 32.857 45.3543 28.3465 C45.3543 23.8359 43.5623 19.5095 40.3728 16.3201 C37.1834 13.1306 32.857 11.3386 28.3465 11.3386 C23.8359 11.3386 19.5095 13.1306 16.3201 16.3201 C13.1306 19.5095 11.3386 23.8359 11.3386 28.3465 C11.3386 32.857 13.1306 37.1834 16.3201 40.3728 C19.5095 43.5623 23.8359 45.3543 28.3465 45.3543 z " style="fill:none;stroke:#000000;"/>
   </g>
   <g id="patch_20">
    <path clip-path="url(#p4bc594ec32)" d=" M28.3465 102.047 C32.857 102.047 37.1834 100.255 40.3728 97.0658 C43.5623 93.8763 45.3543 89.5499 45.3543 85.0394 C45.3543 80.5288 43.5623 76.2024 40.3728 73.013 C37.1834 69.8236 32.857 68.0315 28.3465 68.0315 C23.8359 68.0315 19.5095 69.8236 16.3201 73.013 C13.1306 76.2024 11.3386 80.5288 11.3386 85.0394 C11.3386 89.5499 13.1306 93.8763 16.3201 97.0658 C19.5095 100.255 23.8359 102.047 28.3465 102.047 z " style="fill:none;stroke:#000000;"/>
   </g>
   <g id="patch_21">
    <path clip-path="url(#p4bc594ec32)" d=" M96.378 45.3543 C100.888 45.3543 105.215 43.5623 108.404 40.3728 C111.594 37.1834 113.386 32.857 113.386 28.3465 C113.386 23.8359 111.594 19.5095 108.404 16.3201 C105.215 13.1306 100.888 11.3386 96.378 11.3386 C91.8674 11.3386 87.541 13.1306 84.3516 16.3201 C81.1621 19.5095 79.3701 23.8359 79.3701 28.3465 C79.3701 32.857 81.1621 37.1834 84.3516 40.3728 C87.541 43.5623 91.8674 45.3543 96.378 45.3543 z " style="fill:none;stroke:#000000;"/>
   </g>
   <g id="patch_22">
    <path clip-path="url(#p4bc594ec32)" d=" M96.378 158.74 C100.888 158.74 105.215 156.948 108.404 153.759 C111.594 150.569 113.386 146.243 113.386 141.732 C113.386 137.222 111.594 132.895 108.404 129.706 C105.215 126.516 100.888 124.724 96.378 124.724 C91.8674 124.724 87.541 126.516 84.3516 129.706 C81.1621 132.895 79.3701 137.222 79.3701 141.732 C79.3701 146.243 81.1621 150.569 84.3516 153.759 C87.541 156.948 91.8674 158.74 96.378 158.74 z " style="fill:none;stroke:#000000;"/>
   </g>
   <g id="patch_23">
    <path clip-path="url(#p4bc594ec32)" d=" M96.378 102.047 C100.888 102.047 105.215 100.255 108.404 97.0658 C111.594 93.8763 113.386 89.5499 113.386 85.0394 C113.386 80.5288 111.594 76.2024 108.404 73.013 C105.215 69.8236 100.888 68.0315 96.378 68.0315 C91.8674 68.0315 87.541 69.8236 84.3516 73.013 C81.1621 76.2024 79.3701 80.5288 79.3701 85.0394 C79.3701 89.5499 81.1621 93.8763 84.3516 97.0658 C87.541 100.255 91.8674 102.047 96.378 102.047 z " style="fill:none;stroke:#000000;"/>
   </g>
   <g id="matplotlib.axis_1"/>
   <g id="matplotlib.axis_2"/>
   <g id="text_1">
    <!-- $F_0$ -->
    <defs>
     <path d=" M67.9062 66.2031 L66.9062 58.7969 L30.7031 58.7969 L25.7031 38.5938 L55.2969 38.5938 L53.4062 31.0938 L23.7969 31.0938 L16.0938 0 L7.40625 0 L23.9062 66.2031 z " id="STIXGeneral-Italic-1d60d"/>
     <path d=" M47.7031 33 Q47.7031 23.7969 45.5469 16.3438 Q43.4062 8.90625 38.0938 3.75 Q32.7969 -1.40625 25 -1.40625 Q18.7969 -1.40625 14.25 1.6875 Q9.70312 4.79688 7.20312 10.0469 Q4.70312 15.2969 3.5 21.1406 Q2.29688 27 2.29688 33.5938 Q2.29688 42.9062 4.59375 50.3438 Q6.90625 57.7969 12.2969 62.6875 Q17.7031 67.5938 25.4062 67.5938 Q35.2031 67.5938 41.4531 57.9375 Q47.7031 48.2969 47.7031 33 M39.7969 33 Q39.7969 45.2031 35.75 52.8438 Q31.7031 60.5 25.2031 60.5 Q17.7969 60.5 14 52.75 Q10.2031 45 10.2031 33.4062 Q10.2031 28.2031 10.9531 23.5469 Q11.7031 18.9062 13.3438 14.75 Q15 10.5938 18 8.14062 Q21 5.70312 25 5.70312 Q30.0938 5.70312 33.5469 9.79688 Q37 13.9062 38.3906 19.8438 Q39.7969 25.7969 39.7969 33" id="STIXGeneral-Regular-1d7e2"/>
    </defs>
    <g transform="translate(18.9864566929 203.39207185)scale(0.18 -0.18)">
     <use transform="translate(0.0 0.796875)" xlink:href="#STIXGeneral-Italic-1d60d"/>
     <use transform="translate(53.4999847412 -12.7921875)scale(0.7)" xlink:href="#STIXGeneral-Regular-1d7e2"/>
    </g>
   </g>
   <g id="text_2">
    <!-- $L_0$ -->
    <defs>
     <path d=" M56.4062 7.40625 L52.7969 0 L7.40625 0 L23.9062 66.2031 L32.5938 66.2031 L17.9062 7.40625 z " id="STIXGeneral-Italic-1d613"/>
    </defs>
    <g transform="translate(18.8064566929 146.699158465)scale(0.18 -0.18)">
     <use transform="translate(0.0 0.796875)" xlink:href="#STIXGeneral-Italic-1d613"/>
     <use transform="translate(55.8999938965 -12.7921875)scale(0.7)" xlink:href="#STIXGeneral-Regular-1d7e2"/>
    </g>
   </g>
   <g id="text_3">
    <!-- $O_0$ -->
    <defs>
     <path d=" M77.9062 43 Q77.9062 30.7031 71.5469 20.2969 Q65.2031 9.90625 55.4531 4.25 Q45.7031 -1.40625 35.2969 -1.40625 Q23.7031 -1.40625 16.7969 5.25 Q9.90625 11.9062 9.90625 23.2031 Q9.90625 35.5938 16.25 46 Q22.5938 56.4062 32.2969 62 Q42 67.5938 52.5 67.5938 Q64.0938 67.5938 71 60.9375 Q77.9062 54.2969 77.9062 43 M68.9062 42.0938 Q68.9062 50.5938 64.1562 55.2969 Q59.4062 60 50.5938 60 Q39.5938 60 31.3906 52.75 Q23.2031 45.5 20.0938 33.0938 Q18.9062 28.2031 18.9062 24.0938 Q18.9062 15.5938 23.6562 10.8906 Q28.4062 6.20312 37.2031 6.20312 Q48.2031 6.20312 56.3906 13.4531 Q64.5938 20.7031 67.7031 33.0938 Q68.9062 38.0938 68.9062 42.0938" id="STIXGeneral-Italic-1d616"/>
    </defs>
    <g transform="translate(51.3822047244 175.045615157)scale(0.18 -0.18)">
     <use transform="translate(0.0 0.40625)" xlink:href="#STIXGeneral-Italic-1d616"/>
     <use transform="translate(71.3999938965 -13.1828125)scale(0.7)" xlink:href="#STIXGeneral-Regular-1d7e2"/>
    </g>
   </g>
   <g id="text_4">
    <!-- $F_1$ -->
    <defs>
     <path d=" M30.2031 0 L22.2969 0 L22.2969 57 Q20.0938 56 15.75 53.75 Q11.4062 51.5 10.7969 51.2031 L10.7969 58.5 L28.7969 67.7031 L30.2031 67.2031 z " id="STIXGeneral-Regular-1d7e3"/>
    </defs>
    <g transform="translate(87.0179527559 203.39207185)scale(0.18 -0.18)">
     <use transform="translate(0.0 0.796875)" xlink:href="#STIXGeneral-Italic-1d60d"/>
     <use transform="translate(53.4999847412 -12.7921875)scale(0.7)" xlink:href="#STIXGeneral-Regular-1d7e3"/>
    </g>
   </g>
   <g id="text_5">
    <!-- $O_1$ -->
    <g transform="translate(142.090866142 175.045615157)scale(0.18 -0.18)">
     <use transform="translate(0.0 0.40625)" xlink:href="#STIXGeneral-Italic-1d616"/>
     <use transform="translate(71.3999938965 -13.1828125)scale(0.7)" xlink:href="#STIXGeneral-Regular-1d7e3"/>
    </g>
   </g>
   <g id="text_6">
    <!-- $W_0$ -->
    <defs>
     <path d=" M105.703 66.2031 L66.0938 -1.09375 L63.2969 -1.09375 L56.5938 43.5 L28.2031 -1.09375 L25.4062 -1.09375 L19.4062 66.2031 L28.9062 66.2031 L32.2969 18.5938 L32.2969 18.7969 L62.4062 66.2031 L68.9062 18.5938 L68.9062 18.7969 L96.2031 66.2031 z " id="STIXGeneral-Italic-1d61e"/>
    </defs>
    <g transform="translate(15.4764566929 33.3133316929)scale(0.18 -0.18)">
     <use transform="translate(0.0 0.796875)" xlink:href="#STIXGeneral-Italic-1d61e"/>
     <use transform="translate(92.0999908447 -12.7921875)scale(0.7)" xlink:href="#STIXGeneral-Regular-1d7e2"/>
    </g>
   </g>
   <g id="text_7">
    <!-- $V_0$ -->
    <defs>
     <path d=" M78.7969 66.2031 L33.7031 -1.09375 L31.0938 -1.09375 L19.5938 66.2031 L29.0938 66.2031 L36.7969 16.4062 L69.2031 66.2031 z " id="STIXGeneral-Italic-1d61d"/>
    </defs>
    <g transform="translate(17.9064566929 90.0062450787)scale(0.18 -0.18)">
     <use transform="translate(0.0 0.796875)" xlink:href="#STIXGeneral-Italic-1d61d"/>
     <use transform="translate(65.3999938965 -12.7921875)scale(0.7)" xlink:href="#STIXGeneral-Regular-1d7e2"/>
    </g>
   </g>
   <g id="text_8">
    <!-- $W_1$ -->
    <g transform="translate(83.5079527559 33.3133316929)scale(0.18 -0.18)">
     <use transform="translate(0.0 0.796875)" xlink:href="#STIXGeneral-Italic-1d61e"/>
     <use transform="translate(92.0999908447 -12.7921875)scale(0.7)" xlink:href="#STIXGeneral-Regular-1d7e3"/>
    </g>
   </g>
   <g id="text_9">
    <!-- $L_1$ -->
    <g transform="translate(86.8379527559 146.699158465)scale(0.18 -0.18)">
     <use transform="translate(0.0 0.796875)" xlink:href="#STIXGeneral-Italic-1d613"/>
     <use transform="translate(55.8999938965 -12.7921875)scale(0.7)" xlink:href="#STIXGeneral-Regular-1d7e3"/>
    </g>
   </g>
   <g id="text_10">
    <!-- $V_1$ -->
    <g transform="translate(85.9379527559 90.0062450787)scale(0.18 -0.18)">
     <use transform="translate(0.0 0.796875)" xlink:href="#STIXGeneral-Italic-1d61d"/>
     <use transform="translate(65.3999938965 -12.7921875)scale(0.7)" xlink:href="#STIXGeneral-Regular-1d7e3"/>
    </g>
   </g>
  </g>
 </g>
 </svg>
