<svg xmlns="http://www.w3.org/2000/svg" xmlns:xlink="http://www.w3.org/1999/xlink" height="113pt" version="1.1" viewBox="0 0 141 113" width="141pt">
 <defs>
  <clipPath id="p16f9e740cd">
   <rect height="113.385826772" width="141.732283465" x="0.0" y="0.0"/>
  </clipPath>
 </defs>
<defs>
  <style type="text/css">
*{stroke-linecap:butt;stroke-linejoin:round;}
  </style>
 </defs>
 <g id="figure_1">
  <g id="patch_1">
   <path d=" M0 113.386 L141.732 113.386 L141.732 0 L0 0 z " style="fill:#ffffff;"/>
  </g>
  <g id="axes_1">
   <g id="patch_2">
    <path clip-path="url(#p16f9e740cd)" d=" M74.8346 60.0945 L71.4331 59.1024 L73.1339 57.8268 L61.2283 41.9528 L61.2283 41.9528 L73.1339 57.8268 L74.8346 56.5512 z " style="fill:none;stroke:#000000;"/>
   </g>
   <g id="patch_3">
    <path clip-path="url(#p16f9e740cd)" d=" M108.85 41.9528 L108.85 45.4961 L107.15 44.2205 L95.2441 60.0945 L95.2441 60.0945 L107.15 44.2205 L105.449 42.9449 z " style="fill:none;stroke:#000000;"/>
   </g>
   <g id="patch_4">
    <path clip-path="url(#p16f9e740cd)" d=" M119.055 45.3543 C123.566 45.3543 127.892 43.5623 131.082 40.3728 C134.271 37.1834 136.063 32.857 136.063 28.3465 C136.063 23.8359 134.271 19.5095 131.082 16.3201 C127.892 13.1306 123.566 11.3386 119.055 11.3386 C114.545 11.3386 110.218 13.1306 107.029 16.3201 C103.839 19.5095 102.047 23.8359 102.047 28.3465 C102.047 32.857 103.839 37.1834 107.029 40.3728 C110.218 43.5623 114.545 45.3543 119.055 45.3543 z " style="fill:none;stroke:#000000;"/>
   </g>
   <g id="patch_5">
    <path clip-path="url(#p16f9e740cd)" d=" M51.0236 45.3543 C55.5342 45.3543 59.8606 43.5623 63.05 40.3728 C66.2394 37.1834 68.0315 32.857 68.0315 28.3465 C68.0315 23.8359 66.2394 19.5095 63.05 16.3201 C59.8606 13.1306 55.5342 11.3386 51.0236 11.3386 C46.5131 11.3386 42.1867 13.1306 38.9972 16.3201 C35.8078 19.5095 34.0157 23.8359 34.0157 28.3465 C34.0157 32.857 35.8078 37.1834 38.9972 40.3728 C42.1867 43.5623 46.5131 45.3543 51.0236 45.3543 z " style="fill:none;stroke:#000000;"/>
   </g>
   <g id="patch_6">
    <path clip-path="url(#p16f9e740cd)" d=" M85.0394 90.7087 C89.5499 90.7087 93.8763 88.9166 97.0658 85.7272 C100.255 82.5377 102.047 78.2113 102.047 73.7008 C102.047 69.1902 100.255 64.8638 97.0658 61.6744 C93.8763 58.485 89.5499 56.6929 85.0394 56.6929 C80.5288 56.6929 76.2024 58.485 73.013 61.6744 C69.8236 64.8638 68.0315 69.1902 68.0315 73.7008 C68.0315 78.2113 69.8236 82.5377 73.013 85.7272 C76.2024 88.9166 80.5288 90.7087 85.0394 90.7087 z " style="fill:none;stroke:#000000;"/>
   </g>
   <g id="matplotlib.axis_1"/>
   <g id="matplotlib.axis_2"/>
   <g id="text_1">
    <!-- Y -->
    <defs>
     <path d=" M-0.203125 72.9062 L10.4062 72.9062 L30.6094 42.9219 L50.6875 72.9062 L61.2812 72.9062 L35.5 34.7188 L35.5 0 L25.5938 0 L25.5938 34.7188 z " id="BitstreamVeraSans-Roman-59"/>
    </defs>
    <g transform="translate(113.52152436 33.3133316929)scale(0.18 -0.18)">
     <use xlink:href="#BitstreamVeraSans-Roman-59"/>
    </g>
   </g>
   <g id="text_2">
    <!-- X -->
    <defs>
     <path d=" M6.29688 72.9062 L16.8906 72.9062 L35.0156 45.7969 L53.2188 72.9062 L63.8125 72.9062 L40.375 37.8906 L65.375 0 L54.7812 0 L34.2812 31 L13.625 0 L2.98438 0 L29 38.9219 z " id="BitstreamVeraSans-Roman-58"/>
    </defs>
    <g transform="translate(45.4084657972 33.3133316929)scale(0.18 -0.18)">
     <use xlink:href="#BitstreamVeraSans-Roman-58"/>
    </g>
   </g>
   <g id="text_3">
    <!-- Z -->
    <defs>
     <path d=" M5.60938 72.9062 L62.8906 72.9062 L62.8906 65.375 L16.7969 8.29688 L64.0156 8.29688 L64.0156 0 L4.5 0 L4.5 7.51562 L50.5938 64.5938 L5.60938 64.5938 z " id="BitstreamVeraSans-Roman-5a"/>
    </defs>
    <g transform="translate(79.6829638287 78.6676624016)scale(0.18 -0.18)">
     <use xlink:href="#BitstreamVeraSans-Roman-5a"/>
    </g>
   </g>
  </g>
 </g>
 </svg>
