<svg xmlns="http://www.w3.org/2000/svg" xmlns:xlink="http://www.w3.org/1999/xlink" height="226pt" version="1.1" viewBox="0 0 170 226" width="170pt">
 <defs>
  <clipPath id="pab6092e9d3">
   <rect height="226.771653543" width="170.078740157" x="0.0" y="0.0"/>
  </clipPath>
 </defs>
<defs>
  <style type="text/css">
*{stroke-linecap:butt;stroke-linejoin:round;}
  </style>
 </defs>
 <g id="figure_1">
  <g id="patch_1">
   <path d=" M0 226.772 L170.079 226.772 L170.079 0 L0 0 z " style="fill:#ffffff;"/>
  </g>
  <g id="axes_1">
   <g id="patch_2">
    <path clip-path="url(#pab6092e9d3)" d=" M51.0236 68.0315 L48.8976 65.1969 L51.0236 65.1969 L51.0236 45.3543 L51.0236 45.3543 L51.0236 65.1969 L53.1496 65.1969 z " style="fill:none;stroke:#000000;"/>
   </g>
   <g id="patch_3">
    <path clip-path="url(#pab6092e9d3)" d=" M76.2889 127.148 L73.0075 125.811 L74.8305 124.717 L59.7741 99.6235 L59.7741 99.6235 L74.8305 124.717 L76.6535 123.624 z " style="fill:none;stroke:#000000;"/>
   </g>
   <g id="patch_4">
    <path clip-path="url(#pab6092e9d3)" d=" M93.7898 127.148 L93.4252 123.624 L95.2483 124.717 L110.305 99.6235 L110.305 99.6235 L95.2483 124.717 L97.0713 125.811 z " style="fill:none;stroke:#000000;"/>
   </g>
   <g id="patch_5">
    <path clip-path="url(#pab6092e9d3)" d=" M85.0394 181.417 L82.9134 178.583 L85.0394 178.583 L85.0394 158.74 L85.0394 158.74 L85.0394 178.583 L87.1654 178.583 z " style="fill:none;stroke:#000000;"/>
   </g>
   <g id="patch_6">
    <path clip-path="url(#pab6092e9d3)" d=" M51.0236 45.3543 C55.5342 45.3543 59.8606 43.5623 63.05 40.3728 C66.2394 37.1834 68.0315 32.857 68.0315 28.3465 C68.0315 23.8359 66.2394 19.5095 63.05 16.3201 C59.8606 13.1306 55.5342 11.3386 51.0236 11.3386 C46.5131 11.3386 42.1867 13.1306 38.9972 16.3201 C35.8078 19.5095 34.0157 23.8359 34.0157 28.3465 C34.0157 32.857 35.8078 37.1834 38.9972 40.3728 C42.1867 43.5623 46.5131 45.3543 51.0236 45.3543 z " style="fill:none;stroke:#000000;"/>
   </g>
   <g id="patch_7">
    <path clip-path="url(#pab6092e9d3)" d=" M85.0394 158.74 C89.5499 158.74 93.8763 156.948 97.0658 153.759 C100.255 150.569 102.047 146.243 102.047 141.732 C102.047 137.222 100.255 132.895 97.0658 129.706 C93.8763 126.516 89.5499 124.724 85.0394 124.724 C80.5288 124.724 76.2024 126.516 73.013 129.706 C69.8236 132.895 68.0315 137.222 68.0315 141.732 C68.0315 146.243 69.8236 150.569 73.013 153.759 C76.2024 156.948 80.5288 158.74 85.0394 158.74 z " style="fill:none;stroke:#000000;"/>
   </g>
   <g id="patch_8">
    <path clip-path="url(#pab6092e9d3)" d=" M51.0236 102.047 C55.5342 102.047 59.8606 100.255 63.05 97.0658 C66.2394 93.8763 68.0315 89.5499 68.0315 85.0394 C68.0315 80.5288 66.2394 76.2024 63.05 73.013 C59.8606 69.8236 55.5342 68.0315 51.0236 68.0315 C46.5131 68.0315 42.1867 69.8236 38.9972 73.013 C35.8078 76.2024 34.0157 80.5288 34.0157 85.0394 C34.0157 89.5499 35.8078 93.8763 38.9972 97.0658 C42.1867 100.255 46.5131 102.047 51.0236 102.047 z " style="fill:none;stroke:#000000;"/>
   </g>
   <g id="patch_9">
    <path clip-path="url(#pab6092e9d3)" d=" M85.0394 215.433 C89.5499 215.433 93.8763 213.641 97.0658 210.452 C100.255 207.262 102.047 202.936 102.047 198.425 C102.047 193.915 100.255 189.588 97.0658 186.399 C93.8763 183.209 89.5499 181.417 85.0394 181.417 C80.5288 181.417 76.2024 183.209 73.013 186.399 C69.8236 189.588 68.0315 193.915 68.0315 198.425 C68.0315 202.936 69.8236 207.262 73.013 210.452 C76.2024 213.641 80.5288 215.433 85.0394 215.433 z " style="fill:none;stroke:#000000;"/>
   </g>
   <g id="patch_10">
    <path clip-path="url(#pab6092e9d3)" d=" M119.055 102.047 C123.566 102.047 127.892 100.255 131.082 97.0658 C134.271 93.8763 136.063 89.5499 136.063 85.0394 C136.063 80.5288 134.271 76.2024 131.082 73.013 C127.892 69.8236 123.566 68.0315 119.055 68.0315 C114.545 68.0315 110.218 69.8236 107.029 73.013 C103.839 76.2024 102.047 80.5288 102.047 85.0394 C102.047 89.5499 103.839 93.8763 107.029 97.0658 C110.218 100.255 114.545 102.047 119.055 102.047 z " style="fill:none;stroke:#000000;"/>
   </g>
   <g id="matplotlib.axis_1"/>
   <g id="matplotlib.axis_2"/>
   <g id="text_1">
    <!-- A -->
    <defs>
     <path d=" M34.1875 63.1875 L20.7969 26.9062 L47.6094 26.9062 z  M28.6094 72.9062 L39.7969 72.9062 L67.5781 0 L57.3281 0 L50.6875 18.7031 L17.8281 18.7031 L11.1875 0 L0.78125 0 z " id="BitstreamVeraSans-Roman-41"/>
    </defs>
    <g transform="translate(45.0119032972 33.3133316929)scale(0.18 -0.18)">
     <use xlink:href="#BitstreamVeraSans-Roman-41"/>
    </g>
   </g>
   <g id="text_2">
    <!-- C -->
    <defs>
     <path d=" M64.4062 67.2812 L64.4062 56.8906 Q59.4219 61.5312 53.7812 63.8125 Q48.1406 66.1094 41.7969 66.1094 Q29.2969 66.1094 22.6562 58.4688 Q16.0156 50.8281 16.0156 36.375 Q16.0156 21.9688 22.6562 14.3281 Q29.2969 6.6875 41.7969 6.6875 Q48.1406 6.6875 53.7812 8.98438 Q59.4219 11.2812 64.4062 15.9219 L64.4062 5.60938 Q59.2344 2.09375 53.4375 0.328125 Q47.6562 -1.42188 41.2188 -1.42188 Q24.6562 -1.42188 15.125 8.70312 Q5.60938 18.8438 5.60938 36.375 Q5.60938 53.9531 15.125 64.0781 Q24.6562 74.2188 41.2188 74.2188 Q47.75 74.2188 53.5312 72.4844 Q59.3281 70.75 64.4062 67.2812" id="BitstreamVeraSans-Roman-43"/>
    </defs>
    <g transform="translate(79.7476513287 146.699158465)scale(0.18 -0.18)">
     <use xlink:href="#BitstreamVeraSans-Roman-43"/>
    </g>
   </g>
   <g id="text_3">
    <!-- B -->
    <defs>
     <path d=" M19.6719 34.8125 L19.6719 8.10938 L35.5 8.10938 Q43.4531 8.10938 47.2812 11.4062 Q51.125 14.7031 51.125 21.4844 Q51.125 28.3281 47.2812 31.5625 Q43.4531 34.8125 35.5 34.8125 z  M19.6719 64.7969 L19.6719 42.8281 L34.2812 42.8281 Q41.5 42.8281 45.0312 45.5312 Q48.5781 48.25 48.5781 53.8125 Q48.5781 59.3281 45.0312 62.0625 Q41.5 64.7969 34.2812 64.7969 z  M9.8125 72.9062 L35.0156 72.9062 Q46.2969 72.9062 52.3906 68.2188 Q58.5 63.5312 58.5 54.8906 Q58.5 48.1875 55.375 44.2344 Q52.25 40.2812 46.1875 39.3125 Q53.4688 37.75 57.5 32.7812 Q61.5312 27.8281 61.5312 20.4062 Q61.5312 10.6406 54.8906 5.3125 Q48.25 0 35.9844 0 L9.8125 0 z " id="BitstreamVeraSans-Roman-42"/>
    </defs>
    <g transform="translate(46.3689345472 90.0062450787)scale(0.18 -0.18)">
     <use xlink:href="#BitstreamVeraSans-Roman-42"/>
    </g>
   </g>
   <g id="text_4">
    <!-- E -->
    <defs>
     <path d=" M9.8125 72.9062 L55.9062 72.9062 L55.9062 64.5938 L19.6719 64.5938 L19.6719 43.0156 L54.3906 43.0156 L54.3906 34.7188 L19.6719 34.7188 L19.6719 8.29688 L56.7812 8.29688 L56.7812 0 L9.8125 0 z " id="BitstreamVeraSans-Roman-45"/>
    </defs>
    <g transform="translate(80.8121825787 203.39207185)scale(0.18 -0.18)">
     <use xlink:href="#BitstreamVeraSans-Roman-45"/>
    </g>
   </g>
   <g id="text_5">
    <!-- D -->
    <defs>
     <path d=" M19.6719 64.7969 L19.6719 8.10938 L31.5938 8.10938 Q46.6875 8.10938 53.6875 14.9375 Q60.6875 21.7812 60.6875 36.5312 Q60.6875 51.1719 53.6875 57.9844 Q46.6875 64.7969 31.5938 64.7969 z  M9.8125 72.9062 L30.0781 72.9062 Q51.2656 72.9062 61.1719 64.0938 Q71.0938 55.2812 71.0938 36.5312 Q71.0938 17.6719 61.125 8.82812 Q51.1719 0 30.0781 0 L9.8125 0 z " id="BitstreamVeraSans-Roman-44"/>
    </defs>
    <g transform="translate(113.53980561 90.0062450787)scale(0.18 -0.18)">
     <use xlink:href="#BitstreamVeraSans-Roman-44"/>
    </g>
   </g>
  </g>
 </g>
 </svg>
