<svg xmlns="http://www.w3.org/2000/svg" xmlns:xlink="http://www.w3.org/1999/xlink" height="170pt" version="1.1" viewBox="0 0 170 170" width="170pt">
 <defs>
  <clipPath id="p25160f1fff">
   <rect height="170.078740157" width="170.078740157" x="0.0" y="0.0"/>
  </clipPath>
 </defs>
<defs>
  <style type="text/css">
*{stroke-linecap:butt;stroke-linejoin:round;}
  </style>
 </defs>
 <g id="figure_1">
  <g id="patch_1">
   <path d=" M0 170.079 L170.079 170.079 L170.079 0 L0 0 z " style="fill:#ffffff;"/>
  </g>
  <g id="axes_1">
   <g id="patch_2">
    <path clip-path="url(#p25160f1fff)" d=" M73.013 101.359 L69.5053 100.858 L71.0086 99.355 L40.3728 68.7193 L40.3728 68.7193 L71.0086 99.355 L72.5119 97.8517 z " style="fill:none;stroke:#000000;"/>
   </g>
   <g id="patch_3">
    <path clip-path="url(#p25160f1fff)" d=" M115.971 94.0535 L114.694 97.3587 L113.567 95.5559 L99.462 104.372 L99.462 104.372 L113.567 95.5559 L112.441 93.7531 z " style="fill:none;stroke:#000000;"/>
   </g>
   <g id="patch_4">
    <path clip-path="url(#p25160f1fff)" d=" M99.462 65.7071 L102.993 65.4066 L101.866 67.2094 L115.971 76.0252 L115.971 76.0252 L101.866 67.2094 L100.739 69.0123 z " style="fill:none;stroke:#000000;"/>
   </g>
   <g id="patch_5">
    <path clip-path="url(#p25160f1fff)" d=" M28.3465 73.7008 C32.857 73.7008 37.1834 71.9087 40.3728 68.7193 C43.5623 65.5299 45.3543 61.2035 45.3543 56.6929 C45.3543 52.1824 43.5623 47.856 40.3728 44.6665 C37.1834 41.4771 32.857 39.685 28.3465 39.685 C23.8359 39.685 19.5095 41.4771 16.3201 44.6665 C13.1306 47.856 11.3386 52.1824 11.3386 56.6929 C11.3386 61.2035 13.1306 65.5299 16.3201 68.7193 C19.5095 71.9087 23.8359 73.7008 28.3465 73.7008 z " style="fill:none;stroke:#000000;"/>
   </g>
   <g id="patch_6">
    <path clip-path="url(#p25160f1fff)" d=" M85.0394 130.394 C89.5499 130.394 93.8763 128.602 97.0658 125.412 C100.255 122.223 102.047 117.896 102.047 113.386 C102.047 108.875 100.255 104.549 97.0658 101.359 C93.8763 98.17 89.5499 96.378 85.0394 96.378 C80.5288 96.378 76.2024 98.17 73.013 101.359 C69.8236 104.549 68.0315 108.875 68.0315 113.386 C68.0315 117.896 69.8236 122.223 73.013 125.412 C76.2024 128.602 80.5288 130.394 85.0394 130.394 z " style="fill:none;stroke:#000000;"/>
   </g>
   <g id="patch_7">
    <path clip-path="url(#p25160f1fff)" d=" M85.0394 73.7008 C89.5499 73.7008 93.8763 71.9087 97.0658 68.7193 C100.255 65.5299 102.047 61.2035 102.047 56.6929 C102.047 52.1824 100.255 47.856 97.0658 44.6665 C93.8763 41.4771 89.5499 39.685 85.0394 39.685 C80.5288 39.685 76.2024 41.4771 73.013 44.6665 C69.8236 47.856 68.0315 52.1824 68.0315 56.6929 C68.0315 61.2035 69.8236 65.5299 73.013 68.7193 C76.2024 71.9087 80.5288 73.7008 85.0394 73.7008 z " style="fill:none;stroke:#000000;"/>
   </g>
   <g id="patch_8">
    <path clip-path="url(#p25160f1fff)" d=" M130.394 102.047 C134.904 102.047 139.231 100.255 142.42 97.0658 C145.61 93.8763 147.402 89.5499 147.402 85.0394 C147.402 80.5288 145.61 76.2024 142.42 73.013 C139.231 69.8236 134.904 68.0315 130.394 68.0315 C125.883 68.0315 121.557 69.8236 118.367 73.013 C115.178 76.2024 113.386 80.5288 113.386 85.0394 C113.386 89.5499 115.178 93.8763 118.367 97.0658 C121.557 100.255 125.883 102.047 130.394 102.047 z " style="fill:none;stroke:#000000;"/>
   </g>
   <g id="patch_9">
    <path clip-path="url(#p25160f1fff)" d=" M28.3465 130.394 C32.857 130.394 37.1834 128.602 40.3728 125.412 C43.5623 122.223 45.3543 117.896 45.3543 113.386 C45.3543 108.875 43.5623 104.549 40.3728 101.359 C37.1834 98.17 32.857 96.378 28.3465 96.378 C23.8359 96.378 19.5095 98.17 16.3201 101.359 C13.1306 104.549 11.3386 108.875 11.3386 113.386 C11.3386 117.896 13.1306 122.223 16.3201 125.412 C19.5095 128.602 23.8359 130.394 28.3465 130.394 z " style="fill:none;stroke:#000000;"/>
   </g>
   <g id="matplotlib.axis_1"/>
   <g id="matplotlib.axis_2"/>
   <g id="text_1">
    <!-- A -->
    <defs>
     <path d=" M34.1875 63.1875 L20.7969 26.9062 L47.6094 26.9062 z  M28.6094 72.9062 L39.7969 72.9062 L67.5781 0 L57.3281 0 L50.6875 18.7031 L17.8281 18.7031 L11.1875 0 L0.78125 0 z " id="BitstreamVeraSans-Roman-41"/>
    </defs>
    <g transform="translate(22.3347379429 61.6597883858)scale(0.18 -0.18)">
     <use xlink:href="#BitstreamVeraSans-Roman-41"/>
    </g>
   </g>
   <g id="text_2">
    <!-- C -->
    <defs>
     <path d=" M64.4062 67.2812 L64.4062 56.8906 Q59.4219 61.5312 53.7812 63.8125 Q48.1406 66.1094 41.7969 66.1094 Q29.2969 66.1094 22.6562 58.4688 Q16.0156 50.8281 16.0156 36.375 Q16.0156 21.9688 22.6562 14.3281 Q29.2969 6.6875 41.7969 6.6875 Q48.1406 6.6875 53.7812 8.98438 Q59.4219 11.2812 64.4062 15.9219 L64.4062 5.60938 Q59.2344 2.09375 53.4375 0.328125 Q47.6562 -1.42188 41.2188 -1.42188 Q24.6562 -1.42188 15.125 8.70312 Q5.60938 18.8438 5.60938 36.375 Q5.60938 53.9531 15.125 64.0781 Q24.6562 74.2188 41.2188 74.2188 Q47.75 74.2188 53.5312 72.4844 Q59.3281 70.75 64.4062 67.2812" id="BitstreamVeraSans-Roman-43"/>
    </defs>
    <g transform="translate(79.7476513287 118.352701772)scale(0.18 -0.18)">
     <use xlink:href="#BitstreamVeraSans-Roman-43"/>
    </g>
   </g>
   <g id="text_3">
    <!-- B -->
    <defs>
     <path d=" M19.6719 34.8125 L19.6719 8.10938 L35.5 8.10938 Q43.4531 8.10938 47.2812 11.4062 Q51.125 14.7031 51.125 21.4844 Q51.125 28.3281 47.2812 31.5625 Q43.4531 34.8125 35.5 34.8125 z  M19.6719 64.7969 L19.6719 42.8281 L34.2812 42.8281 Q41.5 42.8281 45.0312 45.5312 Q48.5781 48.25 48.5781 53.8125 Q48.5781 59.3281 45.0312 62.0625 Q41.5 64.7969 34.2812 64.7969 z  M9.8125 72.9062 L35.0156 72.9062 Q46.2969 72.9062 52.3906 68.2188 Q58.5 63.5312 58.5 54.8906 Q58.5 48.1875 55.375 44.2344 Q52.25 40.2812 46.1875 39.3125 Q53.4688 37.75 57.5 32.7812 Q61.5312 27.8281 61.5312 20.4062 Q61.5312 10.6406 54.8906 5.3125 Q48.25 0 35.9844 0 L9.8125 0 z " id="BitstreamVeraSans-Roman-42"/>
    </defs>
    <g transform="translate(80.3846825787 61.6597883858)scale(0.18 -0.18)">
     <use xlink:href="#BitstreamVeraSans-Roman-42"/>
    </g>
   </g>
   <g id="text_4">
    <!-- E -->
    <defs>
     <path d=" M9.8125 72.9062 L55.9062 72.9062 L55.9062 64.5938 L19.6719 64.5938 L19.6719 43.0156 L54.3906 43.0156 L54.3906 34.7188 L19.6719 34.7188 L19.6719 8.29688 L56.7812 8.29688 L56.7812 0 L9.8125 0 z " id="BitstreamVeraSans-Roman-45"/>
    </defs>
    <g transform="translate(126.166513287 90.0062450787)scale(0.18 -0.18)">
     <use xlink:href="#BitstreamVeraSans-Roman-45"/>
    </g>
   </g>
   <g id="text_5">
    <!-- D -->
    <defs>
     <path d=" M19.6719 64.7969 L19.6719 8.10938 L31.5938 8.10938 Q46.6875 8.10938 53.6875 14.9375 Q60.6875 21.7812 60.6875 36.5312 Q60.6875 51.1719 53.6875 57.9844 Q46.6875 64.7969 31.5938 64.7969 z  M9.8125 72.9062 L30.0781 72.9062 Q51.2656 72.9062 61.1719 64.0938 Q71.0938 55.2812 71.0938 36.5312 Q71.0938 17.6719 61.125 8.82812 Q51.1719 0 30.0781 0 L9.8125 0 z " id="BitstreamVeraSans-Roman-44"/>
    </defs>
    <g transform="translate(22.8311441929 118.352701772)scale(0.18 -0.18)">
     <use xlink:href="#BitstreamVeraSans-Roman-44"/>
    </g>
   </g>
  </g>
 </g>
 </svg>
