<svg xmlns="http://www.w3.org/2000/svg" xmlns:xlink="http://www.w3.org/1999/xlink" height="113pt" version="1.1" viewBox="0 0 226 113" width="226pt">
 <defs>
  <clipPath id="p2a0f34ee3a">
   <rect height="113.385826772" width="226.771653543" x="0.0" y="0.0"/>
  </clipPath>
 </defs>
<defs>
  <style type="text/css">
*{stroke-linecap:butt;stroke-linejoin:round;}
  </style>
 </defs>
 <g id="figure_1">
  <g id="patch_1">
   <path d=" M0 113.386 L226.772 113.386 L226.772 0 L0 0 z " style="fill:#ffffff;"/>
  </g>
  <g id="axes_1">
   <g id="patch_2">
    <path clip-path="url(#p2a0f34ee3a)" d=" M70.6167 47.6788 L67.0862 47.9792 L68.2129 46.1764 L54.1077 37.3606 L54.1077 37.3606 L68.2129 46.1764 L69.3397 44.3736 z " style="fill:none;stroke:#000000;"/>
   </g>
   <g id="patch_3">
    <path clip-path="url(#p2a0f34ee3a)" d=" M99.462 47.6788 L100.739 44.3736 L101.866 46.1764 L115.971 37.3606 L115.971 37.3606 L101.866 46.1764 L102.993 47.9792 z " style="fill:none;stroke:#000000;"/>
   </g>
   <g id="patch_4">
    <path clip-path="url(#p2a0f34ee3a)" d=" M161.325 47.6788 L157.795 47.9792 L158.922 46.1764 L144.816 37.3606 L144.816 37.3606 L158.922 46.1764 L160.048 44.3736 z " style="fill:none;stroke:#000000;"/>
   </g>
   <g id="patch_5">
    <path clip-path="url(#p2a0f34ee3a)" d=" M85.0394 73.7008 C89.5499 73.7008 93.8763 71.9087 97.0658 68.7193 C100.255 65.5299 102.047 61.2035 102.047 56.6929 C102.047 52.1824 100.255 47.856 97.0658 44.6665 C93.8763 41.4771 89.5499 39.685 85.0394 39.685 C80.5288 39.685 76.2024 41.4771 73.013 44.6665 C69.8236 47.856 68.0315 52.1824 68.0315 56.6929 C68.0315 61.2035 69.8236 65.5299 73.013 68.7193 C76.2024 71.9087 80.5288 73.7008 85.0394 73.7008 z " style="fill:none;stroke:#000000;"/>
   </g>
   <g id="patch_6">
    <path clip-path="url(#p2a0f34ee3a)" d=" M175.748 73.7008 C180.259 73.7008 184.585 71.9087 187.774 68.7193 C190.964 65.5299 192.756 61.2035 192.756 56.6929 C192.756 52.1824 190.964 47.856 187.774 44.6665 C184.585 41.4771 180.259 39.685 175.748 39.685 C171.237 39.685 166.911 41.4771 163.722 44.6665 C160.532 47.856 158.74 52.1824 158.74 56.6929 C158.74 61.2035 160.532 65.5299 163.722 68.7193 C166.911 71.9087 171.237 73.7008 175.748 73.7008 z " style="fill:none;stroke:#000000;"/>
   </g>
   <g id="patch_7">
    <path clip-path="url(#p2a0f34ee3a)" d=" M39.685 45.3543 C44.1956 45.3543 48.522 43.5623 51.7114 40.3728 C54.9009 37.1834 56.6929 32.857 56.6929 28.3465 C56.6929 23.8359 54.9009 19.5095 51.7114 16.3201 C48.522 13.1306 44.1956 11.3386 39.685 11.3386 C35.1745 11.3386 30.8481 13.1306 27.6587 16.3201 C24.4692 19.5095 22.6772 23.8359 22.6772 28.3465 C22.6772 32.857 24.4692 37.1834 27.6587 40.3728 C30.8481 43.5623 35.1745 45.3543 39.685 45.3543 z " style="fill:none;stroke:#000000;"/>
   </g>
   <g id="patch_8">
    <path clip-path="url(#p2a0f34ee3a)" d=" M130.394 45.3543 C134.904 45.3543 139.231 43.5623 142.42 40.3728 C145.61 37.1834 147.402 32.857 147.402 28.3465 C147.402 23.8359 145.61 19.5095 142.42 16.3201 C139.231 13.1306 134.904 11.3386 130.394 11.3386 C125.883 11.3386 121.557 13.1306 118.367 16.3201 C115.178 19.5095 113.386 23.8359 113.386 28.3465 C113.386 32.857 115.178 37.1834 118.367 40.3728 C121.557 43.5623 125.883 45.3543 130.394 45.3543 z " style="fill:none;stroke:#000000;"/>
   </g>
   <g id="matplotlib.axis_1"/>
   <g id="matplotlib.axis_2"/>
   <g id="text_1">
    <!-- A -->
    <defs>
     <path d=" M34.1875 63.1875 L20.7969 26.9062 L47.6094 26.9062 z  M28.6094 72.9062 L39.7969 72.9062 L67.5781 0 L57.3281 0 L50.6875 18.7031 L17.8281 18.7031 L11.1875 0 L0.78125 0 z " id="BitstreamVeraSans-Roman-41"/>
    </defs>
    <g transform="translate(79.0276513287 61.6597883858)scale(0.18 -0.18)">
     <use xlink:href="#BitstreamVeraSans-Roman-41"/>
    </g>
   </g>
   <g id="text_2">
    <!-- R -->
    <defs>
     <path d=" M44.3906 34.1875 Q47.5625 33.1094 50.5625 29.5938 Q53.5625 26.0781 56.5938 19.9219 L66.6094 0 L56 0 L46.6875 18.7031 Q43.0625 26.0312 39.6719 28.4219 Q36.2812 30.8125 30.4219 30.8125 L19.6719 30.8125 L19.6719 0 L9.8125 0 L9.8125 72.9062 L32.0781 72.9062 Q44.5781 72.9062 50.7344 67.6719 Q56.8906 62.4531 56.8906 51.9062 Q56.8906 45.0156 53.6875 40.4688 Q50.4844 35.9375 44.3906 34.1875 M19.6719 64.7969 L19.6719 38.9219 L32.0781 38.9219 Q39.2031 38.9219 42.8438 42.2188 Q46.4844 45.5156 46.4844 51.9062 Q46.4844 58.2969 42.8438 61.5469 Q39.2031 64.7969 32.0781 64.7969 z " id="BitstreamVeraSans-Roman-52"/>
    </defs>
    <g transform="translate(170.636312746 61.6597883858)scale(0.18 -0.18)">
     <use xlink:href="#BitstreamVeraSans-Roman-52"/>
    </g>
   </g>
   <g id="text_3">
    <!-- B -->
    <defs>
     <path d=" M19.6719 34.8125 L19.6719 8.10938 L35.5 8.10938 Q43.4531 8.10938 47.2812 11.4062 Q51.125 14.7031 51.125 21.4844 Q51.125 28.3281 47.2812 31.5625 Q43.4531 34.8125 35.5 34.8125 z  M19.6719 64.7969 L19.6719 42.8281 L34.2812 42.8281 Q41.5 42.8281 45.0312 45.5312 Q48.5781 48.25 48.5781 53.8125 Q48.5781 59.3281 45.0312 62.0625 Q41.5 64.7969 34.2812 64.7969 z  M9.8125 72.9062 L35.0156 72.9062 Q46.2969 72.9062 52.3906 68.2188 Q58.5 63.5312 58.5 54.8906 Q58.5 48.1875 55.375 44.2344 Q52.25 40.2812 46.1875 39.3125 Q53.4688 37.75 57.5 32.7812 Q61.5312 27.8281 61.5312 20.4062 Q61.5312 10.6406 54.8906 5.3125 Q48.25 0 35.9844 0 L9.8125 0 z " id="BitstreamVeraSans-Roman-42"/>
    </defs>
    <g transform="translate(35.0303518701 33.3133316929)scale(0.18 -0.18)">
     <use xlink:href="#BitstreamVeraSans-Roman-42"/>
    </g>
   </g>
   <g id="text_4">
    <!-- E -->
    <defs>
     <path d=" M9.8125 72.9062 L55.9062 72.9062 L55.9062 64.5938 L19.6719 64.5938 L19.6719 43.0156 L54.3906 43.0156 L54.3906 34.7188 L19.6719 34.7188 L19.6719 8.29688 L56.7812 8.29688 L56.7812 0 L9.8125 0 z " id="BitstreamVeraSans-Roman-45"/>
    </defs>
    <g transform="translate(126.166513287 33.3133316929)scale(0.18 -0.18)">
     <use xlink:href="#BitstreamVeraSans-Roman-45"/>
    </g>
   </g>
  </g>
 </g>
 </svg>
