<svg xmlns="http://www.w3.org/2000/svg" xmlns:xlink="http://www.w3.org/1999/xlink" height="226pt" version="1.1" viewBox="0 0 453 226" width="453pt">
 <defs>
  <clipPath id="p0172f2dbe8">
   <rect height="226.771653543" width="453.543307087" x="0.0" y="0.0"/>
  </clipPath>
 </defs>
<defs>
  <style type="text/css">
*{stroke-linecap:butt;stroke-linejoin:round;}
  </style>
 </defs>
 <g id="figure_1">
  <g id="patch_1">
   <path d=" M0 226.772 L453.543 226.772 L453.543 0 L0 0 z " style="fill:#ffffff;"/>
  </g>
  <g id="axes_1">
   <g id="patch_2">
    <path clip-path="url(#p0172f2dbe8)" d=" M28.3465 73.7008 C32.857 73.7008 37.1834 71.9087 40.3728 68.7193 C43.5623 65.5299 45.3543 61.2035 45.3543 56.6929 C45.3543 52.1824 43.5623 47.856 40.3728 44.6665 C37.1834 41.4771 32.857 39.685 28.3465 39.685 C23.8359 39.685 19.5095 41.4771 16.3201 44.6665 C13.1306 47.856 11.3386 52.1824 11.3386 56.6929 C11.3386 61.2035 13.1306 65.5299 16.3201 68.7193 C19.5095 71.9087 23.8359 73.7008 28.3465 73.7008 z " style="fill:none;stroke:#000000;"/>
   </g>
   <g id="patch_3">
    <path clip-path="url(#p0172f2dbe8)" d=" M141.732 73.7008 C146.243 73.7008 150.569 71.9087 153.759 68.7193 C156.948 65.5299 158.74 61.2035 158.74 56.6929 C158.74 52.1824 156.948 47.856 153.759 44.6665 C150.569 41.4771 146.243 39.685 141.732 39.685 C137.222 39.685 132.895 41.4771 129.706 44.6665 C126.516 47.856 124.724 52.1824 124.724 56.6929 C124.724 61.2035 126.516 65.5299 129.706 68.7193 C132.895 71.9087 137.222 73.7008 141.732 73.7008 z " style="fill:none;stroke:#000000;"/>
   </g>
   <g id="patch_4">
    <path clip-path="url(#p0172f2dbe8)" d=" M85.0394 73.7008 C89.5499 73.7008 93.8763 71.9087 97.0658 68.7193 C100.255 65.5299 102.047 61.2035 102.047 56.6929 C102.047 52.1824 100.255 47.856 97.0658 44.6665 C93.8763 41.4771 89.5499 39.685 85.0394 39.685 C80.5288 39.685 76.2024 41.4771 73.013 44.6665 C69.8236 47.856 68.0315 52.1824 68.0315 56.6929 C68.0315 61.2035 69.8236 65.5299 73.013 68.7193 C76.2024 71.9087 80.5288 73.7008 85.0394 73.7008 z " style="fill:none;stroke:#000000;"/>
   </g>
   <g id="patch_5">
    <path clip-path="url(#p0172f2dbe8)" d=" M85.0394 130.394 C89.5499 130.394 93.8763 128.602 97.0658 125.412 C100.255 122.223 102.047 117.896 102.047 113.386 C102.047 108.875 100.255 104.549 97.0658 101.359 C93.8763 98.17 89.5499 96.378 85.0394 96.378 C80.5288 96.378 76.2024 98.17 73.013 101.359 C69.8236 104.549 68.0315 108.875 68.0315 113.386 C68.0315 117.896 69.8236 122.223 73.013 125.412 C76.2024 128.602 80.5288 130.394 85.0394 130.394 z " style="fill:none;stroke:#000000;"/>
   </g>
   <g id="patch_6">
    <path clip-path="url(#p0172f2dbe8)" d=" M28.3465 130.394 C32.857 130.394 37.1834 128.602 40.3728 125.412 C43.5623 122.223 45.3543 117.896 45.3543 113.386 C45.3543 108.875 43.5623 104.549 40.3728 101.359 C37.1834 98.17 32.857 96.378 28.3465 96.378 C23.8359 96.378 19.5095 98.17 16.3201 101.359 C13.1306 104.549 11.3386 108.875 11.3386 113.386 C11.3386 117.896 13.1306 122.223 16.3201 125.412 C19.5095 128.602 23.8359 130.394 28.3465 130.394 z " style="fill:none;stroke:#000000;"/>
   </g>
   <g id="patch_7">
    <path clip-path="url(#p0172f2dbe8)" d=" M28.3465 187.087 C32.857 187.087 37.1834 185.295 40.3728 182.105 C43.5623 178.916 45.3543 174.589 45.3543 170.079 C45.3543 165.568 43.5623 161.242 40.3728 158.052 C37.1834 154.863 32.857 153.071 28.3465 153.071 C23.8359 153.071 19.5095 154.863 16.3201 158.052 C13.1306 161.242 11.3386 165.568 11.3386 170.079 C11.3386 174.589 13.1306 178.916 16.3201 182.105 C19.5095 185.295 23.8359 187.087 28.3465 187.087 z " style="fill:none;stroke:#000000;"/>
   </g>
   <g id="patch_8">
    <path clip-path="url(#p0172f2dbe8)" d=" M141.732 130.394 C146.243 130.394 150.569 128.602 153.759 125.412 C156.948 122.223 158.74 117.896 158.74 113.386 C158.74 108.875 156.948 104.549 153.759 101.359 C150.569 98.17 146.243 96.378 141.732 96.378 C137.222 96.378 132.895 98.17 129.706 101.359 C126.516 104.549 124.724 108.875 124.724 113.386 C124.724 117.896 126.516 122.223 129.706 125.412 C132.895 128.602 137.222 130.394 141.732 130.394 z " style="fill:none;stroke:#000000;"/>
   </g>
   <g id="patch_9">
    <path clip-path="url(#p0172f2dbe8)" d=" M141.732 187.087 C146.243 187.087 150.569 185.295 153.759 182.105 C156.948 178.916 158.74 174.589 158.74 170.079 C158.74 165.568 156.948 161.242 153.759 158.052 C150.569 154.863 146.243 153.071 141.732 153.071 C137.222 153.071 132.895 154.863 129.706 158.052 C126.516 161.242 124.724 165.568 124.724 170.079 C124.724 174.589 126.516 178.916 129.706 182.105 C132.895 185.295 137.222 187.087 141.732 187.087 z " style="fill:none;stroke:#000000;"/>
   </g>
   <g id="patch_10">
    <path clip-path="url(#p0172f2dbe8)" d=" M85.0394 187.087 C89.5499 187.087 93.8763 185.295 97.0658 182.105 C100.255 178.916 102.047 174.589 102.047 170.079 C102.047 165.568 100.255 161.242 97.0658 158.052 C93.8763 154.863 89.5499 153.071 85.0394 153.071 C80.5288 153.071 76.2024 154.863 73.013 158.052 C69.8236 161.242 68.0315 165.568 68.0315 170.079 C68.0315 174.589 69.8236 178.916 73.013 182.105 C76.2024 185.295 80.5288 187.087 85.0394 187.087 z " style="fill:none;stroke:#000000;"/>
   </g>
   <g id="patch_11">
    <path clip-path="url(#p0172f2dbe8)" d=" M340.157 187.087 C344.668 187.087 348.994 185.295 352.184 182.105 C355.373 178.916 357.165 174.589 357.165 170.079 C357.165 165.568 355.373 161.242 352.184 158.052 C348.994 154.863 344.668 153.071 340.157 153.071 C335.647 153.071 331.321 154.863 328.131 158.052 C324.942 161.242 323.15 165.568 323.15 170.079 C323.15 174.589 324.942 178.916 328.131 182.105 C331.321 185.295 335.647 187.087 340.157 187.087 z " style="fill:none;stroke:#000000;"/>
   </g>
   <g id="patch_12">
    <path clip-path="url(#p0172f2dbe8)" d=" M340.157 130.394 C344.668 130.394 348.994 128.602 352.184 125.412 C355.373 122.223 357.165 117.896 357.165 113.386 C357.165 108.875 355.373 104.549 352.184 101.359 C348.994 98.17 344.668 96.378 340.157 96.378 C335.647 96.378 331.321 98.17 328.131 101.359 C324.942 104.549 323.15 108.875 323.15 113.386 C323.15 117.896 324.942 122.223 328.131 125.412 C331.321 128.602 335.647 130.394 340.157 130.394 z " style="fill:none;stroke:#000000;"/>
   </g>
   <g id="patch_13">
    <path clip-path="url(#p0172f2dbe8)" d=" M283.465 187.087 C287.975 187.087 292.302 185.295 295.491 182.105 C298.68 178.916 300.472 174.589 300.472 170.079 C300.472 165.568 298.68 161.242 295.491 158.052 C292.302 154.863 287.975 153.071 283.465 153.071 C278.954 153.071 274.628 154.863 271.438 158.052 C268.249 161.242 266.457 165.568 266.457 170.079 C266.457 174.589 268.249 178.916 271.438 182.105 C274.628 185.295 278.954 187.087 283.465 187.087 z " style="fill:none;stroke:#000000;"/>
   </g>
   <g id="patch_14">
    <path clip-path="url(#p0172f2dbe8)" d=" M226.772 73.7008 C231.282 73.7008 235.609 71.9087 238.798 68.7193 C241.987 65.5299 243.78 61.2035 243.78 56.6929 C243.78 52.1824 241.987 47.856 238.798 44.6665 C235.609 41.4771 231.282 39.685 226.772 39.685 C222.261 39.685 217.935 41.4771 214.745 44.6665 C211.556 47.856 209.764 52.1824 209.764 56.6929 C209.764 61.2035 211.556 65.5299 214.745 68.7193 C217.935 71.9087 222.261 73.7008 226.772 73.7008 z " style="fill:none;stroke:#000000;"/>
   </g>
   <g id="patch_15">
    <path clip-path="url(#p0172f2dbe8)" d=" M283.465 73.7008 C287.975 73.7008 292.302 71.9087 295.491 68.7193 C298.68 65.5299 300.472 61.2035 300.472 56.6929 C300.472 52.1824 298.68 47.856 295.491 44.6665 C292.302 41.4771 287.975 39.685 283.465 39.685 C278.954 39.685 274.628 41.4771 271.438 44.6665 C268.249 47.856 266.457 52.1824 266.457 56.6929 C266.457 61.2035 268.249 65.5299 271.438 68.7193 C274.628 71.9087 278.954 73.7008 283.465 73.7008 z " style="fill:none;stroke:#000000;"/>
   </g>
   <g id="patch_16">
    <path clip-path="url(#p0172f2dbe8)" d=" M340.157 73.7008 C344.668 73.7008 348.994 71.9087 352.184 68.7193 C355.373 65.5299 357.165 61.2035 357.165 56.6929 C357.165 52.1824 355.373 47.856 352.184 44.6665 C348.994 41.4771 344.668 39.685 340.157 39.685 C335.647 39.685 331.321 41.4771 328.131 44.6665 C324.942 47.856 323.15 52.1824 323.15 56.6929 C323.15 61.2035 324.942 65.5299 328.131 68.7193 C331.321 71.9087 335.647 73.7008 340.157 73.7008 z " style="fill:none;stroke:#000000;"/>
   </g>
   <g id="patch_17">
    <path clip-path="url(#p0172f2dbe8)" d=" M226.772 130.394 C231.282 130.394 235.609 128.602 238.798 125.412 C241.987 122.223 243.78 117.896 243.78 113.386 C243.78 108.875 241.987 104.549 238.798 101.359 C235.609 98.17 231.282 96.378 226.772 96.378 C222.261 96.378 217.935 98.17 214.745 101.359 C211.556 104.549 209.764 108.875 209.764 113.386 C209.764 117.896 211.556 122.223 214.745 125.412 C217.935 128.602 222.261 130.394 226.772 130.394 z " style="fill:none;stroke:#000000;"/>
   </g>
   <g id="patch_18">
    <path clip-path="url(#p0172f2dbe8)" d=" M226.772 187.087 C231.282 187.087 235.609 185.295 238.798 182.105 C241.987 178.916 243.78 174.589 243.78 170.079 C243.78 165.568 241.987 161.242 238.798 158.052 C235.609 154.863 231.282 153.071 226.772 153.071 C222.261 153.071 217.935 154.863 214.745 158.052 C211.556 161.242 209.764 165.568 209.764 170.079 C209.764 174.589 211.556 178.916 214.745 182.105 C217.935 185.295 222.261 187.087 226.772 187.087 z " style="fill:none;stroke:#000000;"/>
   </g>
   <g id="patch_19">
    <path clip-path="url(#p0172f2dbe8)" d=" M283.465 130.394 C287.975 130.394 292.302 128.602 295.491 125.412 C298.68 122.223 300.472 117.896 300.472 113.386 C300.472 108.875 298.68 104.549 295.491 101.359 C292.302 98.17 287.975 96.378 283.465 96.378 C278.954 96.378 274.628 98.17 271.438 101.359 C268.249 104.549 266.457 108.875 266.457 113.386 C266.457 117.896 268.249 122.223 271.438 125.412 C274.628 128.602 278.954 130.394 283.465 130.394 z " style="fill:none;stroke:#000000;"/>
   </g>
   <g id="line2d_1">
    <path clip-path="url(#p0172f2dbe8)" d=" M45.3543 56.6929 L68.0315 56.6929" style="fill:none;stroke:#000000;stroke-linecap:square;"/>
   </g>
   <g id="line2d_2">
    <path clip-path="url(#p0172f2dbe8)" d=" M102.047 56.6929 L124.724 56.6929" style="fill:none;stroke:#000000;stroke-linecap:square;"/>
   </g>
   <g id="line2d_3">
    <path clip-path="url(#p0172f2dbe8)" d=" M28.3465 73.7008 L28.3465 96.378" style="fill:none;stroke:#000000;stroke-linecap:square;"/>
   </g>
   <g id="line2d_4">
    <path clip-path="url(#p0172f2dbe8)" d=" M85.0394 73.7008 L85.0394 96.378" style="fill:none;stroke:#000000;stroke-linecap:square;"/>
   </g>
   <g id="line2d_5">
    <path clip-path="url(#p0172f2dbe8)" d=" M141.732 73.7008 L141.732 96.378" style="fill:none;stroke:#000000;stroke-linecap:square;"/>
   </g>
   <g id="line2d_6">
    <path clip-path="url(#p0172f2dbe8)" d=" M45.3543 113.386 L68.0315 113.386" style="fill:none;stroke:#000000;stroke-linecap:square;"/>
   </g>
   <g id="line2d_7">
    <path clip-path="url(#p0172f2dbe8)" d=" M102.047 113.386 L124.724 113.386" style="fill:none;stroke:#000000;stroke-linecap:square;"/>
   </g>
   <g id="line2d_8">
    <path clip-path="url(#p0172f2dbe8)" d=" M28.3465 130.394 L28.3465 153.071" style="fill:none;stroke:#000000;stroke-linecap:square;"/>
   </g>
   <g id="line2d_9">
    <path clip-path="url(#p0172f2dbe8)" d=" M85.0394 130.394 L85.0394 153.071" style="fill:none;stroke:#000000;stroke-linecap:square;"/>
   </g>
   <g id="line2d_10">
    <path clip-path="url(#p0172f2dbe8)" d=" M141.732 130.394 L141.732 153.071" style="fill:none;stroke:#000000;stroke-linecap:square;"/>
   </g>
   <g id="line2d_11">
    <path clip-path="url(#p0172f2dbe8)" d=" M45.3543 170.079 L68.0315 170.079" style="fill:none;stroke:#000000;stroke-linecap:square;"/>
   </g>
   <g id="line2d_12">
    <path clip-path="url(#p0172f2dbe8)" d=" M102.047 170.079 L124.724 170.079" style="fill:none;stroke:#000000;stroke-linecap:square;"/>
   </g>
   <g id="line2d_13">
    <path clip-path="url(#p0172f2dbe8)" d=" M243.78 56.6929 L266.457 56.6929" style="fill:none;stroke:#000000;stroke-linecap:square;"/>
   </g>
   <g id="line2d_14">
    <path clip-path="url(#p0172f2dbe8)" d=" M300.472 56.6929 L323.15 56.6929" style="fill:none;stroke:#000000;stroke-linecap:square;"/>
   </g>
   <g id="line2d_15">
    <path clip-path="url(#p0172f2dbe8)" d=" M283.465 73.7008 L283.465 96.378" style="fill:none;stroke:#000000;stroke-linecap:square;"/>
   </g>
   <g id="line2d_16">
    <path clip-path="url(#p0172f2dbe8)" d=" M243.78 113.386 L266.457 113.386" style="fill:none;stroke:#000000;stroke-linecap:square;"/>
   </g>
   <g id="line2d_17">
    <path clip-path="url(#p0172f2dbe8)" d=" M226.772 130.394 L226.772 153.071" style="fill:none;stroke:#000000;stroke-linecap:square;"/>
   </g>
   <g id="line2d_18">
    <path clip-path="url(#p0172f2dbe8)" d=" M243.78 170.079 L266.457 170.079" style="fill:none;stroke:#000000;stroke-linecap:square;"/>
   </g>
   <g id="line2d_19">
    <path clip-path="url(#p0172f2dbe8)" d=" M300.472 170.079 L323.15 170.079" style="fill:none;stroke:#000000;stroke-linecap:square;"/>
   </g>
   <g id="line2d_20">
    <path clip-path="url(#p0172f2dbe8)" d=" M340.157 153.071 L340.157 130.394" style="fill:none;stroke:#000000;stroke-linecap:square;"/>
   </g>
   <g id="matplotlib.axis_1"/>
   <g id="matplotlib.axis_2"/>
   <g id="text_1">
    <!-- A -->
    <defs>
     <path d=" M34.1875 63.1875 L20.7969 26.9062 L47.6094 26.9062 z  M28.6094 72.9062 L39.7969 72.9062 L67.5781 0 L57.3281 0 L50.6875 18.7031 L17.8281 18.7031 L11.1875 0 L0.78125 0 z " id="BitstreamVeraSans-Roman-41"/>
    </defs>
    <g transform="translate(22.3347379429 61.6597883858)scale(0.18 -0.18)">
     <use xlink:href="#BitstreamVeraSans-Roman-41"/>
    </g>
   </g>
   <g id="text_2">
    <!-- C -->
    <defs>
     <path d=" M64.4062 67.2812 L64.4062 56.8906 Q59.4219 61.5312 53.7812 63.8125 Q48.1406 66.1094 41.7969 66.1094 Q29.2969 66.1094 22.6562 58.4688 Q16.0156 50.8281 16.0156 36.375 Q16.0156 21.9688 22.6562 14.3281 Q29.2969 6.6875 41.7969 6.6875 Q48.1406 6.6875 53.7812 8.98438 Q59.4219 11.2812 64.4062 15.9219 L64.4062 5.60938 Q59.2344 2.09375 53.4375 0.328125 Q47.6562 -1.42188 41.2188 -1.42188 Q24.6562 -1.42188 15.125 8.70312 Q5.60938 18.8438 5.60938 36.375 Q5.60938 53.9531 15.125 64.0781 Q24.6562 74.2188 41.2188 74.2188 Q47.75 74.2188 53.5312 72.4844 Q59.3281 70.75 64.4062 67.2812" id="BitstreamVeraSans-Roman-43"/>
    </defs>
    <g transform="translate(136.440564715 61.6597883858)scale(0.18 -0.18)">
     <use xlink:href="#BitstreamVeraSans-Roman-43"/>
    </g>
   </g>
   <g id="text_3">
    <!-- B -->
    <defs>
     <path d=" M19.6719 34.8125 L19.6719 8.10938 L35.5 8.10938 Q43.4531 8.10938 47.2812 11.4062 Q51.125 14.7031 51.125 21.4844 Q51.125 28.3281 47.2812 31.5625 Q43.4531 34.8125 35.5 34.8125 z  M19.6719 64.7969 L19.6719 42.8281 L34.2812 42.8281 Q41.5 42.8281 45.0312 45.5312 Q48.5781 48.25 48.5781 53.8125 Q48.5781 59.3281 45.0312 62.0625 Q41.5 64.7969 34.2812 64.7969 z  M9.8125 72.9062 L35.0156 72.9062 Q46.2969 72.9062 52.3906 68.2188 Q58.5 63.5312 58.5 54.8906 Q58.5 48.1875 55.375 44.2344 Q52.25 40.2812 46.1875 39.3125 Q53.4688 37.75 57.5 32.7812 Q61.5312 27.8281 61.5312 20.4062 Q61.5312 10.6406 54.8906 5.3125 Q48.25 0 35.9844 0 L9.8125 0 z " id="BitstreamVeraSans-Roman-42"/>
    </defs>
    <g transform="translate(80.3846825787 61.6597883858)scale(0.18 -0.18)">
     <use xlink:href="#BitstreamVeraSans-Roman-42"/>
    </g>
   </g>
   <g id="text_4">
    <!-- E -->
    <defs>
     <path d=" M9.8125 72.9062 L55.9062 72.9062 L55.9062 64.5938 L19.6719 64.5938 L19.6719 43.0156 L54.3906 43.0156 L54.3906 34.7188 L19.6719 34.7188 L19.6719 8.29688 L56.7812 8.29688 L56.7812 0 L9.8125 0 z " id="BitstreamVeraSans-Roman-45"/>
    </defs>
    <g transform="translate(80.8121825787 118.352701772)scale(0.18 -0.18)">
     <use xlink:href="#BitstreamVeraSans-Roman-45"/>
    </g>
   </g>
   <g id="text_5">
    <!-- D -->
    <defs>
     <path d=" M19.6719 64.7969 L19.6719 8.10938 L31.5938 8.10938 Q46.6875 8.10938 53.6875 14.9375 Q60.6875 21.7812 60.6875 36.5312 Q60.6875 51.1719 53.6875 57.9844 Q46.6875 64.7969 31.5938 64.7969 z  M9.8125 72.9062 L30.0781 72.9062 Q51.2656 72.9062 61.1719 64.0938 Q71.0938 55.2812 71.0938 36.5312 Q71.0938 17.6719 61.125 8.82812 Q51.1719 0 30.0781 0 L9.8125 0 z " id="BitstreamVeraSans-Roman-44"/>
    </defs>
    <g transform="translate(22.8311441929 118.352701772)scale(0.18 -0.18)">
     <use xlink:href="#BitstreamVeraSans-Roman-44"/>
    </g>
   </g>
   <g id="text_6">
    <!-- G -->
    <defs>
     <path d=" M59.5156 10.4062 L59.5156 29.9844 L43.4062 29.9844 L43.4062 38.0938 L69.2812 38.0938 L69.2812 6.78125 Q63.5781 2.73438 56.6875 0.65625 Q49.8125 -1.42188 42 -1.42188 Q24.9062 -1.42188 15.25 8.5625 Q5.60938 18.5625 5.60938 36.375 Q5.60938 54.25 15.25 64.2344 Q24.9062 74.2188 42 74.2188 Q49.125 74.2188 55.5469 72.4531 Q61.9688 70.7031 67.3906 67.2812 L67.3906 56.7812 Q61.9219 61.4219 55.7656 63.7656 Q49.6094 66.1094 42.8281 66.1094 Q29.4375 66.1094 22.7188 58.6406 Q16.0156 51.1719 16.0156 36.375 Q16.0156 21.625 22.7188 14.1562 Q29.4375 6.6875 42.8281 6.6875 Q48.0469 6.6875 52.1406 7.59375 Q56.25 8.5 59.5156 10.4062" id="BitstreamVeraSans-Roman-47"/>
    </defs>
    <g transform="translate(22.6159879429 175.045615157)scale(0.18 -0.18)">
     <use xlink:href="#BitstreamVeraSans-Roman-47"/>
    </g>
   </g>
   <g id="text_7">
    <!-- F -->
    <defs>
     <path d=" M9.8125 72.9062 L51.7031 72.9062 L51.7031 64.5938 L19.6719 64.5938 L19.6719 43.1094 L48.5781 43.1094 L48.5781 34.8125 L19.6719 34.8125 L19.6719 0 L9.8125 0 z " id="BitstreamVeraSans-Roman-46"/>
    </defs>
    <g transform="translate(137.962127215 118.352701772)scale(0.18 -0.18)">
     <use xlink:href="#BitstreamVeraSans-Roman-46"/>
    </g>
   </g>
   <g id="text_8">
    <!-- I -->
    <defs>
     <path d=" M9.8125 72.9062 L19.6719 72.9062 L19.6719 0 L9.8125 0 z " id="BitstreamVeraSans-Roman-49"/>
    </defs>
    <g transform="translate(140.844939715 175.045615157)scale(0.18 -0.18)">
     <use xlink:href="#BitstreamVeraSans-Roman-49"/>
    </g>
   </g>
   <g id="text_9">
    <!-- H -->
    <defs>
     <path d=" M9.8125 72.9062 L19.6719 72.9062 L19.6719 43.0156 L55.5156 43.0156 L55.5156 72.9062 L65.375 72.9062 L65.375 0 L55.5156 0 L55.5156 34.7188 L19.6719 34.7188 L19.6719 0 L9.8125 0 z " id="BitstreamVeraSans-Roman-48"/>
    </defs>
    <g transform="translate(80.0387450787 175.045615157)scale(0.18 -0.18)">
     <use xlink:href="#BitstreamVeraSans-Roman-48"/>
    </g>
   </g>
   <g id="text_10">
    <!-- I -->
    <g transform="translate(339.270136565 175.045615157)scale(0.18 -0.18)">
     <use xlink:href="#BitstreamVeraSans-Roman-49"/>
    </g>
   </g>
   <g id="text_11">
    <!-- F -->
    <g transform="translate(336.387324065 118.352701772)scale(0.18 -0.18)">
     <use xlink:href="#BitstreamVeraSans-Roman-46"/>
    </g>
   </g>
   <g id="text_12">
    <!-- H -->
    <g transform="translate(278.463941929 175.045615157)scale(0.18 -0.18)">
     <use xlink:href="#BitstreamVeraSans-Roman-48"/>
    </g>
   </g>
   <g id="text_13">
    <!-- A -->
    <g transform="translate(220.759934793 61.6597883858)scale(0.18 -0.18)">
     <use xlink:href="#BitstreamVeraSans-Roman-41"/>
    </g>
   </g>
   <g id="text_14">
    <!-- B -->
    <g transform="translate(278.809879429 61.6597883858)scale(0.18 -0.18)">
     <use xlink:href="#BitstreamVeraSans-Roman-42"/>
    </g>
   </g>
   <g id="text_15">
    <!-- C -->
    <g transform="translate(334.865761565 61.6597883858)scale(0.18 -0.18)">
     <use xlink:href="#BitstreamVeraSans-Roman-43"/>
    </g>
   </g>
   <g id="text_16">
    <!-- D -->
    <g transform="translate(221.256341043 118.352701772)scale(0.18 -0.18)">
     <use xlink:href="#BitstreamVeraSans-Roman-44"/>
    </g>
   </g>
   <g id="text_17">
    <!-- G -->
    <g transform="translate(221.041184793 175.045615157)scale(0.18 -0.18)">
     <use xlink:href="#BitstreamVeraSans-Roman-47"/>
    </g>
   </g>
   <g id="text_18">
    <!-- E -->
    <g transform="translate(279.237379429 118.352701772)scale(0.18 -0.18)">
     <use xlink:href="#BitstreamVeraSans-Roman-45"/>
    </g>
   </g>
  </g>
 </g>
 </svg>
